<svg id="图层_1" data-name="图层 1" xmlns="http://www.w3.org/2000/svg" xmlns:xlink="http://www.w3.org/1999/xlink" viewBox="0 0 182.17 50.67"><defs><style>.cls-1{fill:url(#未命名的渐变_2);}.cls-2{fill:url(#未命名的渐变_2-2);}.cls-3{fill:url(#未命名的渐变_5);}.cls-4{fill:url(#未命名的渐变_5-2);}.cls-5{fill:#1a1a1a;}.cls-6{fill:url(#未命名的渐变_5-3);}</style><linearGradient id="未命名的渐变_2" x1="0.82" y1="52.33" x2="29.18" y2="19.35" gradientUnits="userSpaceOnUse"><stop offset="0" stop-color="#52daff"/><stop offset="1" stop-color="#0061ff"/></linearGradient><linearGradient id="未命名的渐变_2-2" x1="7.55" y1="21.21" x2="15.78" y2="29.07" xlink:href="#未命名的渐变_2"/><linearGradient id="未命名的渐变_5" x1="20.33" y1="11.07" x2="21.04" y2="18.18" xlink:href="#未命名的渐变_2"/><linearGradient id="未命名的渐变_5-2" x1="9.88" y1="19.9" x2="16.26" y2="33.88" xlink:href="#未命名的渐变_2"/><linearGradient id="未命名的渐变_5-3" x1="124.3" y1="31.32" x2="129.37" y2="34.37" gradientTransform="matrix(1, 0, -0.1, 1, -14.17, 0)" xlink:href="#未命名的渐变_2"/></defs><title>01</title><path class="cls-1" d="M27.78,37.21A10.83,10.83,0,0,1,19,42.48h-1.2a10.81,10.81,0,0,1-6.95-3A11.41,11.41,0,0,1,7.92,27.6a6.51,6.51,0,0,0,5,8.34,6.88,6.88,0,0,0,2.29,1.84,6.77,6.77,0,0,0,2.76.73,7.12,7.12,0,0,0,.8,0,6.93,6.93,0,0,0,5.6-3.37,7.39,7.39,0,0,0,.44-6.89l-3.18-7a8.51,8.51,0,0,0,2.1-5l1.81,4,2.88,6.38A11.34,11.34,0,0,1,27.78,37.21Z"/><path class="cls-2" d="M17.67,34.65a8.1,8.1,0,0,0,.71-3.34A8.22,8.22,0,0,0,14,24l-.18-.1,0,.06-.3.56C18.19,27.28,17.91,33.67,17.67,34.65Z"/><path class="cls-3" d="M22.72,15.56A7.5,7.5,0,0,1,21.89,19a6.88,6.88,0,0,1-.73,1.14l-1.83-4.06h0v0l-.15-.31v0l0,0a7.46,7.46,0,0,1-.59-2.92,7.37,7.37,0,0,1,.84-3.43,8.24,8.24,0,0,1,.54-.9l.18-.24.24.53L22,12.24l.21.48A7.45,7.45,0,0,1,22.72,15.56Z"/><path class="cls-4" d="M20.2,26.51l-1.81-3.24-.52-.94-1.81-3.25-1.58-2.84-.06-.11,0,.07L11.1,21.84l-.53.91-.18.33-2.2,3.79-.14.35c-.05.12-.09.25-.13.38a6.51,6.51,0,0,0,5,8.34,7.4,7.4,0,0,1-.55-.79,6.93,6.93,0,0,1-.89-2.64A10.47,10.47,0,0,1,12.73,26l1.07-2,0-.06L14,24a8.22,8.22,0,0,1,4.37,7.27,8.1,8.1,0,0,1-.71,3.34c0,.09-.09.31-.1.39A7.06,7.06,0,0,0,20.2,26.51Z"/><path class="cls-5" d="M36.85,20.88h3.71L40,28.17h7l.55-7.29h3.69L49.85,39.43H46.17l.61-8h-7l-.61,8H35.44Z"/><path class="cls-5" d="M55,31.08l.78-10.2h3.71l-.8,10.53c-.29,3.86.94,5.16,3.12,5.16s3.71-1.3,4-5.16l.8-10.53h3.56l-.77,10.2c-.48,6.17-3.3,8.7-7.84,8.7S54.48,37.25,55,31.08Z"/><path class="cls-5" d="M74.59,20.88H78.3L76.88,39.43H73.17Z"/><path class="cls-5" d="M82.86,20.88h3.71L86,28.17h7l.55-7.29h3.69L95.86,39.43H92.18l.61-8h-7l-.61,8H81.45Z"/><path class="cls-5" d="M110.38,20.88H106L98.66,39.43h3.76l1.67-4.76,1.73-4.92c.69-1.93,1.41-4,2-6.06h.1c.4,2,.74,4.13,1.17,6.06l1,4.92.94,4.76h3.89Z"/><path class="cls-5" d="M117.52,30.08c.46-6,4.11-9.55,9-9.55s8,3.53,7.57,9.55-4.13,9.7-9,9.7S117.06,36.1,117.52,30.08Zm12.81,0c.3-4-1.27-6.37-4-6.37s-4.69,2.38-5,6.37,1.26,6.49,4,6.49S130,34,130.33,30.08Z"/><path class="cls-6" d="M109.93,31.9a5.33,5.33,0,0,0-4.67,2.88h5.38a5.21,5.21,0,0,0,4.6-2.88h-5.31Z"/><path class="cls-5" d="M138.08,39.76h0l.45-5.85h2.08l-.29,3.77A2.28,2.28,0,0,1,138.08,39.76Z"/><path class="cls-5" d="M151.11,39.76h-7.93a.94.94,0,0,1-1-1l.36-4.81h2.09l-.29,3.77h4.81a1.9,1.9,0,0,1,1.92,2.08Z"/><path class="cls-5" d="M154.54,23.33H138.25l.16-2.09h14.2a1.92,1.92,0,0,1,1.93,2.09Z"/><polygon class="cls-5" points="146.78 31.92 144.69 31.92 145.56 20.55 147.65 20.55 146.78 31.92"/><path class="cls-5" d="M151.85,30.15h-12a.84.84,0,0,1-.83-.94l.31-4a1,1,0,0,1,1-.94h12a.85.85,0,0,1,.83.94l-.3,4A1,1,0,0,1,151.85,30.15Zm-10.92-1.88H151.1l.16-2.15H141.1Z"/><polygon class="cls-5" points="151.7 27.72 140.04 27.72 140.12 26.68 151.78 26.68 151.7 27.72"/><path class="cls-5" d="M160.19,39.18h0l.33-4.3h1.56l-.21,2.74A1.72,1.72,0,0,1,160.19,39.18Z"/><path class="cls-5" d="M164.58,33.51l-.33,4.34a2.15,2.15,0,0,1-2.16,1.91,12.11,12.11,0,0,0,.58-2.82l.27-3.43Z"/><path class="cls-5" d="M166.37,39.18h0a1.42,1.42,0,0,1-1.44-1.56l.21-2.74h1.56Z"/><path class="cls-5" d="M166.75,34.24h-5.14a1,1,0,0,1-1-1l.27-3.58h5.14a1,1,0,0,1,1,1Zm-4.5-1.56h3.05l.12-1.5h-3.06Z"/><path class="cls-5" d="M161.61,20.54l-.39,5.14a1,1,0,0,0,1,1h5.14l.39-5.14a1,1,0,0,0-1-1Zm4.5,1.56-.06.75H163l.05-.75Zm-3.29,3.06.06-.75h3.06l-.06.75Z"/><path class="cls-5" d="M167.13,29.14H161l.12-1.56h4.61a1.43,1.43,0,0,1,1.44,1.56Z"/><path class="cls-5" d="M165,27.76H163.4l.06-.74h.82a.67.67,0,0,1,.68.74Z"/><polygon class="cls-5" points="164.53 33.46 164.53 33.51 162.97 33.51 162.97 33.46 164.53 33.46"/><path class="cls-5" d="M157.87,20.54l.2,2.31a2.24,2.24,0,0,0,2.27,2.08h0L160,20.54Z"/><path class="cls-5" d="M157.51,26.51l.2,2.31A2.23,2.23,0,0,0,160,30.9h0l-.36-4.39Z"/><path class="cls-5" d="M154.19,39.76a1,1,0,0,1-.73-.32L150.75,36l-4.29,0,.18-2.08,4.73.05a1,1,0,0,1,.72.32l2.24,2.87,2.8-3.32a2.12,2.12,0,0,1,3-.3h0L155,39.38a1.11,1.11,0,0,1-.79.38Z"/><path class="cls-5" d="M151.63,30.66l0,.44H137.66l-.16,2.08h16.28l0-.18a2.14,2.14,0,0,0-2.17-2.34Z"/><path class="cls-5" d="M174.85,22.5h-6.46l.15-1.95h4.51a1.77,1.77,0,0,1,1.8,1.95Z"/><polygon class="cls-5" points="172.46 24.36 170.5 24.36 170.72 21.53 172.68 21.53 172.46 24.36"/><path class="cls-5" d="M172.12,32.65h0l.55-7.11h-2.56l-.39,5.16a2.14,2.14,0,0,1-2.1,1.95h0l.61-8.09a1.09,1.09,0,0,1,1.06-1h4.5a.9.9,0,0,1,.91,1l-.47,6.14A2.15,2.15,0,0,1,172.12,32.65Z"/><path class="cls-5" d="M169.86,37.83,171.69,33l.52-6.91h-1.72l-.5,6.56-2.92,7.11h0A3,3,0,0,0,169.86,37.83Z"/><path class="cls-5" d="M172.5,33l1.56,6.76h0a2.52,2.52,0,0,1-2.49-1.93L170.46,33Z"/></svg>