<svg width="155" height="28" viewBox="0 0 155 28" fill="none" xmlns="http://www.w3.org/2000/svg">
<g clip-path="url(#clip0)">
<path d="M75.5997 9.46444H64.0917L64.2597 9.21244L65.1557 7.95244H74.6757C75.0677 7.95244 75.3757 7.64444 75.3757 7.25244V1.84844C75.3757 1.45644 75.0677 1.14844 74.6757 1.14844H62.6637C62.2717 1.14844 61.9637 1.45644 61.9637 1.84844V7.28044C61.9637 7.67244 62.2717 7.98044 62.6637 7.98044H63.4197L60.2557 12.3484C60.1717 12.4604 60.2557 12.6284 60.3957 12.6284H61.7117C61.7677 12.6284 61.8237 12.6004 61.8517 12.5444L63.0557 10.8644H65.7997L61.0397 17.4164C60.9557 17.5284 61.0397 17.6964 61.1797 17.6964H62.4957C62.5517 17.6964 62.6077 17.6684 62.6357 17.6124L67.5637 10.8364H70.6437L65.8837 17.3884C65.7997 17.5004 65.8837 17.6684 66.0237 17.6684H67.3397C67.3957 17.6684 67.4517 17.6404 67.4797 17.5844L72.4077 10.8084H74.9277V15.9604C74.9277 16.1564 74.7597 16.3244 74.5637 16.3244H72.6317C72.5757 16.3244 72.5197 16.3524 72.4917 16.4084L71.7077 17.4724C71.6237 17.5844 71.7077 17.7524 71.8477 17.7524H74.5637C75.5437 17.7524 76.3277 16.9684 76.3277 15.9884V10.1644C76.2997 9.77244 75.9917 9.46444 75.5997 9.46444ZM73.9757 2.54844V3.83644H63.3917V2.54844H73.9757ZM63.3917 5.26444H73.9757V6.55244H63.3917V5.26444Z" fill="#333333"/>
<path d="M55.9439 1.14844H40.7679C40.3759 1.14844 40.0679 1.45644 40.0679 1.84844V17.5564C40.0679 17.6404 40.1519 17.7244 40.2359 17.7244H41.2999C41.3839 17.7244 41.4679 17.6404 41.4679 17.5564V2.54844H55.2439V15.9604C55.2439 16.1564 55.0759 16.3244 54.8799 16.3244H52.9759C52.9199 16.3244 52.8639 16.3524 52.8359 16.4084L52.0519 17.4724C51.9679 17.5844 52.0519 17.7524 52.1919 17.7524H54.8799C55.8599 17.7524 56.6439 16.9684 56.6439 15.9884V1.84844C56.6439 1.45644 56.3359 1.14844 55.9439 1.14844Z" fill="#333333"/>
<path d="M44.7159 5.12404C44.6879 5.06804 44.6319 5.04004 44.5759 5.04004H43.3439C43.2039 5.04004 43.1199 5.18004 43.2039 5.29204L45.4999 9.26804L43.2039 13.244C43.1479 13.356 43.2319 13.496 43.3439 13.496H44.5759C44.6319 13.496 44.6879 13.468 44.7159 13.412L47.0679 9.35204C47.0959 9.29604 47.0959 9.24004 47.0679 9.18404L44.7159 5.12404Z" fill="#333333"/>
<path d="M53.312 13.244L51.016 9.26804L53.312 5.29204C53.368 5.18004 53.284 5.04004 53.172 5.04004H51.94C51.884 5.04004 51.828 5.06804 51.8 5.12404L50.204 7.86804L48.608 5.12404C48.58 5.06804 48.524 5.04004 48.468 5.04004H47.236C47.096 5.04004 47.012 5.18004 47.096 5.29204L49.392 9.26804L47.096 13.244C47.04 13.356 47.124 13.496 47.236 13.496H48.468C48.524 13.496 48.58 13.468 48.608 13.412L50.176 10.668L51.744 13.412C51.772 13.468 51.828 13.496 51.884 13.496H53.116C53.284 13.496 53.368 13.356 53.312 13.244Z" fill="#333333"/>
<path d="M114.8 4.67612V1.82012C114.8 1.42812 114.492 1.12012 114.1 1.12012H101.108C100.716 1.12012 100.408 1.42812 100.408 1.82012V10.6401C100.408 11.6761 100.24 12.7121 99.9601 13.7201L98.8121 17.5001C98.7841 17.6121 98.8681 17.7241 98.9801 17.7241H100.1C100.184 17.7241 100.24 17.6681 100.268 17.6121L101.388 13.9441C101.696 12.9361 101.836 11.9001 101.836 10.8641V5.37612H114.1C114.464 5.37612 114.8 5.06812 114.8 4.67612ZM113.372 3.97612H101.808V2.52012H113.372V3.97612Z" fill="#333333"/>
<path d="M102.424 8.96038V9.99638C102.424 10.1084 102.536 10.1924 102.648 10.1644L107.24 8.82038C107.324 8.79238 107.38 8.73638 107.38 8.65238V8.20438V7.58838V7.14038C107.38 7.05638 107.324 7.00038 107.24 6.97238L103.264 6.13238C103.152 6.10438 103.04 6.18838 103.04 6.30038V7.33638C103.04 7.42038 103.096 7.47638 103.18 7.50438L105.308 7.95238L102.592 8.76438C102.48 8.79238 102.424 8.87638 102.424 8.96038Z" fill="#333333"/>
<path d="M108.024 5.96387C107.94 5.96387 107.856 6.04787 107.856 6.13187V9.32387C107.856 9.40787 107.94 9.49187 108.024 9.49187H109.088C109.172 9.49187 109.256 9.40787 109.256 9.32387V6.13187C109.256 6.04787 109.172 5.96387 109.088 5.96387H108.024Z" fill="#333333"/>
<path d="M114.072 7.36372V6.32772C114.072 6.21572 113.96 6.13172 113.848 6.15972L109.872 6.99972C109.788 7.02772 109.732 7.08372 109.732 7.16772V7.61572V8.23172V8.67972C109.732 8.76372 109.788 8.81972 109.872 8.84772L114.464 10.1917C114.576 10.2197 114.688 10.1357 114.688 10.0237V8.95972C114.688 8.87572 114.632 8.81972 114.548 8.79172L111.832 7.97972L113.96 7.53172C114.016 7.50372 114.072 7.41972 114.072 7.36372Z" fill="#333333"/>
<path d="M114.94 13.6641H109.256V12.3201H114.072C114.156 12.3201 114.24 12.2361 114.24 12.1521V11.0881C114.24 11.0041 114.156 10.9201 114.072 10.9201H109.256V10.0801C109.256 9.99611 109.172 9.91211 109.088 9.91211H108.024C107.94 9.91211 107.856 9.99611 107.856 10.0801V10.8921H104.412C104.384 10.6401 104.16 10.4161 103.88 10.4161H103.18C103.096 10.4161 103.012 10.5001 103.012 10.5841V11.4241V11.7601C103.012 12.0681 103.264 12.2921 103.544 12.2921H103.88H107.856V13.6361H102.172C102.088 13.6361 102.004 13.7201 102.004 13.8041V14.8681C102.004 14.9521 102.088 15.0361 102.172 15.0361H107.856V17.5001C107.856 17.5841 107.94 17.6681 108.024 17.6681H109.088C109.172 17.6681 109.256 17.5841 109.256 17.5001V15.0361H114.94C115.024 15.0361 115.108 14.9521 115.108 14.8681V13.8041C115.108 13.7481 115.052 13.6641 114.94 13.6641Z" fill="#333333"/>
<path d="M119.728 12.4597L121.632 6.85974C121.66 6.74774 121.576 6.63574 121.464 6.63574H120.176C120.092 6.63574 120.036 6.69174 120.008 6.74774L118.104 12.3477C118.076 12.4597 118.16 12.5717 118.272 12.5717H119.56C119.644 12.5997 119.7 12.5437 119.728 12.4597Z" fill="#333333"/>
<path d="M133.28 6.74844C133.252 6.66444 133.196 6.63644 133.112 6.63644H131.908V3.83644C131.908 3.44444 131.6 3.13644 131.208 3.13644H125.356V1.23244C125.356 1.23244 125.272 1.14844 125.188 1.14844H123.956C123.844 1.14844 123.788 1.23244 123.788 1.23244V3.10844H119.448C119.336 3.10844 119.28 3.19244 119.28 3.27644V4.50844C119.28 4.59244 119.364 4.67644 119.448 4.67644H123.788V5.32044C123.788 7.84044 123.144 10.8364 121.94 12.9364L119.168 17.4724C119.084 17.5844 119.168 17.7524 119.308 17.7524H120.764C120.82 17.7524 120.876 17.7244 120.904 17.6684L123.284 13.7484C124.628 11.4244 125.356 8.14844 125.356 5.34844V4.73244H130.34V15.8204C130.34 16.0164 130.172 16.1844 129.976 16.1844H128.324C128.268 16.1844 128.212 16.2124 128.184 16.2684L127.288 17.5004C127.204 17.6124 127.288 17.7804 127.428 17.7804H130.172C131.152 17.7804 131.936 16.9964 131.936 16.0164V7.58844L133.616 12.4884C133.644 12.5724 133.7 12.6004 133.784 12.6004H135.072C135.184 12.6004 135.268 12.4884 135.24 12.3764L133.28 6.74844Z" fill="#333333"/>
<path d="M151.144 11.984C151.116 11.928 151.06 11.9 150.976 11.9H149.576C149.436 11.9 149.352 12.04 149.408 12.152L151.452 16.156H140.812L145.208 7.41997C145.264 7.30797 145.18 7.16797 145.04 7.16797H143.584C143.528 7.16797 143.444 7.19597 143.416 7.25197L138.88 16.156C138.712 16.492 138.712 16.884 138.908 17.192C139.104 17.5 139.44 17.696 139.804 17.696H152.376C152.74 17.696 153.104 17.5 153.272 17.192C153.468 16.884 153.468 16.492 153.3 16.156L151.144 11.984Z" fill="#333333"/>
<path d="M139.412 9.21246L142.632 3.02446C142.688 2.91246 142.604 2.77246 142.464 2.77246H141.008C140.952 2.77246 140.868 2.80046 140.84 2.85646L137.62 9.01646C137.564 9.12846 137.648 9.26846 137.788 9.26846H139.244C139.3 9.29646 139.356 9.26846 139.412 9.21246Z" fill="#333333"/>
<path d="M154.42 9.07236L150.864 2.32436C150.612 1.84836 150.136 1.56836 149.604 1.56836H144.2C144.116 1.56836 144.032 1.65236 144.032 1.73636V3.05236C144.032 3.13636 144.116 3.22036 144.2 3.22036H149.604L152.768 9.24036C152.796 9.29636 152.852 9.32436 152.936 9.32436H154.28C154.42 9.32436 154.504 9.18436 154.42 9.07236Z" fill="#333333"/>
<path d="M80.9761 8.12012H93.7161C94.1081 8.12012 94.4161 7.81212 94.4161 7.42012V1.82012C94.4161 1.42812 94.1081 1.12012 93.7161 1.12012H80.9761C80.8921 1.12012 80.8081 1.20412 80.8081 1.28812V2.35212C80.8081 2.43612 80.8921 2.52012 80.9761 2.52012H92.9881V4.00412H81.7601C81.6761 4.00412 81.5921 4.08812 81.5921 4.17212V5.23612C81.5921 5.32012 81.6761 5.40412 81.7601 5.40412H92.9881V6.72012H80.9761C80.8921 6.72012 80.8081 6.80412 80.8081 6.88812V7.95212C80.8081 8.03612 80.8921 8.12012 80.9761 8.12012Z" fill="#333333"/>
<path d="M95.9001 16.6041C94.2201 15.8201 92.7641 14.7841 91.5881 13.7761L94.6961 10.8081C94.7801 10.7521 94.7801 10.6401 94.6961 10.5561L93.9681 9.80005C93.9121 9.71605 93.8001 9.71605 93.7161 9.80005L90.5241 12.8241C89.1521 11.4801 88.3121 10.3041 88.0601 9.88405V8.62405C88.0601 8.54005 87.9761 8.45605 87.8921 8.45605H86.8281C86.7441 8.45605 86.6601 8.54005 86.6601 8.62405V9.88405C86.6601 10.0801 86.6041 10.3041 86.5201 10.4721C85.9041 11.5921 83.3561 14.9521 79.7721 16.4081C79.6881 16.4361 79.6321 16.5761 79.6881 16.6601L80.2201 17.6401C80.2761 17.7241 80.3601 17.7521 80.4441 17.7241C84.3361 15.9601 86.6321 12.8801 87.5001 11.5641C88.5641 13.1881 91.3921 15.9601 94.9481 17.7241C95.0041 17.7521 95.0881 17.7521 95.1441 17.6961L95.9281 16.8841C96.0401 16.8001 96.0121 16.6601 95.9001 16.6041Z" fill="#333333"/>
<path d="M82.824 12.9365C82.88 12.9925 82.992 12.9925 83.076 12.9365L83.832 12.1805C83.888 12.1245 83.888 12.0125 83.832 11.9285L81.34 9.43653C81.284 9.38053 81.172 9.38053 81.088 9.43653L80.332 10.1925C80.276 10.2485 80.276 10.3605 80.332 10.4445L82.824 12.9365Z" fill="#333333"/>
<path d="M40.04 21.7559H40.796L43.68 25.8999H43.708V21.7559H44.296V26.7679H43.54L40.656 22.6239H40.628V26.7679H40.04V21.7559Z" fill="#333333"/>
<path d="M47.208 21.7559H50.344V22.3159H47.796V23.8839H50.176V24.4439H47.796V26.2359H50.484V26.7959H47.208V21.7559Z" fill="#333333"/>
<path d="M56.392 22.3159H54.74V26.7679H54.152V22.3159H52.5V21.7559H56.392V22.3159Z" fill="#333333"/>
<path d="M58.7441 21.7559H61.8801V22.3159H59.3321V23.8839H61.7121V24.4439H59.3321V26.2359H62.0201V26.7959H58.7441V21.7559Z" fill="#333333"/>
<path d="M66.2201 21.7559H66.7801L68.9081 26.7679H68.2081L67.7041 25.5359H65.2121L64.7081 26.7679H64.0361L66.2201 21.7559ZM66.4721 22.5119L65.4081 24.9759H67.4521L66.4721 22.5119Z" fill="#333333"/>
<path d="M73.584 22.6239C73.472 22.4559 73.36 22.3439 73.192 22.2879C73.024 22.2039 72.856 22.1759 72.688 22.1759C72.548 22.1759 72.436 22.2039 72.296 22.2319C72.156 22.2599 72.044 22.3159 71.96 22.3719C71.848 22.4279 71.764 22.5119 71.708 22.6239C71.652 22.7359 71.624 22.8479 71.624 23.0159C71.624 23.1279 71.652 23.2399 71.68 23.3239C71.708 23.4079 71.764 23.4919 71.848 23.5479C71.932 23.6319 72.044 23.6879 72.184 23.7439C72.324 23.7999 72.492 23.8559 72.688 23.9399C72.884 23.9959 73.08 24.0799 73.248 24.1359C73.416 24.2199 73.584 24.3039 73.724 24.4159C73.864 24.5279 73.976 24.6679 74.06 24.8359C74.144 25.0039 74.172 25.1999 74.172 25.4519C74.172 25.7039 74.116 25.9279 74.032 26.0959C73.92 26.2919 73.808 26.4319 73.64 26.5439C73.472 26.6559 73.304 26.7399 73.08 26.8239C72.856 26.8799 72.66 26.9079 72.436 26.9079C72.296 26.9079 72.156 26.9079 71.988 26.8799C71.848 26.8519 71.708 26.8239 71.568 26.7679C71.428 26.7119 71.316 26.6559 71.204 26.5439C71.092 26.4599 70.98 26.3479 70.896 26.2359L71.4 25.8159C71.512 26.0119 71.652 26.1519 71.848 26.2359C72.044 26.3199 72.24 26.3759 72.464 26.3759C72.604 26.3759 72.716 26.3479 72.856 26.3199C72.996 26.2919 73.108 26.2359 73.192 26.1519C73.304 26.0679 73.388 25.9839 73.444 25.8719C73.5 25.7599 73.556 25.6479 73.556 25.5079C73.556 25.3399 73.528 25.2279 73.472 25.1439C73.416 25.0599 73.332 24.9759 73.22 24.8919C73.108 24.8079 72.968 24.7519 72.8 24.6959C72.632 24.6399 72.436 24.5839 72.212 24.4999C72.044 24.4439 71.876 24.3879 71.708 24.3039C71.568 24.2199 71.428 24.1359 71.316 24.0239C71.204 23.9119 71.12 23.7999 71.064 23.6319C71.008 23.4919 70.98 23.2959 70.98 23.0999C70.98 22.8479 71.036 22.6519 71.12 22.4839C71.204 22.3159 71.344 22.1479 71.512 22.0359C71.68 21.9239 71.848 21.8119 72.044 21.7559C72.24 21.6999 72.464 21.6719 72.688 21.6719C72.968 21.6719 73.22 21.7279 73.472 21.8119C73.696 21.8959 73.92 22.0639 74.088 22.2599L73.584 22.6239Z" fill="#333333"/>
<path d="M76.8042 21.7559H79.9402V22.3159H77.3922V23.8839H79.7722V24.4439H77.3922V26.2359H80.0802V26.7959H76.8042V21.7559Z" fill="#333333"/>
<path d="M86.2402 21.7559H86.8282V26.2079H89.1242V26.7679H86.2402V21.7559Z" fill="#333333"/>
<path d="M91.4482 21.7559H92.0362V26.7679H91.4482V21.7559Z" fill="#333333"/>
<path d="M94.9199 21.7559H95.6759L98.5599 25.8999H98.5879V21.7559H99.1759V26.7679H98.4199L95.5359 22.6239H95.5079V26.7679H94.9199V21.7559Z" fill="#333333"/>
<path d="M106.316 26.4042C106.036 26.5722 105.728 26.6842 105.42 26.7682C105.112 26.8522 104.776 26.8802 104.468 26.8802C104.076 26.8802 103.712 26.8242 103.404 26.6842C103.068 26.5442 102.788 26.3762 102.564 26.1522C102.34 25.9282 102.144 25.6482 102.004 25.3122C101.864 24.9762 101.808 24.6402 101.808 24.2482C101.808 23.8562 101.864 23.4922 102.004 23.1842C102.144 22.8482 102.34 22.5962 102.592 22.3442C102.844 22.1202 103.124 21.9242 103.46 21.8122C103.796 21.6722 104.132 21.6162 104.524 21.6162C104.86 21.6162 105.168 21.6722 105.476 21.7562C105.784 21.8682 106.064 22.0362 106.288 22.2602L105.84 22.7362C105.672 22.5402 105.476 22.4002 105.224 22.3162C104.972 22.2042 104.72 22.1762 104.468 22.1762C104.188 22.1762 103.908 22.2322 103.656 22.3442C103.404 22.4562 103.208 22.5962 103.012 22.7642C102.844 22.9602 102.676 23.1562 102.592 23.4082C102.48 23.6602 102.452 23.9402 102.452 24.2482C102.452 24.5562 102.508 24.8082 102.592 25.0882C102.704 25.3402 102.844 25.5642 103.012 25.7602C103.18 25.9562 103.404 26.0962 103.656 26.2082C103.908 26.3202 104.188 26.3762 104.496 26.3762C104.692 26.3762 104.916 26.3482 105.14 26.2922C105.364 26.2362 105.56 26.1802 105.756 26.0682V24.5282H104.608V23.9682H106.344V26.4042H106.316Z" fill="#333333"/>
<path d="M110.404 24.1085L108.724 21.7285H109.48L110.824 23.6885L112.168 21.7285H112.896L111.216 24.1085L113.064 26.7405H112.28L110.796 24.5285L109.312 26.7405H108.584L110.404 24.1085Z" fill="#333333"/>
<path d="M115.332 21.7559H115.92V26.7679H115.332V21.7559Z" fill="#333333"/>
<path d="M124.74 26.8802C124.348 26.8802 124.012 26.8242 123.704 26.6842C123.396 26.5442 123.116 26.3762 122.864 26.1242C122.64 25.9002 122.444 25.6202 122.332 25.2842C122.192 24.9482 122.136 24.6122 122.136 24.2482C122.136 23.8842 122.192 23.5202 122.332 23.2122C122.472 22.8762 122.64 22.6242 122.864 22.3722C123.088 22.1482 123.368 21.9522 123.704 21.8122C124.012 21.6722 124.376 21.6162 124.74 21.6162C125.132 21.6162 125.468 21.6722 125.776 21.8122C126.084 21.9522 126.364 22.1202 126.616 22.3722C126.84 22.5962 127.036 22.8762 127.148 23.2122C127.288 23.5482 127.344 23.8842 127.344 24.2482C127.344 24.6122 127.288 24.9762 127.148 25.2842C127.008 25.6202 126.84 25.8722 126.616 26.1242C126.392 26.3482 126.112 26.5442 125.776 26.6842C125.496 26.8242 125.132 26.8802 124.74 26.8802ZM124.74 26.3202C125.02 26.3202 125.3 26.2642 125.552 26.1522C125.804 26.0402 126 25.9002 126.168 25.7042C126.336 25.5082 126.476 25.2842 126.588 25.0322C126.672 24.7802 126.728 24.5002 126.728 24.2202C126.728 23.9402 126.672 23.6602 126.588 23.4082C126.504 23.1562 126.364 22.9322 126.168 22.7362C126 22.5402 125.776 22.4002 125.552 22.2882C125.3 22.1762 125.048 22.1202 124.74 22.1202C124.46 22.1202 124.18 22.1762 123.928 22.2882C123.676 22.4002 123.48 22.5402 123.312 22.7362C123.144 22.9322 123.004 23.1562 122.892 23.4082C122.808 23.6602 122.752 23.9402 122.752 24.2202C122.752 24.5002 122.808 24.7802 122.892 25.0322C122.976 25.2842 123.116 25.5082 123.312 25.7042C123.48 25.9002 123.704 26.0402 123.928 26.1522C124.18 26.2642 124.46 26.3202 124.74 26.3202Z" fill="#333333"/>
<path d="M129.976 21.7559H133.084V22.3159H130.564V23.9679H132.888V24.5279H130.564V26.7679H129.976V21.7559Z" fill="#333333"/>
<path d="M135.548 21.7559H138.656V22.3159H136.136V23.9679H138.46V24.5279H136.136V26.7679H135.548V21.7559Z" fill="#333333"/>
<path d="M141.12 21.7559H141.708V26.7679H141.12V21.7559Z" fill="#333333"/>
<path d="M148.12 22.7922C147.98 22.5962 147.784 22.4282 147.56 22.3442C147.336 22.2322 147.112 22.2042 146.86 22.2042C146.58 22.2042 146.328 22.2602 146.104 22.3722C145.88 22.4842 145.656 22.6242 145.488 22.8202C145.32 23.0162 145.18 23.2402 145.096 23.4922C145.012 23.7442 144.956 23.9962 144.956 24.2762C144.956 24.5562 145.012 24.8362 145.096 25.0882C145.18 25.3402 145.32 25.5642 145.488 25.7322C145.656 25.9282 145.852 26.0682 146.076 26.1802C146.3 26.2922 146.58 26.3482 146.86 26.3482C147.168 26.3482 147.448 26.2922 147.672 26.1802C147.924 26.0682 148.12 25.9002 148.288 25.6482L148.736 26.0122C148.512 26.3202 148.232 26.5442 147.924 26.6842C147.616 26.8242 147.252 26.9082 146.86 26.9082C146.496 26.9082 146.16 26.8522 145.852 26.7122C145.544 26.5722 145.264 26.4042 145.04 26.1522C144.816 25.9282 144.62 25.6482 144.508 25.3122C144.368 25.0042 144.312 24.6402 144.312 24.2482C144.312 23.8842 144.368 23.5482 144.508 23.2122C144.62 22.9042 144.816 22.6242 145.04 22.3722C145.264 22.1482 145.544 21.9522 145.852 21.8122C146.16 21.6722 146.496 21.6162 146.888 21.6162C147.224 21.6162 147.56 21.6722 147.868 21.8122C148.176 21.9242 148.456 22.1482 148.652 22.4002L148.12 22.7922Z" fill="#333333"/>
<path d="M151.256 21.7559H154.392V22.3159H151.844V23.8839H154.224V24.4439H151.844V26.2359H154.532V26.7959H151.256V21.7559Z" fill="#333333"/>
<path d="M20.3282 27.9437H7.67215C3.47215 27.9437 0.0561523 24.5277 0.0561523 20.3277V7.67166C0.0561523 3.47166 3.47215 0.0556641 7.67215 0.0556641H20.3282C24.5282 0.0556641 27.9442 3.47166 27.9442 7.67166V20.3277C27.9442 24.5277 24.5282 27.9437 20.3282 27.9437Z" fill="url(#paint0_linear)"/>
<path d="M11.0039 20.3839L17.6959 14.6719L24.5839 9.35186C25.0039 9.01586 25.6199 9.46386 25.4239 9.96786L22.2039 18.7599L11.0039 20.3839Z" fill="#F5F9FF"/>
<path d="M16.1837 23.3801L22.2037 18.7601L8.90374 6.49609L3.13574 20.3841L15.0077 23.6321C15.4277 23.7441 15.8477 23.6601 16.1837 23.3801Z" fill="#F5F9FF"/>
<path d="M8.904 6.49598L3.78 20.552L1.988 25.508C0.756 24.136 0 22.344 0 20.356V7.64398C0 6.13198 0.42 4.75998 1.176 3.58398L8.904 6.49598Z" fill="#F5F9FF"/>
<path d="M8.90378 6.49609L3.77979 20.5521L6.07579 21.1681L8.90378 6.49609Z" fill="#CAD1EF"/>
<path d="M22.2041 18.76L18.8441 13.748L17.7241 14.616L22.2041 18.76Z" fill="#CAD1EF"/>
</g>
<defs>
<linearGradient id="paint0_linear" x1="26.3392" y1="0.613845" x2="1.32296" y2="27.7526" gradientUnits="userSpaceOnUse">
<stop stop-color="#4284FF"/>
<stop offset="0.1653" stop-color="#3A77FB"/>
<stop offset="0.6763" stop-color="#2454F2"/>
<stop offset="0.9515" stop-color="#1B47EE"/>
</linearGradient>
<clipPath id="clip0">
<rect width="154.504" height="28" fill="white"/>
</clipPath>
</defs>
</svg>
