<?xml version="1.0" encoding="UTF-8"?>
<svg width="175px" height="22px" viewBox="0 0 175 22" version="1.1" xmlns="http://www.w3.org/2000/svg" xmlns:xlink="http://www.w3.org/1999/xlink">
    <!-- Generator: Sketch 52.4 (67378) - http://www.bohemiancoding.com/sketch -->
    <title>Group 20</title>
    <desc>Created with Sketch.</desc>
    <defs>
        <polygon id="path-1" points="6.25643589e-06 0.0125714286 21.8176172 0.0125714286 21.8176172 21.9126984 6.25643589e-06 21.9126984"></polygon>
        <polygon id="path-3" points="0 21.9874286 174.975436 21.9874286 174.975436 0.0873015873 0 0.0873015873"></polygon>
    </defs>
    <g id="组件" stroke="none" stroke-width="1" fill="none" fill-rule="evenodd">
        <g id="Group-20">
            <g id="Group-3" transform="translate(0.000000, 0.074730)">
                <mask id="mask-2" fill="white">
                    <use xlink:href="#path-1"></use>
                </mask>
                <g id="Clip-2"></g>
                <path d="M17.5194512,10.2163198 L8.5333885,10.2163198 L10.9131794,5.43105794 L12.5596951,8.78143095 L16.6790331,8.78143095 L13.1399216,1.62916111 C12.7231969,0.788883333 11.8748519,0.0125103175 10.9204965,0.0125103175 L10.9082143,0.0125103175 C9.95377178,0.0125103175 9.1029878,0.786438889 8.68391115,1.62671667 L2.59776132,13.8728595 L15.1718031,13.8728595 L17.2975871,18.2801929 L4.49906794,18.2801929 L5.8236324,15.3094071 L1.73957317,15.3094071 L0.331559233,18.4595103 C-0.0260191638,19.2125738 -0.168702091,20.2243992 0.285130662,20.9265659 C0.741315331,21.6337087 1.72476481,21.9127246 2.57554878,21.9127246 L19.2456707,21.9127246 C20.0989808,21.9127246 21.0713676,21.5881373 21.5275523,20.8810817 C21.9837369,20.1714944 21.8497648,19.1956373 21.4847822,18.4376849 L17.5194512,10.2163198 Z" id="Fill-1" fill="#1AEEFF" mask="url(#mask-2)"></path>
            </g>
            <path d="M40.805453,11.951404 L32.5139895,11.951404 C32.0843728,11.951404 31.6931707,11.5749595 31.6931707,11.1616738 C31.6931707,10.7187929 31.999007,10.3718563 32.3894251,10.3718563 L43.1464808,10.3718563 L43.1464808,9.52328492 C43.1464808,8.70064206 42.4787108,8.0315627 41.6580662,8.0315627 L32.3894251,8.0315627 C30.7179094,8.0315627 29.3579791,9.43572143 29.3579791,11.1616738 C29.3579791,12.8584675 30.8032753,14.2920468 32.5139895,14.2920468 L40.805453,14.2920468 C41.2348955,14.2920468 41.6259233,14.668404 41.6259233,15.081777 C41.6259233,15.5246579 41.3205226,15.8715944 40.9306272,15.8715944 L30.1729617,15.8715944 L30.1729617,16.7203405 C30.1729617,17.542896 30.8406446,18.2120627 31.6613763,18.2120627 L40.9306272,18.2120627 C42.6301045,18.2120627 43.9613763,16.8370627 43.9613763,15.081777 C43.9613763,13.3849833 42.5161672,11.951404 40.805453,11.951404" id="Fill-4" fill="#1AEEFF"></path>
            <path d="M58.6169164,8.03084683 L58.6175261,11.8965611 L49.5615157,11.8965611 C49.3743206,11.8965611 49.1913066,11.9106167 49.0081185,11.9393389 L49.0081185,8.03084683 L48.1613415,8.03084683 C47.3405226,8.03084683 46.6728397,8.70001349 46.6728397,9.52256905 L46.6728397,17.859696 L46.6745819,18.2120452 L49.0088153,18.2120452 L49.0081185,14.3732198 C49.0082927,14.3265135 49.223885,14.2371167 49.5615157,14.2371167 L58.6175261,14.2371167 L58.6175261,18.2120452 L59.4643031,18.2120452 C60.2849477,18.2120452 60.9527178,17.5427913 60.9527178,16.7202357 L60.952108,8.03084683 L58.6169164,8.03084683 Z" id="Fill-6" fill="#1AEEFF"></path>
            <path d="M92.7420296,15.0387548 L82.7825348,8.0726119 L82.723824,8.03149286 L82.2857578,8.03149286 C81.4650261,8.03149286 80.7973432,8.70057222 80.7973432,9.52321508 L80.7973432,18.2120802 L83.132622,18.2120802 L83.132622,11.1504294 L93.1703397,18.1709611 L93.2290505,18.2120802 L93.5887195,18.2120802 C94.4094512,18.2120802 95.0772213,17.5429135 95.0772213,16.7203579 L95.0772213,8.03149286 L92.7420296,8.03149286 L92.7420296,15.0387548 Z" id="Fill-8" fill="#1AEEFF"></path>
            <path d="M110.073676,15.0387548 L100.114268,8.0726119 L100.05547,8.03149286 L99.6175784,8.03149286 C98.7968467,8.03149286 98.1290767,8.70057222 98.1290767,9.52321508 L98.1290767,18.2120802 L100.464268,18.2120802 L100.464268,11.1504294 L110.501986,18.1709611 L110.560784,18.2120802 L110.92054,18.2120802 C111.741359,18.2120802 112.409042,17.5429135 112.409042,16.7203579 L112.409042,8.03149286 L110.073676,8.03149286 L110.073676,15.0387548 Z" id="Fill-10" fill="#1AEEFF"></path>
            <path d="M144.737474,15.0387548 L134.777979,8.0726119 L134.719181,8.03149286 L134.281202,8.03149286 C133.46047,8.03149286 132.792787,8.70057222 132.792787,9.52321508 L132.792787,18.2120802 L135.127979,18.2120802 L135.127979,11.1504294 L145.165784,18.1709611 L145.224495,18.2120802 L145.584251,18.2120802 C146.404983,18.2120802 147.072666,17.5429135 147.072666,16.7203579 L147.072666,8.03149286 L144.737474,8.03149286 L144.737474,15.0387548 Z" id="Fill-12" fill="#1AEEFF"></path>
            <mask id="mask-4" fill="white">
                <use xlink:href="#path-3"></use>
            </mask>
            <g id="Clip-15"></g>
            <polygon id="Fill-14" fill="#1AEEFF" mask="url(#mask-4)" points="149.857666 18.2120714 151.524564 18.2120714 151.524564 16.4005635 149.857666 16.4005635"></polygon>
            <path d="M174.128728,8.03084683 C173.307997,8.03084683 172.640314,8.70001349 172.640314,9.52256905 L172.640314,18.2120452 L173.487003,18.2120452 C174.307822,18.2120452 174.975418,17.5428786 174.975418,16.720323 L174.975418,8.03084683 L174.128728,8.03084683 Z" id="Fill-16" fill="#1AEEFF" mask="url(#mask-4)"></path>
            <path d="M127.404895,14.4284992 C127.404895,15.2242532 126.758815,15.8715944 125.964826,15.8715944 L119.235906,15.8715944 C118.441829,15.8715944 117.795923,15.2242532 117.795923,14.4284992 L117.795923,11.81565 C117.795923,11.0198087 118.441829,10.3724675 119.235906,10.3724675 L125.964826,10.3724675 C126.758815,10.3724675 127.404895,11.0198087 127.404895,11.81565 L127.404895,14.4284992 Z M125.964826,8.03199921 L119.235906,8.03199921 C117.154373,8.03199921 115.460732,9.72940397 115.460732,11.81565 L115.460732,14.4284992 C115.460732,16.5146579 117.154373,18.2120627 119.235906,18.2120627 L125.964826,18.2120627 C128.046533,18.2120627 129.740087,16.5146579 129.740087,14.4284992 L129.740087,11.81565 C129.740087,9.72940397 128.046533,8.03199921 125.964826,8.03199921 Z" id="Fill-17" fill="#1AEEFF" mask="url(#mask-4)"></path>
            <path d="M75.0306533,13.1159024 C74.7577439,12.7916643 74.2408449,12.7432992 73.9630575,12.7173706 L69.3886672,12.7135294 L70.6480749,10.8987913 L71.2733362,11.7990452 L74.118284,11.7990452 L71.9887544,8.7331881 C71.683615,8.29379921 71.1826568,8.03154524 70.6485105,8.03154524 C70.1144512,8.03154524 69.6133188,8.29379921 69.307831,8.7332754 L63.1507753,17.6007595 L63.086838,17.6932992 L63.0918902,18.0382278 L63.3269077,18.2120452 L65.5711585,18.2120452 L67.7640157,15.0535611 L73.532831,15.0535611 L75.7256882,18.2120452 L78.2045209,18.2120452 L78.2076568,17.6896325 L75.050601,13.1419183 L75.0306533,13.1159024 Z" id="Fill-18" fill="#1AEEFF" mask="url(#mask-4)"></path>
            <path d="M166.252134,13.1156492 C165.979051,12.7915857 165.462326,12.7433079 165.184887,12.7173794 L160.610322,12.7135381 L161.869817,10.8987127 L162.495078,11.799054 L165.339939,11.799054 L163.210497,8.73310952 C162.90527,8.29380794 162.404225,8.03155397 161.870253,8.03155397 C161.336106,8.03155397 160.835061,8.29380794 160.52966,8.73328413 L154.372517,17.6007683 L154.308493,17.6933079 L154.313632,18.0382365 L154.54865,18.212054 L156.792726,18.212054 L158.985584,15.0535698 L164.75466,15.0535698 L166.94743,18.212054 L169.426263,18.212054 L169.429399,17.6896413 L166.272169,13.141927 L166.252134,13.1156492 Z" id="Fill-19" fill="#1AEEFF" mask="url(#mask-4)"></path>
        </g>
    </g>
</svg>