<?xml version="1.0" encoding="UTF-8"?>
<svg id="_图层_2" data-name="图层 2" xmlns="http://www.w3.org/2000/svg" viewBox="0 0 182.93 56.14">
  <defs>
    <style>
      .cls-1 {
        fill: #231815;
      }

      .cls-2 {
        fill: #4a02bc;
      }
    </style>
  </defs>
  <g id="_图层_1-2" data-name="图层 1">
    <g>
      <g>
        <g>
          <path class="cls-1" d="M62.27,23.49l3.83-17.17h4.45l-3.74,17.26-4.54-.09Z"/>
          <path class="cls-1" d="M70.1,23.58l3.92-17.71h.44l9.52,10.14,2.14-9.43h4.18l-4,17.8h-.36l-9.61-10.14-2.05,9.34h-4.18Z"/>
          <path class="cls-1" d="M90.03,23.76l3.83-17.17,11.66,.09-.8,3.47-7.21-.09-.8,3.38,6.5,.09-.8,3.47-6.5-.09-1.51,6.76-4.36,.09Z"/>
          <path class="cls-1" d="M104.72,23.85l3.83-17.08h4.45l-3.83,17.17-4.45-.09Z"/>
          <path class="cls-1" d="M112.37,23.93l3.92-17.71h.44l9.52,10.14,2.14-9.43h4.18l-4,17.8h-.36l-9.17-10.14-2.14,9.34h-4.54Z"/>
          <path class="cls-1" d="M132.21,24.11l3.83-17.17h4.45l-3.83,17.17h-4.45Z"/>
        </g>
        <g>
          <path class="cls-2" d="M145.65,37.64c-1.42,0-2.58,.89-2.85,2.49l5.61,.09c0-1.6-1.25-2.58-2.76-2.58Z"/>
          <path class="cls-2" d="M126.69,37.64c-1.6,0-3.03,1.07-3.03,3.47s1.33,3.56,2.94,3.56,3.11-1.16,3.11-3.47c0-2.4-1.42-3.56-3.03-3.56Z"/>
          <path class="cls-2" d="M87.99,37.28c-1.6,0-3.03,1.07-3.03,3.47s1.33,3.56,2.94,3.56,3.11-1.16,3.11-3.47c0-2.4-1.42-3.56-3.03-3.56Z"/>
          <path class="cls-2" d="M69.48,27.4l-1.33,6.05c1.33-1.25,3.2-1.96,5.25-1.96,3.29,0,5.96,1.78,6.94,4.89h-3.47c-.71-1.42-1.96-2.14-3.56-2.14-2.58,0-4.45,1.87-4.54,4.89,0,3.03,1.78,4.98,4.45,4.98,1.6,0,2.85-.71,3.65-2.14h3.47c-1.07,3.03-3.74,4.72-7.12,4.72s-5.96-1.87-7.03-4.81l-1.87,8.36,91.65-.09,5.07-22.78H69.48Zm18.42,19.49c-3.38,0-5.96-2.4-5.96-6.14s2.76-6.05,6.14-6.05,6.05,2.4,6.05,6.14c-.09,3.74-2.85,6.05-6.23,6.05Zm19.4,0h-3.03l.09-6.5c0-1.87-.98-2.94-2.58-2.94s-2.67,.98-2.67,2.94l-.09,6.5h-3.03l.09-11.83h3.03v1.51c.8-.98,2.05-1.6,3.56-1.6,2.76,0,4.72,1.87,4.72,5.07l-.09,6.85Zm7.12,.18c-2.94,0-4.98-1.78-5.16-4h3.03c.09,.89,.89,1.6,2.14,1.6,1.16,0,1.78-.53,1.87-1.25,0-2.14-6.67-.8-6.67-5.16,0-1.96,1.78-3.56,4.72-3.47,2.85,0,4.54,1.6,4.72,3.92h-2.85c-.09-.89-.8-1.51-1.96-1.51-1.07,0-1.69,.44-1.69,1.16,0,2.14,6.58,.89,6.58,5.16,0,2.14-1.78,3.65-4.72,3.56Zm12.19,.18c-3.38,0-5.96-2.4-5.96-6.14s2.76-6.05,6.14-6.05,6.05,2.4,6.05,6.14c-.09,3.65-2.76,6.05-6.23,6.05Zm11.12-.09h-3.03l.18-15.84h3.03l-.18,15.84Zm13.7-4.98l-8.63-.09c.18,1.78,1.33,2.76,2.85,2.76,1.25,0,1.96-.62,2.4-1.42h3.2c-.62,2.14-2.67,3.92-5.61,3.83-3.47,0-5.87-2.4-5.87-6.14s2.49-6.05,5.96-6.05,5.78,2.4,5.78,5.87c0,.53,0,.89-.09,1.25Z"/>
        </g>
        <g>
          <polygon class="cls-2" points="164.6 50.27 158.37 50.27 163.53 27.4 169.76 27.4 164.6 50.27"/>
          <polygon class="cls-2" points="172.08 50.27 167.72 50.27 172.79 27.4 177.15 27.4 172.08 50.27"/>
          <polygon class="cls-2" points="177.77 50.27 175.46 50.27 180.62 27.4 182.93 27.4 177.77 50.27"/>
        </g>
      </g>
      <g>
        <path d="M28.07,56.14C12.59,56.14,0,43.55,0,28.07S12.59,0,28.07,0s28.07,12.59,28.07,28.07-12.59,28.07-28.07,28.07Zm0-53.1C14.27,3.04,3.04,14.27,3.04,28.07s11.23,25.03,25.03,25.03,25.03-11.23,25.03-25.03S41.87,3.04,28.07,3.04Z"/>
        <g>
          <path d="M43.92,12.87c-2.32-2.53-5.23-4.52-8.5-5.75,0,.01,0,.02,0,.02l-3.9,18.05-13.93-9.9-1.94,9.26,22.46,15.72,5.82-27.4"/>
          <path d="M23.17,34.84l-8.44-5.95-2.98,13.81c2.34,2.49,5.26,4.43,8.54,5.62l2.88-13.48Z"/>
        </g>
      </g>
    </g>
  </g>
</svg>