<?xml version="1.0" encoding="utf-8"?>
<!-- Generator: Adobe Illustrator 16.0.0, SVG Export Plug-In . SVG Version: 6.00 Build 0)  -->
<!DOCTYPE svg PUBLIC "-//W3C//DTD SVG 1.1//EN" "http://www.w3.org/Graphics/SVG/1.1/DTD/svg11.dtd" [
	<!ENTITY ns_flows "http://ns.adobe.com/Flows/1.0/">
	<!ENTITY ns_extend "http://ns.adobe.com/Extensibility/1.0/">
	<!ENTITY ns_ai "http://ns.adobe.com/AdobeIllustrator/10.0/">
	<!ENTITY ns_graphs "http://ns.adobe.com/Graphs/1.0/">
]>
<svg version="1.1" id="INFINI-LOGO" xmlns:x="&ns_extend;" xmlns:i="&ns_ai;" xmlns:graph="&ns_graphs;"
	 xmlns="http://www.w3.org/2000/svg" xmlns:xlink="http://www.w3.org/1999/xlink" xmlns:a="http://ns.adobe.com/AdobeSVGViewerExtensions/3.0/"
	 x="0px" y="0px" width="68.667px" height="44.666px" viewBox="0 0 68.667 44.666" enable-background="new 0 0 68.667 44.666"
	 xml:space="preserve">
<g>
	<g>
		<defs>
			<rect id="SVGID_1_" x="-1355.334" y="-510.61" width="841.89" height="595.276"/>
		</defs>
		<clipPath id="SVGID_2_">
			<use xlink:href="#SVGID_1_"  overflow="visible"/>
		</clipPath>
		<rect x="-940.41" y="-267.879" clip-path="url(#SVGID_2_)" fill="#323479" width="9.922" height="42.145"/>
		<polygon clip-path="url(#SVGID_2_)" fill="#323479" points="-919.908,-225.734 -919.908,-269.245 -918.962,-269.245 
			-893.071,-244.655 -893.071,-267.879 -883.927,-267.879 -883.927,-224.135 -884.786,-224.135 -910.763,-248.724 
			-910.763,-225.734 		"/>
		<polygon clip-path="url(#SVGID_2_)" fill="#323479" points="-873.345,-225.734 -873.345,-267.879 -847.513,-267.879 
			-847.513,-259.305 -863.482,-259.305 -863.482,-250.904 -849.203,-250.904 -849.203,-242.388 -863.482,-242.388 
			-863.482,-225.734 		"/>
		<rect x="-836.933" y="-267.879" clip-path="url(#SVGID_2_)" fill="#323479" width="9.922" height="42.145"/>
		<polygon clip-path="url(#SVGID_2_)" fill="#323479" points="-816.431,-225.734 -816.431,-269.245 -815.483,-269.245 
			-789.593,-244.655 -789.593,-267.879 -780.448,-267.879 -780.448,-224.135 -781.308,-224.135 -806.394,-248.724 -806.46,-225.734 
					"/>
		<rect x="-769.925" y="-267.879" clip-path="url(#SVGID_2_)" fill="#323479" width="9.922" height="42.145"/>
		<polygon clip-path="url(#SVGID_2_)" fill="#717174" points="-936.128,-209.902 -937.478,-209.902 -937.478,-208.083 
			-940.409,-208.083 -940.409,-206.797 -937.478,-206.797 -937.478,-203.989 -940.403,-203.989 -940.403,-189.04 -939.056,-189.04 
			-939.056,-202.703 -937.478,-202.703 -937.478,-189.04 -936.128,-189.04 -936.128,-202.703 -934.482,-202.703 -934.482,-203.989 
			-936.128,-203.989 -936.128,-206.797 -934.482,-206.797 -934.482,-208.083 -936.128,-208.083 		"/>
		<polygon clip-path="url(#SVGID_2_)" fill="#717174" points="-923.826,-189.344 -926.944,-194.902 -924.772,-199.152 
			-924.704,-202.356 -928.324,-202.356 -925.847,-207.997 -925.798,-209.859 -933.218,-209.859 -933.218,-208.572 
			-927.146,-208.572 -930.354,-201.07 -926.054,-201.07 -926.054,-199.583 -927.729,-196.302 -929.358,-199.206 -930.548,-198.599 
			-928.46,-194.874 -931.296,-189.323 -930.083,-188.758 -927.675,-193.473 -925.017,-188.737 		"/>
		<polygon clip-path="url(#SVGID_2_)" fill="#717174" points="-932.19,-206.858 -934.159,-189.109 -932.817,-188.972 
			-930.849,-206.722 		"/>
		<path clip-path="url(#SVGID_2_)" fill="#717174" d="M-880.433-209.859h-5.545v20.819h1.348v-2.75l4.234-1.373l-1.322-5.633
			L-880.433-209.859z M-881.978-194.011l-2.652,0.86v-15.422h2.689l-1.145,9.849L-881.978-194.011z"/>
		<path clip-path="url(#SVGID_2_)" fill="#717174" d="M-869.878-188.893l0.99-0.877l-3.767-3.871l2.569-2.402l-0.945-0.92
			l-2.543,2.377l-3.867-3.977v-1.097h7.146v-10.2h-8.5v1.287h0.005v19.799l4.614-1.177l-0.347-1.243l-2.919,0.742v-6.216
			L-869.878-188.893z M-877.44-204.116h5.799v3.17h-5.799V-204.116z M-871.642-205.402h-5.799v-3.17h5.799V-205.402z"/>
		<polygon clip-path="url(#SVGID_2_)" fill="#717174" points="-826.444,-208.184 -823.546,-208.577 -823.734,-209.853 
			-830.691,-208.91 -830.503,-207.634 -827.794,-208.001 -827.794,-203.689 -830.981,-203.689 -830.981,-202.403 -827.794,-202.403 
			-827.794,-189.04 -826.444,-189.04 -826.444,-202.403 -823.257,-202.403 -823.257,-203.689 -826.444,-203.689 		"/>
		<rect x="-830.688" y="-201.1" clip-path="url(#SVGID_2_)" fill="#717174" width="1.349" height="12.06"/>
		<rect x="-824.665" y="-201.101" clip-path="url(#SVGID_2_)" fill="#717174" width="1.349" height="9.326"/>
		<polygon clip-path="url(#SVGID_2_)" fill="#717174" points="-818.021,-203.833 -819.657,-209.39 -820.956,-209.041 
			-819.319,-203.484 		"/>
		<polygon clip-path="url(#SVGID_2_)" fill="#717174" points="-818.248,-196.507 -819.651,-201.862 -820.962,-201.549 
			-819.56,-196.194 		"/>
		<polygon clip-path="url(#SVGID_2_)" fill="#717174" points="-814.515,-194.428 -814.64,-195.711 -815.831,-195.604 
			-815.831,-209.665 -817.181,-209.665 -817.181,-195.483 -821.947,-195.057 -821.823,-193.774 -817.181,-194.189 -817.181,-189.04 
			-815.831,-189.04 -815.831,-194.31 		"/>
		<polygon clip-path="url(#SVGID_2_)" fill="#717174" points="-770.944,-197.52 -772.673,-197.335 -772.673,-206.238 
			-770.869,-206.238 -770.869,-207.524 -772.673,-207.524 -772.673,-209.654 -774.021,-209.654 -774.021,-207.524 
			-775.828,-207.524 -775.828,-206.238 -774.021,-206.238 -774.021,-197.191 -775.903,-196.99 -775.753,-195.71 -774.021,-195.895 
			-774.021,-190.596 -776.124,-189.619 -775.532,-188.461 -772.673,-189.791 -772.673,-196.04 -770.794,-196.241 		"/>
		<polygon clip-path="url(#SVGID_2_)" fill="#717174" points="-760.005,-189.508 -763.794,-192.93 -760.341,-196.056 
			-760.341,-202.349 -764.095,-202.349 -764.095,-206.238 -760.371,-206.238 -760.371,-207.525 -764.095,-207.525 
			-764.095,-209.654 -765.443,-209.654 -765.443,-207.525 -769.238,-207.525 -769.238,-206.238 -765.443,-206.238 
			-765.443,-202.349 -769.238,-202.349 -769.238,-201.062 -761.69,-201.062 -761.69,-196.61 -764.775,-193.816 -767.89,-196.628 
			-767.89,-200.091 -769.238,-200.091 -769.238,-196.074 -765.755,-192.93 -769.535,-189.508 -768.606,-188.573 -764.774,-192.043 
			-760.931,-188.573 		"/>
		<g clip-path="url(#SVGID_2_)">
			<defs>
				<polygon id="SVGID_3_" points="-1042.315,-267.867 -1028.815,-244.197 -1007.454,-244.182 -1039.095,-188.801 
					-1011.847,-188.801 -966.704,-267.811 				"/>
			</defs>
			<clipPath id="SVGID_4_">
				<use xlink:href="#SVGID_3_"  overflow="visible"/>
			</clipPath>
			
				<linearGradient id="SVGID_5_" gradientUnits="userSpaceOnUse" x1="3859.1201" y1="146.4727" x2="3860.1201" y2="146.4727" gradientTransform="matrix(75.6116 0 0 -75.6116 -292836.5312 10846.7686)">
				<stop  offset="0" style="stop-color:#323479"/>
				<stop  offset="0.5" style="stop-color:#296CB5"/>
				<stop  offset="1" style="stop-color:#2FBDBB"/>
				<a:midPointStop  offset="0" style="stop-color:#323479"/>
				<a:midPointStop  offset="0.5" style="stop-color:#323479"/>
				<a:midPointStop  offset="0.5" style="stop-color:#296CB5"/>
				<a:midPointStop  offset="0.5" style="stop-color:#296CB5"/>
				<a:midPointStop  offset="1" style="stop-color:#2FBDBB"/>
			</linearGradient>
			<rect x="-1042.315" y="-267.867" clip-path="url(#SVGID_4_)" fill="url(#SVGID_5_)" width="75.611" height="79.066"/>
		</g>
		<polygon clip-path="url(#SVGID_2_)" fill="#2EBDBB" points="-1082.146,-238.319 -1110.439,-188.801 -1083.19,-188.801 
			-1068.513,-214.489 		"/>
		<polygon clip-path="url(#SVGID_2_)" fill="#2EBDBB" points="-1061.143,-275.079 -1074.747,-251.27 -1039.097,-188.801 
			-1011.847,-188.801 		"/>
	</g>
</g>
<g>
	<g>
		<defs>
			<rect id="SVGID_6_" x="-340.508" y="-449.943" width="841.89" height="595.276"/>
		</defs>
		<clipPath id="SVGID_7_">
			<use xlink:href="#SVGID_6_"  overflow="visible"/>
		</clipPath>
		<rect x="-340.508" y="-449.942" clip-path="url(#SVGID_7_)" fill="#EFEEEE" width="841.89" height="366.422"/>
		<rect x="217.947" y="-27.836" clip-path="url(#SVGID_7_)" fill="#3E3B3B" width="223.561" height="100.091"/>
		
			<rect x="-280.902" y="-400.705" clip-path="url(#SVGID_7_)" fill="none" stroke="#ABADB1" stroke-width="0.25" stroke-miterlimit="10" width="339.461" height="205.163"/>
		
			<rect x="102.047" y="-399.977" clip-path="url(#SVGID_7_)" fill="none" stroke="#ABADB1" stroke-width="0.25" stroke-miterlimit="10" width="339.461" height="205.164"/>
		
			<rect x="-31.112" y="-27.836" clip-path="url(#SVGID_7_)" fill="none" stroke="#ABADB1" stroke-width="0.25" stroke-miterlimit="10" width="223.559" height="100.091"/>
		
			<rect x="-280.903" y="-27.836" clip-path="url(#SVGID_7_)" fill="none" stroke="#ABADB1" stroke-width="0.25" stroke-miterlimit="10" width="223.56" height="100.091"/>
		<g clip-path="url(#SVGID_7_)">
			<defs>
				<rect id="SVGID_8_" x="-340.508" y="-449.943" width="841.89" height="595.276"/>
			</defs>
			<clipPath id="SVGID_9_">
				<use xlink:href="#SVGID_8_"  overflow="visible"/>
			</clipPath>
			<path clip-path="url(#SVGID_9_)" fill="#296CB5" d="M308.453-137.653c0,5.702-4.623,10.324-10.324,10.324
				c-5.702,0-10.324-4.622-10.324-10.324s4.622-10.323,10.324-10.323C303.83-147.977,308.453-143.355,308.453-137.653"/>
			<path clip-path="url(#SVGID_9_)" fill="#2EBDBB" d="M-61.733-137.653c0,5.702-4.622,10.324-10.324,10.324
				s-10.323-4.622-10.323-10.324s4.621-10.323,10.323-10.323S-61.733-143.355-61.733-137.653"/>
			<path clip-path="url(#SVGID_9_)" fill="#717174" d="M129.289-137.653c0,5.702-4.623,10.324-10.324,10.324
				c-5.702,0-10.324-4.622-10.324-10.324s4.622-10.323,10.324-10.323C124.666-147.977,129.289-143.355,129.289-137.653"/>
			<path clip-path="url(#SVGID_9_)" fill="#323479" d="M-236.707-137.653c0,5.702-4.621,10.324-10.323,10.324
				s-10.325-4.622-10.325-10.324s4.623-10.323,10.325-10.323S-236.707-143.355-236.707-137.653"/>
		</g>
		<g clip-path="url(#SVGID_7_)">
			<path fill="#231915" d="M-221.935-147.854c0.466,0.332,0.732,0.778,0.8,1.322l-0.184,0.001c-0.067-0.48-0.31-0.87-0.727-1.172
				c-0.402-0.285-0.867-0.426-1.379-0.423c-0.768,0.005-1.381,0.28-1.842,0.843c-0.428,0.53-0.64,1.188-0.635,1.987
				c0.005,0.783,0.225,1.421,0.659,1.931c0.442,0.525,1.028,0.793,1.764,0.789c0.544-0.004,1.015-0.158,1.421-0.465
				c0.445-0.338,0.723-0.804,0.83-1.396l0.185-0.001c-0.116,0.656-0.408,1.17-0.886,1.541c-0.438,0.338-0.957,0.51-1.549,0.514
				c-0.791,0.004-1.433-0.279-1.915-0.853c-0.468-0.55-0.696-1.235-0.701-2.059c-0.006-0.84,0.223-1.545,0.683-2.106
				c0.492-0.612,1.154-0.912,1.985-0.917C-222.864-148.321-222.368-148.172-221.935-147.854z"/>
			<path fill="#231915" d="M-219.521-145.895c0.05,0.048,0.081,0.104,0.081,0.184c0.001,0.072-0.03,0.136-0.078,0.184
				c-0.048,0.05-0.111,0.081-0.184,0.082c-0.08,0-0.136-0.031-0.184-0.079c-0.058-0.048-0.081-0.111-0.082-0.184
				c0-0.08,0.023-0.136,0.079-0.184c0.048-0.057,0.104-0.081,0.184-0.081C-219.633-145.974-219.569-145.949-219.521-145.895z
				 M-219.503-142.969c0.049,0.049,0.08,0.104,0.081,0.185c0,0.071-0.03,0.136-0.079,0.184c-0.048,0.049-0.11,0.081-0.183,0.082
				c-0.08,0-0.137-0.032-0.185-0.079c-0.057-0.048-0.081-0.112-0.081-0.184c-0.001-0.08,0.022-0.136,0.079-0.185
				c0.047-0.057,0.103-0.08,0.183-0.08C-219.615-143.047-219.552-143.023-219.503-142.969z"/>
			<path fill="#231915" d="M-216.729-148.246l0.035,5.709l-0.191,0.001l-0.033-5.445c-0.381,0.458-0.852,0.772-1.41,0.937
				l-0.001-0.208c0.271-0.09,0.526-0.211,0.765-0.372c0.239-0.17,0.454-0.379,0.645-0.62L-216.729-148.246z"/>
			<path fill="#231915" d="M-211.725-147.374c0.227,0.495,0.351,1.142,0.355,1.949c0.006,0.8-0.11,1.456-0.331,1.953
				c-0.308,0.674-0.81,1.021-1.514,1.025c-0.703,0.004-1.217-0.337-1.524-1.007c-0.228-0.494-0.343-1.142-0.349-1.949
				c-0.005-0.815,0.103-1.463,0.324-1.953c0.3-0.682,0.81-1.021,1.513-1.024C-212.546-148.385-212.04-148.052-211.725-147.374z
				 M-214.586-147.269c-0.213,0.466-0.313,1.082-0.31,1.865c0.005,0.775,0.113,1.399,0.332,1.861
				c0.283,0.605,0.733,0.907,1.349,0.903c0.607-0.004,1.054-0.311,1.338-0.92c0.213-0.473,0.32-1.098,0.315-1.865
				c-0.004-0.775-0.119-1.398-0.338-1.861c-0.292-0.605-0.742-0.906-1.35-0.902C-213.864-148.184-214.311-147.878-214.586-147.269z"
				/>
			<path fill="#231915" d="M-206.924-147.403c0.227,0.494,0.351,1.142,0.355,1.949c0.006,0.8-0.11,1.455-0.331,1.953
				c-0.308,0.674-0.81,1.021-1.514,1.024c-0.703,0.005-1.217-0.336-1.524-1.006c-0.228-0.495-0.343-1.142-0.349-1.949
				c-0.005-0.815,0.103-1.464,0.324-1.953c0.3-0.682,0.81-1.021,1.513-1.025C-207.745-148.414-207.239-148.081-206.924-147.403z
				 M-209.785-147.298c-0.213,0.465-0.313,1.082-0.31,1.865c0.005,0.775,0.113,1.398,0.332,1.861
				c0.283,0.605,0.733,0.906,1.349,0.902c0.607-0.003,1.054-0.31,1.338-0.919c0.213-0.473,0.32-1.098,0.315-1.865
				c-0.004-0.775-0.119-1.398-0.338-1.861c-0.292-0.605-0.742-0.906-1.35-0.903C-209.063-148.214-209.51-147.907-209.785-147.298z"
				/>
			<path fill="#231915" d="M-194.441-148.384l2.465,5.486h0.017l2.388-5.517l0.353-0.002l0.036,5.709l-0.193,0.001l-0.033-5.541
				l-0.023,0.001l-2.414,5.556l-0.248,0.002l-2.479-5.526h-0.023l0.034,5.541l-0.193,0.001l-0.035-5.709L-194.441-148.384z"/>
		</g>
		<g clip-path="url(#SVGID_7_)">
			<path fill="#231915" d="M-187.435-146.092c0.048,0.048,0.08,0.104,0.081,0.184c0,0.072-0.031,0.136-0.079,0.185
				c-0.048,0.048-0.11,0.08-0.183,0.08c-0.08,0.001-0.137-0.03-0.185-0.078c-0.057-0.048-0.081-0.111-0.081-0.184
				c-0.001-0.08,0.022-0.136,0.079-0.185c0.047-0.056,0.103-0.08,0.183-0.081C-187.547-146.171-187.483-146.147-187.435-146.092z
				 M-187.417-143.165c0.049,0.048,0.081,0.104,0.081,0.184c0.001,0.072-0.031,0.136-0.078,0.184
				c-0.048,0.048-0.111,0.081-0.184,0.081c-0.08,0.001-0.136-0.031-0.184-0.079c-0.058-0.047-0.081-0.11-0.082-0.183
				c0-0.08,0.023-0.136,0.079-0.185c0.048-0.057,0.104-0.08,0.184-0.081C-187.528-143.244-187.465-143.222-187.417-143.165z"/>
			<path fill="#231915" d="M-184.642-148.444l0.035,5.709l-0.191,0.002l-0.033-5.445c-0.381,0.458-0.851,0.772-1.41,0.936
				l-0.002-0.208c0.272-0.089,0.527-0.211,0.766-0.371c0.239-0.17,0.454-0.379,0.645-0.62L-184.642-148.444z"/>
			<path fill="#231915" d="M-179.637-147.571c0.227,0.494,0.351,1.142,0.355,1.949c0.005,0.8-0.111,1.455-0.332,1.953
				c-0.307,0.674-0.809,1.021-1.513,1.024c-0.703,0.005-1.217-0.336-1.525-1.006c-0.228-0.495-0.343-1.142-0.348-1.949
				c-0.005-0.815,0.103-1.464,0.324-1.953c0.299-0.682,0.809-1.02,1.512-1.024C-180.459-148.581-179.953-148.249-179.637-147.571z
				 M-182.499-147.466c-0.213,0.465-0.313,1.082-0.309,1.865c0.005,0.775,0.113,1.398,0.332,1.861
				c0.283,0.605,0.733,0.906,1.349,0.902c0.608-0.003,1.054-0.31,1.338-0.919c0.213-0.473,0.32-1.098,0.315-1.865
				c-0.005-0.775-0.12-1.398-0.339-1.861c-0.292-0.605-0.74-0.906-1.349-0.903C-181.776-148.382-182.224-148.075-182.499-147.466z"
				/>
			<path fill="#231915" d="M-174.837-147.602c0.227,0.495,0.351,1.142,0.355,1.949c0.005,0.8-0.111,1.456-0.332,1.953
				c-0.307,0.674-0.809,1.021-1.513,1.025c-0.703,0.005-1.217-0.336-1.525-1.006c-0.228-0.495-0.343-1.142-0.348-1.949
				c-0.005-0.815,0.103-1.464,0.324-1.953c0.299-0.682,0.809-1.02,1.512-1.024C-175.659-148.61-175.153-148.279-174.837-147.602z
				 M-177.699-147.495c-0.213,0.465-0.313,1.082-0.309,1.865c0.005,0.775,0.113,1.398,0.332,1.861
				c0.283,0.605,0.733,0.906,1.349,0.902c0.607-0.004,1.054-0.311,1.338-0.919c0.213-0.474,0.32-1.098,0.315-1.865
				c-0.005-0.775-0.12-1.399-0.339-1.861c-0.292-0.606-0.741-0.907-1.349-0.903C-176.977-148.411-177.424-148.104-177.699-147.495z"
				/>
		</g>
		<g clip-path="url(#SVGID_7_)">
			<path fill="#231915" d="M-165.681-148.561l2.187,3.112l2.146-3.14l0.248-0.001l-2.298,3.324l0.015,2.398l-0.192,0.002
				l-0.015-2.398l-2.339-3.297L-165.681-148.561z"/>
		</g>
		<g clip-path="url(#SVGID_7_)">
			<path fill="#231915" d="M-159.875-146.262c0.049,0.048,0.08,0.104,0.081,0.184c0,0.072-0.03,0.136-0.079,0.185
				c-0.048,0.048-0.111,0.08-0.184,0.08c-0.08,0.001-0.136-0.03-0.184-0.077c-0.057-0.049-0.081-0.112-0.081-0.185
				c-0.001-0.08,0.022-0.136,0.079-0.185c0.047-0.056,0.103-0.08,0.183-0.081C-159.987-146.341-159.924-146.317-159.875-146.262z
				 M-159.857-143.335c0.049,0.048,0.081,0.104,0.081,0.184c0.001,0.072-0.03,0.136-0.079,0.184
				c-0.047,0.048-0.11,0.081-0.183,0.081c-0.08,0.001-0.136-0.031-0.185-0.078c-0.057-0.048-0.08-0.111-0.081-0.184
				c0-0.08,0.022-0.136,0.079-0.184c0.048-0.058,0.104-0.081,0.184-0.082C-159.969-143.414-159.905-143.392-159.857-143.335z"/>
			<path fill="#231915" d="M-155.02-148.627l0.001,0.192l-2.886,0.019l-0.217,2.463h0.032c0.158-0.217,0.365-0.386,0.637-0.507
				c0.247-0.114,0.51-0.171,0.781-0.173c0.544-0.003,0.985,0.153,1.323,0.479c0.354,0.341,0.533,0.819,0.537,1.436
				c0.003,0.544-0.17,1-0.521,1.371c-0.349,0.361-0.795,0.549-1.347,0.552c-0.48,0.003-0.881-0.131-1.211-0.385
				c-0.369-0.285-0.579-0.685-0.622-1.187l0.2-0.002c0.033,0.439,0.221,0.79,0.549,1.044c0.298,0.23,0.658,0.348,1.082,0.345
				c0.496-0.003,0.895-0.173,1.212-0.503c0.311-0.337,0.468-0.746,0.465-1.233c-0.004-0.56-0.166-0.999-0.48-1.302
				c-0.305-0.294-0.697-0.435-1.186-0.432c-0.312,0.002-0.6,0.084-0.87,0.245s-0.478,0.378-0.604,0.651l-0.2,0.002l0.253-3.057
				L-155.02-148.627z"/>
		</g>
		<g clip-path="url(#SVGID_7_)">
			<path fill="#231915" d="M-141.437-148.71l-2.679,2.447l3.065,3.26l-0.271,0.001l-2.938-3.132l-1.224,1.118l0.012,2.039
				l-0.192,0.002l-0.035-5.709l0.192-0.002l0.021,3.422l3.744-3.444L-141.437-148.71z"/>
		</g>
		<g clip-path="url(#SVGID_7_)">
			<path fill="#231915" d="M-139.9-146.385c0.048,0.048,0.081,0.104,0.081,0.184c0.001,0.072-0.031,0.136-0.079,0.185
				c-0.047,0.048-0.11,0.08-0.183,0.08c-0.08,0.001-0.136-0.03-0.185-0.078c-0.057-0.048-0.08-0.111-0.081-0.184
				c0-0.08,0.022-0.136,0.079-0.185c0.048-0.056,0.103-0.08,0.183-0.081C-140.013-146.464-139.948-146.44-139.9-146.385z
				 M-139.883-143.458c0.049,0.048,0.081,0.104,0.082,0.184c0,0.072-0.032,0.136-0.079,0.184c-0.048,0.048-0.111,0.081-0.184,0.081
				c-0.08,0.001-0.136-0.031-0.184-0.079c-0.058-0.047-0.081-0.11-0.081-0.183c-0.001-0.08,0.022-0.136,0.078-0.185
				c0.048-0.057,0.104-0.08,0.184-0.081C-139.994-143.537-139.931-143.515-139.883-143.458z"/>
			<path fill="#231915" d="M-135.19-147.846c0.227,0.495,0.351,1.142,0.355,1.949c0.005,0.8-0.111,1.456-0.332,1.953
				c-0.307,0.674-0.809,1.021-1.513,1.025c-0.703,0.004-1.217-0.336-1.525-1.006c-0.228-0.495-0.343-1.142-0.348-1.949
				c-0.005-0.815,0.103-1.464,0.324-1.953c0.3-0.682,0.809-1.021,1.512-1.024C-136.013-148.854-135.506-148.523-135.19-147.846z
				 M-138.053-147.74c-0.213,0.466-0.313,1.082-0.309,1.865c0.005,0.775,0.113,1.399,0.332,1.861
				c0.283,0.606,0.733,0.907,1.349,0.903c0.608-0.004,1.054-0.311,1.338-0.919c0.213-0.474,0.32-1.099,0.315-1.866
				c-0.005-0.775-0.12-1.398-0.339-1.86c-0.291-0.606-0.74-0.907-1.349-0.903C-137.33-148.655-137.776-148.349-138.053-147.74z"/>
		</g>
		<g clip-path="url(#SVGID_7_)">
			<path fill="#231915" d="M-224.808-132.709l0.23-1.521l0.192-0.001l-0.231,1.521l1.535-0.01l0.231-1.521l0.191-0.001l-0.23,1.521
				l0.983-0.007l-0.031,0.192l-0.983,0.006l-0.345,2.312l1.079-0.007l-0.031,0.193l-1.079,0.006l-0.23,1.497l-0.199,0.001
				l0.229-1.496l-1.527,0.009l-0.229,1.497l-0.2,0.001l0.23-1.497l-0.983,0.007l0.03-0.193l0.983-0.006l0.354-2.312l-1.087,0.007
				l0.03-0.191L-224.808-132.709z M-223.465-130.216l0.354-2.312l-1.535,0.01l-0.346,2.312L-223.465-130.216z"/>
			<path fill="#231915" d="M-219.665-134.261l0.035,5.709l-0.191,0.001l-0.034-5.445c-0.381,0.459-0.852,0.773-1.41,0.937
				l-0.001-0.208c0.271-0.089,0.526-0.211,0.765-0.371c0.239-0.17,0.454-0.379,0.646-0.621L-219.665-134.261z"/>
			<path fill="#231915" d="M-215.022-132.178c0.266,0.365,0.422,0.9,0.458,1.596l-3.525,0.021c0.02,0.576,0.175,1.039,0.48,1.389
				c0.306,0.351,0.698,0.523,1.194,0.521c0.448-0.003,0.798-0.133,1.068-0.374c0.222-0.209,0.389-0.506,0.482-0.883l0.208-0.001
				c-0.094,0.416-0.275,0.745-0.53,0.994c-0.318,0.298-0.724,0.453-1.228,0.456c-0.567,0.004-1.017-0.202-1.355-0.601
				c-0.338-0.404-0.508-0.932-0.512-1.571c-0.004-0.6,0.152-1.104,0.478-1.514c0.341-0.45,0.796-0.669,1.363-0.673
				C-215.81-132.821-215.337-132.607-215.022-132.178z M-217.612-132.082c-0.301,0.354-0.458,0.802-0.479,1.33l3.325-0.021
				c-0.096-1.247-0.651-1.859-1.674-1.853C-216.919-132.622-217.31-132.444-217.612-132.082z"/>
			<path fill="#231915" d="M-212.298-134.306l0.035,5.709l-0.191,0.001l-0.034-5.445c-0.381,0.458-0.851,0.772-1.41,0.937
				l-0.001-0.208c0.271-0.09,0.526-0.211,0.765-0.372c0.239-0.169,0.454-0.379,0.646-0.62L-212.298-134.306z"/>
			<path fill="#231915" d="M-207.654-132.223c0.266,0.365,0.422,0.9,0.458,1.596l-3.526,0.021c0.02,0.576,0.175,1.039,0.48,1.389
				s0.698,0.523,1.194,0.52c0.448-0.002,0.799-0.133,1.069-0.373c0.222-0.21,0.389-0.507,0.482-0.883l0.207-0.002
				c-0.093,0.417-0.274,0.745-0.529,0.995c-0.318,0.298-0.725,0.452-1.229,0.455c-0.567,0.004-1.017-0.201-1.355-0.6
				c-0.337-0.405-0.508-0.933-0.512-1.572c-0.004-0.6,0.152-1.104,0.478-1.514c0.341-0.449,0.796-0.669,1.363-0.673
				C-208.441-132.867-207.969-132.652-207.654-132.223z M-210.244-132.127c-0.302,0.354-0.459,0.802-0.479,1.33l3.326-0.021
				c-0.096-1.247-0.651-1.859-1.675-1.854C-209.552-132.667-209.942-132.489-210.244-132.127z"/>
			<path fill="#231915" d="M-203.233-134.041c0.272,0.254,0.419,0.58,0.422,0.988c0.002,0.319-0.084,0.593-0.251,0.825
				c-0.175,0.241-0.43,0.41-0.749,0.5v0.032c0.353,0.062,0.642,0.228,0.875,0.515c0.233,0.277,0.356,0.613,0.358,0.997
				c0.003,0.479-0.155,0.873-0.474,1.171c-0.342,0.313-0.828,0.477-1.452,0.48c-0.632,0.004-1.12-0.153-1.458-0.463
				c-0.321-0.294-0.483-0.686-0.486-1.165c-0.002-0.384,0.106-0.721,0.346-1.001c0.23-0.29,0.524-0.46,0.876-0.525v-0.032
				c-0.328-0.086-0.585-0.252-0.763-0.491c-0.177-0.23-0.259-0.502-0.261-0.821c-0.003-0.408,0.131-0.736,0.41-0.994
				c0.302-0.29,0.732-0.437,1.3-0.439C-203.98-134.469-203.539-134.327-203.233-134.041z M-205.831-131.171
				c-0.286,0.258-0.429,0.594-0.426,1.01c0.003,0.424,0.142,0.767,0.414,1.021c0.306,0.286,0.746,0.428,1.338,0.424
				c0.584-0.004,1.03-0.15,1.333-0.44c0.271-0.257,0.404-0.602,0.401-1.025c-0.003-0.416-0.148-0.75-0.438-1.004
				c-0.322-0.286-0.755-0.429-1.314-0.425C-205.082-131.608-205.521-131.461-205.831-131.171z M-205.719-133.883
				c-0.231,0.218-0.342,0.498-0.34,0.85c0.002,0.344,0.116,0.624,0.35,0.846c0.266,0.255,0.658,0.38,1.186,0.377
				c0.52-0.003,0.911-0.134,1.181-0.392c0.223-0.225,0.341-0.506,0.339-0.85c-0.002-0.352-0.124-0.631-0.349-0.846
				c-0.273-0.254-0.675-0.379-1.187-0.376C-205.059-134.271-205.449-134.14-205.719-133.883z"/>
			<path fill="#231915" d="M-198.252-134.393l0.001,0.184l-2.229,5.539l-0.224,0.002l2.236-5.53l-3.35,0.021l-0.001-0.192
				L-198.252-134.393z"/>
		</g>
		<g clip-path="url(#SVGID_7_)">
			<path fill="#231915" d="M321.07-147.864c0.466,0.332,0.732,0.779,0.8,1.322l-0.184,0.002c-0.067-0.48-0.31-0.871-0.727-1.172
				c-0.401-0.285-0.866-0.426-1.378-0.423c-0.768,0.005-1.381,0.279-1.842,0.843c-0.428,0.53-0.64,1.187-0.635,1.986
				c0.005,0.783,0.225,1.422,0.659,1.931c0.442,0.526,1.028,0.794,1.764,0.789c0.544-0.003,1.015-0.157,1.42-0.465
				c0.445-0.337,0.723-0.803,0.83-1.396l0.185-0.001c-0.116,0.656-0.408,1.169-0.886,1.541c-0.438,0.338-0.956,0.51-1.548,0.513
				c-0.791,0.005-1.433-0.279-1.915-0.853c-0.468-0.549-0.696-1.234-0.701-2.058c-0.006-0.84,0.223-1.545,0.683-2.107
				c0.492-0.611,1.154-0.91,1.985-0.915C320.142-148.33,320.637-148.182,321.07-147.864z"/>
			<path fill="#231915" d="M323.483-145.904c0.048,0.048,0.081,0.104,0.081,0.184c0.001,0.072-0.031,0.136-0.079,0.185
				c-0.047,0.049-0.11,0.08-0.183,0.08c-0.08,0.001-0.136-0.03-0.185-0.077c-0.057-0.049-0.08-0.112-0.081-0.185
				c0-0.08,0.022-0.136,0.079-0.184c0.048-0.057,0.104-0.081,0.184-0.082C323.372-145.983,323.436-145.959,323.483-145.904z
				 M323.502-142.978c0.048,0.048,0.08,0.104,0.081,0.184c0,0.072-0.031,0.136-0.079,0.184c-0.048,0.049-0.111,0.081-0.184,0.081
				c-0.08,0.001-0.136-0.031-0.184-0.078c-0.057-0.048-0.081-0.111-0.081-0.184c-0.001-0.08,0.022-0.136,0.079-0.184
				c0.047-0.058,0.103-0.081,0.183-0.082C323.39-143.057,323.453-143.033,323.502-142.978z"/>
			<path fill="#231915" d="M327.974-147.946c0.273,0.254,0.42,0.58,0.423,0.988c0.002,0.319-0.085,0.593-0.251,0.825
				c-0.176,0.241-0.431,0.411-0.749,0.501v0.032c0.353,0.061,0.642,0.228,0.874,0.514c0.234,0.278,0.356,0.613,0.359,0.997
				c0.003,0.479-0.155,0.873-0.474,1.171c-0.342,0.313-0.828,0.477-1.452,0.48c-0.632,0.004-1.12-0.153-1.458-0.463
				c-0.321-0.294-0.483-0.686-0.486-1.165c-0.003-0.384,0.106-0.72,0.345-1.001c0.231-0.289,0.525-0.459,0.877-0.525v-0.032
				c-0.329-0.085-0.586-0.252-0.763-0.491c-0.178-0.23-0.259-0.502-0.261-0.821c-0.003-0.408,0.131-0.736,0.409-0.994
				c0.303-0.29,0.733-0.436,1.301-0.439C327.228-148.373,327.669-148.232,327.974-147.946z M325.376-145.076
				c-0.285,0.258-0.428,0.594-0.425,1.01c0.002,0.424,0.142,0.767,0.414,1.021c0.306,0.287,0.746,0.428,1.338,0.424
				c0.584-0.004,1.03-0.149,1.333-0.439c0.271-0.258,0.403-0.603,0.401-1.026c-0.003-0.416-0.148-0.75-0.438-1.004
				c-0.321-0.286-0.754-0.428-1.313-0.425C326.126-145.513,325.688-145.366,325.376-145.076z M325.488-147.788
				c-0.23,0.218-0.342,0.499-0.339,0.851c0.002,0.344,0.116,0.623,0.35,0.845c0.266,0.255,0.657,0.38,1.185,0.377
				c0.52-0.003,0.912-0.134,1.182-0.391c0.223-0.226,0.341-0.507,0.339-0.851c-0.003-0.352-0.124-0.631-0.35-0.845
				c-0.272-0.255-0.674-0.38-1.186-0.377C326.149-148.176,325.759-148.045,325.488-147.788z"/>
			<path fill="#231915" d="M333.253-146.939l-0.2,0.001c-0.156-0.854-0.655-1.275-1.503-1.271c-0.552,0.004-0.981,0.286-1.29,0.855
				c-0.3,0.529-0.44,1.218-0.436,2.058c0.001,0.048,0.001,0.184,0.011,0.424h0.024c0.109-0.4,0.314-0.722,0.634-0.972
				c0.31-0.258,0.669-0.38,1.076-0.383c0.528-0.003,0.961,0.162,1.292,0.504c0.321,0.334,0.492,0.773,0.495,1.316
				c0.003,0.544-0.162,1.009-0.479,1.379c-0.334,0.369-0.765,0.557-1.293,0.56c-0.688,0.005-1.201-0.265-1.523-0.798
				c-0.283-0.47-0.423-1.142-0.429-2.021c-0.005-0.871,0.142-1.591,0.459-2.161c0.348-0.634,0.833-0.948,1.465-0.952
				C332.509-148.406,333.071-147.922,333.253-146.939z M330.447-145.548c-0.334,0.322-0.492,0.707-0.489,1.154
				c0.003,0.456,0.141,0.855,0.415,1.189c0.307,0.366,0.707,0.555,1.211,0.552c0.472-0.003,0.854-0.173,1.148-0.502
				c0.286-0.338,0.435-0.755,0.432-1.251c-0.003-0.495-0.157-0.886-0.447-1.188c-0.289-0.303-0.674-0.452-1.146-0.449
				C331.14-146.039,330.765-145.877,330.447-145.548z"/>
			<path fill="#231915" d="M345.477-148.375l2.465,5.486h0.017l2.389-5.516l0.352-0.003l0.035,5.709l-0.192,0.002l-0.034-5.541
				h-0.023l-2.413,5.556l-0.247,0.002l-2.481-5.526h-0.023l0.034,5.541l-0.192,0.002l-0.035-5.709L345.477-148.375z"/>
		</g>
		<g clip-path="url(#SVGID_7_)">
			<path fill="#231915" d="M352.483-146.082c0.049,0.048,0.08,0.104,0.081,0.184c0,0.072-0.03,0.136-0.079,0.184
				c-0.048,0.05-0.11,0.081-0.183,0.081c-0.08,0.001-0.137-0.03-0.185-0.078c-0.057-0.048-0.081-0.111-0.081-0.184
				c-0.001-0.08,0.022-0.136,0.079-0.184c0.047-0.057,0.103-0.081,0.183-0.082C352.371-146.161,352.435-146.137,352.483-146.082z
				 M352.501-143.156c0.05,0.049,0.081,0.104,0.081,0.185c0.001,0.071-0.03,0.136-0.078,0.184c-0.048,0.049-0.111,0.081-0.184,0.081
				c-0.08,0.001-0.136-0.031-0.184-0.078c-0.058-0.048-0.081-0.112-0.082-0.184c0-0.08,0.023-0.136,0.079-0.185
				c0.048-0.057,0.104-0.08,0.184-0.081C352.39-143.234,352.453-143.211,352.501-143.156z"/>
			<path fill="#231915" d="M357.339-148.446l0.001,0.192l-2.886,0.018l-0.217,2.463h0.032c0.158-0.217,0.365-0.386,0.637-0.507
				c0.247-0.114,0.511-0.171,0.782-0.173c0.544-0.003,0.985,0.153,1.322,0.479c0.354,0.342,0.533,0.819,0.537,1.436
				c0.003,0.544-0.17,1.001-0.521,1.371c-0.349,0.361-0.795,0.549-1.347,0.552c-0.48,0.003-0.881-0.131-1.211-0.385
				c-0.368-0.285-0.579-0.684-0.622-1.188l0.2-0.001c0.034,0.439,0.221,0.79,0.549,1.044c0.298,0.229,0.659,0.348,1.083,0.345
				c0.495-0.003,0.895-0.173,1.212-0.502c0.31-0.338,0.467-0.747,0.464-1.234c-0.004-0.56-0.166-0.999-0.479-1.301
				c-0.306-0.294-0.698-0.436-1.187-0.433c-0.312,0.002-0.6,0.084-0.87,0.246c-0.271,0.16-0.477,0.378-0.604,0.65l-0.2,0.002
				l0.253-3.057L357.339-148.446z"/>
			<path fill="#231915" d="M361.773-148.153c0.273,0.254,0.42,0.58,0.422,0.988c0.002,0.319-0.084,0.593-0.25,0.825
				c-0.176,0.241-0.431,0.41-0.749,0.5v0.032c0.352,0.062,0.641,0.228,0.874,0.515c0.234,0.277,0.356,0.613,0.358,0.997
				c0.003,0.479-0.154,0.873-0.473,1.171c-0.342,0.313-0.828,0.477-1.452,0.48c-0.632,0.004-1.12-0.153-1.458-0.463
				c-0.321-0.294-0.484-0.686-0.487-1.165c-0.002-0.384,0.107-0.721,0.346-1.001c0.23-0.29,0.524-0.46,0.877-0.525v-0.032
				c-0.329-0.086-0.586-0.252-0.763-0.491c-0.178-0.23-0.26-0.502-0.262-0.821c-0.002-0.408,0.132-0.736,0.41-0.994
				c0.302-0.29,0.732-0.438,1.3-0.44C361.026-148.582,361.468-148.439,361.773-148.153z M359.176-145.283
				c-0.285,0.258-0.428,0.594-0.426,1.01c0.003,0.424,0.142,0.767,0.415,1.021c0.306,0.286,0.746,0.428,1.338,0.424
				c0.584-0.004,1.03-0.15,1.333-0.44c0.27-0.257,0.403-0.602,0.4-1.025c-0.002-0.416-0.147-0.75-0.438-1.004
				c-0.322-0.286-0.755-0.429-1.314-0.425C359.925-145.721,359.486-145.573,359.176-145.283z M359.288-147.995
				c-0.231,0.218-0.342,0.498-0.34,0.85c0.003,0.344,0.116,0.623,0.351,0.846c0.265,0.255,0.657,0.38,1.185,0.377
				c0.52-0.003,0.911-0.134,1.182-0.392c0.222-0.226,0.341-0.506,0.338-0.85c-0.002-0.352-0.124-0.631-0.349-0.846
				c-0.273-0.254-0.674-0.379-1.186-0.376C359.949-148.383,359.558-148.252,359.288-147.995z"/>
			<path fill="#231915" d="M366.793-147.602c0.227,0.495,0.351,1.142,0.355,1.949c0.005,0.8-0.111,1.456-0.332,1.953
				c-0.307,0.674-0.809,1.021-1.513,1.025c-0.703,0.004-1.217-0.337-1.525-1.007c-0.228-0.494-0.343-1.142-0.348-1.949
				c-0.005-0.815,0.103-1.463,0.324-1.953c0.299-0.682,0.809-1.021,1.512-1.024C365.971-148.612,366.477-148.279,366.793-147.602z
				 M363.931-147.496c-0.213,0.465-0.313,1.082-0.309,1.865c0.005,0.775,0.113,1.398,0.332,1.861
				c0.283,0.605,0.733,0.906,1.349,0.903c0.607-0.004,1.054-0.311,1.338-0.92c0.213-0.473,0.32-1.098,0.315-1.865
				c-0.005-0.775-0.12-1.398-0.339-1.861c-0.292-0.605-0.741-0.906-1.349-0.902C364.653-148.412,364.206-148.105,363.931-147.496z"
				/>
		</g>
		<g clip-path="url(#SVGID_7_)">
			<path fill="#231915" d="M375.949-148.562l2.187,3.113l2.146-3.14l0.248-0.002l-2.298,3.325l0.015,2.398l-0.192,0.001
				l-0.015-2.398l-2.339-3.296L375.949-148.562z"/>
		</g>
		<g clip-path="url(#SVGID_7_)">
			<path fill="#231915" d="M381.755-146.262c0.049,0.047,0.08,0.103,0.081,0.183c0,0.072-0.03,0.136-0.079,0.186
				c-0.048,0.048-0.111,0.079-0.184,0.08c-0.08,0-0.136-0.03-0.184-0.078c-0.057-0.049-0.081-0.112-0.081-0.185
				c-0.001-0.08,0.022-0.136,0.079-0.184c0.047-0.056,0.103-0.081,0.183-0.081C381.643-146.342,381.706-146.317,381.755-146.262z
				 M381.772-143.335c0.049,0.047,0.081,0.103,0.081,0.183c0.001,0.072-0.03,0.136-0.079,0.185c-0.047,0.048-0.11,0.08-0.183,0.081
				c-0.08,0-0.136-0.031-0.185-0.079c-0.057-0.048-0.08-0.111-0.081-0.184c0-0.08,0.022-0.136,0.079-0.184
				c0.048-0.057,0.104-0.081,0.184-0.081C381.661-143.415,381.725-143.392,381.772-143.335z"/>
			<path fill="#231915" d="M386.465-147.723c0.227,0.494,0.351,1.142,0.355,1.949c0.005,0.8-0.111,1.455-0.332,1.953
				c-0.308,0.674-0.809,1.021-1.513,1.024c-0.703,0.005-1.218-0.336-1.525-1.006c-0.228-0.495-0.343-1.142-0.348-1.949
				c-0.005-0.815,0.103-1.464,0.324-1.953c0.299-0.682,0.809-1.02,1.512-1.024C385.643-148.732,386.148-148.4,386.465-147.723z
				 M383.603-147.617c-0.213,0.465-0.313,1.082-0.309,1.865c0.005,0.775,0.113,1.398,0.332,1.861
				c0.283,0.605,0.732,0.906,1.348,0.902c0.607-0.003,1.055-0.31,1.339-0.919c0.213-0.473,0.32-1.098,0.315-1.865
				c-0.005-0.775-0.12-1.398-0.339-1.861c-0.292-0.605-0.742-0.906-1.35-0.903C384.324-148.533,383.878-148.227,383.603-147.617z"/>
		</g>
		<g clip-path="url(#SVGID_7_)">
			<path fill="#231915" d="M400.195-148.711l-2.679,2.447l3.065,3.26l-0.271,0.002l-2.938-3.133l-1.224,1.119l0.012,2.039
				l-0.192,0.001l-0.035-5.709l0.192-0.001l0.021,3.422l3.744-3.445L400.195-148.711z"/>
		</g>
		<g clip-path="url(#SVGID_7_)">
			<path fill="#231915" d="M401.731-146.385c0.048,0.047,0.081,0.103,0.081,0.183c0,0.072-0.031,0.136-0.079,0.186
				c-0.047,0.048-0.11,0.079-0.183,0.08c-0.08,0-0.136-0.03-0.185-0.078c-0.057-0.049-0.081-0.112-0.081-0.185
				c0-0.08,0.022-0.136,0.079-0.184c0.048-0.056,0.103-0.081,0.183-0.081C401.619-146.465,401.684-146.44,401.731-146.385z
				 M401.749-143.458c0.049,0.047,0.081,0.103,0.082,0.183c0,0.072-0.032,0.136-0.079,0.185c-0.048,0.048-0.111,0.08-0.184,0.081
				c-0.08,0-0.136-0.031-0.184-0.079c-0.058-0.048-0.081-0.111-0.081-0.184c-0.001-0.08,0.022-0.136,0.078-0.184
				c0.048-0.057,0.104-0.081,0.184-0.081C401.638-143.538,401.701-143.515,401.749-143.458z"/>
			<path fill="#231915" d="M406.441-147.846c0.227,0.494,0.351,1.142,0.355,1.949c0.005,0.8-0.111,1.455-0.332,1.953
				c-0.307,0.674-0.809,1.021-1.513,1.024c-0.703,0.005-1.217-0.336-1.525-1.006c-0.228-0.495-0.343-1.142-0.348-1.949
				c-0.005-0.815,0.103-1.464,0.324-1.953c0.3-0.682,0.809-1.02,1.512-1.024C405.619-148.855,406.126-148.523,406.441-147.846z
				 M403.579-147.74c-0.213,0.465-0.313,1.082-0.309,1.865c0.005,0.775,0.113,1.398,0.332,1.861
				c0.283,0.605,0.733,0.906,1.349,0.902c0.608-0.003,1.054-0.31,1.338-0.919c0.213-0.473,0.32-1.098,0.315-1.865
				c-0.005-0.775-0.12-1.398-0.339-1.861c-0.291-0.605-0.74-0.906-1.349-0.903C404.302-148.656,403.855-148.35,403.579-147.74z"/>
		</g>
		<g clip-path="url(#SVGID_7_)">
			<path fill="#231915" d="M318.198-132.693l0.23-1.521l0.192-0.001l-0.231,1.521l1.535-0.009l0.231-1.521l0.191-0.001l-0.23,1.521
				l0.982-0.006l-0.031,0.191l-0.982,0.007l-0.345,2.312l1.078-0.007l-0.031,0.192l-1.078,0.007l-0.23,1.497l-0.199,0.001
				l0.229-1.497l-1.527,0.01l-0.229,1.497l-0.2,0.001l0.23-1.497l-0.983,0.006l0.03-0.192l0.983-0.006l0.354-2.312l-1.087,0.007
				l0.03-0.192L318.198-132.693z M319.541-130.2l0.354-2.312l-1.535,0.01l-0.346,2.312L319.541-130.2z"/>
			<path fill="#231915" d="M325.256-133.354c0.228,0.495,0.352,1.142,0.356,1.949c0.005,0.8-0.111,1.456-0.332,1.953
				c-0.308,0.674-0.81,1.021-1.514,1.025c-0.703,0.004-1.217-0.337-1.524-1.007c-0.228-0.494-0.343-1.142-0.348-1.949
				c-0.005-0.815,0.102-1.463,0.323-1.953c0.3-0.682,0.81-1.02,1.513-1.023C324.435-134.363,324.94-134.031,325.256-133.354z
				 M322.395-133.248c-0.213,0.465-0.313,1.082-0.309,1.865c0.005,0.775,0.113,1.398,0.331,1.861
				c0.283,0.605,0.733,0.906,1.349,0.903c0.608-0.004,1.054-0.311,1.338-0.92c0.213-0.473,0.321-1.098,0.316-1.865
				c-0.005-0.775-0.12-1.398-0.339-1.861c-0.292-0.605-0.741-0.906-1.35-0.902C323.116-134.164,322.67-133.857,322.395-133.248z"/>
			<path fill="#231915" d="M330.056-133.383c0.228,0.494,0.352,1.142,0.356,1.949c0.005,0.8-0.111,1.455-0.332,1.953
				c-0.308,0.674-0.81,1.021-1.514,1.024c-0.703,0.005-1.217-0.336-1.524-1.006c-0.228-0.495-0.343-1.142-0.348-1.949
				c-0.005-0.815,0.102-1.464,0.323-1.953c0.3-0.682,0.81-1.02,1.513-1.024C329.234-134.393,329.74-134.061,330.056-133.383z
				 M327.194-133.277c-0.213,0.465-0.313,1.082-0.309,1.865c0.005,0.775,0.113,1.398,0.331,1.861
				c0.283,0.605,0.733,0.906,1.349,0.902c0.607-0.004,1.054-0.31,1.338-0.919c0.213-0.474,0.321-1.098,0.316-1.865
				c-0.005-0.775-0.12-1.399-0.339-1.861c-0.292-0.605-0.742-0.907-1.35-0.903C327.916-134.193,327.47-133.887,327.194-133.277z"/>
			<path fill="#231915" d="M335.114-132.958l-0.2,0.001c-0.156-0.854-0.655-1.275-1.503-1.27c-0.552,0.003-0.981,0.286-1.289,0.855
				c-0.301,0.529-0.441,1.218-0.437,2.058c0.001,0.048,0.002,0.184,0.011,0.423h0.024c0.11-0.399,0.315-0.722,0.634-0.972
				c0.31-0.258,0.67-0.38,1.077-0.383c0.528-0.003,0.961,0.162,1.291,0.504c0.321,0.334,0.492,0.773,0.495,1.316
				c0.004,0.544-0.161,1.009-0.479,1.379c-0.334,0.369-0.765,0.557-1.293,0.561c-0.688,0.004-1.2-0.266-1.523-0.799
				c-0.283-0.47-0.423-1.141-0.428-2.021c-0.006-0.871,0.142-1.592,0.458-2.161c0.348-0.634,0.833-0.949,1.465-0.953
				C334.37-134.425,334.933-133.94,335.114-132.958z M332.309-131.565c-0.334,0.322-0.492,0.707-0.489,1.154
				c0.003,0.456,0.142,0.854,0.416,1.188c0.306,0.366,0.706,0.556,1.21,0.553c0.472-0.003,0.854-0.174,1.148-0.503
				c0.286-0.338,0.435-0.755,0.432-1.251c-0.003-0.495-0.156-0.886-0.446-1.188c-0.29-0.303-0.675-0.452-1.146-0.449
				C333.001-132.058,332.626-131.895,332.309-131.565z"/>
			<path fill="#231915" d="M339.574-133.657c0.283,0.462,0.431,1.141,0.437,2.028c0.005,0.863-0.15,1.584-0.459,2.161
				c-0.348,0.626-0.842,0.949-1.466,0.953c-0.959,0.006-1.521-0.486-1.695-1.461l0.2-0.001c0.148,0.847,0.655,1.275,1.503,1.27
				c0.543-0.003,0.973-0.294,1.29-0.855c0.292-0.537,0.439-1.226,0.435-2.058c0-0.048-0.009-0.191-0.011-0.424h-0.016
				c-0.109,0.393-0.323,0.714-0.634,0.972c-0.318,0.25-0.685,0.381-1.085,0.383c-0.535,0.004-0.968-0.17-1.291-0.504
				c-0.33-0.334-0.491-0.773-0.495-1.316c-0.003-0.552,0.153-1.009,0.486-1.379c0.318-0.369,0.749-0.555,1.285-0.559
				C338.737-134.451,339.243-134.19,339.574-133.657z M336.911-133.762c-0.294,0.33-0.436,0.747-0.433,1.251
				c0.003,0.487,0.15,0.887,0.439,1.189c0.29,0.302,0.675,0.45,1.154,0.447c0.424-0.002,0.798-0.173,1.132-0.494
				c0.317-0.33,0.483-0.715,0.48-1.154c-0.003-0.464-0.141-0.854-0.414-1.188c-0.307-0.375-0.716-0.556-1.211-0.553
				C337.579-134.261,337.196-134.098,336.911-133.762z"/>
			<path fill="#231915" d="M344.481-134.486l0.036,5.82l-0.192,0.001l-0.007-1.063c-0.283,0.785-0.809,1.181-1.584,1.186
				c-0.592,0.004-1.049-0.218-1.371-0.655c-0.298-0.398-0.445-0.901-0.449-1.509c-0.004-0.608,0.138-1.104,0.438-1.506
				c0.325-0.458,0.779-0.685,1.355-0.688c0.783-0.005,1.313,0.385,1.598,1.174l-0.017-2.758L344.481-134.486z M341.506-132.102
				c-0.271,0.36-0.403,0.825-0.399,1.394c0.003,0.567,0.134,1.03,0.408,1.396c0.29,0.382,0.699,0.579,1.219,0.576
				c0.512-0.003,0.902-0.197,1.188-0.575c0.261-0.353,0.395-0.802,0.391-1.346l-0.001-0.111c-0.003-0.56-0.142-1.015-0.399-1.365
				c-0.299-0.391-0.699-0.579-1.203-0.576C342.197-132.706,341.79-132.503,341.506-132.102z"/>
			<path fill="#231915" d="M348.677-134.09c0.321,0.278,0.483,0.661,0.486,1.141c0.003,0.504-0.186,0.953-0.56,1.348
				c-0.159,0.161-0.549,0.458-1.178,0.91c-0.955,0.669-1.471,1.281-1.532,1.825l3.302-0.021l0.002,0.191l-3.518,0.021
				c-0.003-0.416,0.178-0.841,0.56-1.258c0.238-0.282,0.612-0.596,1.114-0.951c0.572-0.419,0.938-0.701,1.082-0.846
				c0.357-0.37,0.539-0.779,0.536-1.22c-0.003-0.416-0.149-0.75-0.43-0.996c-0.282-0.254-0.643-0.372-1.074-0.369
				c-0.464,0.003-0.831,0.148-1.101,0.454c-0.302,0.322-0.451,0.771-0.447,1.354l-0.191,0.001c-0.004-0.64,0.16-1.136,0.494-1.49
				c0.31-0.338,0.725-0.508,1.244-0.511C347.946-134.508,348.355-134.375,348.677-134.09z"/>
		</g>
		<g clip-path="url(#SVGID_7_)">
			<path fill="#231915" d="M-48.429-147.875c0.466,0.332,0.732,0.779,0.8,1.322l-0.184,0.001c-0.067-0.479-0.311-0.87-0.727-1.171
				c-0.402-0.286-0.867-0.427-1.379-0.424c-0.768,0.005-1.381,0.28-1.842,0.843c-0.429,0.531-0.64,1.188-0.635,1.987
				c0.005,0.783,0.225,1.422,0.659,1.931c0.442,0.525,1.028,0.794,1.764,0.789c0.544-0.003,1.015-0.157,1.421-0.465
				c0.445-0.338,0.723-0.804,0.83-1.396l0.185-0.001c-0.116,0.655-0.408,1.169-0.886,1.54c-0.438,0.339-0.957,0.51-1.549,0.514
				c-0.791,0.005-1.433-0.279-1.915-0.853c-0.468-0.549-0.696-1.235-0.701-2.059c-0.006-0.84,0.223-1.544,0.683-2.106
				c0.492-0.611,1.154-0.911,1.985-0.916C-49.358-148.342-48.862-148.192-48.429-147.875z"/>
			<path fill="#231915" d="M-46.016-145.915c0.049,0.048,0.081,0.103,0.081,0.183c0.001,0.072-0.03,0.137-0.079,0.185
				c-0.047,0.049-0.11,0.081-0.183,0.081c-0.08,0.001-0.136-0.03-0.185-0.079c-0.057-0.047-0.08-0.11-0.081-0.183
				c0-0.08,0.022-0.136,0.079-0.185c0.048-0.056,0.104-0.08,0.184-0.081C-46.127-145.994-46.063-145.971-46.016-145.915z
				 M-45.997-142.989c0.049,0.049,0.08,0.104,0.081,0.184c0,0.071-0.03,0.137-0.079,0.185c-0.048,0.048-0.111,0.081-0.184,0.081
				c-0.08,0.001-0.136-0.031-0.184-0.079c-0.057-0.047-0.081-0.111-0.081-0.183c-0.001-0.08,0.022-0.136,0.079-0.186
				c0.047-0.056,0.103-0.079,0.183-0.08C-46.109-143.067-46.046-143.045-45.997-142.989z"/>
			<path fill="#231915" d="M-41.047-146.921l-0.2,0.001c-0.156-0.854-0.655-1.275-1.503-1.271c-0.552,0.004-0.981,0.286-1.29,0.855
				c-0.3,0.529-0.44,1.218-0.436,2.058c0,0.048,0.001,0.184,0.011,0.424h0.024c0.109-0.4,0.315-0.722,0.634-0.972
				c0.31-0.258,0.669-0.379,1.076-0.382c0.528-0.003,0.961,0.161,1.291,0.504c0.322,0.333,0.492,0.772,0.496,1.315
				c0.003,0.544-0.162,1.009-0.479,1.379c-0.333,0.369-0.765,0.557-1.292,0.56c-0.688,0.005-1.201-0.265-1.524-0.798
				c-0.282-0.47-0.422-1.142-0.428-2.021c-0.005-0.871,0.142-1.591,0.459-2.16c0.348-0.635,0.834-0.95,1.465-0.954
				C-41.791-148.389-41.229-147.903-41.047-146.921z M-43.853-145.529c-0.334,0.322-0.492,0.707-0.489,1.154
				c0.003,0.456,0.141,0.855,0.415,1.189c0.307,0.366,0.707,0.555,1.211,0.552c0.472-0.003,0.854-0.173,1.148-0.502
				c0.286-0.338,0.435-0.755,0.432-1.251c-0.003-0.495-0.157-0.886-0.447-1.188c-0.29-0.302-0.674-0.451-1.146-0.448
				C-43.16-146.021-43.535-145.858-43.853-145.529z"/>
			<path fill="#231915" d="M-36.586-147.621c0.283,0.463,0.431,1.142,0.437,2.029c0.005,0.863-0.151,1.584-0.459,2.162
				c-0.348,0.625-0.842,0.948-1.466,0.952c-0.959,0.006-1.521-0.486-1.695-1.461l0.2-0.002c0.148,0.847,0.655,1.275,1.503,1.271
				c0.543-0.003,0.973-0.294,1.29-0.855c0.292-0.537,0.439-1.226,0.435-2.058c-0.001-0.048-0.01-0.191-0.011-0.424h-0.016
				c-0.11,0.393-0.324,0.714-0.634,0.972c-0.318,0.25-0.686,0.38-1.086,0.383c-0.535,0.003-0.968-0.171-1.29-0.504
				c-0.33-0.334-0.492-0.773-0.495-1.316c-0.004-0.552,0.152-1.009,0.486-1.379c0.318-0.369,0.749-0.557,1.285-0.56
				C-37.423-148.415-36.918-148.154-36.586-147.621z M-39.249-147.725c-0.294,0.33-0.436,0.747-0.433,1.251
				c0.003,0.487,0.149,0.886,0.438,1.188c0.29,0.302,0.675,0.451,1.154,0.448c0.424-0.003,0.799-0.173,1.133-0.494
				c0.317-0.33,0.483-0.715,0.48-1.154c-0.003-0.464-0.142-0.854-0.415-1.189c-0.306-0.374-0.715-0.555-1.21-0.552
				C-38.581-148.224-38.964-148.062-39.249-147.725z"/>
			<path fill="#231915" d="M-24.022-148.386l2.465,5.486h0.017l2.387-5.517l0.353-0.002l0.035,5.709l-0.192,0.001l-0.034-5.541
				l-0.023,0.001l-2.412,5.556l-0.248,0.002l-2.48-5.526h-0.023l0.034,5.541l-0.192,0.001l-0.035-5.709L-24.022-148.386z"/>
		</g>
		<g clip-path="url(#SVGID_7_)">
			<path fill="#231915" d="M-17.017-146.094c0.048,0.048,0.08,0.104,0.081,0.184c0,0.072-0.031,0.136-0.079,0.185
				c-0.048,0.048-0.11,0.08-0.183,0.08c-0.08,0.001-0.137-0.03-0.185-0.078c-0.057-0.048-0.081-0.111-0.081-0.184
				c-0.001-0.08,0.022-0.136,0.079-0.185c0.047-0.056,0.103-0.08,0.183-0.081C-17.129-146.173-17.065-146.149-17.017-146.094z
				 M-16.999-143.167c0.048,0.048,0.081,0.104,0.081,0.184c0.001,0.072-0.031,0.136-0.078,0.184
				c-0.048,0.048-0.111,0.081-0.184,0.081c-0.08,0.001-0.136-0.031-0.184-0.079c-0.058-0.047-0.081-0.11-0.082-0.183
				c0-0.08,0.022-0.136,0.079-0.185c0.048-0.057,0.104-0.08,0.184-0.081C-17.11-143.246-17.047-143.224-16.999-143.167z"/>
			<path fill="#231915" d="M-12.307-147.555c0.227,0.495,0.351,1.142,0.355,1.949c0.005,0.8-0.111,1.456-0.332,1.953
				c-0.307,0.674-0.809,1.021-1.513,1.025c-0.703,0.004-1.217-0.336-1.525-1.007c-0.228-0.494-0.343-1.141-0.348-1.948
				c-0.005-0.815,0.103-1.464,0.324-1.954c0.299-0.681,0.809-1.02,1.512-1.023C-13.129-148.564-12.623-148.232-12.307-147.555z
				 M-15.169-147.449c-0.213,0.466-0.313,1.082-0.309,1.865c0.005,0.775,0.113,1.399,0.332,1.861
				c0.283,0.606,0.733,0.907,1.349,0.903c0.608-0.004,1.054-0.311,1.338-0.92c0.213-0.473,0.32-1.098,0.315-1.865
				c-0.005-0.775-0.12-1.398-0.339-1.861c-0.292-0.605-0.74-0.906-1.349-0.902C-14.446-148.364-14.894-148.058-15.169-147.449z"/>
		</g>
		<g clip-path="url(#SVGID_7_)">
			<path fill="#231915" d="M-3.151-148.515l2.187,3.113l2.146-3.14l0.248-0.001l-2.298,3.324l0.015,2.398l-0.192,0.001l-0.015-2.398
				l-2.339-3.296L-3.151-148.515z"/>
		</g>
		<g clip-path="url(#SVGID_7_)">
			<path fill="#231915" d="M2.654-146.215c0.048,0.048,0.081,0.103,0.081,0.183c0.001,0.072-0.031,0.137-0.079,0.186
				c-0.047,0.048-0.11,0.08-0.183,0.08c-0.08,0.001-0.136-0.03-0.185-0.078c-0.057-0.048-0.08-0.111-0.081-0.184
				c0-0.08,0.022-0.136,0.079-0.185c0.048-0.056,0.103-0.08,0.183-0.081C2.542-146.294,2.606-146.271,2.654-146.215z M2.672-143.288
				c0.049,0.048,0.081,0.103,0.082,0.183c0,0.072-0.032,0.137-0.079,0.185c-0.048,0.048-0.111,0.081-0.184,0.081
				c-0.08,0.001-0.136-0.031-0.184-0.079c-0.058-0.047-0.081-0.11-0.081-0.183c-0.001-0.08,0.022-0.136,0.078-0.185
				c0.048-0.057,0.104-0.08,0.184-0.081C2.561-143.367,2.624-143.345,2.672-143.288z"/>
			<path fill="#231915" d="M7.104-148.273c0.306,0.278,0.468,0.637,0.471,1.085c0.004,0.688-0.297,1.129-0.904,1.341
				c0.321,0.102,0.57,0.276,0.756,0.522c0.185,0.239,0.283,0.526,0.285,0.862c0.003,0.503-0.171,0.912-0.513,1.234
				c-0.342,0.314-0.78,0.477-1.316,0.48c-0.447,0.003-0.84-0.115-1.161-0.354c-0.426-0.316-0.66-0.787-0.704-1.427l0.184-0.001
				c0.035,0.567,0.246,0.99,0.632,1.275c0.289,0.215,0.642,0.323,1.049,0.321c0.488-0.003,0.887-0.149,1.188-0.432
				c0.302-0.289,0.452-0.65,0.449-1.098c-0.002-0.384-0.14-0.695-0.414-0.933c-0.272-0.238-0.633-0.356-1.064-0.354l-0.568,0.003
				l-0.001-0.191l0.496-0.003c0.456-0.003,0.807-0.117,1.054-0.335c0.237-0.217,0.363-0.521,0.361-0.913
				c-0.002-0.384-0.14-0.695-0.397-0.933c-0.28-0.255-0.642-0.372-1.089-0.37c-0.448,0.003-0.807,0.134-1.078,0.406
				c-0.27,0.258-0.436,0.619-0.488,1.074l-0.192,0.002c0.053-0.513,0.234-0.913,0.544-1.219c0.302-0.306,0.71-0.451,1.214-0.455
				C6.391-148.685,6.799-148.551,7.104-148.273z"/>
			<path fill="#231915" d="M11.912-148.296c0.322,0.278,0.483,0.661,0.486,1.141c0.004,0.504-0.186,0.954-0.559,1.348
				c-0.159,0.161-0.549,0.459-1.178,0.911c-0.955,0.669-1.471,1.28-1.532,1.824l3.303-0.021l0.001,0.191l-3.519,0.022
				c-0.002-0.416,0.179-0.842,0.56-1.259c0.239-0.281,0.613-0.596,1.114-0.951c0.573-0.419,0.939-0.701,1.082-0.846
				c0.357-0.37,0.539-0.778,0.536-1.219c-0.002-0.416-0.148-0.75-0.43-0.997c-0.281-0.254-0.642-0.372-1.073-0.369
				c-0.464,0.003-0.831,0.148-1.101,0.454c-0.302,0.322-0.452,0.771-0.448,1.354l-0.191,0.001c-0.004-0.64,0.161-1.136,0.494-1.49
				c0.311-0.338,0.726-0.508,1.245-0.511C11.183-148.714,11.591-148.581,11.912-148.296z"/>
		</g>
		<g clip-path="url(#SVGID_7_)">
			<path fill="#231915" d="M25.895-148.693l-2.679,2.447l3.065,3.26l-0.271,0.002l-2.938-3.133l-1.224,1.119l0.012,2.039
				l-0.192,0.001l-0.035-5.709l0.192-0.001l0.021,3.422l3.744-3.445L25.895-148.693z"/>
		</g>
		<g clip-path="url(#SVGID_7_)">
			<path fill="#231915" d="M27.431-146.367c0.048,0.047,0.081,0.103,0.081,0.183c0.001,0.072-0.031,0.136-0.079,0.185
				c-0.047,0.049-0.11,0.08-0.183,0.081c-0.08,0-0.136-0.03-0.185-0.079c-0.057-0.048-0.08-0.11-0.081-0.183
				c0-0.08,0.022-0.137,0.079-0.185c0.048-0.056,0.103-0.081,0.183-0.081C27.318-146.447,27.383-146.423,27.431-146.367z
				 M27.448-143.441c0.049,0.048,0.081,0.104,0.082,0.184c0,0.071-0.032,0.136-0.079,0.185c-0.048,0.048-0.111,0.08-0.184,0.081
				c-0.08,0-0.136-0.031-0.184-0.079c-0.058-0.048-0.081-0.111-0.081-0.183c-0.001-0.08,0.022-0.137,0.078-0.186
				c0.048-0.056,0.104-0.08,0.184-0.08C27.337-143.521,27.4-143.497,27.448-143.441z"/>
			<path fill="#231915" d="M32.14-147.828c0.227,0.495,0.351,1.142,0.355,1.949c0.005,0.8-0.111,1.456-0.331,1.953
				c-0.308,0.674-0.81,1.021-1.514,1.025c-0.703,0.004-1.217-0.337-1.524-1.007c-0.229-0.495-0.344-1.142-0.349-1.949
				c-0.005-0.815,0.103-1.464,0.324-1.953c0.3-0.682,0.81-1.021,1.513-1.024C31.318-148.839,31.824-148.506,32.14-147.828z
				 M29.278-147.723c-0.214,0.465-0.314,1.082-0.31,1.865c0.005,0.775,0.113,1.398,0.332,1.861c0.283,0.605,0.733,0.906,1.349,0.903
				c0.608-0.004,1.054-0.311,1.338-0.92c0.213-0.473,0.32-1.098,0.315-1.865c-0.005-0.775-0.12-1.398-0.338-1.861
				c-0.292-0.605-0.741-0.906-1.35-0.902C30-148.639,29.554-148.332,29.278-147.723z"/>
		</g>
		<g clip-path="url(#SVGID_7_)">
			<path fill="#231915" d="M-51.302-132.698l0.23-1.521l0.192-0.001l-0.231,1.521l1.535-0.01l0.231-1.521l0.191-0.001l-0.23,1.521
				l0.983-0.006l-0.031,0.191l-0.983,0.006l-0.345,2.313l1.079-0.007l-0.031,0.192l-1.079,0.007l-0.23,1.496l-0.199,0.002
				l0.229-1.497l-1.527,0.01l-0.229,1.496l-0.2,0.002l0.23-1.497l-0.983,0.006l0.03-0.192l0.983-0.006l0.354-2.313l-1.087,0.007
				l0.03-0.191L-51.302-132.698z M-49.959-130.204l0.354-2.312l-1.535,0.009l-0.346,2.313L-49.959-130.204z"/>
			<path fill="#231915" d="M-44.243-133.357c0.227,0.494,0.352,1.142,0.356,1.949c0.005,0.8-0.111,1.455-0.332,1.953
				c-0.308,0.674-0.81,1.021-1.514,1.024c-0.703,0.005-1.217-0.336-1.524-1.006c-0.228-0.495-0.343-1.142-0.348-1.949
				c-0.005-0.815,0.102-1.464,0.323-1.953c0.3-0.682,0.81-1.021,1.513-1.025C-45.064-134.368-44.559-134.035-44.243-133.357z
				 M-47.104-133.252c-0.213,0.465-0.313,1.082-0.309,1.865c0.005,0.775,0.112,1.398,0.331,1.861
				c0.283,0.605,0.733,0.906,1.349,0.902c0.607-0.004,1.054-0.31,1.338-0.919c0.213-0.474,0.321-1.098,0.316-1.865
				c-0.005-0.775-0.12-1.399-0.339-1.861c-0.292-0.605-0.742-0.907-1.35-0.903C-46.383-134.168-46.829-133.861-47.104-133.252z"/>
			<path fill="#231915" d="M-39.443-133.388c0.227,0.495,0.352,1.142,0.356,1.949c0.005,0.8-0.111,1.456-0.332,1.953
				c-0.308,0.674-0.81,1.021-1.514,1.025c-0.703,0.004-1.217-0.336-1.524-1.006c-0.228-0.495-0.343-1.142-0.348-1.949
				c-0.005-0.815,0.102-1.464,0.323-1.953c0.3-0.682,0.81-1.021,1.513-1.025C-40.265-134.397-39.759-134.065-39.443-133.388z
				 M-42.305-133.281c-0.213,0.465-0.313,1.082-0.309,1.865c0.005,0.775,0.112,1.398,0.331,1.861
				c0.283,0.605,0.733,0.906,1.349,0.902c0.608-0.004,1.054-0.311,1.338-0.919c0.213-0.474,0.321-1.098,0.316-1.865
				c-0.005-0.775-0.12-1.399-0.339-1.861c-0.292-0.606-0.741-0.907-1.35-0.903C-41.583-134.197-42.029-133.891-42.305-133.281z"/>
			<path fill="#231915" d="M-35.214-132.493c0.307,0.238,0.484,0.589,0.543,1.067l-0.192,0.002
				c-0.059-0.416-0.221-0.719-0.478-0.925c-0.272-0.207-0.609-0.309-1.025-0.306c-0.503,0.003-0.902,0.197-1.203,0.6
				c-0.286,0.369-0.427,0.857-0.423,1.449c0.004,0.575,0.143,1.039,0.416,1.389c0.29,0.358,0.699,0.539,1.227,0.536
				c0.863-0.005,1.372-0.465,1.52-1.368l0.192-0.002c-0.077,0.497-0.26,0.882-0.554,1.155c-0.294,0.266-0.678,0.404-1.157,0.407
				c-0.592,0.004-1.057-0.201-1.379-0.615c-0.306-0.382-0.453-0.877-0.457-1.5c-0.004-0.632,0.146-1.152,0.463-1.57
				c0.332-0.45,0.787-0.669,1.354-0.673C-35.903-132.85-35.519-132.731-35.214-132.493z"/>
			<path fill="#231915" d="M-30.678-134.024c0.272,0.254,0.419,0.581,0.422,0.989c0.002,0.319-0.084,0.592-0.251,0.824
				c-0.175,0.241-0.43,0.411-0.749,0.501v0.032c0.353,0.062,0.642,0.228,0.875,0.514c0.234,0.278,0.356,0.613,0.358,0.997
				c0.003,0.479-0.154,0.873-0.474,1.171c-0.342,0.313-0.828,0.477-1.452,0.48c-0.632,0.004-1.12-0.153-1.458-0.462
				c-0.32-0.294-0.483-0.686-0.486-1.165c-0.002-0.384,0.107-0.721,0.346-1.002c0.23-0.289,0.524-0.459,0.876-0.524v-0.032
				c-0.328-0.086-0.585-0.253-0.763-0.491c-0.177-0.23-0.259-0.503-0.261-0.822c-0.003-0.408,0.131-0.736,0.41-0.993
				c0.302-0.29,0.732-0.438,1.3-0.441C-31.425-134.452-30.983-134.311-30.678-134.024z M-33.275-131.153
				c-0.286,0.257-0.429,0.593-0.426,1.009c0.003,0.424,0.142,0.768,0.414,1.021c0.306,0.286,0.746,0.427,1.338,0.423
				c0.584-0.003,1.03-0.149,1.333-0.439c0.271-0.258,0.404-0.603,0.401-1.026c-0.003-0.416-0.148-0.75-0.438-1.004
				c-0.322-0.286-0.755-0.428-1.314-0.425C-32.526-131.591-32.965-131.443-33.275-131.153z M-33.163-133.865
				c-0.231,0.217-0.342,0.498-0.34,0.85c0.002,0.344,0.116,0.622,0.35,0.846c0.266,0.254,0.658,0.38,1.186,0.376
				c0.52-0.003,0.911-0.133,1.181-0.391c0.223-0.226,0.341-0.506,0.339-0.85c-0.002-0.352-0.124-0.632-0.349-0.846
				c-0.273-0.254-0.675-0.38-1.187-0.377C-32.503-134.253-32.894-134.123-33.163-133.865z"/>
			<path fill="#231915" d="M-26.229-132.549c0.307,0.238,0.484,0.589,0.543,1.068l-0.192,0.001
				c-0.059-0.416-0.221-0.719-0.478-0.925c-0.272-0.206-0.609-0.308-1.025-0.306c-0.503,0.004-0.902,0.197-1.203,0.6
				c-0.286,0.369-0.427,0.858-0.423,1.45c0.004,0.575,0.143,1.038,0.416,1.388c0.29,0.358,0.699,0.54,1.227,0.536
				c0.863-0.005,1.372-0.464,1.52-1.368l0.192-0.001c-0.077,0.496-0.26,0.881-0.554,1.154c-0.294,0.266-0.678,0.404-1.157,0.407
				c-0.592,0.004-1.057-0.201-1.379-0.615c-0.306-0.382-0.453-0.877-0.457-1.5c-0.004-0.632,0.146-1.152,0.463-1.57
				c0.332-0.45,0.787-0.669,1.354-0.673C-26.919-132.905-26.534-132.787-26.229-132.549z"/>
			<path fill="#231915" d="M-21.694-134.08c0.272,0.255,0.419,0.581,0.422,0.989c0.002,0.319-0.085,0.592-0.251,0.824
				c-0.175,0.242-0.43,0.411-0.749,0.501v0.032c0.353,0.062,0.642,0.228,0.875,0.515c0.233,0.277,0.356,0.613,0.358,0.996
				c0.003,0.48-0.154,0.874-0.474,1.172c-0.342,0.313-0.828,0.477-1.452,0.48c-0.632,0.004-1.12-0.153-1.458-0.463
				c-0.32-0.294-0.483-0.686-0.486-1.165c-0.002-0.384,0.108-0.721,0.346-1.001c0.23-0.29,0.525-0.46,0.876-0.525v-0.032
				c-0.328-0.086-0.585-0.252-0.763-0.491c-0.177-0.23-0.259-0.502-0.261-0.821c-0.003-0.408,0.131-0.736,0.41-0.994
				c0.302-0.29,0.732-0.438,1.3-0.44C-22.441-134.508-22-134.366-21.694-134.08z M-24.291-131.209
				c-0.287,0.258-0.43,0.594-0.427,1.01c0.003,0.424,0.142,0.767,0.414,1.021c0.306,0.286,0.746,0.427,1.338,0.424
				c0.584-0.004,1.03-0.15,1.333-0.44c0.271-0.257,0.404-0.602,0.401-1.025c-0.003-0.416-0.148-0.75-0.438-1.005
				c-0.321-0.286-0.755-0.428-1.314-0.424C-23.543-131.646-23.981-131.499-24.291-131.209z M-24.181-133.921
				c-0.23,0.218-0.341,0.498-0.339,0.85c0.002,0.344,0.116,0.623,0.349,0.846c0.267,0.255,0.659,0.38,1.187,0.377
				c0.52-0.004,0.911-0.134,1.181-0.392c0.223-0.226,0.341-0.506,0.339-0.85c-0.002-0.352-0.124-0.631-0.349-0.846
				c-0.273-0.254-0.675-0.38-1.187-0.376C-23.52-134.309-23.91-134.179-24.181-133.921z"/>
		</g>
		<g clip-path="url(#SVGID_7_)">
			<path fill="#231915" d="M145.429-147.901c0.467,0.332,0.732,0.779,0.801,1.322l-0.184,0.001c-0.067-0.479-0.311-0.87-0.728-1.171
				c-0.401-0.285-0.866-0.427-1.378-0.423c-0.768,0.005-1.382,0.279-1.842,0.843c-0.429,0.53-0.641,1.187-0.636,1.986
				c0.005,0.783,0.225,1.422,0.66,1.931c0.442,0.526,1.028,0.794,1.764,0.789c0.544-0.003,1.015-0.157,1.421-0.465
				c0.445-0.338,0.723-0.803,0.83-1.396l0.185-0.001c-0.116,0.656-0.409,1.169-0.886,1.54c-0.438,0.339-0.957,0.51-1.549,0.514
				c-0.791,0.005-1.433-0.279-1.916-0.853c-0.467-0.549-0.695-1.234-0.701-2.058c-0.005-0.84,0.224-1.545,0.684-2.107
				c0.491-0.611,1.153-0.91,1.984-0.915C144.499-148.367,144.995-148.219,145.429-147.901z"/>
			<path fill="#231915" d="M147.843-145.941c0.048,0.048,0.081,0.104,0.081,0.184c0.001,0.072-0.031,0.136-0.079,0.185
				c-0.047,0.048-0.11,0.08-0.183,0.08c-0.08,0.001-0.136-0.03-0.185-0.078c-0.057-0.048-0.08-0.111-0.081-0.184
				c0-0.08,0.022-0.136,0.079-0.185c0.048-0.056,0.103-0.08,0.183-0.081C147.73-146.021,147.795-145.997,147.843-145.941z
				 M147.86-143.015c0.049,0.048,0.081,0.104,0.082,0.184c0,0.072-0.032,0.136-0.079,0.184c-0.048,0.048-0.111,0.081-0.184,0.081
				c-0.08,0.001-0.136-0.031-0.184-0.079c-0.058-0.047-0.081-0.11-0.081-0.183c-0.001-0.08,0.022-0.136,0.078-0.185
				c0.048-0.057,0.104-0.08,0.184-0.081C147.749-143.094,147.812-143.071,147.86-143.015z"/>
			<path fill="#231915" d="M152.553-147.402c0.227,0.495,0.351,1.142,0.355,1.949c0.005,0.8-0.111,1.456-0.332,1.953
				c-0.307,0.674-0.809,1.021-1.513,1.025c-0.703,0.004-1.217-0.336-1.524-1.006c-0.229-0.495-0.344-1.142-0.349-1.949
				c-0.005-0.815,0.103-1.464,0.324-1.953c0.3-0.682,0.809-1.021,1.512-1.024C151.73-148.411,152.237-148.08,152.553-147.402z
				 M149.69-147.297c-0.213,0.466-0.313,1.082-0.309,1.865c0.005,0.775,0.113,1.399,0.332,1.861
				c0.283,0.606,0.733,0.907,1.349,0.903c0.608-0.004,1.054-0.311,1.338-0.92c0.213-0.473,0.32-1.098,0.315-1.865
				c-0.005-0.775-0.12-1.398-0.339-1.861c-0.291-0.605-0.74-0.906-1.349-0.902C150.413-148.212,149.967-147.905,149.69-147.297z"/>
			<path fill="#231915" d="M165.036-148.382l2.465,5.485h0.017l2.388-5.516l0.353-0.002l0.035,5.709l-0.192,0.001l-0.034-5.541
				h-0.023l-2.413,5.556l-0.248,0.002l-2.48-5.526l-0.023,0.001l0.034,5.541l-0.192,0.001l-0.035-5.709L165.036-148.382z"/>
		</g>
		<g clip-path="url(#SVGID_7_)">
			<path fill="#231915" d="M172.041-146.09c0.048,0.047,0.08,0.103,0.081,0.183c0,0.072-0.031,0.136-0.079,0.185
				s-0.11,0.08-0.183,0.081c-0.08,0-0.137-0.03-0.185-0.079c-0.057-0.048-0.081-0.111-0.081-0.184
				c-0.001-0.08,0.022-0.136,0.079-0.184c0.047-0.056,0.103-0.081,0.183-0.081C171.929-146.17,171.992-146.146,172.041-146.09z
				 M172.059-143.164c0.049,0.048,0.081,0.104,0.081,0.184c0.001,0.071-0.031,0.136-0.078,0.184
				c-0.048,0.049-0.111,0.081-0.184,0.082c-0.08,0-0.136-0.031-0.184-0.079c-0.058-0.048-0.081-0.112-0.082-0.184
				c0-0.08,0.023-0.136,0.079-0.185c0.048-0.056,0.104-0.08,0.184-0.08C171.947-143.243,172.011-143.22,172.059-143.164z"/>
			<path fill="#231915" d="M176.75-147.551c0.227,0.494,0.351,1.142,0.355,1.949c0.005,0.8-0.111,1.455-0.332,1.953
				c-0.307,0.674-0.809,1.021-1.513,1.024c-0.703,0.005-1.216-0.336-1.524-1.006c-0.228-0.495-0.343-1.142-0.348-1.949
				c-0.005-0.815,0.103-1.464,0.324-1.953c0.299-0.682,0.808-1.021,1.511-1.025C175.928-148.562,176.434-148.229,176.75-147.551z
				 M173.889-147.445c-0.213,0.465-0.313,1.082-0.309,1.865c0.005,0.775,0.113,1.398,0.332,1.861
				c0.283,0.605,0.732,0.906,1.348,0.902c0.608-0.004,1.054-0.31,1.338-0.919c0.213-0.474,0.32-1.098,0.315-1.865
				c-0.005-0.775-0.12-1.399-0.339-1.861c-0.292-0.605-0.74-0.907-1.349-0.903C174.61-148.361,174.164-148.055,173.889-147.445z"/>
		</g>
		<g clip-path="url(#SVGID_7_)">
			<path fill="#231915" d="M185.907-148.511l2.187,3.112l2.146-3.139l0.248-0.002l-2.298,3.325l0.015,2.398l-0.192,0.001
				l-0.015-2.398l-2.339-3.296L185.907-148.511z"/>
		</g>
		<g clip-path="url(#SVGID_7_)">
			<path fill="#231915" d="M191.713-146.212c0.048,0.048,0.081,0.104,0.081,0.184c0.001,0.072-0.031,0.136-0.079,0.184
				c-0.047,0.05-0.11,0.081-0.183,0.082c-0.08,0-0.136-0.031-0.185-0.079c-0.057-0.048-0.08-0.111-0.081-0.184
				c0-0.08,0.022-0.136,0.079-0.184c0.048-0.057,0.103-0.081,0.183-0.081C191.601-146.291,191.665-146.267,191.713-146.212z
				 M191.73-143.286c0.049,0.049,0.081,0.104,0.082,0.185c0,0.071-0.032,0.136-0.079,0.184c-0.048,0.049-0.111,0.081-0.184,0.082
				c-0.08,0-0.136-0.032-0.184-0.079c-0.058-0.048-0.081-0.112-0.081-0.184c-0.001-0.08,0.022-0.136,0.078-0.185
				c0.048-0.057,0.104-0.08,0.184-0.08C191.619-143.364,191.683-143.341,191.73-143.286z"/>
			<path fill="#231915" d="M196.423-147.672c0.227,0.494,0.351,1.141,0.355,1.948c0.005,0.8-0.111,1.456-0.331,1.954
				c-0.308,0.674-0.81,1.021-1.514,1.024c-0.703,0.005-1.217-0.336-1.524-1.006c-0.229-0.495-0.344-1.142-0.349-1.949
				c-0.005-0.815,0.103-1.464,0.324-1.953c0.3-0.682,0.81-1.021,1.513-1.025C195.602-148.683,196.107-148.35,196.423-147.672z
				 M193.562-147.566c-0.214,0.465-0.314,1.082-0.31,1.865c0.005,0.775,0.113,1.398,0.332,1.861
				c0.283,0.605,0.733,0.906,1.349,0.902c0.608-0.004,1.054-0.31,1.338-0.919c0.213-0.474,0.32-1.098,0.315-1.865
				c-0.005-0.775-0.12-1.399-0.338-1.861c-0.292-0.605-0.741-0.907-1.35-0.903C194.283-148.482,193.837-148.176,193.562-147.566z"/>
		</g>
		<g clip-path="url(#SVGID_7_)">
			<path fill="#231915" d="M210.154-148.66l-2.68,2.447l3.066,3.26l-0.271,0.001l-2.938-3.132l-1.224,1.119l0.013,2.039
				l-0.192,0.001l-0.035-5.709l0.192-0.001l0.021,3.422l3.745-3.445L210.154-148.66z"/>
		</g>
		<g clip-path="url(#SVGID_7_)">
			<path fill="#231915" d="M211.689-146.335c0.05,0.048,0.081,0.104,0.081,0.184c0.001,0.072-0.03,0.136-0.078,0.184
				c-0.048,0.05-0.111,0.081-0.184,0.082c-0.08,0-0.136-0.031-0.184-0.079c-0.058-0.048-0.081-0.111-0.082-0.184
				c0-0.08,0.023-0.136,0.079-0.184c0.048-0.057,0.104-0.081,0.184-0.081C211.578-146.414,211.642-146.39,211.689-146.335z
				 M211.708-143.409c0.049,0.049,0.08,0.104,0.081,0.185c0,0.071-0.03,0.136-0.079,0.184c-0.048,0.049-0.111,0.081-0.184,0.082
				c-0.08,0-0.136-0.032-0.184-0.079c-0.057-0.048-0.081-0.112-0.081-0.184c-0.001-0.08,0.022-0.136,0.079-0.185
				c0.047-0.057,0.103-0.08,0.183-0.08C211.596-143.487,211.659-143.464,211.708-143.409z"/>
			<path fill="#231915" d="M216.361-148.698l0.002,0.184l-2.229,5.539l-0.224,0.002l2.237-5.531l-3.35,0.021l-0.002-0.192
				L216.361-148.698z"/>
			<path fill="#231915" d="M220.688-147.821c0.227,0.494,0.351,1.141,0.355,1.948c0.006,0.8-0.11,1.456-0.331,1.954
				c-0.308,0.674-0.81,1.021-1.514,1.024c-0.703,0.005-1.217-0.336-1.524-1.006c-0.228-0.495-0.343-1.142-0.349-1.949
				c-0.005-0.815,0.103-1.464,0.324-1.953c0.3-0.682,0.81-1.021,1.513-1.025C219.866-148.832,220.372-148.499,220.688-147.821z
				 M217.826-147.716c-0.213,0.465-0.313,1.082-0.31,1.865c0.005,0.775,0.113,1.398,0.332,1.861
				c0.283,0.605,0.733,0.906,1.349,0.902c0.608-0.004,1.054-0.31,1.338-0.919c0.213-0.474,0.32-1.098,0.315-1.865
				c-0.004-0.775-0.119-1.399-0.338-1.861c-0.292-0.605-0.741-0.907-1.35-0.903C218.548-148.632,218.102-148.325,217.826-147.716z"
				/>
		</g>
		<g clip-path="url(#SVGID_7_)">
			<path fill="#231915" d="M142.557-132.7l0.23-1.521l0.192-0.001l-0.231,1.521l1.535-0.009l0.231-1.521l0.191-0.001l-0.23,1.521
				l0.983-0.006l-0.031,0.191l-0.983,0.007l-0.345,2.312l1.079-0.007l-0.031,0.192l-1.079,0.007l-0.23,1.497l-0.199,0.001
				l0.229-1.497l-1.527,0.01l-0.229,1.496l-0.2,0.002l0.23-1.497l-0.983,0.006l0.03-0.192l0.983-0.006l0.354-2.312l-1.087,0.007
				l0.03-0.192L142.557-132.7z M143.899-130.206l0.354-2.312l-1.535,0.009l-0.346,2.313L143.899-130.206z"/>
			<path fill="#231915" d="M149.578-134.263l0.001,0.184l-2.229,5.539l-0.224,0.002l2.236-5.531l-3.351,0.021l-0.001-0.192
				L149.578-134.263z"/>
			<path fill="#231915" d="M153.903-133.386c0.227,0.494,0.352,1.142,0.356,1.949c0.005,0.8-0.111,1.455-0.332,1.953
				c-0.308,0.674-0.81,1.021-1.514,1.024c-0.703,0.005-1.217-0.336-1.524-1.006c-0.228-0.495-0.343-1.142-0.348-1.949
				c-0.005-0.815,0.102-1.464,0.323-1.953c0.3-0.682,0.81-1.021,1.513-1.025C153.082-134.396,153.588-134.063,153.903-133.386z
				 M151.042-133.28c-0.213,0.465-0.313,1.082-0.309,1.865c0.005,0.775,0.112,1.398,0.331,1.861
				c0.283,0.605,0.733,0.906,1.349,0.902c0.607-0.003,1.054-0.31,1.338-0.919c0.213-0.473,0.321-1.098,0.316-1.865
				c-0.005-0.775-0.12-1.398-0.339-1.861c-0.292-0.605-0.742-0.906-1.35-0.903C151.764-134.196,151.317-133.89,151.042-133.28z"/>
			<path fill="#231915" d="M158.666-134.318l0.001,0.184l-2.229,5.539l-0.224,0.001l2.236-5.53l-3.351,0.021l-0.001-0.192
				L158.666-134.318z"/>
			<path fill="#231915" d="M162.991-133.441c0.227,0.494,0.352,1.141,0.356,1.948c0.005,0.8-0.111,1.456-0.332,1.954
				c-0.308,0.673-0.81,1.021-1.514,1.024c-0.703,0.005-1.217-0.336-1.524-1.006c-0.228-0.495-0.343-1.142-0.348-1.949
				c-0.005-0.815,0.102-1.464,0.323-1.953c0.3-0.682,0.81-1.021,1.513-1.025C162.17-134.452,162.676-134.12,162.991-133.441z
				 M160.13-133.336c-0.213,0.465-0.313,1.082-0.309,1.865c0.005,0.775,0.112,1.398,0.331,1.861
				c0.283,0.605,0.733,0.906,1.349,0.902c0.607-0.004,1.054-0.311,1.338-0.919c0.213-0.474,0.321-1.098,0.316-1.865
				c-0.005-0.775-0.12-1.399-0.339-1.861c-0.292-0.606-0.742-0.907-1.35-0.903C160.852-134.252,160.405-133.945,160.13-133.336z"/>
			<path fill="#231915" d="M167.754-134.375l0.001,0.184l-2.229,5.54l-0.224,0.001l2.236-5.53l-3.351,0.021l-0.001-0.192
				L167.754-134.375z"/>
			<path fill="#231915" d="M172.079-133.498c0.227,0.495,0.352,1.142,0.356,1.949c0.005,0.8-0.111,1.456-0.332,1.953
				c-0.308,0.674-0.81,1.021-1.514,1.025c-0.703,0.004-1.217-0.337-1.524-1.007c-0.228-0.494-0.343-1.142-0.348-1.949
				c-0.005-0.815,0.102-1.463,0.323-1.953c0.3-0.682,0.81-1.021,1.513-1.024C171.258-134.509,171.764-134.176,172.079-133.498z
				 M169.218-133.393c-0.213,0.466-0.313,1.082-0.309,1.865c0.005,0.775,0.112,1.399,0.331,1.861
				c0.283,0.606,0.733,0.907,1.349,0.903c0.607-0.004,1.054-0.311,1.338-0.92c0.213-0.473,0.321-1.098,0.316-1.865
				c-0.005-0.775-0.12-1.398-0.339-1.861c-0.292-0.605-0.742-0.906-1.35-0.902C169.939-134.308,169.493-134.001,169.218-133.393z"/>
		</g>
		<g clip-path="url(#SVGID_7_)">
			<defs>
				<rect id="SVGID_10_" x="-340.508" y="-449.943" width="841.89" height="595.276"/>
			</defs>
			<clipPath id="SVGID_11_">
				<use xlink:href="#SVGID_10_"  overflow="visible"/>
			</clipPath>
			<rect x="-120.039" y="-320.374" clip-path="url(#SVGID_11_)" fill="#323479" width="6.114" height="25.971"/>
			<polygon clip-path="url(#SVGID_11_)" fill="#323479" points="-107.404,-294.404 -107.404,-321.216 -106.82,-321.216 
				-90.867,-306.064 -90.867,-320.375 -85.231,-320.375 -85.231,-293.419 -85.762,-293.419 -101.769,-308.571 -101.769,-294.404 			
				"/>
			<polygon clip-path="url(#SVGID_11_)" fill="#323479" points="-78.713,-294.404 -78.713,-320.375 -62.793,-320.375 
				-62.793,-315.091 -72.635,-315.091 -72.635,-309.915 -63.836,-309.915 -63.836,-304.667 -72.635,-304.667 -72.635,-294.404 			
				"/>
			<rect x="-56.272" y="-320.374" clip-path="url(#SVGID_11_)" fill="#323479" width="6.113" height="25.971"/>
			<polygon clip-path="url(#SVGID_11_)" fill="#323479" points="-43.639,-294.404 -43.639,-321.216 -43.055,-321.216 
				-27.102,-306.064 -27.102,-320.375 -21.466,-320.375 -21.466,-293.419 -21.995,-293.419 -37.453,-308.571 -37.493,-294.404 			
				"/>
			<rect x="-14.981" y="-320.374" clip-path="url(#SVGID_11_)" fill="#323479" width="6.114" height="25.971"/>
			<polygon clip-path="url(#SVGID_11_)" fill="#717174" points="-117.4,-284.648 -118.23,-284.648 -118.23,-283.528 
				-120.039,-283.528 -120.039,-282.735 -118.23,-282.735 -118.23,-281.004 -120.034,-281.004 -120.034,-271.793 -119.203,-271.793 
				-119.203,-280.212 -118.23,-280.212 -118.23,-271.793 -117.4,-271.793 -117.4,-280.212 -116.386,-280.212 -116.386,-281.004 
				-117.4,-281.004 -117.4,-282.735 -116.386,-282.735 -116.386,-283.528 -117.4,-283.528 			"/>
			<polygon clip-path="url(#SVGID_11_)" fill="#717174" points="-109.819,-271.98 -111.74,-275.405 -110.401,-278.024 
				-110.359,-279.999 -112.591,-279.999 -111.064,-283.474 -111.033,-284.622 -115.605,-284.622 -115.605,-283.829 
				-111.864,-283.829 -113.842,-279.206 -111.19,-279.206 -111.19,-278.29 -112.224,-276.268 -113.228,-278.057 -113.961,-277.683 
				-112.674,-275.387 -114.422,-271.966 -113.675,-271.619 -112.189,-274.524 -110.553,-271.605 			"/>
			<polygon clip-path="url(#SVGID_11_)" fill="#717174" points="-114.974,-282.772 -116.186,-271.834 -115.359,-271.751 
				-114.146,-282.688 			"/>
			<path clip-path="url(#SVGID_11_)" fill="#717174" d="M-83.079-284.622h-3.417v12.829h0.83v-1.694l2.61-0.846l-0.815-3.471
				L-83.079-284.622z M-84.031-274.855l-1.635,0.53v-9.504h1.657l-0.704,6.069L-84.031-274.855z"/>
			<path clip-path="url(#SVGID_11_)" fill="#717174" d="M-76.575-271.702l0.609-0.54l-2.319-2.385l1.583-1.481l-0.582-0.567
				l-1.567,1.465l-2.384-2.45v-0.676h4.405v-6.285h-5.238v0.793h0.002v12.201l2.844-0.726l-0.214-0.768l-1.799,0.458v-3.831
				L-76.575-271.702z M-81.235-281.082h3.574v1.953h-3.574V-281.082z M-77.661-281.875h-3.574v-1.953h3.574V-281.875z"/>
			<polygon clip-path="url(#SVGID_11_)" fill="#717174" points="-49.81,-283.589 -48.023,-283.831 -48.14,-284.618 
				-52.427,-284.036 -52.311,-283.25 -50.641,-283.477 -50.641,-280.819 -52.605,-280.819 -52.605,-280.026 -50.641,-280.026 
				-50.641,-271.792 -49.81,-271.792 -49.81,-280.026 -47.845,-280.026 -47.845,-280.819 -49.81,-280.819 			"/>
			<rect x="-52.426" y="-279.224" clip-path="url(#SVGID_11_)" fill="#717174" width="0.831" height="7.432"/>
			<rect x="-48.713" y="-279.224" clip-path="url(#SVGID_11_)" fill="#717174" width="0.83" height="5.748"/>
			<polygon clip-path="url(#SVGID_11_)" fill="#717174" points="-44.618,-280.909 -45.627,-284.333 -46.429,-284.118 
				-45.42,-280.694 			"/>
			<polygon clip-path="url(#SVGID_11_)" fill="#717174" points="-44.76,-276.394 -45.625,-279.694 -46.433,-279.501 
				-45.567,-276.201 			"/>
			<polygon clip-path="url(#SVGID_11_)" fill="#717174" points="-42.459,-275.113 -42.535,-275.903 -43.271,-275.838 
				-43.271,-284.502 -44.102,-284.502 -44.102,-275.763 -47.039,-275.501 -46.963,-274.71 -44.102,-274.966 -44.102,-271.793 
				-43.271,-271.793 -43.271,-275.04 			"/>
			<polygon clip-path="url(#SVGID_11_)" fill="#717174" points="-15.609,-277.018 -16.675,-276.905 -16.675,-282.39 
				-15.562,-282.39 -15.562,-283.183 -16.675,-283.183 -16.675,-284.496 -17.506,-284.496 -17.506,-283.183 -18.618,-283.183 
				-18.618,-282.39 -17.506,-282.39 -17.506,-276.816 -18.666,-276.692 -18.572,-275.903 -17.506,-276.017 -17.506,-272.751 
				-18.801,-272.149 -18.437,-271.436 -16.675,-272.255 -16.675,-276.106 -15.517,-276.23 			"/>
			<polygon clip-path="url(#SVGID_11_)" fill="#717174" points="-8.867,-272.08 -11.203,-274.188 -9.075,-276.115 -9.075,-279.993 
				-11.389,-279.993 -11.389,-282.39 -9.095,-282.39 -9.095,-283.183 -11.389,-283.183 -11.389,-284.495 -12.22,-284.495 
				-12.22,-283.183 -14.558,-283.183 -14.558,-282.39 -12.22,-282.39 -12.22,-279.993 -14.558,-279.993 -14.558,-279.2 
				-9.906,-279.2 -9.906,-276.456 -11.808,-274.734 -13.727,-276.468 -13.727,-278.601 -14.558,-278.601 -14.558,-276.126 
				-12.411,-274.188 -14.741,-272.08 -14.168,-271.504 -11.807,-273.642 -9.438,-271.504 			"/>
		</g>
		<g clip-path="url(#SVGID_7_)">
			<defs>
				<polygon id="SVGID_12_" points="-174.517,-305.781 -161.353,-305.772 -180.852,-271.646 -164.06,-271.646 -136.241,-320.332 
					-182.834,-320.368 				"/>
			</defs>
			<clipPath id="SVGID_13_">
				<use xlink:href="#SVGID_12_"  overflow="visible"/>
			</clipPath>
			
				<linearGradient id="SVGID_14_" gradientUnits="userSpaceOnUse" x1="3837.374" y1="145.6738" x2="3838.374" y2="145.6738" gradientTransform="matrix(46.5938 0 0 -46.5938 -178980.6719 6491.4556)">
				<stop  offset="0" style="stop-color:#323479"/>
				<stop  offset="0.5" style="stop-color:#296CB5"/>
				<stop  offset="1" style="stop-color:#2FBDBB"/>
				<a:midPointStop  offset="0" style="stop-color:#323479"/>
				<a:midPointStop  offset="0.5" style="stop-color:#323479"/>
				<a:midPointStop  offset="0.5" style="stop-color:#296CB5"/>
				<a:midPointStop  offset="0.5" style="stop-color:#296CB5"/>
				<a:midPointStop  offset="1" style="stop-color:#2FBDBB"/>
			</linearGradient>
			<rect x="-182.834" y="-320.368" clip-path="url(#SVGID_13_)" fill="url(#SVGID_14_)" width="46.593" height="48.723"/>
		</g>
		<g clip-path="url(#SVGID_7_)">
			<defs>
				<rect id="SVGID_15_" x="-340.508" y="-449.943" width="841.89" height="595.276"/>
			</defs>
			<clipPath id="SVGID_16_">
				<use xlink:href="#SVGID_15_"  overflow="visible"/>
			</clipPath>
			<polygon clip-path="url(#SVGID_16_)" fill="#2EBDBB" points="-207.381,-302.16 -224.815,-271.646 -208.024,-271.646 
				-198.979,-287.475 			"/>
			<polygon clip-path="url(#SVGID_16_)" fill="#2EBDBB" points="-194.438,-324.812 -202.82,-310.14 -180.852,-271.646 
				-164.061,-271.646 			"/>
			<rect x="-171.431" y="6.146" clip-path="url(#SVGID_16_)" fill="#323479" width="4.414" height="18.751"/>
			<polygon clip-path="url(#SVGID_16_)" fill="#323479" points="-162.31,24.896 -162.31,5.538 -161.889,5.538 -150.37,16.478 
				-150.37,6.146 -146.302,6.146 -146.302,25.607 -146.685,25.607 -158.24,14.667 -158.24,24.896 			"/>
			<polygon clip-path="url(#SVGID_16_)" fill="#323479" points="-141.596,24.896 -141.596,6.146 -130.103,6.146 -130.103,9.96 
				-137.207,9.96 -137.207,13.698 -130.854,13.698 -130.854,17.487 -137.207,17.487 -137.207,24.896 			"/>
			<rect x="-125.395" y="6.146" clip-path="url(#SVGID_16_)" fill="#323479" width="4.414" height="18.751"/>
			<polygon clip-path="url(#SVGID_16_)" fill="#323479" points="-116.273,24.896 -116.273,5.538 -115.853,5.538 -104.334,16.478 
				-104.334,6.146 -100.266,6.146 -100.266,25.607 -100.648,25.607 -111.809,14.667 -111.838,24.896 			"/>
			<rect x="-95.584" y="6.146" clip-path="url(#SVGID_16_)" fill="#323479" width="4.414" height="18.751"/>
			<polygon clip-path="url(#SVGID_16_)" fill="#717174" points="-169.526,31.939 -170.127,31.939 -170.127,32.749 -171.431,32.749 
				-171.431,33.321 -170.127,33.321 -170.127,34.569 -171.428,34.569 -171.428,41.22 -170.828,41.22 -170.828,35.142 
				-170.127,35.142 -170.127,41.22 -169.526,41.22 -169.526,35.142 -168.795,35.142 -168.795,34.569 -169.526,34.569 
				-169.526,33.321 -168.795,33.321 -168.795,32.749 -169.526,32.749 			"/>
			<polygon clip-path="url(#SVGID_16_)" fill="#717174" points="-164.053,41.085 -165.439,38.612 -164.474,36.721 -164.443,35.296 
				-166.054,35.296 -164.951,32.786 -164.93,31.958 -168.23,31.958 -168.23,32.53 -165.529,32.53 -166.957,35.868 -165.043,35.868 
				-165.043,36.529 -165.789,37.989 -166.514,36.697 -167.043,36.967 -166.114,38.624 -167.375,41.094 -166.836,41.346 
				-165.765,39.247 -164.582,41.355 			"/>
			<polygon clip-path="url(#SVGID_16_)" fill="#717174" points="-167.774,33.294 -168.649,41.19 -168.053,41.251 -167.178,33.355 
							"/>
			<path clip-path="url(#SVGID_16_)" fill="#717174" d="M-144.748,31.958h-2.467v9.262h0.601v-1.224l1.883-0.61l-0.588-2.507
				L-144.748,31.958z M-145.435,39.009l-1.18,0.383V32.53h1.196l-0.51,4.381L-145.435,39.009z"/>
			<path clip-path="url(#SVGID_16_)" fill="#717174" d="M-140.053,41.286l0.441-0.39l-1.676-1.724l1.144-1.067l-0.421-0.41
				l-1.131,1.058l-1.721-1.769v-0.488h3.18v-4.537h-3.781v0.572h0.001v8.808l2.052-0.522l-0.152-0.555l-1.299,0.33v-2.764
				L-140.053,41.286z M-143.416,34.513h2.578v1.41h-2.578V34.513z M-140.838,33.941h-2.578v-1.41h2.578V33.941z"/>
			<polygon clip-path="url(#SVGID_16_)" fill="#717174" points="-120.729,32.704 -119.439,32.528 -119.522,31.961 -122.618,32.381 
				-122.534,32.948 -121.328,32.785 -121.328,34.703 -122.748,34.703 -122.748,35.275 -121.328,35.275 -121.328,41.221 
				-120.729,41.221 -120.729,35.275 -119.311,35.275 -119.311,34.703 -120.729,34.703 			"/>
			<rect x="-122.616" y="35.855" clip-path="url(#SVGID_16_)" fill="#717174" width="0.6" height="5.364"/>
			<rect x="-119.937" y="35.855" clip-path="url(#SVGID_16_)" fill="#717174" width="0.601" height="4.148"/>
			<polygon clip-path="url(#SVGID_16_)" fill="#717174" points="-116.98,34.639 -117.709,32.166 -118.287,32.322 -117.559,34.794 
							"/>
			<polygon clip-path="url(#SVGID_16_)" fill="#717174" points="-117.082,37.898 -117.707,35.516 -118.289,35.655 -117.666,38.038 
							"/>
			<polygon clip-path="url(#SVGID_16_)" fill="#717174" points="-115.422,38.824 -115.478,38.253 -116.008,38.301 -116.008,32.045 
				-116.608,32.045 -116.608,38.354 -118.729,38.544 -118.674,39.115 -116.608,38.929 -116.608,41.22 -116.008,41.22 
				-116.008,38.876 			"/>
			<polygon clip-path="url(#SVGID_16_)" fill="#717174" points="-96.037,37.448 -96.808,37.53 -96.808,33.569 -96.004,33.569 
				-96.004,32.997 -96.808,32.997 -96.808,32.05 -97.406,32.05 -97.406,32.997 -98.211,32.997 -98.211,33.569 -97.406,33.569 
				-97.406,37.594 -98.243,37.683 -98.177,38.253 -97.406,38.171 -97.406,40.528 -98.343,40.963 -98.078,41.478 -96.808,40.886 
				-96.808,38.106 -95.971,38.017 			"/>
			<polygon clip-path="url(#SVGID_16_)" fill="#717174" points="-91.17,41.012 -92.856,39.49 -91.319,38.099 -91.319,35.299 
				-92.989,35.299 -92.989,33.569 -91.334,33.569 -91.334,32.996 -92.989,32.996 -92.989,32.049 -93.591,32.049 -93.591,32.996 
				-95.278,32.996 -95.278,33.569 -93.591,33.569 -93.591,35.299 -95.278,35.299 -95.278,35.871 -91.92,35.871 -91.92,37.853 
				-93.293,39.095 -94.679,37.845 -94.679,36.304 -95.278,36.304 -95.278,38.091 -93.729,39.49 -95.41,41.012 -94.996,41.428 
				-93.293,39.884 -91.582,41.428 			"/>
		</g>
		<g clip-path="url(#SVGID_7_)">
			<defs>
				<polygon id="SVGID_17_" points="-210.762,16.682 -201.258,16.689 -215.336,41.327 -203.211,41.327 -183.129,6.177 
					-216.768,6.151 				"/>
			</defs>
			<clipPath id="SVGID_18_">
				<use xlink:href="#SVGID_17_"  overflow="visible"/>
			</clipPath>
			
				<linearGradient id="SVGID_19_" gradientUnits="userSpaceOnUse" x1="3802.085" y1="145.6758" x2="3803.085" y2="145.6758" gradientTransform="matrix(33.6389 0 0 -33.6389 -128114.7422 4924.1167)">
				<stop  offset="0" style="stop-color:#323479"/>
				<stop  offset="0.5" style="stop-color:#296CB5"/>
				<stop  offset="1" style="stop-color:#2FBDBB"/>
				<a:midPointStop  offset="0" style="stop-color:#323479"/>
				<a:midPointStop  offset="0.5" style="stop-color:#323479"/>
				<a:midPointStop  offset="0.5" style="stop-color:#296CB5"/>
				<a:midPointStop  offset="0.5" style="stop-color:#296CB5"/>
				<a:midPointStop  offset="1" style="stop-color:#2FBDBB"/>
			</linearGradient>
			<rect x="-216.768" y="6.151" clip-path="url(#SVGID_18_)" fill="url(#SVGID_19_)" width="33.639" height="35.176"/>
		</g>
		<g clip-path="url(#SVGID_7_)">
			<defs>
				<rect id="SVGID_20_" x="-340.508" y="-449.943" width="841.89" height="595.276"/>
			</defs>
			<clipPath id="SVGID_21_">
				<use xlink:href="#SVGID_20_"  overflow="visible"/>
			</clipPath>
			<polygon clip-path="url(#SVGID_21_)" fill="#2EBDBB" points="-234.488,19.297 -247.076,41.327 -234.953,41.327 -228.424,29.899 
							"/>
			<polygon clip-path="url(#SVGID_21_)" fill="#2EBDBB" points="-225.144,2.942 -231.196,13.535 -215.336,41.327 -203.213,41.327 
							"/>
			<rect x="78.359" y="6.146" clip-path="url(#SVGID_21_)" fill="#3E3B3B" width="4.414" height="18.751"/>
			<polygon clip-path="url(#SVGID_21_)" fill="#3E3B3B" points="87.479,24.896 87.479,5.538 87.901,5.538 99.42,16.478 99.42,6.146 
				103.488,6.146 103.488,25.607 103.105,25.607 91.549,14.667 91.549,24.896 			"/>
			<polygon clip-path="url(#SVGID_21_)" fill="#3E3B3B" points="108.195,24.896 108.195,6.146 119.688,6.146 119.688,9.96 
				112.584,9.96 112.584,13.698 118.936,13.698 118.936,17.487 112.584,17.487 112.584,24.896 			"/>
			<rect x="124.396" y="6.146" clip-path="url(#SVGID_21_)" fill="#3E3B3B" width="4.414" height="18.751"/>
			<polygon clip-path="url(#SVGID_21_)" fill="#3E3B3B" points="133.516,24.896 133.516,5.538 133.938,5.538 145.455,16.478 
				145.455,6.146 149.524,6.146 149.524,25.607 149.142,25.607 137.981,14.667 137.952,24.896 			"/>
			<rect x="154.205" y="6.146" clip-path="url(#SVGID_21_)" fill="#3E3B3B" width="4.414" height="18.751"/>
			<polygon clip-path="url(#SVGID_21_)" fill="#3E3B3B" points="80.264,31.939 79.664,31.939 79.664,32.749 78.359,32.749 
				78.359,33.321 79.664,33.321 79.664,34.569 78.361,34.569 78.361,41.22 78.961,41.22 78.961,35.142 79.664,35.142 79.664,41.22 
				80.264,41.22 80.264,35.142 80.996,35.142 80.996,34.569 80.264,34.569 80.264,33.321 80.996,33.321 80.996,32.749 
				80.264,32.749 			"/>
			<polygon clip-path="url(#SVGID_21_)" fill="#3E3B3B" points="85.736,41.085 84.35,38.612 85.316,36.721 85.347,35.296 
				83.736,35.296 84.839,32.786 84.86,31.958 81.559,31.958 81.559,32.53 84.261,32.53 82.834,35.868 84.746,35.868 84.746,36.529 
				84,37.989 83.276,36.697 82.746,36.967 83.676,38.624 82.414,41.094 82.953,41.346 84.025,39.247 85.207,41.355 			"/>
			<polygon clip-path="url(#SVGID_21_)" fill="#3E3B3B" points="82.016,33.294 81.14,41.19 81.736,41.251 82.612,33.355 			"/>
			<path clip-path="url(#SVGID_21_)" fill="#3E3B3B" d="M105.041,31.958h-2.466v9.262h0.6v-1.224l1.884-0.61l-0.588-2.507
				L105.041,31.958z M104.354,39.009l-1.18,0.383V32.53h1.198l-0.511,4.381L104.354,39.009z"/>
			<path clip-path="url(#SVGID_21_)" fill="#3E3B3B" d="M109.737,41.286l0.441-0.39l-1.677-1.724l1.145-1.067l-0.421-0.41
				l-1.132,1.058l-1.721-1.769v-0.488h3.18v-4.537h-3.781v0.572h0.002v8.808l2.052-0.522l-0.153-0.555l-1.299,0.33v-2.764
				L109.737,41.286z M106.373,34.513h2.58v1.41h-2.58V34.513z M108.953,33.941h-2.58v-1.41h2.58V33.941z"/>
			<polygon clip-path="url(#SVGID_21_)" fill="#3E3B3B" points="129.062,32.704 130.351,32.528 130.267,31.961 127.172,32.381 
				127.256,32.948 128.461,32.785 128.461,34.703 127.043,34.703 127.043,35.275 128.461,35.275 128.461,41.221 129.062,41.221 
				129.062,35.275 130.479,35.275 130.479,34.703 129.062,34.703 			"/>
			<rect x="127.173" y="35.855" clip-path="url(#SVGID_21_)" fill="#3E3B3B" width="0.601" height="5.364"/>
			<rect x="129.853" y="35.855" clip-path="url(#SVGID_21_)" fill="#3E3B3B" width="0.601" height="4.148"/>
			<polygon clip-path="url(#SVGID_21_)" fill="#3E3B3B" points="132.809,34.639 132.08,32.166 131.502,32.322 132.23,34.794 			"/>
			<polygon clip-path="url(#SVGID_21_)" fill="#3E3B3B" points="132.707,37.898 132.082,35.516 131.5,35.655 132.123,38.038 			"/>
			<polygon clip-path="url(#SVGID_21_)" fill="#3E3B3B" points="134.367,38.824 134.312,38.253 133.781,38.301 133.781,32.045 
				133.182,32.045 133.182,38.354 131.061,38.544 131.116,39.115 133.182,38.929 133.182,41.22 133.781,41.22 133.781,38.876 			"/>
			<polygon clip-path="url(#SVGID_21_)" fill="#3E3B3B" points="153.752,37.448 152.982,37.53 152.982,33.569 153.785,33.569 
				153.785,32.997 152.982,32.997 152.982,32.05 152.384,32.05 152.384,32.997 151.58,32.997 151.58,33.569 152.384,33.569 
				152.384,37.594 151.547,37.683 151.612,38.253 152.384,38.171 152.384,40.528 151.447,40.963 151.711,41.478 152.982,40.886 
				152.982,38.106 153.818,38.017 			"/>
			<polygon clip-path="url(#SVGID_21_)" fill="#3E3B3B" points="158.619,41.012 156.933,39.49 158.47,38.099 158.47,35.299 
				156.8,35.299 156.8,33.569 158.457,33.569 158.457,32.996 156.8,32.996 156.8,32.049 156.199,32.049 156.199,32.996 
				154.512,32.996 154.512,33.569 156.199,33.569 156.199,35.299 154.512,35.299 154.512,35.871 157.869,35.871 157.869,37.853 
				156.496,39.095 155.11,37.845 155.11,36.304 154.512,36.304 154.512,38.091 156.061,39.49 154.379,41.012 154.793,41.428 
				156.498,39.884 158.207,41.428 			"/>
			<polygon clip-path="url(#SVGID_21_)" fill="#3E3B3B" points="33.022,6.151 39.028,16.681 48.532,16.689 34.455,41.327 
				46.578,41.327 66.662,6.176 			"/>
			<polygon clip-path="url(#SVGID_21_)" fill="#3E3B3B" points="15.302,19.297 2.715,41.327 14.836,41.327 21.366,29.899 			"/>
			<polygon clip-path="url(#SVGID_21_)" fill="#3E3B3B" points="24.646,2.942 18.594,13.535 34.455,41.327 46.577,41.327 			"/>
			<rect x="327.42" y="6.146" clip-path="url(#SVGID_21_)" fill="#FFFFFF" width="4.414" height="18.751"/>
			<polygon clip-path="url(#SVGID_21_)" fill="#FFFFFF" points="336.539,24.896 336.539,5.538 336.961,5.538 348.479,16.478 
				348.479,6.146 352.549,6.146 352.549,25.607 352.166,25.607 340.609,14.667 340.609,24.896 			"/>
			<polygon clip-path="url(#SVGID_21_)" fill="#FFFFFF" points="357.256,24.896 357.256,6.146 368.748,6.146 368.748,9.96 
				361.644,9.96 361.644,13.698 367.995,13.698 367.995,17.487 361.644,17.487 361.644,24.896 			"/>
			<rect x="373.455" y="6.146" clip-path="url(#SVGID_21_)" fill="#FFFFFF" width="4.414" height="18.751"/>
			<polygon clip-path="url(#SVGID_21_)" fill="#FFFFFF" points="382.576,24.896 382.576,5.538 382.998,5.538 394.516,16.478 
				394.516,6.146 398.584,6.146 398.584,25.607 398.201,25.607 387.041,14.667 387.013,24.896 			"/>
			<rect x="403.267" y="6.146" clip-path="url(#SVGID_21_)" fill="#FFFFFF" width="4.414" height="18.751"/>
			<polygon clip-path="url(#SVGID_21_)" fill="#FFFFFF" points="329.323,31.939 328.724,31.939 328.724,32.749 327.42,32.749 
				327.42,33.321 328.724,33.321 328.724,34.569 327.422,34.569 327.422,41.22 328.021,41.22 328.021,35.142 328.724,35.142 
				328.724,41.22 329.323,41.22 329.323,35.142 330.056,35.142 330.056,34.569 329.323,34.569 329.323,33.321 330.056,33.321 
				330.056,32.749 329.323,32.749 			"/>
			<polygon clip-path="url(#SVGID_21_)" fill="#FFFFFF" points="334.798,41.085 333.409,38.612 334.377,36.721 334.406,35.296 
				332.797,35.296 333.898,32.786 333.921,31.958 330.619,31.958 330.619,32.53 333.32,32.53 331.894,35.868 333.807,35.868 
				333.807,36.529 333.062,37.989 332.336,36.697 331.807,36.967 332.735,38.624 331.475,41.094 332.014,41.346 333.086,39.247 
				334.268,41.355 			"/>
			<polygon clip-path="url(#SVGID_21_)" fill="#FFFFFF" points="331.075,33.294 330.2,41.19 330.797,41.251 331.672,33.355 			"/>
			<path clip-path="url(#SVGID_21_)" fill="#FFFFFF" d="M354.102,31.958h-2.466v9.262h0.599v-1.224l1.884-0.61l-0.588-2.507
				L354.102,31.958z M353.414,39.009l-1.18,0.383V32.53h1.198l-0.511,4.381L353.414,39.009z"/>
			<path clip-path="url(#SVGID_21_)" fill="#FFFFFF" d="M358.798,41.286l0.44-0.39l-1.675-1.724l1.144-1.067l-0.422-0.41
				l-1.131,1.058l-1.721-1.769v-0.488h3.18v-4.537h-3.781v0.572h0.002v8.808l2.053-0.522l-0.154-0.555l-1.299,0.33v-2.764
				L358.798,41.286z M355.434,34.513h2.58v1.41h-2.58V34.513z M358.014,33.941h-2.58v-1.41h2.58V33.941z"/>
			<polygon clip-path="url(#SVGID_21_)" fill="#FFFFFF" points="378.121,32.704 379.41,32.528 379.326,31.961 376.231,32.381 
				376.315,32.948 377.521,32.785 377.521,34.703 376.103,34.703 376.103,35.275 377.521,35.275 377.521,41.221 378.121,41.221 
				378.121,35.275 379.539,35.275 379.539,34.703 378.121,34.703 			"/>
			<rect x="376.234" y="35.855" clip-path="url(#SVGID_21_)" fill="#FFFFFF" width="0.6" height="5.364"/>
			<rect x="378.912" y="35.855" clip-path="url(#SVGID_21_)" fill="#FFFFFF" width="0.602" height="4.148"/>
			<polygon clip-path="url(#SVGID_21_)" fill="#FFFFFF" points="381.869,34.639 381.141,32.166 380.562,32.322 381.291,34.794 			
				"/>
			<polygon clip-path="url(#SVGID_21_)" fill="#FFFFFF" points="381.769,37.898 381.144,35.516 380.561,35.655 381.186,38.038 			
				"/>
			<polygon clip-path="url(#SVGID_21_)" fill="#FFFFFF" points="383.429,38.824 383.373,38.253 382.844,38.301 382.844,32.045 
				382.242,32.045 382.242,38.354 380.123,38.544 380.178,39.115 382.242,38.929 382.242,41.22 382.844,41.22 382.844,38.876 			"/>
			<polygon clip-path="url(#SVGID_21_)" fill="#FFFFFF" points="402.813,37.448 402.043,37.53 402.043,33.569 402.847,33.569 
				402.847,32.997 402.043,32.997 402.043,32.05 401.444,32.05 401.444,32.997 400.641,32.997 400.641,33.569 401.444,33.569 
				401.444,37.594 400.607,37.683 400.674,38.253 401.444,38.171 401.444,40.528 400.509,40.963 400.772,41.478 402.043,40.886 
				402.043,38.106 402.88,38.017 			"/>
			<polygon clip-path="url(#SVGID_21_)" fill="#FFFFFF" points="407.681,41.012 405.994,39.49 407.53,38.099 407.53,35.299 
				405.86,35.299 405.86,33.569 407.518,33.569 407.518,32.996 405.86,32.996 405.86,32.049 405.261,32.049 405.261,32.996 
				403.572,32.996 403.572,33.569 405.261,33.569 405.261,35.299 403.572,35.299 403.572,35.871 406.931,35.871 406.931,37.853 
				405.558,39.095 404.172,37.845 404.172,36.304 403.572,36.304 403.572,38.091 405.121,39.49 403.44,41.012 403.854,41.428 
				405.559,39.884 407.269,41.428 			"/>
			<polygon clip-path="url(#SVGID_21_)" fill="#FFFFFF" points="282.082,6.151 288.089,16.681 297.593,16.689 283.516,41.327 
				295.638,41.327 315.722,6.176 			"/>
			<polygon clip-path="url(#SVGID_21_)" fill="#FFFFFF" points="264.361,19.297 251.774,41.327 263.897,41.327 270.427,29.899 			
				"/>
			<polygon clip-path="url(#SVGID_21_)" fill="#FFFFFF" points="273.705,2.942 267.653,13.535 283.515,41.327 295.638,41.327 			"/>
			<rect x="222.845" y="-286.158" clip-path="url(#SVGID_21_)" fill="#323479" width="5.382" height="22.862"/>
			<polygon clip-path="url(#SVGID_21_)" fill="#323479" points="233.966,-263.295 233.966,-286.899 234.479,-286.899 
				248.524,-273.56 248.524,-286.157 253.485,-286.157 253.485,-262.428 253.019,-262.428 238.928,-275.767 238.928,-263.295 			"/>
			<polygon clip-path="url(#SVGID_21_)" fill="#323479" points="259.225,-263.295 259.225,-286.157 273.238,-286.157 
				273.238,-281.506 264.575,-281.506 264.575,-276.949 272.321,-276.949 272.321,-272.329 264.575,-272.329 264.575,-263.295 			
				"/>
			<rect x="278.978" y="-286.158" clip-path="url(#SVGID_21_)" fill="#323479" width="5.383" height="22.862"/>
			<polygon clip-path="url(#SVGID_21_)" fill="#323479" points="290.1,-263.295 290.1,-286.899 290.613,-286.899 304.658,-273.56 
				304.658,-286.157 309.619,-286.157 309.619,-262.428 309.152,-262.428 295.543,-275.767 295.509,-263.295 			"/>
			<rect x="315.326" y="-286.158" clip-path="url(#SVGID_21_)" fill="#323479" width="5.383" height="22.862"/>
			<polygon clip-path="url(#SVGID_21_)" fill="#717174" points="225.166,-254.707 224.436,-254.707 224.436,-253.721 
				222.845,-253.721 222.845,-253.022 224.436,-253.022 224.436,-251.5 222.848,-251.5 222.848,-243.39 223.578,-243.39 
				223.578,-250.802 224.436,-250.802 224.436,-243.39 225.166,-243.39 225.166,-250.802 226.06,-250.802 226.06,-251.5 
				225.166,-251.5 225.166,-253.022 226.06,-253.022 226.06,-253.721 225.166,-253.721 			"/>
			<polygon clip-path="url(#SVGID_21_)" fill="#717174" points="231.84,-243.555 230.149,-246.57 231.326,-248.875 
				231.363,-250.614 229.4,-250.614 230.744,-253.674 230.771,-254.684 226.745,-254.684 226.745,-253.986 230.039,-253.986 
				228.299,-249.915 230.633,-249.915 230.633,-249.11 229.723,-247.329 228.84,-248.905 228.193,-248.576 229.326,-246.555 
				227.787,-243.543 228.445,-243.238 229.752,-245.795 231.193,-243.226 			"/>
			<polygon clip-path="url(#SVGID_21_)" fill="#717174" points="227.303,-253.056 226.235,-243.427 226.963,-243.353 
				228.03,-252.982 			"/>
			<path clip-path="url(#SVGID_21_)" fill="#717174" d="M255.379-254.684h-3.008v11.294h0.732v-1.492l2.296-0.744l-0.717-3.057
				L255.379-254.684z M254.541-246.086l-1.438,0.467v-8.366h1.459l-0.622,5.342L254.541-246.086z"/>
			<path clip-path="url(#SVGID_21_)" fill="#717174" d="M261.105-243.31l0.537-0.478l-2.043-2.099l1.395-1.304l-0.513-0.5
				l-1.38,1.29l-2.1-2.156v-0.596h3.879v-5.532h-4.611v0.697h0.002v10.741l2.503-0.638l-0.188-0.675l-1.584,0.401v-3.372
				L261.105-243.31z M257.002-251.569h3.146v1.721h-3.146V-251.569z M260.149-252.266h-3.146v-1.721h3.146V-252.266z"/>
			<polygon clip-path="url(#SVGID_21_)" fill="#717174" points="284.666,-253.776 286.238,-253.989 286.138,-254.681 
				282.362,-254.17 282.465,-253.477 283.936,-253.676 283.936,-251.338 282.205,-251.338 282.205,-250.639 283.936,-250.639 
				283.936,-243.39 284.666,-243.39 284.666,-250.639 286.396,-250.639 286.396,-251.338 284.666,-251.338 			"/>
			<rect x="282.364" y="-249.932" clip-path="url(#SVGID_21_)" fill="#717174" width="0.731" height="6.542"/>
			<rect x="285.633" y="-249.932" clip-path="url(#SVGID_21_)" fill="#717174" width="0.73" height="5.059"/>
			<polygon clip-path="url(#SVGID_21_)" fill="#717174" points="289.237,-251.415 288.35,-254.429 287.645,-254.24 
				288.532,-251.226 			"/>
			<polygon clip-path="url(#SVGID_21_)" fill="#717174" points="289.112,-247.441 288.352,-250.346 287.641,-250.176 
				288.401,-247.271 			"/>
			<polygon clip-path="url(#SVGID_21_)" fill="#717174" points="291.139,-246.313 291.071,-247.009 290.425,-246.951 
				290.425,-254.579 289.693,-254.579 289.693,-246.885 287.107,-246.654 287.175,-245.959 289.693,-246.184 289.693,-243.39 
				290.425,-243.39 290.425,-246.25 			"/>
			<polygon clip-path="url(#SVGID_21_)" fill="#717174" points="314.774,-247.991 313.838,-247.89 313.838,-252.72 314.815,-252.72 
				314.815,-253.418 313.838,-253.418 313.838,-254.573 313.105,-254.573 313.105,-253.418 312.127,-253.418 312.127,-252.72 
				313.105,-252.72 313.105,-247.812 312.086,-247.704 312.166,-247.01 313.105,-247.11 313.105,-244.235 311.965,-243.705 
				312.287,-243.077 313.838,-243.799 313.838,-247.188 314.856,-247.297 			"/>
			<polygon clip-path="url(#SVGID_21_)" fill="#717174" points="320.709,-243.644 318.652,-245.5 320.525,-247.196 320.525,-250.61 
				318.489,-250.61 318.489,-252.719 320.511,-252.719 320.511,-253.417 318.489,-253.417 318.489,-254.573 317.759,-254.573 
				317.759,-253.417 315.699,-253.417 315.699,-252.719 317.759,-252.719 317.759,-250.61 315.699,-250.61 315.699,-249.913 
				319.795,-249.913 319.795,-247.497 318.12,-245.981 316.432,-247.506 316.432,-249.384 315.699,-249.384 315.699,-247.206 
				317.59,-245.5 315.539,-243.644 316.043,-243.137 318.121,-245.019 320.207,-243.137 			"/>
		</g>
		<g clip-path="url(#SVGID_7_)">
			<defs>
				<polygon id="SVGID_22_" points="277.23,-334.45 289.173,-334.441 271.484,-303.482 286.717,-303.482 311.953,-347.65 
					269.685,-347.681 				"/>
			</defs>
			<clipPath id="SVGID_23_">
				<use xlink:href="#SVGID_22_"  overflow="visible"/>
			</clipPath>
			
				<linearGradient id="SVGID_24_" gradientUnits="userSpaceOnUse" x1="3827.998" y1="145.6738" x2="3828.998" y2="145.6738" gradientTransform="matrix(42.2686 0 0 -42.2686 -161534.4375 5831.8584)">
				<stop  offset="0" style="stop-color:#323479"/>
				<stop  offset="0.5" style="stop-color:#296CB5"/>
				<stop  offset="1" style="stop-color:#2FBDBB"/>
				<a:midPointStop  offset="0" style="stop-color:#323479"/>
				<a:midPointStop  offset="0.5" style="stop-color:#323479"/>
				<a:midPointStop  offset="0.5" style="stop-color:#296CB5"/>
				<a:midPointStop  offset="0.5" style="stop-color:#296CB5"/>
				<a:midPointStop  offset="1" style="stop-color:#2FBDBB"/>
			</linearGradient>
			<rect x="269.685" y="-347.681" clip-path="url(#SVGID_23_)" fill="url(#SVGID_24_)" width="42.268" height="44.199"/>
		</g>
		<g clip-path="url(#SVGID_7_)">
			<defs>
				<rect id="SVGID_25_" x="-340.508" y="-449.943" width="841.89" height="595.276"/>
			</defs>
			<clipPath id="SVGID_26_">
				<use xlink:href="#SVGID_25_"  overflow="visible"/>
			</clipPath>
			<polygon clip-path="url(#SVGID_26_)" fill="#2EBDBB" points="247.418,-331.163 231.602,-303.481 246.834,-303.481 
				255.039,-317.842 			"/>
			<polygon clip-path="url(#SVGID_26_)" fill="#2EBDBB" points="259.158,-351.713 251.555,-338.403 271.482,-303.482 
				286.715,-303.482 			"/>
		</g>
	</g>
</g>
</svg>
