<?xml version="1.0" encoding="utf-8"?>
<!-- Generator: Adobe Illustrator 27.0.0, SVG Export Plug-In . SVG Version: 6.00 Build 0)  -->
<svg t="1711372435307" class="icon" viewBox="0 0 1706 1024" version="1.1" xmlns="http://www.w3.org/2000/svg" p-id="12518" width="200" height="200"><path d="M480.938667 371.858286c0 21.065143 2.267429 38.15619 6.241523 50.688 4.534857 12.53181 10.24 26.185143 18.16381 40.984381 2.852571 4.559238 3.974095 9.118476 3.974095 13.116952 0 5.680762-3.413333 11.385905-10.776381 17.066667l-35.766857 23.917714c-5.12 3.413333-10.215619 5.12-14.750476 5.12-5.680762 0-11.361524-2.82819-17.017905-7.94819a176.103619 176.103619 0 0 1-20.431238-26.770286c-5.680762-9.679238-11.361524-20.504381-17.603048-33.596953-44.27581 52.394667-99.888762 78.57981-166.863238 78.57981-47.689143 0-85.699048-13.653333-113.517714-41.008762-27.794286-27.306667-42.008381-63.780571-42.008381-109.32419 0-48.420571 17.042286-87.698286 51.663238-117.321143 34.620952-29.598476 80.579048-44.422095 139.044572-44.422096 19.309714 0 39.15581 1.706667 60.17219 4.559239 20.992 2.852571 42.569143 7.41181 65.26781 12.531809V196.461714c0-43.27619-9.094095-73.45981-26.672762-91.111619-18.16381-17.65181-48.810667-26.185143-92.525715-26.185143-19.870476 0-40.301714 2.267429-61.293714 7.387429-20.992 5.12-41.447619 11.385905-61.293714 19.358476a162.499048 162.499048 0 0 1-19.870476 7.41181c-3.974095 1.145905-6.826667 1.706667-9.069715 1.706666-7.94819 0-11.946667-5.680762-11.946666-17.651809V69.485714c0-9.118476 1.145905-15.945143 3.998476-19.943619 2.82819-3.974095 7.94819-7.972571 15.896381-11.946666C143.798857 27.355429 167.643429 18.773333 195.462095 11.946667c27.794286-7.387429 57.319619-10.800762 88.527238-10.800762 67.535238 0 116.931048 15.36 148.72381 46.128762 31.207619 30.72 47.104 77.433905 47.104 140.068571v184.515048h1.121524z m-230.424381 86.552381c18.724571 0 38.034286-3.413333 58.465524-10.24 20.431238-6.826667 38.595048-19.358476 53.906285-36.449524 9.094095-10.825143 15.896381-22.77181 19.309715-36.449524 3.413333-13.653333 5.656381-30.183619 5.65638-49.542095v-23.893334a472.551619 472.551619 0 0 0-52.199619-9.703619 426.25219 426.25219 0 0 0-53.369904-3.413333c-38.034286 0-65.828571 7.41181-84.553143 22.77181-18.724571 15.36-27.794286 37.010286-27.794286 65.487238 0 26.770286 6.802286 46.713905 20.967619 60.367238 13.653333 14.238476 33.499429 21.065143 59.611429 21.065143z m455.753143 61.513143c-10.24 0-17.017905-1.706667-21.577143-5.705143-4.534857-3.413333-8.508952-11.385905-11.922286-22.186667l-133.36381-440.222476c-3.413333-11.385905-5.12-18.773333-5.12-22.77181 0-9.118476 4.559238-14.238476 13.628953-14.238476h55.612952c10.800762 0 18.16381 1.706667 22.137905 5.705143 4.534857 3.413333 7.94819 11.385905 11.361524 22.186667l95.329524 377.002666L820.906667 42.715429c2.852571-11.385905 6.241524-18.797714 10.800762-22.211048 4.534857-3.413333 12.483048-5.705143 22.674285-5.705143h45.421715c10.776381 0 18.16381 1.706667 22.698666 5.705143 4.534857 3.413333 8.533333 11.385905 10.776381 22.186667l89.697524 381.561904 98.182095-381.561904c3.413333-11.361524 7.363048-18.773333 11.337143-22.186667 4.559238-3.413333 11.946667-5.705143 22.137905-5.705143h52.784762c9.094095 0 14.189714 4.559238 14.189714 14.238476 0 2.852571-0.560762 5.705143-1.121524 9.118476-0.585143 3.413333-1.706667 7.972571-3.974095 14.238477l-136.777143 440.198095c-3.413333 11.385905-7.387429 18.773333-11.946667 22.186667-4.534857 3.413333-11.897905 5.705143-21.552761 5.705142H997.424762c-10.776381 0-18.16381-1.706667-22.698667-5.680761-4.534857-3.998476-8.533333-11.410286-10.776381-22.796191L875.958857 124.708571l-87.405714 366.738286c-2.82819 11.385905-6.241524 18.773333-10.776381 22.77181-4.534857 3.998476-12.483048 5.705143-22.698667 5.705143h-48.810666z m729.307428 15.36c-29.500952 0-59.001905-3.413333-87.405714-10.24-28.355048-6.826667-50.492952-14.238476-65.26781-22.77181-9.069714-5.12-15.311238-10.825143-17.578666-15.945143a40.301714 40.301714 0 0 1-3.413334-15.945143v-29.037714c0-11.946667 4.534857-17.65181 13.04381-17.65181 3.413333 0 6.826667 0.560762 10.24 1.706667 3.413333 1.121524 8.508952 3.413333 14.165333 5.680762 19.309714 8.533333 40.301714 15.36 62.439619 19.943619 22.698667 4.534857 44.860952 6.826667 67.535238 6.826667 35.766857 0 63.585524-6.265905 82.895238-18.773334 19.260952-12.55619 29.500952-30.768762 29.500953-54.125714 0-15.945143-5.12-29.037714-15.335619-39.862857-10.215619-10.825143-29.500952-20.48-57.319619-29.598476l-82.310096-25.624381c-41.423238-13.116952-72.070095-32.475429-90.794666-58.09981-18.724571-25.039238-28.379429-52.955429-28.379429-82.553904 0-23.917714 5.12-45.007238 15.311238-63.21981a146.285714 146.285714 0 0 1 40.862477-46.689524c17.042286-13.116952 36.327619-22.79619 59.026285-29.622857C1405.513143 2.852571 1429.357714 0 1454.32381 0c12.483048 0 25.526857 0.560762 38.034285 2.267429 13.04381 1.706667 24.966095 3.998476 36.864 6.265904 11.361524 2.852571 22.137905 5.705143 32.353524 9.118477 10.24 3.413333 18.16381 6.826667 23.844571 10.24 7.94819 4.559238 13.628952 9.118476 17.017905 14.238476 3.413333 4.559238 5.12 10.825143 5.12 18.797714v26.770286c0 11.946667-4.534857 18.212571-13.043809 18.212571-4.559238 0-11.946667-2.267429-21.577143-6.826667-32.353524-14.799238-68.681143-22.186667-108.982857-22.186666-32.353524 0-57.880381 5.12-75.483429 15.920762-17.578667 10.825143-26.672762 27.331048-26.672762 50.688 0 15.945143 5.680762 29.598476 17.042286 40.423619 11.337143 10.825143 32.329143 21.650286 62.415238 31.329524L1521.859048 240.88381c40.862476 13.092571 70.363429 31.329524 87.966476 54.662095 17.603048 23.356952 26.087619 50.127238 26.087619 79.725714 0 24.502857-5.095619 46.689524-14.726095 66.072381a153.039238 153.039238 0 0 1-41.447619 50.102857c-17.578667 14.238476-38.595048 24.478476-63.000381 31.890286-25.526857 7.972571-52.199619 11.946667-81.164191 11.946667z" fill="#252F3E" p-id="12519"></path><path d="M1542.851048 812.056381c-186.733714 138.386286-458.020571 211.846095-691.297524 211.846095-326.89981 0-621.470476-121.295238-843.971048-322.901333-17.578667-15.945143-1.706667-37.571048 19.309714-25.039238 240.64 140.068571 537.478095 224.938667 844.556191 224.938666 207.140571 0 434.712381-43.300571 644.144762-132.144761 31.232-14.214095 57.904762 20.528762 27.257905 43.300571z" fill="#FF9900" p-id="12520"></path><path d="M1620.601905 723.21219c-23.82019-30.744381-157.769143-14.799238-218.502095-7.387428-18.16381 2.267429-20.992-13.677714-4.534858-25.624381 106.691048-75.190857 282.087619-53.540571 302.494477-28.476952 20.431238 25.6-5.656381 201.581714-105.569524 285.866666-15.311238 13.092571-30.061714 6.265905-23.259429-10.825143 22.698667-56.368762 73.216-183.344762 49.371429-213.552762z" fill="#FF9900" p-id="12521"></path></svg>
