<?xml version="1.0" encoding="utf-8"?>
<!-- Generator: Adobe Illustrator 27.0.0, SVG Export Plug-In . SVG Version: 6.00 Build 0)  -->
<svg version="1.1" id="图层_1" xmlns="http://www.w3.org/2000/svg" xmlns:xlink="http://www.w3.org/1999/xlink" x="0px" y="0px"
	 viewBox="0 0 64 64" style="enable-background:new 0 0 64 64;" xml:space="preserve">
<style type="text/css">
	.st0{fill-rule:evenodd;clip-rule:evenodd;fill:#343741;}
	.st1{filter:url(#Adobe_OpacityMaskFilter);}
	.st2{fill-rule:evenodd;clip-rule:evenodd;fill:#FFFFFF;}
	.st3{mask:url(#mask-2_00000129909825174856685480000016649344054006850212_);fill-rule:evenodd;clip-rule:evenodd;fill:#FEC514;}
	.st4{filter:url(#Adobe_OpacityMaskFilter_00000106107395239965151750000011532763816314023324_);}
	.st5{mask:url(#mask-4_00000165202303234462782450000016839712775639056825_);fill-rule:evenodd;clip-rule:evenodd;fill:#00BFB3;}
</style>
<g id="icon-_x2F_-product-logo-_x2F_-32x32px-_x2F_-elasticsearch-_x2F_-color">
	<g id="Group-9" transform="translate(1.000000, 0.000000)">
		<path id="Fill-1" class="st0" d="M5.3,32c0,2.4,0.3,4.8,0.9,7h34.1c3.9,0,7-3.1,7-7c0-3.9-3.1-7-7-7H6.2C5.7,27.2,5.3,29.6,5.3,32
			"/>
		<g id="Group-5" transform="translate(1.000000, 0.000000)">
			<g id="Clip-4">
			</g>
			<defs>
				<filter id="Adobe_OpacityMaskFilter" filterUnits="userSpaceOnUse" x="7.2" y="4" width="47" height="15.8">
					<feColorMatrix  type="matrix" values="1 0 0 0 0  0 1 0 0 0  0 0 1 0 0  0 0 0 1 0"/>
				</filter>
			</defs>
			
				<mask maskUnits="userSpaceOnUse" x="7.2" y="4" width="47" height="15.8" id="mask-2_00000129909825174856685480000016649344054006850212_">
				<g class="st1">
					<polygon id="path-1_00000007425757679942963100000012171569361818902403_" class="st2" points="7.2,4 54.2,4 54.2,19.8 
						7.2,19.8 					"/>
				</g>
			</mask>
			<path id="Fill-3" class="st3" d="M51.4,17.4c1-0.9,1.9-1.9,2.7-2.9C49,8.1,41.2,4,32.3,4C21.3,4,11.7,10.4,7.2,19.8h38.3
				C47.7,19.8,49.8,18.9,51.4,17.4"/>
		</g>
		<g id="Group-8" transform="translate(1.000000, 23.000000)">
			<g id="Clip-7">
			</g>
			<defs>
				
					<filter id="Adobe_OpacityMaskFilter_00000113338905008139463080000001257251847065833904_" filterUnits="userSpaceOnUse" x="7.2" y="21.3" width="47" height="15.8">
					<feColorMatrix  type="matrix" values="1 0 0 0 0  0 1 0 0 0  0 0 1 0 0  0 0 0 1 0"/>
				</filter>
			</defs>
			
				<mask maskUnits="userSpaceOnUse" x="7.2" y="21.3" width="47" height="15.8" id="mask-4_00000165202303234462782450000016839712775639056825_">
				<g style="filter:url(#Adobe_OpacityMaskFilter_00000113338905008139463080000001257251847065833904_);">
					<polygon id="path-3_00000069395982830001475500000001077791369843073715_" class="st2" points="7.2,21.3 54.2,21.3 54.2,37 
						7.2,37 					"/>
				</g>
			</mask>
			<path id="Fill-6" class="st5" d="M45.5,21.3H7.2C11.7,30.6,21.3,37,32.3,37c8.8,0,16.7-4.1,21.8-10.5c-0.8-1-1.7-2-2.7-2.9
				C49.8,22.1,47.7,21.3,45.5,21.3"/>
		</g>
	</g>
</g>
</svg>
