<svg xmlns="http://www.w3.org/2000/svg" id="_图层_2" x="0" y="0" version="1.1" viewBox="0 0 1018 642.1" xml:space="preserve"><style>.st53{fill:none}.st54{fill:#ffc6c2}</style><linearGradient id="SVGID_1_" x1="868.369" x2="717.379" y1="466.369" y2="466.369" gradientTransform="matrix(1 0 0 -1 0 644)" gradientUnits="userSpaceOnUse"><stop offset="0" stop-color="#34f7f7"/><stop offset="1" stop-color="#253ed2"/></linearGradient><path fill="url(#SVGID_1_)" d="M846 155.6c-.8-.5-1.7-1-2.6-1.4-.3-.1-.6-.3-.9-.4l-1.8-.9c-.4-.2-.8-.3-1.2-.5-.6-.3-1.1-.5-1.7-.8-.4-.2-.8-.4-1.3-.5-.5-.2-1-.4-1.6-.7h-.1c-1.3-.5-2.6-1-4-1.4-.3-.1-.7-.2-1.1-.3-1.1-.4-2.3-.7-3.5-1.1-.2-.1-.4-.1-.6-.2-.1 0-.2 0-.2-.1-1.2-.3-2.4-.7-3.6-1-1.2-.3-2.5-.6-3.8-.8-.1 0-.2 0-.3-.1-.4-.1-.9-.2-1.3-.2-.7-.1-1.3-.3-2-.4-.5-.1-1.1-.2-1.7-.3-.7-.1-1.3-.2-2-.3-.2 0-.3-.1-.4-.1-.5-.1-1-.1-1.4-.2-.6-.1-1.2-.1-1.7-.2-.6-.1-1.3-.1-1.9-.2-.6-.1-1.2-.1-1.8-.2h-.4c-.5 0-1.1-.1-1.6-.1-.6 0-1.1-.1-1.7-.1-.7 0-1.4-.1-2.1-.1-.6 0-1.1-.1-1.7-.1H792.4c-1.4 0-2.8 0-4.2.1h-.3c-.4 0-.8 0-1.2.1-.8 0-1.7.1-2.5.1-.5 0-1.1.1-1.6.1-.8.1-1.5.1-2.3.2-.2 0-.4 0-.6.1-.3 0-.5.1-.8.1-1.1.1-2.2.2-3.2.4-.4.1-.9.1-1.3.2-1.4.2-2.9.4-4.3.7h-.2c-1.2.2-2.3.4-3.4.7l-1.2.3c-.8.2-1.6.3-2.3.5-.5.1-.9.2-1.4.4l-2.1.6c-.5.1-1 .3-1.4.4-.6.2-1.3.4-1.9.6-.1 0-.2.1-.3.1-.8.3-1.6.5-2.4.8-.9.3-1.8.7-2.7 1-.3.1-.5.2-.8.3-.7.3-1.3.5-1.9.8-.3.1-.6.2-.8.4-.7.3-1.5.6-2.2 1-.1.1-.3.1-.4.2-.8.4-1.7.8-2.5 1.2-.2.1-.4.2-.7.3-.6.3-1.2.6-1.8 1-.2.1-.5.3-.8.4l-.6.3c-.2.1-.5.3-.7.4-.5.3-1 .6-1.4.9-.4.2-.7.5-1.1.7-.5.3-.9.6-1.3.9-.3.2-.7.5-1 .8-.4.3-.8.6-1.3 1-.3.3-.7.5-1 .8-.4.3-.8.7-1.2 1-.2.2-.4.4-.6.5-.1.1-.3.2-.4.4l-.4.4-1.5 1.5-.1.1c-.5.6-1 1.1-1.5 1.7-.1.1-.2.3-.4.4-.1.2-.3.3-.4.5-.1.2-.2.3-.4.5-.3.4-.6.8-.9 1.3l-.6.9c-.3.4-.5.9-.8 1.3l-.3.6c-.1.1-.1.2-.2.3-.2.4-.4.7-.6 1.1-.2.3-.3.7-.5 1-.2.4-.3.7-.5 1.1-.1.2-.2.5-.3.7 0 .1-.1.2-.1.3-.1.3-.2.7-.3 1-.1.4-.2.7-.3 1.1-.1.3-.2.7-.2 1-.1.2-.1.5-.2.7 0 .1 0 .3-.1.4-.1.4-.1.7-.2 1 0 .4-.1.8-.1 1.1 0 .4-.1.7-.1 1.1v1.6l-.1 26.1c0-.5 0-1.1.1-1.6 0-.4 0-.7.1-1.1 0-.4.1-.8.1-1.1 0-.4.1-.7.2-1 .1-.4.2-.8.2-1.1.1-.3.2-.7.2-1 .1-.4.2-.7.3-1.1.1-.3.2-.7.3-1 .1-.4.3-.7.4-1 .2-.4.3-.7.5-1.1.2-.3.3-.7.5-1 .2-.4.4-.7.6-1.1.2-.3.3-.6.5-.9.3-.4.5-.9.8-1.3l.6-.9c.3-.4.6-.9.9-1.3.3-.3.5-.7.8-1 .1-.1.2-.3.4-.4.5-.6 1-1.1 1.5-1.7l.1-.1 1.5-1.5.4-.4c.3-.3.7-.6 1-.9.4-.4.8-.7 1.2-1 .3-.3.6-.5 1-.8.4-.3.8-.7 1.3-1 .3-.3.7-.5 1-.8.4-.3.9-.6 1.3-.9.4-.2.7-.5 1.1-.7.5-.3 1-.6 1.4-.9.4-.3.8-.5 1.3-.8.2-.1.5-.3.8-.4.6-.3 1.2-.6 1.8-1 .2-.1.4-.2.7-.4.8-.4 1.6-.8 2.5-1.2.1-.1.3-.1.4-.2.7-.3 1.4-.7 2.2-1 .3-.1.6-.2.8-.4.6-.3 1.3-.5 1.9-.8.3-.1.5-.2.8-.3.9-.4 1.8-.7 2.7-1 .9-.3 1.8-.6 2.8-.9.6-.2 1.3-.4 1.9-.6.5-.1 1-.3 1.4-.4.7-.2 1.4-.4 2-.6.5-.1.9-.2 1.4-.4.8-.2 1.5-.4 2.3-.5l1.2-.3c1.1-.2 2.3-.5 3.4-.7h.2c1.4-.2 2.8-.5 4.3-.7.4-.1.9-.1 1.3-.2 1.1-.1 2.2-.3 3.2-.4.5-.1 1-.1 1.4-.1.8-.1 1.5-.1 2.3-.2.5 0 1.1-.1 1.6-.1.8-.1 1.7-.1 2.5-.1.5 0 1-.1 1.5-.1 1.4 0 2.8-.1 4.2-.1 1.2 0 2.4 0 3.6.1.6 0 1.1 0 1.7.1.7 0 1.4.1 2.1.1.6 0 1.1.1 1.7.1.7.1 1.3.1 2 .1.6.1 1.2.1 1.8.2.6.1 1.3.1 1.9.2.6.1 1.2.1 1.7.2.6.1 1.2.2 1.9.2.7.1 1.3.2 2 .3.5.1 1.1.2 1.7.3.7.1 1.3.2 2 .4.5.1 1 .2 1.6.3 1.3.3 2.5.5 3.8.9 1.2.3 2.4.6 3.6 1 .3.1.5.2.8.2 1.2.3 2.3.7 3.5 1.1.3.1.7.2 1.1.4 1.3.5 2.7.9 4 1.4.6.2 1.1.5 1.7.7.4.2.8.3 1.2.5.6.2 1.2.5 1.7.8.4.2.8.3 1.1.5l1.8.9c.3.1.6.3.9.4.9.5 1.8.9 2.6 1.4 13.7 7.9 22.2 18.9 22.3 30.9l.1-26.1c.1-12.1-8.4-23-22.2-30.9z"/><linearGradient id="SVGID_00000121259216992674081890000006255912244795176840_" x1="871.129" x2="888.668" y1="428.434" y2="428.434" gradientTransform="matrix(1 0 0 -1 0 644)" gradientUnits="userSpaceOnUse"><stop offset="0" stop-color="#34f7f7"/><stop offset="1" stop-color="#253ed2"/></linearGradient><path fill="url(#SVGID_00000121259216992674081890000006255912244795176840_)" d="M888.6 188.5v.3c0 .6-.1 1.3-.2 1.9 0 .1 0 .3-.1.4-.1.6-.2 1.3-.3 1.9-.2.8-.4 1.6-.6 2.5-.1.2-.2.5-.2.8-.2.6-.4 1.1-.6 1.7-.2.4-.3.8-.5 1.2 0 .1-.1.2-.1.4-.2.6-.5 1.2-.8 1.8-.1.1-.1.3-.2.4-.3.5-.5 1.1-.8 1.6-.1.1-.1.2-.2.3-.3.6-.7 1.2-1.1 1.8-.1.1-.2.3-.3.4-.3.5-.6.9-.9 1.4-.1.2-.2.3-.3.5-.4.6-.8 1.1-1.2 1.7v.1l-1.5 1.8c-.2.2-.3.4-.5.6-.3.4-.7.8-1.1 1.2-.2.2-.4.4-.6.7-.3.4-.7.7-1 1.1-.2.2-.5.4-.7.7-.4.4-.8.7-1.2 1.1l-.5.5c-.6.5-1.2 1-1.8 1.6l-.1 26.1c.6-.5 1.2-1 1.8-1.6.2-.1.3-.3.5-.5l.6-.6.5-.5c.2-.2.5-.4.7-.7.4-.4.7-.7 1-1.1.2-.2.4-.4.6-.7.4-.4.7-.8 1.1-1.2.2-.2.3-.4.5-.6l1.5-1.8v-.1c.4-.6.8-1.1 1.2-1.7.1-.2.2-.3.3-.5.3-.5.6-.9.9-1.4.1-.1.2-.3.3-.4.3-.5.7-1.1 1-1.6 0-.1 0-.1.1-.1.1-.1.1-.2.2-.3.3-.5.6-1 .8-1.6.1-.1.1-.3.2-.4.3-.6.6-1.2.8-1.8 0-.1.1-.2.1-.4.1-.3.2-.5.3-.8 0-.1.1-.3.1-.4.2-.6.4-1.1.6-1.7.1-.2.2-.5.2-.8.2-.8.4-1.6.6-2.5.1-.6.2-1.3.3-1.9 0-.1 0-.3.1-.4.1-.6.1-1.3.2-1.9v-.3-.9-1.1l.1-26.1c.2.6.2 1.2.2 1.9z"/><linearGradient id="SVGID_00000017483837978952205700000000850311022750177208_" x1="697.029" x2="844.249" y1="416.744" y2="416.744" gradientTransform="matrix(1 0 0 -1 0 644)" gradientUnits="userSpaceOnUse"><stop offset="0" stop-color="#34f7f7"/><stop offset="1" stop-color="#253ed2"/></linearGradient><path fill="url(#SVGID_00000017483837978952205700000000850311022750177208_)" d="M844.2 233.4l-4.5 1.5c-.2.1-.5.2-.7.2-1.2.4-2.5.8-3.8 1.1-.3.1-.5.1-.8.2-1.1.3-2.2.6-3.2.9-.3.1-.7.2-1 .2-1.3.3-2.6.6-4 .9-.2.1-.4.1-.7.1-1.2.2-2.3.5-3.5.7-.4.1-.9.2-1.3.2-.5.1-.9.2-1.4.2-.6.1-1.2.2-1.7.3-.5.1-.9.1-1.4.2-.6.1-1.2.2-1.8.2-.5.1-.9.1-1.4.2-.6.1-1.2.1-1.8.2-.5.1-.9.1-1.4.1-.4 0-.8.1-1.2.1-1.3.1-2.7.2-4.1.3-.2 0-.5 0-.7.1-1.5.1-3.1.2-4.6.2h-1.1c-1.7.1-3.3.1-5 .1-1.5 0-3 0-4.6-.1-.7 0-1.5-.1-2.2-.1-.9 0-1.8-.1-2.6-.1-.7 0-1.5-.1-2.2-.1-.8-.1-1.7-.1-2.5-.2s-1.5-.1-2.2-.2c-.8-.1-1.6-.2-2.4-.2-.7-.1-1.5-.2-2.2-.3l-2.4-.3c-.9-.1-1.7-.3-2.6-.4l-2.1-.3c-.9-.1-1.7-.3-2.5-.5-.7-.1-1.3-.2-2-.4-1.6-.3-3.2-.7-4.8-1.1-1.5-.4-3.1-.8-4.6-1.2-1.2-.3-2.4-.7-3.6-1.1-.2-.1-.5-.2-.7-.2-1-.3-2-.6-2.9-1-.3-.1-.7-.2-1-.4-1-.4-2-.7-3-1.1-.2-.1-.3-.1-.5-.2-.7-.3-1.5-.6-2.2-.9-.5-.2-1.1-.4-1.6-.6-.7-.3-1.5-.7-2.2-1-.5-.2-1-.4-1.4-.6-.8-.4-1.6-.8-2.3-1.2-.4-.2-.8-.4-1.1-.6l-3.3-1.8c-17.4-10.1-28.2-23.9-28.3-39.2l-.1 26.1c.1 15.3 10.9 29.2 28.3 39.2l3.3 1.8 1.2.6c.8.4 1.5.8 2.3 1.1.5.2 1 .4 1.4.6.7.3 1.4.7 2.2 1 .5.2 1 .4 1.6.6.7.3 1.3.6 2 .8 0 0 .1 0 .2.1.2.1.3.1.5.2 1 .4 2 .8 3 1.1.3.1.7.2 1 .4 1 .3 1.9.7 2.9 1 .2.1.5.2.7.2 1.1.3 2.2.7 3.2 1 .1 0 .2.1.3.1 1.5.4 3 .8 4.6 1.2 1.6.4 3.2.7 4.8 1.1.1 0 .2 0 .3.1.5.1 1.1.2 1.7.3.8.2 1.7.3 2.5.5l2.1.3c.8.1 1.7.3 2.6.4.2 0 .4.1.5.1.6.1 1.2.1 1.8.2.7.1 1.5.2 2.2.3.8.1 1.6.2 2.4.2.8.1 1.5.1 2.2.2h.5c.7.1 1.3.1 2 .1s1.5.1 2.2.1c.9 0 1.7.1 2.6.1.7 0 1.5.1 2.2.1h.4c1.4 0 2.8.1 4.2.1 1.7 0 3.4 0 5-.1h1.1c1.6-.1 3.1-.1 4.6-.2h.7c1.4-.1 2.7-.2 4.1-.3.2 0 .4 0 .6-.1.2 0 .4 0 .5-.1.5 0 .9-.1 1.4-.1.6-.1 1.2-.1 1.8-.2.5-.1.9-.1 1.4-.2.6-.1 1.2-.2 1.8-.2.5-.1.9-.1 1.4-.2.6-.1 1.2-.2 1.7-.3.5-.1.9-.1 1.4-.2.2 0 .5-.1.7-.1.2 0 .4-.1.6-.1 1.2-.2 2.4-.4 3.5-.7.2-.1.4-.1.7-.1 1.3-.3 2.7-.6 4-.9.3-.1.7-.2 1-.2 1.1-.3 2.2-.6 3.2-.9.3-.1.5-.1.8-.2 1.3-.4 2.5-.7 3.8-1.1.1 0 .2-.1.3-.1.2 0 .3-.1.4-.1l4.5-1.5.3-25.9z"/><linearGradient id="SVGID_00000065058686624730323800000015198181838881118878_" x1="697.078" x2="910.909" y1="450.257" y2="450.257" gradientTransform="matrix(1 0 0 -1 0 644)" gradientUnits="userSpaceOnUse"><stop offset="0" stop-color="#78d8fb"/><stop offset="1" stop-color="#95affe"/></linearGradient><path fill="url(#SVGID_00000065058686624730323800000015198181838881118878_)" d="M910.9 244.7c0 3-1.9 5.9-5.7 8.2-7.8 4.7-20.7 4.8-28.8.2l-27.3-15.4c-2.3-1.3-3.9-2.8-4.9-4.4-14.8 5.4-32.2 8.6-51 8.6-26.4 0-50.4-6.2-67.8-16.3-17.4-10.1-28.2-23.9-28.3-39.2-.2-30.6 42.7-55.5 95.5-55.5 26.4 0 50.4 6.2 67.8 16.3s28.2 23.9 28.3 39.2c.1 11.9-6.4 23-17.5 32 2.2.6 4.3 1.3 6.2 2.4l27.3 15.4c4.2 2.5 6.2 5.5 6.2 8.5zm-117.8-14.5c41.6 0 75.3-19.6 75.2-43.7-.1-12.1-8.6-23-22.3-30.9-13.7-7.9-32.6-12.8-53.4-12.8-41.6 0-75.3 19.6-75.2 43.7.1 12.1 8.6 23 22.3 30.9 13.7 7.9 32.6 12.8 53.4 12.8"/><linearGradient id="SVGID_00000035521052249451612520000017019007291412309400_" x1="844.178" x2="910.959" y1="386.039" y2="386.039" gradientTransform="matrix(1 0 0 -1 0 644)" gradientUnits="userSpaceOnUse"><stop offset="0" stop-color="#3271f2"/><stop offset="1" stop-color="#292bcc"/></linearGradient><path fill="url(#SVGID_00000035521052249451612520000017019007291412309400_)" d="M910.9 245.3c0 .2 0 .4-.1.6 0 .2-.1.3-.1.5s-.1.4-.2.6c-.1.2-.1.3-.2.5l-.3.6c-.2.3-.3.6-.5.8v.1c-.2.3-.4.6-.7.8l-.2.2c-.3.3-.5.6-.8.9-.2.2-.4.4-.7.5-.2.1-.3.3-.5.4-.2.2-.5.4-.8.5-.2.1-.4.3-.6.4-.4.3-.9.5-1.4.7-.1.1-.3.1-.4.2-.4.2-.8.4-1.2.5-.1.1-.2.1-.3.1-.5.2-1 .4-1.5.5l-1.2.3c-.2.1-.4.1-.7.2l-1.5.3c-.1 0-.3.1-.4.1-.8.1-1.5.2-2.3.3-.3 0-.5 0-.8.1-.4 0-.9.1-1.3.1h-2.9c-.3 0-.7 0-1-.1-.3 0-.6 0-.9-.1-.3 0-.7-.1-1-.1-.3 0-.6-.1-.9-.1-.4-.1-.7-.1-1.1-.2-.3-.1-.6-.1-.8-.2-.5-.1-.9-.2-1.4-.3-.2-.1-.4-.1-.6-.2-.7-.2-1.5-.5-2.2-.7-.3-.1-.7-.3-1-.4-.2-.1-.3-.1-.5-.2-.5-.2-1-.5-1.5-.8l-27.3-15.4c-2.3-1.3-3.9-2.8-4.9-4.4l-.1 26.1c1 1.6 2.5 3 4.9 4.4l27.3 15.4c.5.3 1 .5 1.5.8.2.1.3.1.5.2.3.1.5.2.8.3.1 0 .1 0 .2.1.7.3 1.4.5 2.2.7h.1c.2 0 .3.1.5.1.5.1.9.2 1.4.3.1 0 .2 0 .2.1.2 0 .4.1.6.1.4.1.7.1 1.1.2.1 0 .2 0 .3.1.2 0 .4 0 .6.1.3 0 .7.1 1 .1h1c.3 0 .7 0 1 .1h2.9c.4 0 .9 0 1.3-.1h.8c.8-.1 1.6-.2 2.3-.3.1 0 .2-.1.4-.1l1.5-.3c.2-.1.4-.1.7-.2l1.2-.3h.1c.5-.1.9-.3 1.4-.5.1 0 .2-.1.3-.1.4-.2.8-.3 1.2-.5.1-.1.3-.1.4-.2.5-.2.9-.5 1.4-.7 0 0 .1 0 .1-.1.2-.1.3-.2.5-.4.3-.2.5-.4.8-.5.2-.1.3-.3.5-.4.2-.2.5-.4.7-.5l.1-.1.8-.8.2-.2c.1-.1.2-.2.3-.4.1-.2.2-.3.4-.5v-.1c.1-.2.3-.4.4-.6 0-.1.1-.1.1-.2l.3-.6c0-.1.1-.2.2-.3v-.2c.1-.2.1-.4.2-.6 0-.1.1-.2.1-.4v-.1c0-.2 0-.4.1-.6v-.4-.2l.1-26.1c-.1.4-.2.6-.2.8z"/><g><linearGradient id="SVGID_00000072990946282249646280000001219091725081590462_" x1="605.959" x2="729.589" y1="366.759" y2="366.759" gradientTransform="matrix(1 0 0 -1 0 644)" gradientUnits="userSpaceOnUse"><stop offset="0" stop-color="#78d8fb"/><stop offset="1" stop-color="#95affe"/></linearGradient><path fill="url(#SVGID_00000072990946282249646280000001219091725081590462_)" d="M729.6 242.3l-1.8-1L606 311.5v.6l1.7 1.1L729.6 243z"/><linearGradient id="SVGID_00000008122924337163771310000005844158021334680455_" x1="391.368" x2="381.178" y1="327.314" y2="327.314" gradientTransform="matrix(1 0 0 -1 0 644)" gradientUnits="userSpaceOnUse"><stop offset="0" stop-color="#34f7f7"/><stop offset="1" stop-color="#31f0f6"/></linearGradient><path fill="url(#SVGID_00000008122924337163771310000005844158021334680455_)" d="M391 266.5c-6.6-3.8-9.9-8.8-9.9-13.8l.3 114.1c0 5 3.3 10 9.9 13.8l-.3-114.1z"/><linearGradient id="SVGID_00000108990318018279552190000011618445175329824445_" x1="683.619" x2="673.279" y1="327.414" y2="327.414" gradientTransform="matrix(1 0 0 -1 0 644)" gradientUnits="userSpaceOnUse"><stop offset="0" stop-color="#3271f2"/><stop offset="1" stop-color="#292bcc"/></linearGradient><path fill="url(#SVGID_00000108990318018279552190000011618445175329824445_)" d="M683.6 367.7v-.5-.4-.2l-.3-114.1v1.1c0 .1 0 .3-.1.5 0 .2 0 .3-.1.5 0 .1-.1.3-.1.5s-.1.3-.1.5c0 .1-.1.3-.1.5s-.1.3-.2.5c0 .1-.1.3-.2.4-.1.2-.1.3-.2.5-.1.1-.1.3-.2.4-.1.2-.2.3-.2.5-.1.1-.2.3-.2.4l-.3.6c-.1.1-.2.3-.3.4-.1.2-.3.4-.4.6-.1.1-.2.2-.3.4-.2.3-.5.5-.7.8l-.2.2c-.3.3-.6.7-1 1-.2.1-.3.3-.5.4-.1.1-.3.2-.4.4-.2.1-.4.3-.5.5-.1.1-.3.2-.4.4-.2.1-.4.3-.6.4-.2.1-.3.2-.4.3-.2.1-.5.3-.7.5-.2.1-.3.2-.5.3-.4.2-.8.5-1.2.7l.3 114.1c.4-.2.8-.5 1.2-.7.2-.1.3-.2.5-.3.2-.1.5-.3.7-.5.2-.1.3-.2.5-.3.2-.1.4-.3.6-.5.2-.1.3-.2.4-.4.2-.1.4-.3.5-.5.1-.1.3-.2.4-.4.1-.1.3-.2.4-.4l.1-.1 1-1 .2-.2c.2-.3.5-.5.7-.8l.1-.1c.1-.1.1-.2.2-.2.1-.2.3-.4.4-.6.1-.1.2-.3.3-.4l.3-.6c0-.1.1-.2.2-.2 0-.1 0-.1.1-.2.1-.2.2-.3.2-.5.1-.1.1-.3.2-.4.1-.2.1-.3.2-.5 0-.1.1-.2.1-.3v-.1c.1-.2.1-.3.2-.5 0-.1.1-.3.1-.5s.1-.3.1-.5c0-.1.1-.2.1-.3v-.1c0-.2 0-.3.1-.5-.1-.1-.1-.3 0-.5z"/><linearGradient id="SVGID_00000054978567444148341710000000852352451888709258_" x1="391.029" x2="508.238" y1="286.444" y2="286.444" gradientTransform="matrix(1 0 0 -1 0 644)" gradientUnits="userSpaceOnUse"><stop offset="0" stop-color="#34f7f7"/><stop offset="1" stop-color="#253ed2"/></linearGradient><path fill="url(#SVGID_00000054978567444148341710000000852352451888709258_)" d="M507.9 334.5l.3 114.1-116.8-68-.4-114.1z"/><linearGradient id="SVGID_00000062908422206935519260000008902503768363916710_" x1="555.619" x2="673.589" y1="286.439" y2="286.439" gradientTransform="matrix(1 0 0 -1 0 644)" gradientUnits="userSpaceOnUse"><stop offset="0" stop-color="#3271f2"/><stop offset="1" stop-color="#292bcc"/></linearGradient><path fill="url(#SVGID_00000062908422206935519260000008902503768363916710_)" d="M673.3 266.5l.3 114.2-117.7 67.9-.3-114.1z"/><linearGradient id="SVGID_00000036971499793992106100000013681427610157305514_" x1="532.066" x2="532.066" y1="478.964" y2="303.761" gradientTransform="matrix(1 0 0 -1 0 644)" gradientUnits="userSpaceOnUse"><stop offset="0" stop-color="#78d8fb"/><stop offset="1" stop-color="#95affe"/></linearGradient><path fill="url(#SVGID_00000036971499793992106100000013681427610157305514_)" d="M508.5 170.8c13.3-7.7 34.8-7.7 48 0l116.9 67.9c13.2 7.7 13.2 20.1-.2 27.8l-117.7 67.9c-13.3 7.7-34.8 7.7-48 0l-116.9-67.9c-13.2-7.7-13.1-20.1.2-27.8l117.7-67.9z"/><linearGradient id="SVGID_00000083796350509435086780000013337163531534320271_" x1="563.189" x2="514.818" y1="258.243" y2="258.243" gradientTransform="matrix(1 -.00297 -.00297 -1 -6.325 654.177)" gradientUnits="userSpaceOnUse"><stop offset="0" stop-color="#3271f2"/><stop offset="1" stop-color="#2442d3"/></linearGradient><path fill="url(#SVGID_00000083796350509435086780000013337163531534320271_)" d="M546.8 452.3c.5-.1 1-.3 1.5-.4.1 0 .2 0 .2-.1.8-.2 1.5-.5 2.3-.8.2-.1.4-.1.5-.2.7-.3 1.3-.5 2-.9.2-.1.5-.2.7-.3.8-.4 1.6-.8 2.3-1.2l-.7-114.1c-.7.4-1.5.8-2.3 1.2-.2.1-.4.2-.7.3-.7.3-1.3.6-2 .9-.2.1-.4.1-.5.2-.8.3-1.7.6-2.5.9-.5.1-1 .3-1.5.4-.5.1-1 .3-1.5.4l-1.5.3c-.5.1-1.1.2-1.6.3-.2 0-.4.1-.6.1-.8.1-1.6.2-2.4.4-.2 0-.4 0-.6.1-.9.1-1.8.2-2.8.2H529.4c-.6 0-1.1 0-1.7-.1-.5 0-1-.1-1.6-.1-.6 0-1.1-.1-1.7-.2-.5-.1-1-.1-1.5-.2l-1.8-.3c-.7-.1-1.4-.3-2.1-.4-.1 0-.2 0-.3-.1-.9-.2-1.7-.4-2.6-.7-.2-.1-.5-.1-.7-.2-.8-.2-1.5-.5-2.2-.8-.1 0-.2-.1-.3-.1-.6-.2-1.2-.5-1.8-.8-.3-.1-.6-.2-.9-.4-.9-.4-1.7-.9-2.5-1.3l.7 114.1c.8.5 1.7.9 2.5 1.3.3.1.6.3.9.4.6.2 1.1.5 1.7.7h.1c.1 0 .2.1.4.1.7.3 1.5.5 2.2.8.2.1.5.1.7.2.2.1.4.1.7.2.6.2 1.2.3 1.9.5.1 0 .2 0 .3.1.5.1.9.2 1.4.3.2 0 .5.1.7.1l1.8.3c.3 0 .6.1.8.1.2 0 .5 0 .7.1.6.1 1.1.1 1.7.2.3 0 .6.1.9.1h.6c.6 0 1.1.1 1.7.1h5.7c.8 0 1.6-.1 2.4-.2h.3c.2 0 .4 0 .6-.1.8-.1 1.6-.2 2.4-.4.2 0 .4-.1.6-.1h.3c.4-.1.9-.2 1.3-.3l1.5-.3c.5 0 1-.1 1.6-.3z"/><linearGradient id="SVGID_00000005955709429711440810000017372228428736334782_" x1="166.619" x2="494.298" y1="210.979" y2="210.979" gradientTransform="matrix(1 0 0 -1 0 644)" gradientUnits="userSpaceOnUse"><stop offset="0" stop-color="#78d8fb"/><stop offset="1" stop-color="#95affe"/></linearGradient><path fill="url(#SVGID_00000005955709429711440810000017372228428736334782_)" d="M494.2 486v-.4-.3-.8c0-4-2.6-8-7.8-11l-87.8-51c-4.7-2.7-7-6.2-7.1-9.8v-.3-.3-.4c0-.1 0-.2.1-.3s0-.2.1-.4c0-.1.1-.2.1-.3 0-.1.1-.2.1-.4 0-.1.1-.2.1-.3 0-.1.1-.2.1-.4 0-.1.1-.2.1-.3.1-.1.1-.2.2-.4 0-.1.1-.2.2-.3.1-.1.2-.3.2-.4.1-.1.1-.2.2-.3.1-.1.2-.3.3-.4.1-.1.1-.2.2-.3.2-.2.3-.4.5-.6l.1-.1.7-.7.1-.1c.4-.4.8-.7 1.2-1 0 0 .1 0 .1-.1.5-.4.9-.7 1.5-1 .3-.2.5-.3.8-.5l54.1-31.3v-.6l-1.8-1-53.8 31.2c-9.6 5.5-25.2 5.5-34.8 0l-14.8-8.6-87.1-50.6c-10.5-6.1-27.7-6.1-38.2 0l-55.5 32v.6l1.8 1 55.5-32c.5-.3 1.1-.6 1.7-.9.2-.1.3-.1.5-.2.5-.2.9-.4 1.4-.6.1 0 .2-.1.4-.1l1.8-.6c.4-.1.7-.2 1.1-.3.4-.1.7-.2 1.1-.3.4-.1.7-.2 1.1-.2.4-.1.8-.2 1.2-.2.1 0 .3 0 .4-.1.6-.1 1.1-.2 1.7-.2h.4c.3 0 .6 0 .9-.1.6 0 1.1-.1 1.7-.1H242.8c.4 0 .8 0 1.2.1.4 0 .8.1 1.1.1.4 0 .8.1 1.2.1.4 0 .7.1 1.1.1.4.1.9.1 1.3.2.3.1.7.1 1 .2.5.1 1 .2 1.5.4.4.1.7.2 1.1.3.2 0 .4.1.5.2.6.2 1.1.4 1.6.5.1 0 .2.1.3.1.4.2.9.4 1.3.5.2.1.5.2.7.3.6.3 1.2.6 1.8 1l77.5 45c-9.2-1.6-19.6-.3-26.9 3.9l-55.5 32v.6l1.8 1 55.5-32c.5-.3 1.1-.6 1.7-.9.2-.1.3-.1.5-.2.5-.2 1-.4 1.4-.6.1 0 .2-.1.4-.1l1.8-.6c.4-.1.7-.2 1.1-.3.4-.1.7-.2 1.1-.3.4-.1.7-.2 1.1-.2.4-.1.8-.2 1.2-.2.1 0 .3 0 .4-.1.6-.1 1.1-.2 1.7-.2h.4c.3 0 .6 0 .9-.1.6 0 1.1-.1 1.7-.1H329.8c.4 0 .8 0 1.2.1.4 0 .8.1 1.1.1.4 0 .8.1 1.2.1.4 0 .7.1 1.1.1.4.1.9.1 1.3.2.3.1.7.1 1 .2.5.1 1 .2 1.5.4.4.1.7.2 1.1.3.2 0 .4.1.5.2.5.2 1.1.4 1.6.5.1 0 .2.1.3.1.5.2.9.4 1.3.6l.6.3c.6.3 1.2.6 1.8 1l14.8 8.6c.6.4 1.2.7 1.9 1l.6.3c.4.2.9.4 1.4.6.1 0 .2.1.3.1.2.1.4.2.7.2s.4.2.7.2c.4.1.8.3 1.2.4.2.1.4.1.6.2h.1c.1 0 .2 0 .3.1.7.2 1.4.4 2.1.5.1 0 .2.1.4.1.1 0 .2 0 .4.1.6.1 1.3.2 1.9.3.1 0 .3 0 .4.1h.1l2.4.3h.6c.6 0 1.2.1 1.9.1H381.5c.9 0 1.8-.1 2.6-.2h.1c.6-.1 1.2-.1 1.8-.2.1 0 .2 0 .4-.1.4-.1.9-.1 1.3-.2h.2c.5-.1 1-.2 1.4-.3.2 0 .5-.1.7-.1.5-.1.9-.2 1.4-.4-1.8 2.4-2.6 4.9-2.4 7.4v-.9.6c0 4 2.6 8 7.8 11 3 1.7 5 3.8 6.1 6 .6 1.2.9 2.5 1 3.7-.1 3.6-2.5 7.1-7.2 9.8l-55.5 32v.6l1.8 1 55.5-32c.3-.2.7-.4 1-.6.6-.4 1.1-.7 1.6-1.1 0 0 .1 0 .1-.1.5-.4.9-.8 1.3-1.1 0 0 .1 0 .1-.1l.1-.1.8-.8.1-.1c.2-.2.4-.5.6-.7l.1-.1c0-.1.1-.1.1-.2.1-.1.2-.3.3-.5.1-.1.1-.2.2-.3.1-.1.2-.3.3-.5 0-.1.1-.1.1-.2 0 0 0-.1.1-.1.1-.1.1-.3.2-.4.1-.1.1-.2.2-.4.1-.1.1-.3.2-.4 0-.1.1-.2.1-.2v-.1c0-.1.1-.3.1-.4 0-.1.1-.2.1-.4 0-.1.1-.3.1-.4 0-.1 0-.2.1-.3v-.1c0-.1 0-.3.1-.4v-.4-.4-.3-.8c0-1.5-.4-3-1.1-4.5l79.3 46.1c1.2.7 2.2 1.4 3.1 2.2s1.6 1.6 2.2 2.5c.9 1.3 1.5 2.6 1.7 4 .1.4.1.7.1 1.1-.1 3.6-2.5 7.1-7.2 9.8l-55.5 32v.6l1.8 1 55.5-32c.3-.2.6-.4.9-.5.1-.1.2-.1.4-.2s.4-.2.5-.4c.1-.1.2-.2.4-.3.2-.1.3-.2.5-.4.1-.1.2-.2.4-.3.1-.1.3-.2.4-.4l.3-.3.3-.3.1-.1.8-.8.1-.1c.2-.2.4-.5.6-.7l.1-.1c0-.1.1-.1.1-.2.1-.1.2-.3.3-.5.1-.1.1-.2.2-.3.1-.1.2-.3.3-.5 0-.1.1-.1.1-.2 0 0 0-.1.1-.1.1-.1.1-.3.2-.4.1-.1.1-.2.2-.4.1-.1.1-.3.2-.4 0-.1.1-.2.1-.2v-.1c0-.1.1-.3.1-.4 0-.1.1-.2.1-.4 0-.1.1-.3.1-.4 0-.1 0-.2.1-.3v-.1c0-.1 0-.3.1-.4-.3 0-.3-.1-.4-.3zm.1-1zm-3.1 6.9s.1-.1.1-.2c0 .1-.1.1-.1.2zm-2.7 2.4zm.8-.6s0-.1 0 0c0-.1 0-.1 0 0zm.8-.7zm1.8-1.9s.1-.1.1-.2c0 .1-.1.1-.1.2zm.5-.8l.1-.1s0 .1-.1.1zm.5-.8zm.4-.7zm.3-.7s0-.1 0 0c0-.1 0-.1 0 0zm.3-.8zm.2-.7s0-.1 0 0c0-.1 0-.1 0 0zm.1-.8zm-2.4-1.9v-.6c-.1.2-.1.4 0 .6zm-.3-1.4c0-.2-.1-.4-.2-.6.1.2.2.4.2.6zm-.4-1.3c-.1-.2-.1-.4-.3-.6l.3.6zm-1.6-2.6c-.1-.2-.3-.4-.4-.5.1.1.2.3.4.5zm.9 1.3c-.1-.2-.2-.4-.4-.6.2.2.3.4.4.6zm-3.5-3.9c-.2-.1-.3-.3-.5-.4.1.2.3.3.5.4zm1.4 1.3l-.5-.5c.2.2.4.3.5.5zm-81.9-42.1c0 .1 0 .2-.1.4v.1c.1-.3.1-.5.1-.8v.3zm-.2.7c0 .1-.1.2-.1.4 0 .1-.1.3-.1.4v.1c0-.3.1-.6.2-.9zm-.4 1.1c0 .1-.1.3-.2.4 0 .1-.1.2-.2.4.2-.3.4-.5.4-.8.1 0 .1 0 0 0zm-.5 1.2c-.1.1-.1.2-.2.3 0 .1-.1.2-.2.3.1-.2.3-.5.4-.7.1 0 0 0 0 .1zm-.6 1.1c-.1.1-.2.3-.3.4l-.1.1c.2-.2.4-.5.5-.8-.1.2-.1.2-.1.3zm-1.1 1.4l-.1.1-.1.1c.2-.2.4-.4.6-.7-.2.2-.3.4-.4.5zm-1.1 1.1l.5-.5-.4.4-.1.1zm-.8-14.3c-.1-.2-.3-.4-.4-.5.1.2.2.4.4.5zm2.3 5.4v-.6.6zm-.3-1.4c0-.2-.1-.4-.2-.6.2.2.2.4.2.6zm-.4-1.3c-.1-.2-.1-.4-.3-.6.1.1.2.4.3.6zm-.7-1.4c-.1-.2-.2-.4-.4-.6.2.2.3.4.4.6zm-3.5-3.8c-.2-.1-.3-.3-.5-.4.1.2.3.3.5.4zm1.4 1.3l-.5-.5c.2.1.4.3.5.5zm-9-13.8zm5.6-9zm-1.5 1.1zm-2.2 2.5zm-.8 1.3zm-.6 1.4s0-.1 0 0c0-.1 0 0 0 0zm-.3 1.3zm0 8.2c-.3-.3-.5-.7-.8-1 .3.4.6.7.8 1zm2.7-13.5s0 .1 0 0c0 .1 0 .1 0 0zm-5.3 7.9c0 .3.1.7.2 1-.1-.3-.1-.7-.2-1zm.2 1.1c.1.4.2.7.3 1.1-.1-.4-.2-.8-.3-1.1zm.5 1.3c.1.4.3.7.5 1-.1-.3-.3-.5-.4-.8-.1-.1-.1-.2-.1-.2zm.5 1.2c.2.3.4.6.6 1-.1-.2-.2-.3-.3-.5-.1-.2-.2-.4-.3-.5zm1.6 2.2c.3.3.6.6.9 1-.3-.3-.6-.6-.9-1zm3.4 3l-1.2-.9 1.2.9zm-1.4-1c-.4-.3-.7-.6-1-.9.3.3.7.6 1 .9zm1.6 1.2c.4.3.9.6 1.4.9-.5-.3-.9-.6-1.4-.9zm4.2 21.3c-.1 0-.1.1-.2.1-.3.2-.6.4-1 .6.4-.2.8-.5 1.2-.7zm6.8-10v.5c0-.3 0-.6.1-.9-.1.2-.1.3-.1.4z"/><linearGradient id="SVGID_00000152262265139133502900000014323063013295986621_" x1="246.538" x2="295.149" y1="474.094" y2="474.094" gradientTransform="matrix(1 0 0 -1 0 644)" gradientUnits="userSpaceOnUse"><stop offset="0" stop-color="#78d8fb"/><stop offset="1" stop-color="#95affe"/></linearGradient><path fill="url(#SVGID_00000152262265139133502900000014323063013295986621_)" d="M280.2 159.1c-.1 0-.1-.1-.2-.1s-.1-.1-.2-.1H279.5h-.1-.1-.4-.1-.1-.1c-.1 0-.3.1-.5.2l-31.4 13.1 15 8.7 31.4-13.1c.2-.1.4-.1.6-.2h.1c.2 0 .4-.1.5-.1h.1c.2 0 .3 0 .5.1.2 0 .3.1.5.2l-15.2-8.7z"/><linearGradient id="SVGID_00000183941851339404401570000006940941614287771532_" x1="231.833" x2="231.833" y1="357.614" y2="471.824" gradientTransform="matrix(1 0 0 -1 0 644)" gradientUnits="userSpaceOnUse"><stop offset="0" stop-color="#78d8fb"/><stop offset="1" stop-color="#95affe"/></linearGradient><path fill="url(#SVGID_00000183941851339404401570000006940941614287771532_)" d="M246.5 172.2c-1.6.6-3.1 1.4-4.7 2.3-1.6.9-3.1 1.9-4.6 3L205.5 201c-.3.2-.5.4-.7.6l-.4.4-.1.1-.1.1c0 .1-.1.1-.1.2-.1.1-.2.2-.3.4 0 .1-.1.1-.1.2v.1l-.1.1c-.1.1-.1.2-.2.3s-.1.2-.2.3c-.1.1-.1.2-.1.3-.1.1-.1.2-.2.3 0 .1-.1.1-.1.2v.2c-.1.1-.1.2-.1.4 0 .1-.1.3-.1.4 0 .1-.1.3-.1.4 0 .1 0 .2-.1.4v.2c0 .3-.1.5-.1.8l.1 48.7c0 10.3 3.6 18 9.8 21.6l15 8.7c-6.2-3.6-9.8-11.3-9.8-21.6l-.1-48.7c0-.3 0-.6.1-.8v-.1c0-.3.1-.5.2-.8l.3-.9v-.1c.1-.3.2-.6.4-.8.1-.3.3-.5.5-.8 0 0 0-.1.1-.1.2-.2.3-.5.5-.7l.1-.1.6-.6c.2-.2.5-.4.7-.6l31.8-23.4c1.5-1.1 3.1-2.1 4.6-3 1.6-.9 3.1-1.7 4.7-2.3l-15.4-8.8z"/><linearGradient id="SVGID_00000148634203811230208020000000342467056985119922_" x1="217.069" x2="296.439" y1="414.742" y2="414.742" gradientTransform="matrix(1 0 0 -1 0 644)" gradientUnits="userSpaceOnUse"><stop offset="0" stop-color="#3271f2"/><stop offset="1" stop-color="#292bcc"/></linearGradient><path fill="url(#SVGID_00000148634203811230208020000000342467056985119922_)" d="M256.8 183.2c1.6-.9 3.1-1.7 4.7-2.3l31.4-13.1c1.9-.8 3.4.3 3.4 2.5l.1 48.8c0 12.9-5.5 28.3-14.9 40.9l-12.9 17.5c-3.5 4.7-7.5 8.3-11.5 10.6-3.9 2.3-7.9 3.2-11.3 2.6l-13.4-2.4c-9.5-1.7-15.2-10.6-15.3-23.6L217 216c0-2.2 1.4-5 3.4-6.4l31.8-23.4c1.5-1.1 3.1-2.1 4.6-3z"/><linearGradient id="SVGID_00000106108713913547180610000015074885813996535448_" x1="77.788" x2="176.138" y1="212.502" y2="212.502" gradientTransform="matrix(1 0 0 -1 0 644)" gradientUnits="userSpaceOnUse"><stop offset="0" stop-color="#34f7f7"/><stop offset="1" stop-color="#253ed2"/></linearGradient><path fill="url(#SVGID_00000106108713913547180610000015074885813996535448_)" d="M176.1 424.3V410v1.5c0 .2-.1.4-.1.7 0 .2-.1.5-.1.7 0 .2-.1.5-.1.7-.1.2-.1.5-.2.7-.1.2-.1.5-.2.7-.1.2-.1.5-.2.7-.1.2-.2.4-.2.6-.1.2-.2.5-.3.7l-.3.6c-.1.2-.2.5-.4.7l-.3.6c-.2.3-.3.5-.5.8-.1.2-.2.4-.4.6-.2.3-.4.5-.6.8-.1.2-.3.4-.4.5-.3.4-.6.8-1 1.2-.1.1-.2.2-.2.3-.4.5-.9 1-1.4 1.4-.2.2-.4.4-.7.6-.2.2-.4.4-.6.5-.2.2-.5.4-.8.6-.2.2-.4.3-.6.5l-.9.6c-.2.2-.4.3-.6.5-.3.2-.6.4-1 .7-.2.1-.4.3-.6.4-.6.4-1.1.7-1.7 1-.8.4-1.6.9-2.4 1.3-.2.1-.4.2-.7.3-.7.3-1.4.6-2.1 1-.2.1-.3.1-.5.2-.8.4-1.7.7-2.6 1-.2.1-.4.1-.6.2-.7.2-1.4.5-2.1.7-.2.1-.5.2-.8.2-.3.1-.7.2-1.1.3-.4.1-.7.2-1.1.3-.4.1-.7.2-1.1.3-.4.1-.7.2-1.1.3s-.7.2-1.1.2c-.4.1-.7.2-1.1.2-.4.1-.8.1-1.1.2-.4.1-.7.1-1.1.2-.9.2-1.8.3-2.7.4h-.1l-2.7.3c-.3 0-.6.1-.9.1-.5 0-1 .1-1.6.1-.3 0-.7 0-1 .1-.5 0-1 .1-1.6.1H122.3c-.4 0-.8 0-1.3-.1-.4 0-.7 0-1.1-.1-.4 0-.8-.1-1.2-.1-.4 0-.7-.1-1.1-.1-.4 0-.8-.1-1.2-.1-.4 0-.7-.1-1.1-.1-.5-.1-1-.1-1.5-.2-.3 0-.6-.1-.8-.1-.6-.1-1.2-.2-1.9-.3-.2 0-.3-.1-.5-.1-.8-.2-1.6-.3-2.4-.5-.2-.1-.5-.1-.7-.2-.6-.1-1.1-.3-1.7-.4-.2-.1-.5-.1-.7-.2l-2.1-.6c-.2-.1-.4-.1-.7-.2-.9-.3-1.7-.6-2.6-.9-.4-.1-.7-.3-1.1-.5-.3-.1-.6-.2-.8-.4-.4-.2-.8-.3-1.1-.5-.3-.1-.5-.2-.8-.4l-1.2-.6c-.2-.1-.4-.2-.7-.3-.6-.3-1.2-.6-1.8-1-9.5-5.5-14.3-12.8-14.3-20v14.3c0 7.2 4.8 14.5 14.3 20 .6.3 1.2.7 1.8 1 .2.1.4.2.7.3l1.2.6c.3.1.5.2.8.4.4.2.8.4 1.1.5.3.1.6.2.8.4.3.1.7.3 1 .4h.1c.8.3 1.7.6 2.6.9.2.1.4.1.7.2.7.2 1.4.5 2.1.6.2 0 .3.1.4.1.1 0 .2 0 .3.1.6.1 1.1.3 1.7.4.2.1.5.1.7.2.8.2 1.6.4 2.4.5.2 0 .3.1.5.1.6.1 1.2.2 1.9.3.3 0 .6.1.9.1.5.1 1 .2 1.5.2h.2c.3 0 .6.1.9.1.4 0 .8.1 1.2.1.4 0 .7.1 1.1.1.4 0 .8.1 1.2.1h.2c.3 0 .6 0 .9.1.4 0 .8.1 1.3.1H130.6c.5 0 1 0 1.6-.1.3 0 .7 0 1-.1.5 0 1-.1 1.6-.1H135.7l2.7-.3h.1c.9-.1 1.8-.3 2.7-.4h.3c.3 0 .5-.1.8-.1.4-.1.8-.1 1.1-.2.4-.1.8-.2 1.1-.2.4-.1.7-.2 1.1-.2.4-.1.7-.2 1.1-.3.4-.1.7-.2 1.1-.3.4-.1.7-.2 1.1-.3.4-.1.7-.2 1.1-.3.1 0 .2-.1.3-.1.1 0 .3-.1.4-.1.7-.2 1.4-.5 2.1-.7.2-.1.4-.1.6-.2.9-.3 1.7-.7 2.6-1 .2-.1.3-.1.5-.2.7-.3 1.4-.6 2.1-1 .2-.1.4-.2.7-.3.8-.4 1.6-.8 2.4-1.3.6-.3 1.1-.7 1.7-1h.1c.2-.1.4-.3.6-.4.3-.2.7-.4 1-.7.2-.2.4-.3.6-.5l.9-.6c.2-.2.4-.3.6-.5.3-.2.5-.4.8-.6.2-.2.4-.4.6-.5.2-.2.4-.4.6-.5l.1-.1 1.4-1.4c.1-.1.2-.2.2-.3.4-.4.7-.8 1-1.2l.2-.2c.1-.1.2-.2.2-.4.2-.3.4-.5.6-.8.1-.2.3-.4.4-.6.2-.3.3-.5.5-.8.1-.1.1-.2.2-.4 0-.1.1-.2.1-.2.1-.2.2-.5.4-.7l.3-.6c.1-.2.2-.5.3-.7.1-.1.1-.3.2-.4 0-.1 0-.1.1-.2.1-.2.1-.5.2-.7.1-.2.1-.5.2-.7.1-.2.1-.5.2-.7 0-.2.1-.3.1-.5v-.2c0-.2.1-.5.1-.7 0-.2.1-.4.1-.7v-.7-.5c-.2-.1-.2-.2-.2-.3z"/><linearGradient id="SVGID_00000066514414698362806370000002038296909124577417_" x1="77.743" x2="176.083" y1="233.774" y2="233.774" gradientTransform="matrix(1 0 0 -1 0 643.997)" gradientUnits="userSpaceOnUse"><stop offset="0" stop-color="#78d8fb"/><stop offset="1" stop-color="#95affe"/></linearGradient><path fill="url(#SVGID_00000066514414698362806370000002038296909124577417_)" d="M126.8 381.7c27.2-.1 49.2 12.6 49.2 28.3s-21.9 28.5-49.1 28.6-49.2-12.6-49.2-28.3 22-28.5 49.1-28.6z"/><linearGradient id="SVGID_00000072985583111449754410000009210212146696629642_" x1="77.788" x2="176.138" y1="240.502" y2="240.502" gradientTransform="matrix(1 0 0 -1 0 644)" gradientUnits="userSpaceOnUse"><stop offset="0" stop-color="#34f7f7"/><stop offset="1" stop-color="#253ed2"/></linearGradient><path fill="url(#SVGID_00000072985583111449754410000009210212146696629642_)" d="M176.1 396.3V382v1.5c0 .2-.1.4-.1.7 0 .2-.1.5-.1.7 0 .2-.1.5-.1.7-.1.2-.1.5-.2.7-.1.2-.1.5-.2.7-.1.2-.1.5-.2.7-.1.2-.2.4-.2.6-.1.2-.2.5-.3.7l-.3.6c-.1.2-.2.5-.4.7l-.3.6c-.2.3-.3.5-.5.8-.1.2-.2.4-.4.6-.2.3-.4.5-.6.8-.1.2-.3.4-.4.5-.3.4-.6.8-1 1.2-.1.1-.2.2-.2.3-.4.5-.9 1-1.4 1.4-.2.2-.4.4-.7.6-.2.2-.4.4-.6.5-.2.2-.5.4-.8.6-.2.2-.4.3-.6.5l-.9.6c-.2.2-.4.3-.6.5-.3.2-.6.4-1 .7-.2.1-.4.3-.6.4-.6.4-1.1.7-1.7 1-.8.4-1.6.9-2.4 1.3-.2.1-.4.2-.7.3-.7.3-1.4.6-2.1 1-.2.1-.3.1-.5.2-.8.4-1.7.7-2.6 1-.2.1-.4.1-.6.2-.7.2-1.4.5-2.1.7-.2.1-.5.2-.8.2-.3.1-.7.2-1.1.3-.4.1-.7.2-1.1.3-.4.1-.7.2-1.1.3-.4.1-.7.2-1.1.3s-.7.2-1.1.2c-.4.1-.7.2-1.1.2-.4.1-.8.1-1.1.2-.4.1-.7.1-1.1.2-.9.2-1.8.3-2.7.4h-.1l-2.7.3c-.3 0-.6.1-.9.1-.5 0-1 .1-1.6.1-.3 0-.7 0-1 .1-.5 0-1 .1-1.6.1H122.3c-.4 0-.8 0-1.3-.1-.4 0-.7 0-1.1-.1-.4 0-.8-.1-1.2-.1-.4 0-.7-.1-1.1-.1-.4 0-.8-.1-1.2-.1-.4 0-.7-.1-1.1-.1-.5-.1-1-.1-1.5-.2-.3 0-.6-.1-.8-.1-.6-.1-1.2-.2-1.9-.3-.2 0-.3-.1-.5-.1-.8-.2-1.6-.3-2.4-.5-.2-.1-.5-.1-.7-.2-.6-.1-1.1-.3-1.7-.4-.2-.1-.5-.1-.7-.2l-2.1-.6c-.2-.1-.4-.1-.7-.2-.9-.3-1.7-.6-2.6-.9-.4-.1-.7-.3-1.1-.5-.3-.1-.6-.2-.8-.4-.4-.2-.8-.3-1.1-.5-.3-.1-.5-.2-.8-.4l-1.2-.6c-.2-.1-.4-.2-.7-.3-.6-.3-1.2-.6-1.8-1-9.5-5.5-14.3-12.8-14.3-20v14.3c0 7.2 4.8 14.5 14.3 20 .6.3 1.2.7 1.8 1 .2.1.4.2.7.3l1.2.6c.3.1.5.2.8.4.4.2.8.4 1.1.5.3.1.6.2.8.4.3.1.7.3 1 .4h.1c.8.3 1.7.6 2.6.9.2.1.4.1.7.2.7.2 1.4.5 2.1.6.2 0 .3.1.4.1.1 0 .2 0 .3.1.6.1 1.1.3 1.7.4.2.1.5.1.7.2.8.2 1.6.4 2.4.5.2 0 .3.1.5.1.6.1 1.2.2 1.9.3.3 0 .6.1.9.1.5.1 1 .2 1.5.2h.2c.3 0 .6.1.9.1.4 0 .8.1 1.2.1.4 0 .7.1 1.1.1.4 0 .8.1 1.2.1h.2c.3 0 .6 0 .9.1.4 0 .8.1 1.3.1H130.6c.5 0 1 0 1.6-.1.3 0 .7 0 1-.1.5 0 1-.1 1.6-.1H135.7l2.7-.3h.1c.9-.1 1.8-.3 2.7-.4h.3c.3 0 .5-.1.8-.1.4-.1.8-.1 1.1-.2.4-.1.8-.2 1.1-.2.4-.1.7-.2 1.1-.2.4-.1.7-.2 1.1-.3.4-.1.7-.2 1.1-.3.4-.1.7-.2 1.1-.3.4-.1.7-.2 1.1-.3.1 0 .2-.1.3-.1.1 0 .3-.1.4-.1.7-.2 1.4-.5 2.1-.7.2-.1.4-.1.6-.2.9-.3 1.7-.7 2.6-1 .2-.1.3-.1.5-.2.7-.3 1.4-.6 2.1-1 .2-.1.4-.2.7-.3.8-.4 1.6-.8 2.4-1.3.6-.3 1.1-.7 1.7-1h.1c.2-.1.4-.3.6-.4.3-.2.7-.4 1-.7.2-.2.4-.3.6-.5l.9-.6c.2-.2.4-.3.6-.5.3-.2.5-.4.8-.6.2-.2.4-.4.6-.5.2-.2.4-.4.6-.5l.1-.1 1.4-1.4c.1-.1.2-.2.2-.3.4-.4.7-.8 1-1.2l.2-.2c.1-.1.2-.2.2-.4.2-.3.4-.5.6-.8.1-.2.3-.4.4-.6.2-.3.3-.5.5-.8.1-.1.1-.2.2-.4 0-.1.1-.2.1-.2.1-.2.2-.5.4-.7l.3-.6c.1-.2.2-.5.3-.7.1-.1.1-.3.2-.4 0-.1 0-.1.1-.2.1-.2.1-.5.2-.7.1-.2.1-.5.2-.7.1-.2.1-.5.2-.7 0-.2.1-.3.1-.5v-.2c0-.2.1-.5.1-.7 0-.2.1-.4.1-.7v-.7-.5c-.2-.1-.2-.2-.2-.3z"/><linearGradient id="SVGID_00000174570115777944711920000016029755178254446525_" x1="77.745" x2="176.085" y1="261.775" y2="261.775" gradientTransform="matrix(1 0 0 -1 0 643.997)" gradientUnits="userSpaceOnUse"><stop offset="0" stop-color="#78d8fb"/><stop offset="1" stop-color="#95affe"/></linearGradient><path fill="url(#SVGID_00000174570115777944711920000016029755178254446525_)" d="M126.8 353.7c27.2-.1 49.2 12.6 49.2 28.3 0 15.7-21.9 28.5-49.1 28.6S77.7 398 77.7 382.3s22-28.5 49.1-28.6z"/><linearGradient id="SVGID_00000090256047758051113900000015788827119824979094_" x1="77.788" x2="176.138" y1="270.502" y2="270.502" gradientTransform="matrix(1 0 0 -1 0 644)" gradientUnits="userSpaceOnUse"><stop offset="0" stop-color="#34f7f7"/><stop offset="1" stop-color="#253ed2"/></linearGradient><path fill="url(#SVGID_00000090256047758051113900000015788827119824979094_)" d="M176.1 366.3V352v1.5c0 .2-.1.4-.1.7 0 .2-.1.5-.1.7 0 .2-.1.5-.1.7-.1.2-.1.5-.2.7-.1.2-.1.5-.2.7-.1.2-.1.5-.2.7-.1.2-.2.4-.2.6-.1.2-.2.5-.3.7l-.3.6c-.1.2-.2.5-.4.7l-.3.6c-.2.3-.3.5-.5.8-.1.2-.2.4-.4.6-.2.3-.4.5-.6.8-.1.2-.3.4-.4.5-.3.4-.6.8-1 1.2-.1.1-.2.2-.2.3-.4.5-.9 1-1.4 1.4-.2.2-.4.4-.7.6-.2.2-.4.4-.6.5-.2.2-.5.4-.8.6-.2.2-.4.3-.6.5l-.9.6c-.2.2-.4.3-.6.5-.3.2-.6.4-1 .7-.2.1-.4.3-.6.4-.6.4-1.1.7-1.7 1-.8.4-1.6.9-2.4 1.3-.2.1-.4.2-.7.3-.7.3-1.4.6-2.1 1-.2.1-.3.1-.5.2-.8.4-1.7.7-2.6 1-.2.1-.4.1-.6.2-.7.2-1.4.5-2.1.7-.2.1-.5.2-.8.2-.3.1-.7.2-1.1.3-.4.1-.7.2-1.1.3-.4.1-.7.2-1.1.3-.4.1-.7.2-1.1.3s-.7.2-1.1.2c-.4.1-.7.2-1.1.2-.4.1-.8.1-1.1.2-.4.1-.7.1-1.1.2-.9.2-1.8.3-2.7.4h-.1l-2.7.3c-.3 0-.6.1-.9.1-.5 0-1 .1-1.6.1-.3 0-.7 0-1 .1-.5 0-1 .1-1.6.1H122.3c-.4 0-.8 0-1.3-.1-.4 0-.7 0-1.1-.1-.4 0-.8-.1-1.2-.1-.4 0-.7-.1-1.1-.1-.4 0-.8-.1-1.2-.1-.4 0-.7-.1-1.1-.1-.5-.1-1-.1-1.5-.2-.3 0-.6-.1-.8-.1-.6-.1-1.2-.2-1.9-.3-.2 0-.3-.1-.5-.1-.8-.2-1.6-.3-2.4-.5-.2-.1-.5-.1-.7-.2-.6-.1-1.1-.3-1.7-.4-.2-.1-.5-.1-.7-.2l-2.1-.6c-.2-.1-.4-.1-.7-.2-.9-.3-1.7-.6-2.6-.9-.4-.1-.7-.3-1.1-.5-.3-.1-.6-.2-.8-.4-.4-.2-.8-.3-1.1-.5-.3-.1-.5-.2-.8-.4l-1.2-.6c-.2-.1-.4-.2-.7-.3-.6-.3-1.2-.6-1.8-1-9.5-5.5-14.3-12.8-14.3-20v14.3c0 7.2 4.8 14.5 14.3 20 .6.3 1.2.7 1.8 1 .2.1.4.2.7.3l1.2.6c.3.1.5.2.8.4.4.2.8.4 1.1.5.3.1.6.2.8.4.3.1.7.3 1 .4h.1c.8.3 1.7.6 2.6.9.2.1.4.1.7.2.7.2 1.4.5 2.1.6.2 0 .3.1.4.1.1 0 .2 0 .3.1.6.1 1.1.3 1.7.4.2.1.5.1.7.2.8.2 1.6.4 2.4.5.2 0 .3.1.5.1.6.1 1.2.2 1.9.3.3 0 .6.1.9.1.5.1 1 .2 1.5.2h.2c.3 0 .6.1.9.1.4 0 .8.1 1.2.1.4 0 .7.1 1.1.1.4 0 .8.1 1.2.1h.2c.3 0 .6 0 .9.1.4 0 .8.1 1.3.1H130.6c.5 0 1 0 1.6-.1.3 0 .7 0 1-.1.5 0 1-.1 1.6-.1H135.7l2.7-.3h.1c.9-.1 1.8-.3 2.7-.4h.3c.3 0 .5-.1.8-.1.4-.1.8-.1 1.1-.2.4-.1.8-.2 1.1-.2.4-.1.7-.2 1.1-.2.4-.1.7-.2 1.1-.3.4-.1.7-.2 1.1-.3.4-.1.7-.2 1.1-.3.4-.1.7-.2 1.1-.3.1 0 .2-.1.3-.1.1 0 .3-.1.4-.1.7-.2 1.4-.5 2.1-.7.2-.1.4-.1.6-.2.9-.3 1.7-.7 2.6-1 .2-.1.3-.1.5-.2.7-.3 1.4-.6 2.1-1 .2-.1.4-.2.7-.3.8-.4 1.6-.8 2.4-1.3.6-.3 1.1-.7 1.7-1h.1c.2-.1.4-.3.6-.4.3-.2.7-.4 1-.7.2-.2.4-.3.6-.5l.9-.6c.2-.2.4-.3.6-.5.3-.2.5-.4.8-.6.2-.2.4-.4.6-.5.2-.2.4-.4.6-.5l.1-.1 1.4-1.4c.1-.1.2-.2.2-.3.4-.4.7-.8 1-1.2l.2-.2c.1-.1.2-.2.2-.4.2-.3.4-.5.6-.8.1-.2.3-.4.4-.6.2-.3.3-.5.5-.8.1-.1.1-.2.2-.4 0-.1.1-.2.1-.2.1-.2.2-.5.4-.7l.3-.6c.1-.2.2-.5.3-.7.1-.1.1-.3.2-.4 0-.1 0-.1.1-.2.1-.2.1-.5.2-.7.1-.2.1-.5.2-.7.1-.2.1-.5.2-.7 0-.2.1-.3.1-.5v-.2c0-.2.1-.5.1-.7 0-.2.1-.4.1-.7v-.7-.5c-.2-.1-.2-.2-.2-.3z"/><linearGradient id="SVGID_00000049919921387106533890000018427562416727183011_" x1="77.741" x2="176.081" y1="291.775" y2="291.775" gradientTransform="matrix(1 0 0 -1 0 643.997)" gradientUnits="userSpaceOnUse"><stop offset="0" stop-color="#78d8fb"/><stop offset="1" stop-color="#95affe"/></linearGradient><path fill="url(#SVGID_00000049919921387106533890000018427562416727183011_)" d="M126.8 323.7c27.2-.1 49.2 12.6 49.2 28.3 0 15.7-21.9 28.5-49.1 28.6S77.7 368 77.7 352.3s22-28.5 49.1-28.6z"/><linearGradient id="SVGID_00000138557111766076387320000017515687191656605323_" x1="163.788" x2="262.139" y1="162.502" y2="162.502" gradientTransform="matrix(1 0 0 -1 0 644)" gradientUnits="userSpaceOnUse"><stop offset="0" stop-color="#34f7f7"/><stop offset="1" stop-color="#253ed2"/></linearGradient><path fill="url(#SVGID_00000138557111766076387320000017515687191656605323_)" d="M262.1 474.3V460v1.5c0 .2 0 .4-.1.7 0 .2-.1.5-.1.7 0 .2-.1.5-.1.7 0 .2-.1.5-.2.7-.1.2-.1.5-.2.7-.1.2-.1.5-.2.7-.1.2-.2.4-.2.6-.1.2-.2.5-.3.7l-.3.6c-.1.2-.2.5-.4.7l-.3.6c-.2.3-.3.5-.5.8-.1.2-.2.4-.4.6-.2.3-.4.5-.6.8-.1.2-.3.4-.4.5-.3.4-.6.8-1 1.2-.1.1-.2.2-.2.3-.4.5-.9 1-1.4 1.4-.2.2-.4.4-.7.6-.2.2-.4.4-.6.5-.2.2-.5.4-.8.6-.2.2-.4.3-.6.5l-.9.6c-.2.2-.4.3-.6.5-.3.2-.6.4-1 .7-.2.1-.4.3-.6.4-.6.4-1.1.7-1.7 1-.8.4-1.6.9-2.4 1.3-.2.1-.4.2-.7.3-.7.3-1.4.6-2.1 1-.2.1-.3.1-.5.2-.8.4-1.7.7-2.6 1-.2.1-.4.1-.6.2-.7.2-1.4.5-2.1.7-.2.1-.5.2-.8.2-.4.1-.7.2-1.1.3-.4.1-.7.2-1.1.3-.4.1-.7.2-1.1.3-.4.1-.7.2-1.1.3-.4.1-.7.2-1.1.2s-.7.2-1.1.2c-.4.1-.8.1-1.1.2-.4.1-.7.1-1.1.2-.9.2-1.8.3-2.7.4h-.1l-2.7.3c-.3 0-.6.1-.9.1-.5 0-1 .1-1.6.1-.3 0-.7 0-1 .1-.5 0-1 .1-1.6.1h-8.3c-.4 0-.8 0-1.3-.1-.4 0-.7 0-1.1-.1-.4 0-.8-.1-1.2-.1-.4 0-.7-.1-1.1-.1-.4 0-.8-.1-1.2-.1-.4 0-.7-.1-1.1-.1-.5-.1-1-.1-1.5-.2-.3 0-.6-.1-.9-.1-.6-.1-1.2-.2-1.9-.3-.2 0-.3-.1-.5-.1-.8-.2-1.6-.3-2.4-.5-.2-.1-.5-.1-.7-.2-.6-.1-1.1-.3-1.7-.4-.2-.1-.5-.1-.7-.2l-2.1-.6c-.2-.1-.4-.1-.7-.2-.9-.3-1.7-.6-2.6-.9-.4-.1-.7-.3-1.1-.5-.3-.1-.6-.2-.9-.4-.4-.2-.8-.3-1.1-.5-.3-.1-.5-.2-.8-.4l-1.2-.6-.6-.3c-.6-.3-1.2-.6-1.8-1-9.5-5.5-14.3-12.8-14.3-20v14.3c0 7.2 4.8 14.5 14.3 20 .6.3 1.2.7 1.8 1l.6.3 1.2.6c.3.1.5.2.8.4.4.2.8.4 1.1.5.3.1.6.2.9.4.3.1.7.3 1 .4h.1c.9.3 1.7.6 2.6.9.2.1.4.1.7.2.7.2 1.4.5 2.1.6.1 0 .3.1.4.1.1 0 .2 0 .3.1.6.1 1.1.3 1.7.4.2.1.5.1.7.2.8.2 1.6.4 2.4.5.1 0 .3.1.5.1.6.1 1.2.2 1.9.3.3 0 .6.1.9.1.5.1 1 .2 1.5.2h.2c.3 0 .6.1.9.1.4 0 .8.1 1.2.1.4 0 .7.1 1.1.1.4 0 .8.1 1.2.1h.2c.3 0 .6 0 .9.1.4 0 .8.1 1.3.1h8.3c.5 0 1 0 1.6-.1.3 0 .7 0 1-.1.5 0 1-.1 1.6-.1H221.6l2.7-.3h.1c.9-.1 1.8-.3 2.7-.4h.3c.3 0 .5-.1.8-.1.4-.1.8-.1 1.1-.2s.8-.2 1.1-.2.7-.2 1.1-.2c.4-.1.7-.2 1.1-.3.4-.1.7-.2 1.1-.3s.7-.2 1.1-.3.7-.2 1.1-.3c.1 0 .2-.1.3-.1.1 0 .3-.1.4-.1.7-.2 1.4-.5 2.1-.7.2-.1.4-.1.6-.2.9-.3 1.7-.7 2.6-1 .2-.1.3-.1.5-.2.7-.3 1.4-.6 2.1-1 .2-.1.4-.2.7-.3.8-.4 1.6-.8 2.4-1.3.6-.3 1.1-.7 1.7-1h.1c.2-.1.4-.3.6-.4.3-.2.7-.4 1-.7.2-.2.4-.3.6-.5l.9-.6c.2-.2.4-.3.6-.5.3-.2.5-.4.8-.6.2-.2.4-.4.6-.5.2-.2.4-.4.6-.5l.1-.1 1.4-1.4c.1-.1.2-.2.2-.3.4-.4.7-.8 1-1.2 0-.1.1-.1.2-.2s.2-.2.2-.4c.2-.3.4-.5.6-.8.1-.2.3-.4.4-.6.2-.3.3-.5.5-.8.1-.1.1-.2.2-.4 0-.1.1-.2.1-.2.1-.2.2-.5.4-.7l.3-.6c.1-.2.2-.5.3-.7.1-.1.1-.3.2-.4 0-.1 0-.1.1-.2.1-.2.1-.5.2-.7.1-.2.1-.5.2-.7.1-.2.1-.5.2-.7 0-.2.1-.3.1-.5v-.2c0-.2.1-.5.1-.7 0-.2.1-.4.1-.7v-.7-.5c-.1-.1-.1-.2-.1-.3z"/><linearGradient id="SVGID_00000132775796166599691090000012748433211989039537_" x1="163.743" x2="262.084" y1="183.774" y2="183.774" gradientTransform="matrix(1 0 0 -1 -.002 643.997)" gradientUnits="userSpaceOnUse"><stop offset="0" stop-color="#78d8fb"/><stop offset="1" stop-color="#95affe"/></linearGradient><path fill="url(#SVGID_00000132775796166599691090000012748433211989039537_)" d="M212.8 431.7c27.2-.1 49.2 12.6 49.2 28.3 0 15.7-21.9 28.5-49.1 28.6s-49.2-12.6-49.2-28.3c0-15.7 22-28.5 49.1-28.6z"/><linearGradient id="SVGID_00000072280285892349019040000007098362963296027319_" x1="163.788" x2="262.139" y1="190.502" y2="190.502" gradientTransform="matrix(1 0 0 -1 0 644)" gradientUnits="userSpaceOnUse"><stop offset="0" stop-color="#34f7f7"/><stop offset="1" stop-color="#253ed2"/></linearGradient><path fill="url(#SVGID_00000072280285892349019040000007098362963296027319_)" d="M262.1 446.3V432v1.5c0 .2 0 .4-.1.7 0 .2-.1.5-.1.7 0 .2-.1.5-.1.7 0 .2-.1.5-.2.7-.1.2-.1.5-.2.7-.1.2-.1.5-.2.7-.1.2-.2.4-.2.6-.1.2-.2.5-.3.7l-.3.6c-.1.2-.2.5-.4.7l-.3.6c-.2.3-.3.5-.5.8-.1.2-.2.4-.4.6-.2.3-.4.5-.6.8-.1.2-.3.4-.4.5-.3.4-.6.8-1 1.2-.1.1-.2.2-.2.3-.4.5-.9 1-1.4 1.4-.2.2-.4.4-.7.6-.2.2-.4.4-.6.5-.2.2-.5.4-.8.6-.2.2-.4.3-.6.5l-.9.6c-.2.2-.4.3-.6.5-.3.2-.6.4-1 .7-.2.1-.4.3-.6.4-.6.4-1.1.7-1.7 1-.8.4-1.6.9-2.4 1.3-.2.1-.4.2-.7.3-.7.3-1.4.6-2.1 1-.2.1-.3.1-.5.2-.8.4-1.7.7-2.6 1-.2.1-.4.1-.6.2-.7.2-1.4.5-2.1.7-.2.1-.5.2-.8.2-.4.1-.7.2-1.1.3-.4.1-.7.2-1.1.3-.4.1-.7.2-1.1.3-.4.1-.7.2-1.1.3-.4.1-.7.2-1.1.2s-.7.2-1.1.2c-.4.1-.8.1-1.1.2-.4.1-.7.1-1.1.2-.9.2-1.8.3-2.7.4h-.1l-2.7.3c-.3 0-.6.1-.9.1-.5 0-1 .1-1.6.1-.3 0-.7 0-1 .1-.5 0-1 .1-1.6.1h-8.3c-.4 0-.8 0-1.3-.1-.4 0-.7 0-1.1-.1-.4 0-.8-.1-1.2-.1-.4 0-.7-.1-1.1-.1-.4 0-.8-.1-1.2-.1-.4 0-.7-.1-1.1-.1-.5-.1-1-.1-1.5-.2-.3 0-.6-.1-.9-.1-.6-.1-1.2-.2-1.9-.3-.2 0-.3-.1-.5-.1-.8-.2-1.6-.3-2.4-.5-.2-.1-.5-.1-.7-.2-.6-.1-1.1-.3-1.7-.4-.2-.1-.5-.1-.7-.2l-2.1-.6c-.2-.1-.4-.1-.7-.2-.9-.3-1.7-.6-2.6-.9-.4-.1-.7-.3-1.1-.5-.3-.1-.6-.2-.9-.4-.4-.2-.8-.3-1.1-.5-.3-.1-.5-.2-.8-.4l-1.2-.6-.6-.3c-.6-.3-1.2-.6-1.8-1-9.5-5.5-14.3-12.8-14.3-20v14.3c0 7.2 4.8 14.5 14.3 20 .6.3 1.2.7 1.8 1l.6.3 1.2.6c.3.1.5.2.8.4.4.2.8.4 1.1.5.3.1.6.2.9.4.3.1.7.3 1 .4h.1c.9.3 1.7.6 2.6.9.2.1.4.1.7.2.7.2 1.4.5 2.1.6.1 0 .3.1.4.1.1 0 .2 0 .3.1.6.1 1.1.3 1.7.4.2.1.5.1.7.2.8.2 1.6.4 2.4.5.1 0 .3.1.5.1.6.1 1.2.2 1.9.3.3 0 .6.1.9.1.5.1 1 .2 1.5.2h.2c.3 0 .6.1.9.1.4 0 .8.1 1.2.1.4 0 .7.1 1.1.1.4 0 .8.1 1.2.1h.2c.3 0 .6 0 .9.1.4 0 .8.1 1.3.1h8.3c.5 0 1 0 1.6-.1.3 0 .7 0 1-.1.5 0 1-.1 1.6-.1H221.6l2.7-.3h.1c.9-.1 1.8-.3 2.7-.4h.3c.3 0 .5-.1.8-.1.4-.1.8-.1 1.1-.2s.8-.2 1.1-.2.7-.2 1.1-.2c.4-.1.7-.2 1.1-.3.4-.1.7-.2 1.1-.3s.7-.2 1.1-.3.7-.2 1.1-.3c.1 0 .2-.1.3-.1.1 0 .3-.1.4-.1.7-.2 1.4-.5 2.1-.7.2-.1.4-.1.6-.2.9-.3 1.7-.7 2.6-1 .2-.1.3-.1.5-.2.7-.3 1.4-.6 2.1-1 .2-.1.4-.2.7-.3.8-.4 1.6-.8 2.4-1.3.6-.3 1.1-.7 1.7-1h.1c.2-.1.4-.3.6-.4.3-.2.7-.4 1-.7.2-.2.4-.3.6-.5l.9-.6c.2-.2.4-.3.6-.5.3-.2.5-.4.8-.6.2-.2.4-.4.6-.5.2-.2.4-.4.6-.5l.1-.1 1.4-1.4c.1-.1.2-.2.2-.3.4-.4.7-.8 1-1.2 0-.1.1-.1.2-.2s.2-.2.2-.4c.2-.3.4-.5.6-.8.1-.2.3-.4.4-.6.2-.3.3-.5.5-.8.1-.1.1-.2.2-.4 0-.1.1-.2.1-.2.1-.2.2-.5.4-.7l.3-.6c.1-.2.2-.5.3-.7.1-.1.1-.3.2-.4 0-.1 0-.1.1-.2.1-.2.1-.5.2-.7.1-.2.1-.5.2-.7.1-.2.1-.5.2-.7 0-.2.1-.3.1-.5v-.2c0-.2.1-.5.1-.7 0-.2.1-.4.1-.7v-.7-.5c-.1-.1-.1-.2-.1-.3z"/><linearGradient id="SVGID_00000133514443253771402280000005850293654959917739_" x1="163.745" x2="262.085" y1="211.774" y2="211.774" gradientTransform="matrix(1 0 0 -1 -.002 643.997)" gradientUnits="userSpaceOnUse"><stop offset="0" stop-color="#78d8fb"/><stop offset="1" stop-color="#95affe"/></linearGradient><path fill="url(#SVGID_00000133514443253771402280000005850293654959917739_)" d="M212.8 403.7c27.2-.1 49.2 12.6 49.2 28.3 0 15.7-21.9 28.5-49.1 28.6s-49.2-12.6-49.2-28.3 22-28.5 49.1-28.6z"/><linearGradient id="SVGID_00000089557589745699231170000015716183957405428876_" x1="163.788" x2="262.139" y1="220.502" y2="220.502" gradientTransform="matrix(1 0 0 -1 0 644)" gradientUnits="userSpaceOnUse"><stop offset="0" stop-color="#34f7f7"/><stop offset="1" stop-color="#253ed2"/></linearGradient><path fill="url(#SVGID_00000089557589745699231170000015716183957405428876_)" d="M262.1 416.3V402v1.5c0 .2 0 .4-.1.7 0 .2-.1.5-.1.7 0 .2-.1.5-.1.7 0 .2-.1.5-.2.7-.1.2-.1.5-.2.7-.1.2-.1.5-.2.7-.1.2-.2.4-.2.6-.1.2-.2.5-.3.7l-.3.6c-.1.2-.2.5-.4.7l-.3.6c-.2.3-.3.5-.5.8-.1.2-.2.4-.4.6-.2.3-.4.5-.6.8-.1.2-.3.4-.4.5-.3.4-.6.8-1 1.2-.1.1-.2.2-.2.3-.4.5-.9 1-1.4 1.4-.2.2-.4.4-.7.6-.2.2-.4.4-.6.5-.2.2-.5.4-.8.6-.2.2-.4.3-.6.5l-.9.6c-.2.2-.4.3-.6.5-.3.2-.6.4-1 .7-.2.1-.4.3-.6.4-.6.4-1.1.7-1.7 1-.8.4-1.6.9-2.4 1.3-.2.1-.4.2-.7.3-.7.3-1.4.6-2.1 1-.2.1-.3.1-.5.2-.8.4-1.7.7-2.6 1-.2.1-.4.1-.6.2-.7.2-1.4.5-2.1.7-.2.1-.5.2-.8.2-.4.1-.7.2-1.1.3-.4.1-.7.2-1.1.3-.4.1-.7.2-1.1.3-.4.1-.7.2-1.1.3-.4.1-.7.2-1.1.2s-.7.2-1.1.2c-.4.1-.8.1-1.1.2-.4.1-.7.1-1.1.2-.9.2-1.8.3-2.7.4h-.1l-2.7.3c-.3 0-.6.1-.9.1-.5 0-1 .1-1.6.1-.3 0-.7 0-1 .1-.5 0-1 .1-1.6.1h-8.3c-.4 0-.8 0-1.3-.1-.4 0-.7 0-1.1-.1-.4 0-.8-.1-1.2-.1-.4 0-.7-.1-1.1-.1-.4 0-.8-.1-1.2-.1-.4 0-.7-.1-1.1-.1-.5-.1-1-.1-1.5-.2-.3 0-.6-.1-.9-.1-.6-.1-1.2-.2-1.9-.3-.2 0-.3-.1-.5-.1-.8-.2-1.6-.3-2.4-.5-.2-.1-.5-.1-.7-.2-.6-.1-1.1-.3-1.7-.4-.2-.1-.5-.1-.7-.2l-2.1-.6c-.2-.1-.4-.1-.7-.2-.9-.3-1.7-.6-2.6-.9-.4-.1-.7-.3-1.1-.5-.3-.1-.6-.2-.9-.4-.4-.2-.8-.3-1.1-.5-.3-.1-.5-.2-.8-.4l-1.2-.6-.6-.3c-.6-.3-1.2-.6-1.8-1-9.5-5.5-14.3-12.8-14.3-20v14.3c0 7.2 4.8 14.5 14.3 20 .6.3 1.2.7 1.8 1l.6.3 1.2.6c.3.1.5.2.8.4.4.2.8.4 1.1.5.3.1.6.2.9.4.3.1.7.3 1 .4h.1c.9.3 1.7.6 2.6.9.2.1.4.1.7.2.7.2 1.4.5 2.1.6.1 0 .3.1.4.1.1 0 .2 0 .3.1.6.1 1.1.3 1.7.4.2.1.5.1.7.2.8.2 1.6.4 2.4.5.1 0 .3.1.5.1.6.1 1.2.2 1.9.3.3 0 .6.1.9.1.5.1 1 .2 1.5.2h.2c.3 0 .6.1.9.1.4 0 .8.1 1.2.1.4 0 .7.1 1.1.1.4 0 .8.1 1.2.1h.2c.3 0 .6 0 .9.1.4 0 .8.1 1.3.1h8.3c.5 0 1 0 1.6-.1.3 0 .7 0 1-.1.5 0 1-.1 1.6-.1H221.6l2.7-.3h.1c.9-.1 1.8-.3 2.7-.4h.3c.3 0 .5-.1.8-.1.4-.1.8-.1 1.1-.2s.8-.2 1.1-.2.7-.2 1.1-.2c.4-.1.7-.2 1.1-.3.4-.1.7-.2 1.1-.3s.7-.2 1.1-.3.7-.2 1.1-.3c.1 0 .2-.1.3-.1.1 0 .3-.1.4-.1.7-.2 1.4-.5 2.1-.7.2-.1.4-.1.6-.2.9-.3 1.7-.7 2.6-1 .2-.1.3-.1.5-.2.7-.3 1.4-.6 2.1-1 .2-.1.4-.2.7-.3.8-.4 1.6-.8 2.4-1.3.6-.3 1.1-.7 1.7-1h.1c.2-.1.4-.3.6-.4.3-.2.7-.4 1-.7.2-.2.4-.3.6-.5l.9-.6c.2-.2.4-.3.6-.5.3-.2.5-.4.8-.6.2-.2.4-.4.6-.5.2-.2.4-.4.6-.5l.1-.1 1.4-1.4c.1-.1.2-.2.2-.3.4-.4.7-.8 1-1.2 0-.1.1-.1.2-.2s.2-.2.2-.4c.2-.3.4-.5.6-.8.1-.2.3-.4.4-.6.2-.3.3-.5.5-.8.1-.1.1-.2.2-.4 0-.1.1-.2.1-.2.1-.2.2-.5.4-.7l.3-.6c.1-.2.2-.5.3-.7.1-.1.1-.3.2-.4 0-.1 0-.1.1-.2.1-.2.1-.5.2-.7.1-.2.1-.5.2-.7.1-.2.1-.5.2-.7 0-.2.1-.3.1-.5v-.2c0-.2.1-.5.1-.7 0-.2.1-.4.1-.7v-.7-.5c-.1-.1-.1-.2-.1-.3z"/><linearGradient id="SVGID_00000042706828884089399210000010918046132294177448_" x1="163.741" x2="262.082" y1="241.775" y2="241.775" gradientTransform="matrix(1 0 0 -1 -.002 643.997)" gradientUnits="userSpaceOnUse"><stop offset="0" stop-color="#78d8fb"/><stop offset="1" stop-color="#95affe"/></linearGradient><path fill="url(#SVGID_00000042706828884089399210000010918046132294177448_)" d="M212.8 373.7c27.2-.1 49.2 12.6 49.2 28.3s-21.9 28.5-49.1 28.6-49.2-12.6-49.2-28.3c0-15.7 22-28.5 49.1-28.6z"/><linearGradient id="SVGID_00000052094378659894617730000005890777408562681749_" x1="251.789" x2="350.138" y1="111.502" y2="111.502" gradientTransform="matrix(1 0 0 -1 0 644)" gradientUnits="userSpaceOnUse"><stop offset="0" stop-color="#34f7f7"/><stop offset="1" stop-color="#253ed2"/></linearGradient><path fill="url(#SVGID_00000052094378659894617730000005890777408562681749_)" d="M350.1 525.3V511v1.5c0 .2 0 .4-.1.7 0 .2-.1.5-.1.7 0 .2-.1.5-.1.7 0 .2-.1.5-.2.7-.1.2-.1.5-.2.7-.1.2-.1.5-.2.7-.1.2-.2.4-.2.7-.1.2-.2.5-.3.7l-.3.6c-.1.2-.2.5-.4.7l-.3.6c-.2.3-.3.5-.5.8-.1.2-.2.4-.4.6-.2.3-.4.5-.6.8-.1.2-.3.4-.4.5-.3.4-.6.8-1 1.2-.1.1-.2.2-.2.3-.4.5-.9 1-1.4 1.4-.2.2-.5.4-.7.6-.2.2-.4.4-.6.5-.2.2-.5.4-.8.6-.2.2-.4.3-.6.5-.3.2-.6.4-.9.7-.2.2-.4.3-.6.5-.3.2-.6.4-1 .7-.2.1-.4.3-.6.4-.5.3-1.1.7-1.7 1-.8.4-1.5.9-2.4 1.3-.2.1-.4.2-.7.3-.7.3-1.4.7-2 1-.2.1-.3.1-.5.2-.8.4-1.7.7-2.5 1-.2.1-.4.2-.6.2-.7.2-1.4.5-2.1.7-.2.1-.5.2-.8.2-.4.1-.7.2-1.1.3-.4.1-.7.2-1.1.3-.4.1-.7.2-1.1.3-.4.1-.7.2-1.1.3-.4.1-.7.2-1.1.2-.4.1-.7.2-1.1.2-.4.1-.8.2-1.1.2-.4.1-.7.1-1.1.2-.9.2-1.8.3-2.7.4h-.1l-2.7.3c-.3 0-.6.1-.9.1-.5 0-1 .1-1.6.1-.3 0-.7 0-1 .1-.5 0-1 .1-1.6.1h-8.3c-.4 0-.8 0-1.3-.1-.4 0-.7 0-1.1-.1-.4 0-.8-.1-1.2-.1-.4 0-.7-.1-1.1-.1-.4 0-.8-.1-1.2-.2-.4 0-.7-.1-1.1-.1-.5-.1-1-.1-1.5-.2-.3 0-.6-.1-.9-.1-.6-.1-1.2-.2-1.9-.3-.2 0-.3-.1-.5-.1-.8-.2-1.6-.3-2.4-.5-.2-.1-.5-.1-.7-.2-.6-.1-1.1-.3-1.7-.4-.2-.1-.5-.1-.7-.2-.7-.2-1.4-.4-2.1-.7-.2-.1-.5-.1-.7-.2-.9-.3-1.7-.6-2.6-.9-.4-.1-.7-.3-1.1-.5-.3-.1-.6-.2-.9-.4-.4-.2-.8-.3-1.1-.5-.3-.1-.5-.2-.8-.4l-1.2-.6-.6-.3c-.6-.3-1.2-.6-1.8-1-9.5-5.5-14.3-12.8-14.3-20v14.3c0 7.2 4.8 14.5 14.3 20 .6.3 1.2.7 1.8 1l.6.3 1.2.6c.3.1.5.2.8.4.4.2.8.3 1.1.5l.9.3c.3.1.7.3 1 .4h.1c.9.3 1.7.6 2.6.9.2.1.4.2.7.2.7.2 1.4.5 2.1.7.1 0 .3.1.4.1.1 0 .2 0 .3.1.5.2 1.1.3 1.7.4.2.1.5.1.7.2.8.2 1.6.4 2.4.5.1 0 .3.1.5.1.6.1 1.2.2 1.9.3.3 0 .6.1.9.1.5.1 1 .2 1.5.2h.2c.3 0 .6.1.9.1.4 0 .8.1 1.2.2.4 0 .7.1 1.1.1.4 0 .8.1 1.2.1h.2c.3 0 .6 0 .9.1.4 0 .8.1 1.3.1h8.3c.5 0 1 0 1.6-.1.3 0 .7 0 1-.1.5 0 1-.1 1.6-.1H309.8l2.7-.3h.1c.9-.1 1.8-.3 2.7-.4h.3c.3 0 .5-.1.8-.2.4-.1.8-.1 1.1-.2.4-.1.8-.2 1.1-.2s.7-.2 1.1-.2c.4-.1.7-.2 1.1-.3.4-.1.7-.2 1.1-.3s.7-.2 1.1-.3.7-.2 1.1-.3c.1 0 .2-.1.3-.1.1 0 .3-.1.4-.2.7-.2 1.4-.5 2.1-.7.2-.1.4-.2.6-.2.9-.3 1.7-.7 2.5-1 .2-.1.3-.1.5-.2.7-.3 1.4-.6 2-1 .2-.1.4-.2.7-.3.8-.4 1.6-.8 2.4-1.3.6-.3 1.1-.7 1.7-1 .2-.1.4-.3.6-.4.3-.2.7-.4 1-.7.2-.2.4-.3.6-.5.3-.2.6-.4.9-.7.2-.2.4-.3.6-.5.3-.2.5-.4.8-.6.2-.2.4-.4.6-.5.2-.2.4-.3.6-.5l.1-.1 1.4-1.4c.1-.1.2-.2.2-.3.4-.4.7-.8 1-1.2 0-.1.1-.1.2-.2s.2-.2.2-.4c.2-.3.4-.5.6-.8.1-.2.3-.4.4-.6.2-.3.3-.5.5-.8.1-.1.1-.2.2-.3 0-.1.1-.2.1-.2.1-.2.2-.5.4-.7l.3-.6c.1-.2.2-.5.3-.7.1-.2.1-.3.2-.4 0-.1 0-.1.1-.2.1-.2.1-.5.2-.7.1-.2.1-.5.2-.7.1-.2.1-.5.2-.7 0-.2.1-.3.1-.5v-.2c0-.2.1-.5.1-.7 0-.2.1-.4.1-.7v-.7-.5-.2z"/><linearGradient id="SVGID_00000098944025685904215720000003953762600539272597_" x1="251.737" x2="350.077" y1="132.769" y2="132.769" gradientTransform="matrix(1 0 0 -1 -.002 643.996)" gradientUnits="userSpaceOnUse"><stop offset="0" stop-color="#78d8fb"/><stop offset="1" stop-color="#95affe"/></linearGradient><path fill="url(#SVGID_00000098944025685904215720000003953762600539272597_)" d="M300.8 482.7c27.2-.1 49.2 12.6 49.2 28.3 0 15.7-21.9 28.5-49.1 28.6-27.2.1-49.2-12.6-49.2-28.3 0-15.7 22-28.5 49.1-28.6z"/><g><linearGradient id="SVGID_00000004514715574792862710000011728005584813652389_" x1="251.789" x2="350.138" y1="139.502" y2="139.502" gradientTransform="matrix(1 0 0 -1 0 644)" gradientUnits="userSpaceOnUse"><stop offset="0" stop-color="#34f7f7"/><stop offset="1" stop-color="#253ed2"/></linearGradient><path fill="url(#SVGID_00000004514715574792862710000011728005584813652389_)" d="M350.1 497.3V483v1.5c0 .2 0 .4-.1.7 0 .2-.1.5-.1.7 0 .2-.1.5-.1.7 0 .2-.1.5-.2.7-.1.2-.1.5-.2.7-.1.2-.1.5-.2.7-.1.2-.2.4-.2.6-.1.2-.2.5-.3.7l-.3.6c-.1.2-.2.5-.4.7l-.3.6c-.2.3-.3.5-.5.8-.1.2-.2.4-.4.6-.2.3-.4.5-.6.8-.1.2-.3.4-.4.5-.3.4-.6.8-1 1.2-.1.1-.2.2-.2.3-.4.5-.9 1-1.4 1.4-.2.2-.5.4-.7.6-.2.2-.4.4-.6.5-.2.2-.5.4-.8.6-.2.2-.4.3-.6.5l-.9.6c-.2.2-.4.3-.6.5-.3.2-.6.4-1 .7-.2.1-.4.3-.6.4-.5.4-1.1.7-1.7 1-.8.4-1.5.9-2.4 1.3-.2.1-.4.2-.7.3-.7.3-1.4.6-2 1-.2.1-.3.1-.5.2-.8.4-1.7.7-2.5 1-.2.1-.4.1-.6.2-.7.2-1.4.5-2.1.7-.2.1-.5.2-.8.2-.4.1-.7.2-1.1.3-.4.1-.7.2-1.1.3-.4.1-.7.2-1.1.3-.4.1-.7.2-1.1.3s-.7.2-1.1.2-.7.2-1.1.2c-.4.1-.8.1-1.1.2-.4.1-.7.1-1.1.2-.9.2-1.8.3-2.7.4h-.1l-2.7.3c-.3 0-.6.1-.9.1-.5 0-1 .1-1.6.1-.3 0-.7 0-1 .1-.5 0-1 .1-1.6.1h-8.3c-.4 0-.8 0-1.3-.1-.4 0-.7 0-1.1-.1-.4 0-.8-.1-1.2-.1-.4 0-.7-.1-1.1-.1-.4 0-.8-.1-1.2-.1-.4 0-.7-.1-1.1-.1-.5-.1-1-.1-1.5-.2-.3 0-.6-.1-.9-.1-.6-.1-1.2-.2-1.9-.3-.2 0-.3-.1-.5-.1-.8-.2-1.6-.3-2.4-.5-.2-.1-.5-.1-.7-.2-.6-.1-1.1-.3-1.7-.4-.2-.1-.5-.1-.7-.2l-2.1-.6c-.2-.1-.5-.1-.7-.2-.9-.3-1.7-.6-2.6-.9-.4-.1-.7-.3-1.1-.5-.3-.1-.6-.2-.9-.4-.4-.2-.8-.3-1.1-.5-.3-.1-.5-.2-.8-.4l-1.2-.6-.6-.3c-.6-.3-1.2-.6-1.8-1-9.5-5.5-14.3-12.8-14.3-20v14.3c0 7.2 4.8 14.5 14.3 20 .6.3 1.2.7 1.8 1l.6.3 1.2.6c.3.1.5.2.8.4.4.2.8.4 1.1.5.3.1.6.2.9.4.3.1.7.3 1 .4h.1c.9.3 1.7.6 2.6.9.2.1.4.1.7.2.7.2 1.4.5 2.1.7.1 0 .3.1.4.1.1 0 .2 0 .3.1.5.2 1.1.3 1.7.4.2.1.5.1.7.2.8.2 1.6.4 2.4.5.1 0 .3.1.5.1.6.1 1.2.2 1.9.3.3 0 .6.1.9.1.5.1 1 .2 1.5.2h.2c.3 0 .6.1.9.1.4 0 .8.1 1.2.1.4 0 .7.1 1.1.1.4 0 .8.1 1.2.1h.2c.3 0 .6 0 .9.1.4 0 .8.1 1.3.1h8.3c.5 0 1 0 1.6-.1.3 0 .7 0 1-.1.5 0 1-.1 1.6-.1H309.8l2.7-.3h.1c.9-.1 1.8-.3 2.7-.4h.3c.3 0 .5-.1.8-.2.4-.1.8-.1 1.1-.2.4-.1.8-.2 1.1-.2.4-.1.7-.2 1.1-.2.4-.1.7-.2 1.1-.3.4-.1.7-.2 1.1-.3.4-.1.7-.2 1.1-.3.4-.1.7-.2 1.1-.3.1 0 .2-.1.3-.1.1 0 .3-.1.4-.1.7-.2 1.4-.5 2.1-.7.2-.1.4-.1.6-.2.9-.3 1.7-.7 2.5-1 .2-.1.3-.1.5-.2.7-.3 1.4-.6 2-1 .2-.1.4-.2.7-.3.8-.4 1.6-.8 2.4-1.3.6-.3 1.1-.7 1.7-1 .2-.1.4-.3.6-.4.3-.2.7-.4 1-.7.2-.2.4-.3.6-.5l.9-.6c.2-.2.4-.3.6-.5.3-.2.5-.4.8-.7.2-.2.4-.4.6-.5.2-.2.4-.4.6-.5l.1-.1 1.4-1.4c.1-.1.2-.2.2-.3.4-.4.7-.8 1-1.2 0-.1.1-.1.2-.2s.2-.2.2-.4c.2-.3.4-.5.6-.8.1-.2.3-.4.4-.6.2-.3.3-.5.5-.8.1-.1.1-.2.2-.4 0-.1.1-.2.1-.2.1-.2.2-.5.4-.7l.3-.6c.1-.2.2-.5.3-.7.1-.1.1-.3.2-.4 0-.1 0-.1.1-.2.1-.2.1-.5.2-.7.1-.2.1-.5.2-.7.1-.2.1-.5.2-.7 0-.2.1-.3.1-.5v-.2c0-.2.1-.5.1-.7 0-.2.1-.4.1-.7v-.7-.5-.2z"/><linearGradient id="SVGID_00000018239018114133117470000005872138140431346837_" x1="251.738" x2="350.078" y1="160.77" y2="160.77" gradientTransform="matrix(1 0 0 -1 -.002 643.996)" gradientUnits="userSpaceOnUse"><stop offset="0" stop-color="#78d8fb"/><stop offset="1" stop-color="#95affe"/></linearGradient><path fill="url(#SVGID_00000018239018114133117470000005872138140431346837_)" d="M300.8 454.7c27.2-.1 49.2 12.6 49.2 28.3 0 15.7-21.9 28.5-49.1 28.6s-49.2-12.6-49.2-28.3c0-15.7 22-28.5 49.1-28.6z"/></g><g><linearGradient id="SVGID_00000003826584677012607770000000401500475982628020_" x1="251.789" x2="350.138" y1="169.502" y2="169.502" gradientTransform="matrix(1 0 0 -1 0 644)" gradientUnits="userSpaceOnUse"><stop offset="0" stop-color="#34f7f7"/><stop offset="1" stop-color="#253ed2"/></linearGradient><path fill="url(#SVGID_00000003826584677012607770000000401500475982628020_)" d="M350.1 467.3V453v1.5c0 .2 0 .4-.1.7 0 .2-.1.5-.1.7 0 .2-.1.5-.1.7 0 .2-.1.5-.2.7-.1.2-.1.5-.2.7-.1.2-.1.5-.2.7-.1.2-.2.4-.2.6-.1.2-.2.5-.3.7l-.3.6c-.1.2-.2.5-.4.7l-.3.6c-.2.3-.3.5-.5.8-.1.2-.2.4-.4.6-.2.3-.4.5-.6.8-.1.2-.3.4-.4.5-.3.4-.6.8-1 1.2-.1.1-.2.2-.2.3-.4.5-.9 1-1.4 1.4-.2.2-.5.4-.7.6-.2.2-.4.4-.6.5-.2.2-.5.4-.8.6-.2.2-.4.3-.6.5l-.9.6c-.2.2-.4.3-.6.5-.3.2-.6.4-1 .7-.2.1-.4.3-.6.4-.5.4-1.1.7-1.7 1-.8.4-1.5.9-2.4 1.3-.2.1-.4.2-.7.3-.7.3-1.4.6-2 1-.2.1-.3.1-.5.2-.8.4-1.7.7-2.5 1-.2.1-.4.1-.6.2-.7.2-1.4.5-2.1.7-.2.1-.5.2-.8.2-.4.1-.7.2-1.1.3-.4.1-.7.2-1.1.3-.4.1-.7.2-1.1.3-.4.1-.7.2-1.1.3s-.7.2-1.1.2-.7.2-1.1.2c-.4.1-.8.1-1.1.2-.4.1-.7.1-1.1.2-.9.2-1.8.3-2.7.4h-.1l-2.7.3c-.3 0-.6.1-.9.1-.5 0-1 .1-1.6.1-.3 0-.7 0-1 .1-.5 0-1 .1-1.6.1h-8.3c-.4 0-.8 0-1.3-.1-.4 0-.7 0-1.1-.1-.4 0-.8-.1-1.2-.1-.4 0-.7-.1-1.1-.1-.4 0-.8-.1-1.2-.1-.4 0-.7-.1-1.1-.1-.5-.1-1-.1-1.5-.2-.3 0-.6-.1-.9-.1-.6-.1-1.2-.2-1.9-.3-.2 0-.3-.1-.5-.1-.8-.2-1.6-.3-2.4-.5-.2-.1-.5-.1-.7-.2-.6-.1-1.1-.3-1.7-.4-.2-.1-.5-.1-.7-.2l-2.1-.6c-.2-.1-.5-.1-.7-.2-.9-.3-1.7-.6-2.6-.9-.4-.1-.7-.3-1.1-.5-.3-.1-.6-.2-.9-.4-.4-.2-.8-.3-1.1-.5-.3-.1-.5-.2-.8-.4l-1.2-.6-.6-.3c-.6-.3-1.2-.6-1.8-1-9.5-5.5-14.3-12.8-14.3-20v14.3c0 7.2 4.8 14.5 14.3 20 .6.3 1.2.7 1.8 1l.6.3 1.2.6c.3.1.5.2.8.4.4.2.8.4 1.1.5.3.1.6.2.9.4.3.1.7.3 1 .4h.1c.9.3 1.7.6 2.6.9.2.1.4.1.7.2.7.2 1.4.5 2.1.6.1 0 .3.1.4.1.1 0 .2 0 .3.1.5.1 1.1.3 1.7.4.2.1.5.1.7.2.8.2 1.6.4 2.4.5.1 0 .3.1.5.1.6.1 1.2.2 1.9.3.3 0 .6.1.9.1.5.1 1 .2 1.5.2h.2c.3 0 .6.1.9.1.4 0 .8.1 1.2.1.4 0 .7.1 1.1.1.4 0 .8.1 1.2.1h.2c.3 0 .6 0 .9.1.4 0 .8.1 1.3.1h8.3c.5 0 1 0 1.6-.1.3 0 .7 0 1-.1.5 0 1-.1 1.6-.1H309.8l2.7-.3h.1c.9-.1 1.8-.3 2.7-.4h.3c.3 0 .5-.1.8-.1.4-.1.8-.1 1.1-.2s.8-.2 1.1-.2.7-.2 1.1-.2c.4-.1.7-.2 1.1-.3.4-.1.7-.2 1.1-.3s.7-.2 1.1-.3.7-.2 1.1-.3c.1 0 .2-.1.3-.1.1 0 .3-.1.4-.1.7-.2 1.4-.5 2.1-.7.2-.1.4-.1.6-.2.9-.3 1.7-.7 2.5-1 .2-.1.3-.1.5-.2.7-.3 1.4-.6 2-1 .2-.1.4-.2.7-.3.8-.4 1.6-.8 2.4-1.3.6-.3 1.1-.7 1.7-1 .2-.1.4-.3.6-.4.3-.2.7-.4 1-.7.2-.2.4-.3.6-.5l.9-.6c.2-.2.4-.3.6-.5.3-.2.5-.4.8-.6.2-.2.4-.4.6-.5.2-.2.4-.4.6-.5l.1-.1 1.4-1.4c.1-.1.2-.2.2-.3.4-.4.7-.8 1-1.2 0-.1.1-.1.2-.2s.2-.2.2-.4c.2-.3.4-.5.6-.8.1-.2.3-.4.4-.6.2-.3.3-.5.5-.8.1-.1.1-.2.2-.4 0-.1.1-.2.1-.2.1-.2.2-.5.4-.7l.3-.6c.1-.2.2-.5.3-.7.1-.1.1-.3.2-.4 0-.1 0-.1.1-.2.1-.2.1-.5.2-.7.1-.2.1-.5.2-.7.1-.2.1-.5.2-.7 0-.2.1-.3.1-.5v-.2c0-.2.1-.5.1-.7 0-.2.1-.4.1-.7v-.7-.5-.3z"/><linearGradient id="SVGID_00000028302628121928678210000012329563788592733836_" x1="251.744" x2="350.085" y1="190.77" y2="190.77" gradientTransform="matrix(1 0 0 -1 -.002 643.997)" gradientUnits="userSpaceOnUse"><stop offset="0" stop-color="#78d8fb"/><stop offset="1" stop-color="#95affe"/></linearGradient><path fill="url(#SVGID_00000028302628121928678210000012329563788592733836_)" d="M300.8 424.7c27.2-.1 49.2 12.6 49.2 28.3 0 15.7-21.9 28.5-49.1 28.6s-49.2-12.6-49.2-28.3c0-15.7 22-28.5 49.1-28.6z"/></g><g><linearGradient id="SVGID_00000109005200283413011680000008534164279243720837_" x1="617.573" x2="638.529" y1="509.214" y2="509.214" gradientTransform="matrix(1 0 0 -1 0 644)" gradientUnits="userSpaceOnUse"><stop offset="0" stop-color="#34f7f7"/><stop offset="1" stop-color="#253ed2"/></linearGradient><path fill="url(#SVGID_00000109005200283413011680000008534164279243720837_)" d="M630.1 161.2c-.1-.1-.2-.3-.3-.5v-.1c-.1-.2-.1-.4-.1-.7v-.1-.8c0-.2 0-.3.1-.5l-8.5-5 8.5 5 8.7-43.5-12.1-7-8.7 43.5c0 .2-.1.3-.1.4v1c0 .2.1.5.1.7v.1c.1.2.2.4.3.5v.1c.1.2.3.3.4.4l12.1 7c-.1-.1-.2-.3-.4-.5.1.1.1.1 0 0z"/><linearGradient id="SVGID_00000182526556129102068000000015408114147883367050_" x1="648.859" x2="682.719" y1="578.089" y2="578.089" gradientTransform="matrix(1 0 0 -1 0 644)" gradientUnits="userSpaceOnUse"><stop offset="0" stop-color="#3271f2"/><stop offset="1" stop-color="#292bcc"/></linearGradient><path fill="url(#SVGID_00000182526556129102068000000015408114147883367050_)" d="M670.6 56.8c-.1 0-.1-.1-.2-.1s-.1 0-.2-.1h-.5-.1-.1c-.1 0-.2 0-.3.1h-.1-.1-.2c-.2.1-.3.1-.5.2l-19.4 11.2 12.1 7 19.4-11.2.6-.3h.1c.2-.1.4-.1.5-.1h.5c.2 0 .3.1.5.2l-12-6.9z"/><linearGradient id="SVGID_00000121959343732705517250000005464101533401370245_" x1="605.291" x2="670.489" y1="566.639" y2="566.639" gradientTransform="matrix(1 0 0 -1 0 644)" gradientUnits="userSpaceOnUse"><stop offset="0" stop-color="#34f7f7"/><stop offset="1" stop-color="#253ed2"/></linearGradient><path fill="url(#SVGID_00000121959343732705517250000005464101533401370245_)" d="M658.3 29.5c-.1 0-.1-.1-.2-.1s-.1 0-.2-.1h-.5-.1c-.1 0 0 0 0 0h-.1c-.1 0-.2 0-.3.1h-.1-.1-.2c-.2.1-.3.1-.5.2l-29.9 17.2c-.2.1-.4.2-.5.4-.1 0-.1.1-.2.1l-.3.3-.3.3-.1.1-.3.3-.1.1-.1.1-.1.1c-.1.1-.1.2-.2.3l-.1.1v.2c0 .1-.1.2-.2.3 0 .1-.1.1-.1.2s-.1.2-.1.3c0 .1-.1.2-.1.3 0 .1-.1.2-.1.3 0 .1-.1.2-.1.3l-17.5 63.6c0 .1-.1.3-.1.4v1.4c0 .3.1.5.1.7v.1c.1.2.2.4.3.5 0 0 0 .1.1.1.1.2.3.3.4.4l12.1 7c-.2-.1-.3-.2-.4-.4 0 0 0-.1-.1-.1-.1-.2-.2-.3-.3-.5v-.1c-.1-.2-.1-.4-.1-.7v-.8-.2-.2c0-.2.1-.4.1-.6l17.5-63.6c.1-.2.1-.4.2-.6l.3-.6.3-.6V56c.1-.2.2-.3.3-.5l.1-.1c.1-.2.2-.3.4-.5l.1-.1c.1-.1.2-.2.3-.4l.3-.3c.1 0 .1-.1.2-.1.2-.1.4-.3.5-.4l29.9-17.2.6-.3h.1c.2-.1.4-.1.5-.1h.5c.2 0 .3.1.5.2l-12-6.7z"/><linearGradient id="SVGID_00000090987990633001581460000009184927300414041535_" x1="617.382" x2="683.7" y1="544.908" y2="544.908" gradientTransform="matrix(1 0 0 -1 0 644)" gradientUnits="userSpaceOnUse"><stop offset="0" stop-color="#3271f2"/><stop offset="1" stop-color="#292bcc"/></linearGradient><path fill="url(#SVGID_00000090987990633001581460000009184927300414041535_)" d="M668.1 36.8c2.4-1.4 4 .5 3.1 3.5l-10.2 35 19.4-11.2c2.8-1.7 4.4 1.3 2.5 4.9l-47.4 89.7c-.7 1.3-1.6 2.2-2.5 2.7-2 1.1-3.9.1-3.3-2.9l8.7-43.5-17.8 10.3c-2.3 1.3-3.9-.4-3.1-3.4L635 58.3c.5-1.8 1.7-3.5 3.1-4.2l30-17.3z"/></g><linearGradient id="SVGID_00000109017655555236039590000014817068829825057693_" x1="517.779" x2="536.839" y1="421.114" y2="421.114" gradientTransform="matrix(1 0 0 -1 0 644)" gradientUnits="userSpaceOnUse"><stop offset="0" stop-color="#3271f2"/><stop offset="1" stop-color="#292bcc"/></linearGradient><path fill="url(#SVGID_00000109017655555236039590000014817068829825057693_)" d="M536.8 213.1v12.6l-19 6.9V220z"/><linearGradient id="SVGID_00000142857003723116496230000004077485511880822921_" x1="546.249" x2="583.909" y1="406.584" y2="406.584" gradientTransform="matrix(1 0 0 -1 0 644)" gradientUnits="userSpaceOnUse"><stop offset="0" stop-color="#3271f2"/><stop offset="1" stop-color="#292bcc"/></linearGradient><path fill="url(#SVGID_00000142857003723116496230000004077485511880822921_)" d="M583.9 224.4V237l-37.7 13.4.1-12.6z"/><linearGradient id="SVGID_00000097491200726781936940000017729500259338160776_" x1="536.798" x2="546.288" y1="412.229" y2="412.229" gradientTransform="matrix(1 0 0 -1 0 644)" gradientUnits="userSpaceOnUse"><stop offset="0" stop-color="#3271f2"/><stop offset="1" stop-color="#292bcc"/></linearGradient><path fill="url(#SVGID_00000097491200726781936940000017729500259338160776_)" d="M546.3 237.8l-.1 12.6-9.4-24.7v-12.6z"/><linearGradient id="SVGID_00000034086009249349021580000011491193947063282067_" x1="508.769" x2="514.479" y1="406.999" y2="406.999" gradientTransform="matrix(1 0 0 -1 0 644)" gradientUnits="userSpaceOnUse"><stop offset="0" stop-color="#3271f2"/><stop offset="1" stop-color="#292bcc"/></linearGradient><path fill="url(#SVGID_00000034086009249349021580000011491193947063282067_)" d="M514.5 238.1l-.1 12.6-5.6-14.8v-12.6z"/><linearGradient id="SVGID_00000005976818657802610540000006352773883194439855_" x1="466.428" x2="508.808" y1="406.874" y2="406.874" gradientTransform="matrix(1 0 0 -1 0 644)" gradientUnits="userSpaceOnUse"><stop offset="0" stop-color="#3271f2"/><stop offset="1" stop-color="#292bcc"/></linearGradient><path fill="url(#SVGID_00000005976818657802610540000006352773883194439855_)" d="M508.8 223.3v12.6L466.4 251l.1-12.6z"/><linearGradient id="SVGID_00000009590934158889034600000003410755954306437013_" x1="449.038" x2="466.469" y1="404.339" y2="404.339" gradientTransform="matrix(1 0 0 -1 0 644)" gradientUnits="userSpaceOnUse"><stop offset="0" stop-color="#34f7f7"/><stop offset="1" stop-color="#253ed2"/></linearGradient><path fill="url(#SVGID_00000009590934158889034600000003410755954306437013_)" d="M466.5 238.4l-.1 12.6-17.4-10.1.1-12.6z"/><linearGradient id="SVGID_00000045597468264799751330000014438351946065659543_" x1="449.068" x2="619.139" y1="407.619" y2="407.619" gradientTransform="matrix(1 0 0 -1 0 644)" gradientUnits="userSpaceOnUse"><stop offset="0" stop-color="#3271f2"/><stop offset="1" stop-color="#292bcc"/></linearGradient><path fill="url(#SVGID_00000045597468264799751330000014438351946065659543_)" d="M601.9 235l17.2 9.9-85.8 32.1-48.7-28.2 29.9-10.7-5.7-14.8-42.3 15.1-17.4-10.1 85.2-32.5 49.6 28.6-37.6 13.4-9.5-24.7-19 6.9 15.7 39.5z"/><linearGradient id="SVGID_00000020399394114492098830000003788453767951386266_" x1="484.548" x2="533.328" y1="374.789" y2="374.789" gradientTransform="matrix(1 0 0 -1 0 644)" gradientUnits="userSpaceOnUse"><stop offset="0" stop-color="#34f7f7"/><stop offset="1" stop-color="#253ed2"/></linearGradient><path fill="url(#SVGID_00000020399394114492098830000003788453767951386266_)" d="M533.3 277v12.6l-48.8-28.2.1-12.6z"/><linearGradient id="SVGID_00000061443520879263976050000013431743194617766277_" x1="533.288" x2="619.139" y1="376.739" y2="376.739" gradientTransform="matrix(1 0 0 -1 0 644)" gradientUnits="userSpaceOnUse"><stop offset="0" stop-color="#3271f2"/><stop offset="1" stop-color="#292bcc"/></linearGradient><path fill="url(#SVGID_00000061443520879263976050000013431743194617766277_)" d="M619.1 244.9v12.6l-85.8 32.1V277z"/><g><linearGradient id="SVGID_00000093876177745066974180000007052636067992468403_" x1="338.788" x2="437.138" y1="60.502" y2="60.502" gradientTransform="matrix(1 0 0 -1 0 644)" gradientUnits="userSpaceOnUse"><stop offset="0" stop-color="#34f7f7"/><stop offset="1" stop-color="#253ed2"/></linearGradient><path fill="url(#SVGID_00000093876177745066974180000007052636067992468403_)" d="M437.1 576.3V562v1.5c0 .2 0 .4-.1.7 0 .2-.1.5-.1.7 0 .2-.1.5-.1.7 0 .2-.1.5-.2.7-.1.2-.1.5-.2.7-.1.2-.1.5-.2.7-.1.2-.2.4-.2.7-.1.2-.2.5-.3.7l-.3.6c-.1.2-.2.5-.4.7l-.3.6c-.2.3-.3.5-.5.8-.1.2-.2.4-.4.6-.2.3-.4.5-.6.8-.1.2-.3.4-.4.5-.3.4-.6.8-1 1.2-.1.1-.2.2-.2.3-.4.5-.9 1-1.4 1.4-.2.2-.5.4-.7.6-.2.2-.4.4-.6.5-.2.2-.5.4-.8.7-.2.2-.4.3-.6.5-.3.2-.6.4-.9.7-.2.2-.4.3-.6.5-.3.2-.6.4-1 .7-.2.1-.4.3-.6.4-.5.3-1.1.7-1.7 1-.8.4-1.5.9-2.4 1.3-.2.1-.4.2-.7.3-.7.3-1.4.7-2 1-.2.1-.3.1-.5.2-.8.4-1.7.7-2.5 1-.2.1-.4.2-.6.2-.7.2-1.4.5-2.1.7-.2.1-.5.2-.8.2-.4.1-.7.2-1.1.3-.4.1-.7.2-1.1.3-.4.1-.7.2-1.1.3-.4.1-.7.2-1.1.3s-.7.2-1.1.2-.7.2-1.1.2c-.4.1-.8.2-1.1.2-.4.1-.7.1-1.1.2-.9.2-1.8.3-2.7.4h-.1l-2.7.3c-.3 0-.6.1-.9.1-.5 0-1 .1-1.6.1-.3 0-.7 0-1 .1-.5 0-1 .1-1.6.1h-8.3c-.4 0-.8 0-1.3-.1-.4 0-.7 0-1.1-.1-.4 0-.8-.1-1.2-.1-.4 0-.7-.1-1.1-.1-.4 0-.8-.1-1.2-.2-.4 0-.7-.1-1.1-.1-.5-.1-1-.2-1.5-.2-.3 0-.6-.1-.9-.1-.6-.1-1.2-.2-1.9-.3-.2 0-.3-.1-.5-.1-.8-.2-1.6-.3-2.4-.5-.2-.1-.5-.1-.7-.2-.6-.1-1.1-.3-1.7-.4-.2-.1-.5-.1-.7-.2-.7-.2-1.4-.4-2.1-.7-.2-.1-.5-.1-.7-.2-.9-.3-1.7-.6-2.6-.9-.4-.1-.7-.3-1.1-.5l-.9-.3c-.4-.2-.8-.3-1.1-.5-.3-.1-.5-.2-.8-.4l-1.2-.6-.6-.3c-.6-.3-1.2-.7-1.8-1-9.5-5.5-14.3-12.8-14.3-20v14.3c0 7.2 4.8 14.5 14.3 20 .6.3 1.2.7 1.8 1l.6.3 1.2.6c.3.1.5.2.8.4.4.2.8.3 1.1.5l.9.3c.3.1.7.3 1 .4h.1c.9.3 1.7.6 2.6.9.2.1.5.2.7.2.7.2 1.4.5 2.1.7.1 0 .3.1.4.1.1 0 .2 0 .3.1.5.2 1.1.3 1.7.4.2.1.5.1.7.2.8.2 1.6.4 2.4.5.1 0 .3.1.5.1.6.1 1.2.2 1.9.3.3 0 .6.1.9.1.5.1 1 .2 1.5.2h.2c.3 0 .6.1.9.1.4 0 .8.1 1.2.2.4 0 .7.1 1.1.1.4 0 .8.1 1.2.1h.2c.3 0 .6 0 .9.1.4 0 .8.1 1.3.1h8.3c.5 0 1 0 1.6-.1.3 0 .7 0 1-.1.5 0 1-.1 1.6-.1H396.8l2.7-.3h.1c.9-.1 1.8-.3 2.7-.4h.3c.3 0 .5-.1.8-.2.4-.1.8-.1 1.1-.2.4-.1.8-.2 1.1-.2s.7-.2 1.1-.2c.4-.1.7-.2 1.1-.3.4-.1.7-.2 1.1-.3s.7-.2 1.1-.3.7-.2 1.1-.3c.1 0 .2-.1.3-.1.1 0 .3-.1.4-.2.7-.2 1.4-.5 2.1-.7.2-.1.4-.2.6-.2.9-.3 1.7-.7 2.5-1 .2-.1.3-.1.5-.2.7-.3 1.4-.6 2-1 .2-.1.4-.2.7-.3.8-.4 1.6-.8 2.4-1.3.6-.3 1.1-.7 1.7-1 .2-.1.4-.3.6-.4.3-.2.7-.4 1-.7.2-.2.4-.3.6-.5.3-.2.6-.4.9-.7.2-.2.4-.3.6-.5.3-.2.5-.4.8-.7.2-.2.4-.4.6-.5.2-.2.4-.3.6-.5l.1-.1 1.4-1.4c.1-.1.2-.2.2-.3.4-.4.7-.8 1-1.2 0-.1.1-.1.2-.2s.2-.2.2-.3c.2-.3.4-.5.6-.8.1-.2.3-.4.4-.6.2-.3.3-.5.5-.8.1-.1.1-.2.2-.3 0-.1.1-.2.1-.2.1-.2.2-.5.4-.7l.3-.6c.1-.2.2-.5.3-.7.1-.2.1-.3.2-.4 0-.1 0-.1.1-.2.1-.2.1-.5.2-.7.1-.2.1-.5.2-.7.1-.2.1-.5.2-.7 0-.2.1-.3.1-.5v-.2c0-.2.1-.5.1-.7 0-.2.1-.4.1-.7v-.7-.5-.4z"/><linearGradient id="SVGID_00000051372558247796297170000000915041897187197353_" x1="338.74" x2="437.08" y1="81.762" y2="81.762" gradientTransform="matrix(1 0 0 -1 -.003 643.996)" gradientUnits="userSpaceOnUse"><stop offset="0" stop-color="#78d8fb"/><stop offset="1" stop-color="#95affe"/></linearGradient><path fill="url(#SVGID_00000051372558247796297170000000915041897187197353_)" d="M387.8 533.8c27.2-.1 49.2 12.6 49.2 28.3 0 15.7-21.9 28.5-49.1 28.6-27.2.1-49.2-12.6-49.2-28.3 0-15.8 22-28.6 49.1-28.6z"/></g><g><linearGradient id="SVGID_00000116197352784376034750000013304517778993568683_" x1="338.788" x2="437.138" y1="88.502" y2="88.502" gradientTransform="matrix(1 0 0 -1 0 644)" gradientUnits="userSpaceOnUse"><stop offset="0" stop-color="#34f7f7"/><stop offset="1" stop-color="#253ed2"/></linearGradient><path fill="url(#SVGID_00000116197352784376034750000013304517778993568683_)" d="M437.1 548.3V534v1.5c0 .2 0 .4-.1.7 0 .2-.1.5-.1.7 0 .2-.1.5-.1.7 0 .2-.1.5-.2.7-.1.2-.1.5-.2.7-.1.2-.1.5-.2.7-.1.2-.2.4-.2.7-.1.2-.2.5-.3.7l-.3.6c-.1.2-.2.5-.4.7l-.3.6c-.2.3-.3.5-.5.8-.1.2-.2.4-.4.6-.2.3-.4.5-.6.8-.1.2-.3.4-.4.5-.3.4-.6.8-1 1.2-.1.1-.2.2-.2.3-.4.5-.9 1-1.4 1.4-.2.2-.5.4-.7.6-.2.2-.4.4-.6.5-.2.2-.5.4-.8.7-.2.2-.4.3-.6.5-.3.2-.6.4-.9.7-.2.2-.4.3-.6.5-.3.2-.6.4-1 .7-.2.1-.4.3-.6.4-.5.3-1.1.7-1.7 1-.8.4-1.5.9-2.4 1.3-.2.1-.4.2-.7.3-.7.3-1.4.7-2 1-.2.1-.3.1-.5.2-.8.4-1.7.7-2.5 1-.2.1-.4.2-.6.2-.7.2-1.4.5-2.1.7-.2.1-.5.2-.8.2-.4.1-.7.2-1.1.3-.4.1-.7.2-1.1.3-.4.1-.7.2-1.1.3-.4.1-.7.2-1.1.3s-.7.2-1.1.2-.7.2-1.1.2c-.4.1-.8.2-1.1.2-.4.1-.7.1-1.1.2-.9.2-1.8.3-2.7.4h-.1l-2.7.3c-.3 0-.6.1-.9.1-.5 0-1 .1-1.6.1-.3 0-.7 0-1 .1-.5 0-1 .1-1.6.1h-8.3c-.4 0-.8 0-1.3-.1-.4 0-.7 0-1.1-.1-.4 0-.8-.1-1.2-.1-.4 0-.7-.1-1.1-.1-.4 0-.8-.1-1.2-.2-.4 0-.7-.1-1.1-.1-.5-.1-1-.2-1.5-.2-.3 0-.6-.1-.9-.1-.6-.1-1.2-.2-1.9-.3-.2 0-.3-.1-.5-.1-.8-.2-1.6-.3-2.4-.5-.2-.1-.5-.1-.7-.2-.6-.1-1.1-.3-1.7-.4-.2-.1-.5-.1-.7-.2-.7-.2-1.4-.4-2.1-.7-.2-.1-.5-.1-.7-.2-.9-.3-1.7-.6-2.6-.9-.4-.1-.7-.3-1.1-.5l-.9-.3c-.4-.2-.8-.3-1.1-.5-.3-.1-.5-.2-.8-.4l-1.2-.6-.6-.3c-.6-.3-1.2-.7-1.8-1-9.5-5.5-14.3-12.8-14.3-20v14.3c0 7.2 4.8 14.5 14.3 20 .6.3 1.2.7 1.8 1l.6.3 1.2.6c.3.1.5.2.8.4.4.2.8.3 1.1.5l.9.3c.3.1.7.3 1 .4h.1c.9.3 1.7.6 2.6.9.2.1.5.2.7.2.7.2 1.4.5 2.1.7.1 0 .3.1.4.1.1 0 .2 0 .3.1.5.2 1.1.3 1.7.4.2.1.5.1.7.2.8.2 1.6.4 2.4.5.1 0 .3.1.5.1.6.1 1.2.2 1.9.3.3 0 .6.1.9.1.5.1 1 .2 1.5.2h.2c.3 0 .6.1.9.1.4 0 .8.1 1.2.2.4 0 .7.1 1.1.1.4 0 .8.1 1.2.1h.2c.3 0 .6 0 .9.1.4 0 .8.1 1.3.1h8.3c.5 0 1 0 1.6-.1.3 0 .7 0 1-.1.5 0 1-.1 1.6-.1H396.8l2.7-.3h.1c.9-.1 1.8-.3 2.7-.4h.3c.3 0 .5-.1.8-.2.4-.1.8-.1 1.1-.2.4-.1.8-.2 1.1-.2s.7-.2 1.1-.2c.4-.1.7-.2 1.1-.3.4-.1.7-.2 1.1-.3s.7-.2 1.1-.3.7-.2 1.1-.3c.1 0 .2-.1.3-.1.1 0 .3-.1.4-.2.7-.2 1.4-.5 2.1-.7.2-.1.4-.2.6-.2.9-.3 1.7-.7 2.5-1 .2-.1.3-.1.5-.2.7-.3 1.4-.6 2-1 .2-.1.4-.2.7-.3.8-.4 1.6-.8 2.4-1.3.6-.3 1.1-.7 1.7-1 .2-.1.4-.3.6-.4.3-.2.7-.4 1-.7.2-.2.4-.3.6-.5.3-.2.6-.4.9-.7.2-.2.4-.3.6-.5.3-.2.5-.4.8-.7.2-.2.4-.4.6-.5.2-.2.4-.3.6-.5l.1-.1 1.4-1.4c.1-.1.2-.2.2-.3.4-.4.7-.8 1-1.2 0-.1.1-.1.2-.2s.2-.2.2-.3c.2-.3.4-.5.6-.8.1-.2.3-.4.4-.6.2-.3.3-.5.5-.8.1-.1.1-.2.2-.3 0-.1.1-.2.1-.2.1-.2.2-.5.4-.7l.3-.6c.1-.2.2-.5.3-.7.1-.2.1-.3.2-.4 0-.1 0-.1.1-.2.1-.2.1-.5.2-.7.1-.2.1-.5.2-.7.1-.2.1-.5.2-.7 0-.2.1-.3.1-.5v-.2c0-.2.1-.5.1-.7 0-.2.1-.4.1-.7v-.7-.5-.4z"/><linearGradient id="SVGID_00000171701380525964093070000008007918377989467821_" x1="338.741" x2="437.082" y1="109.762" y2="109.762" gradientTransform="matrix(1 0 0 -1 -.003 643.996)" gradientUnits="userSpaceOnUse"><stop offset="0" stop-color="#78d8fb"/><stop offset="1" stop-color="#95affe"/></linearGradient><path fill="url(#SVGID_00000171701380525964093070000008007918377989467821_)" d="M387.8 505.8c27.2-.1 49.2 12.6 49.2 28.3s-21.9 28.5-49.1 28.6c-27.2.1-49.2-12.6-49.2-28.3s22-28.6 49.1-28.6z"/></g><g><linearGradient id="SVGID_00000030488543956693298700000014787388318237509541_" x1="338.788" x2="437.138" y1="118.502" y2="118.502" gradientTransform="matrix(1 0 0 -1 0 644)" gradientUnits="userSpaceOnUse"><stop offset="0" stop-color="#34f7f7"/><stop offset="1" stop-color="#253ed2"/></linearGradient><path fill="url(#SVGID_00000030488543956693298700000014787388318237509541_)" d="M437.1 518.3V504v1.5c0 .2 0 .4-.1.7 0 .2-.1.5-.1.7 0 .2-.1.5-.1.7 0 .2-.1.5-.2.7-.1.2-.1.5-.2.7-.1.2-.1.5-.2.7-.1.2-.2.4-.2.6-.1.2-.2.5-.3.7l-.3.6c-.1.2-.2.5-.4.7l-.3.6c-.2.3-.3.5-.5.8-.1.2-.2.4-.4.6-.2.3-.4.5-.6.8-.1.2-.3.4-.4.5-.3.4-.6.8-1 1.2-.1.1-.2.2-.2.3-.4.5-.9 1-1.4 1.4-.2.2-.5.4-.7.6-.2.2-.4.4-.6.5-.2.2-.5.4-.8.6-.2.2-.4.3-.6.5-.3.2-.6.4-.9.7-.2.2-.4.3-.6.5-.3.2-.6.4-1 .7-.2.1-.4.3-.6.4-.5.3-1.1.7-1.7 1-.8.4-1.5.9-2.4 1.3-.2.1-.4.2-.7.3-.7.3-1.4.7-2 1-.2.1-.3.1-.5.2-.8.4-1.7.7-2.5 1-.2.1-.4.2-.6.2-.7.2-1.4.5-2.1.7-.2.1-.5.2-.8.2-.4.1-.7.2-1.1.3-.4.1-.7.2-1.1.3-.4.1-.7.2-1.1.3-.4.1-.7.2-1.1.3-.4.1-.7.2-1.1.2-.4.1-.7.2-1.1.2-.4.1-.8.2-1.1.2-.4.1-.7.1-1.1.2-.9.2-1.8.3-2.7.4h-.1l-2.7.3c-.3 0-.6.1-.9.1-.5 0-1 .1-1.6.1-.3 0-.7 0-1 .1-.5 0-1 .1-1.6.1h-8.3c-.4 0-.8 0-1.3-.1-.4 0-.7 0-1.1-.1-.4 0-.8-.1-1.2-.1-.4 0-.7-.1-1.1-.1-.4 0-.8-.1-1.2-.2-.4 0-.7-.1-1.1-.1-.5-.1-1-.1-1.5-.2-.3 0-.6-.1-.9-.1-.6-.1-1.2-.2-1.9-.3-.2 0-.3-.1-.5-.1-.8-.2-1.6-.3-2.4-.5-.2-.1-.5-.1-.7-.2-.6-.1-1.1-.3-1.7-.4-.2-.1-.5-.1-.7-.2-.7-.2-1.4-.4-2.1-.7-.2-.1-.5-.1-.7-.2-.9-.3-1.7-.6-2.6-.9-.4-.1-.7-.3-1.1-.5-.3-.1-.6-.2-.9-.4-.4-.2-.8-.3-1.1-.5-.3-.1-.5-.2-.8-.4l-1.2-.6-.6-.3c-.6-.3-1.2-.6-1.8-1-9.5-5.5-14.3-12.8-14.3-20v14.3c0 7.2 4.8 14.5 14.3 20 .6.3 1.2.7 1.8 1l.6.3 1.2.6c.3.1.5.2.8.4.4.2.8.4 1.1.5l.9.3c.3.1.7.3 1 .4h.1c.9.3 1.7.6 2.6.9.2.1.5.2.7.2.7.2 1.4.5 2.1.7.1 0 .3.1.4.1.1 0 .2 0 .3.1.5.2 1.1.3 1.7.4.2.1.5.1.7.2.8.2 1.6.4 2.4.5.1 0 .3.1.5.1.6.1 1.2.2 1.9.3.3 0 .6.1.9.1.5.1 1 .2 1.5.2h.2c.3 0 .6.1.9.1.4 0 .8.1 1.2.2.4 0 .7.1 1.1.1.4 0 .8.1 1.2.1h.2c.3 0 .6 0 .9.1.4 0 .8.1 1.3.1h8.3c.5 0 1 0 1.6-.1.3 0 .7 0 1-.1.5 0 1-.1 1.6-.1H396.8l2.7-.3h.1c.9-.1 1.8-.3 2.7-.4h.3c.3 0 .5-.1.8-.2.4-.1.8-.1 1.1-.2.4-.1.8-.2 1.1-.2s.7-.2 1.1-.2c.4-.1.7-.2 1.1-.3.4-.1.7-.2 1.1-.3s.7-.2 1.1-.3.7-.2 1.1-.3c.1 0 .2-.1.3-.1.1 0 .3-.1.4-.2.7-.2 1.4-.5 2.1-.7.2-.1.4-.2.6-.2.9-.3 1.7-.7 2.5-1 .2-.1.3-.1.5-.2.7-.3 1.4-.6 2-1 .2-.1.4-.2.7-.3.8-.4 1.6-.8 2.4-1.3.6-.3 1.1-.7 1.7-1 .2-.1.4-.3.6-.4.3-.2.7-.4 1-.7.2-.2.4-.3.6-.5l.9-.6c.2-.2.4-.3.6-.5.3-.2.5-.4.8-.7.2-.2.4-.4.6-.5.2-.2.4-.4.6-.5l.1-.1 1.4-1.4c.1-.1.2-.2.2-.3.4-.4.7-.8 1-1.2 0-.1.1-.1.2-.2s.2-.2.2-.3c.2-.3.4-.5.6-.8.1-.2.3-.4.4-.6.2-.3.3-.5.5-.8.1-.1.1-.2.2-.4 0-.1.1-.2.1-.2.1-.2.2-.5.4-.7l.3-.6c.1-.2.2-.5.3-.7.1-.1.1-.3.2-.4 0-.1 0-.1.1-.2.1-.2.1-.5.2-.7.1-.2.1-.5.2-.7.1-.2.1-.5.2-.7 0-.2.1-.3.1-.5v-.2c0-.2.1-.5.1-.7 0-.2.1-.4.1-.7v-.7-.5-.1z"/><linearGradient id="SVGID_00000124149165093482551230000018009912349068523399_" x1="338.738" x2="437.078" y1="139.762" y2="139.762" gradientTransform="matrix(1 0 0 -1 -.003 643.996)" gradientUnits="userSpaceOnUse"><stop offset="0" stop-color="#78d8fb"/><stop offset="1" stop-color="#95affe"/></linearGradient><path fill="url(#SVGID_00000124149165093482551230000018009912349068523399_)" d="M387.8 475.8c27.2-.1 49.2 12.6 49.2 28.3 0 15.7-21.9 28.5-49.1 28.6-27.2.1-49.2-12.6-49.2-28.3s22-28.6 49.1-28.6z"/></g></g><path d="M850.3 302.4c.1 0 .1 0 .2.1-.1 0-.2-.1-.2-.1zM850.7 302.5c.1 0 .1.1.2.1-.1 0-.2 0-.2-.1zM850 302.4h-.2.2zM847.8 302.8c.1 0 .1 0 .2-.1-.1.1-.2.1-.2.1zM848.8 302.4h0zM848.3 302.6c.1 0 .1 0 .2-.1-.1.1-.1.1-.2.1zM849.3 302.4h0z" class="st53"/><g><path d="M776.6 390.7h0zM777.9 390.8c.1 0 .2 0 .4-.1-.2 0-.3.1-.4.1zM777.2 390.8h0zM778.5 390.7c.1 0 .3-.1.4-.1-.1 0-.2 0-.4.1zM776.1 390.6c.1 0 .2.1.3.1-.1-.1-.2-.1-.3-.1zM775.6 390.3c.1 0 .2.1.3.1-.1 0-.2 0-.3-.1zM779.9 390.2c.2-.1.5-.2.7-.4-.2.1-.4.3-.7.4zM779.2 390.5c.2 0 .3-.1.5-.2-.2.1-.3.1-.5.2z" class="st53"/><path d="M752.5 430.1c.1.1.1.2.2.3-.1-.1-.1-.2-.2-.3zM752.2 429.5c0 .1.1.2.1.4 0-.2 0-.3-.1-.4zM752 428.8c0 .1.1.3.1.4 0-.1 0-.3-.1-.4zM751.9 428c0 .2 0 .3.1.5-.1-.2-.1-.3-.1-.5zM751.8 426.9v0z" class="st54"/><linearGradient id="SVGID_00000006689967314434024690000002835601660426060945_" x1="736.739" x2="759.058" y1="210.959" y2="210.959" gradientTransform="matrix(1 0 0 -1 0 644)" gradientUnits="userSpaceOnUse"><stop offset="0" stop-color="#34f7f7"/><stop offset="1" stop-color="#253ed2"/></linearGradient><path fill="url(#SVGID_00000006689967314434024690000002835601660426060945_)" d="M753.7 431.4c1.3.9 3.2.9 5.3-.3v13.5l-22.3-13v-10l17.2 10-.2-.2z"/><path d="M752.8 430.6c.1.1.1.2.2.3 0-.1-.1-.2-.2-.3zM753.2 431l.2.2-.2-.2z" class="st54"/><linearGradient id="SVGID_00000031928181136164712880000008654936731189187771_" x1="765.558" x2="802.798" y1="277.399" y2="277.399" gradientTransform="matrix(1 0 0 -1 0 644)" gradientUnits="userSpaceOnUse"><stop offset="0" stop-color="#34f7f7"/><stop offset="1" stop-color="#253ed2"/></linearGradient><path fill="url(#SVGID_00000031928181136164712880000008654936731189187771_)" d="M765.6 364.4l14.9-8.6 22.3 13-15 8.6z"/><linearGradient id="SVGID_00000163055484909864163120000014472394720220408706_" x1="758.308" x2="787.828" y1="266.402" y2="266.402" gradientTransform="matrix(1 0 0 -1 0 644)" gradientUnits="userSpaceOnUse"><stop offset="0" stop-color="#3271f2"/><stop offset="1" stop-color="#292bcc"/></linearGradient><path fill="url(#SVGID_00000163055484909864163120000014472394720220408706_)" d="M780.7 389.8c-.2.1-.5.3-.7.4-.1 0-.2.1-.2.1-.2.1-.3.1-.5.2-.1 0-.2 0-.3.1-.1 0-.3.1-.4.1h-.3c-.1 0-.2 0-.4.1h-1.2c-.1 0-.2 0-.3-.1-.1 0-.2 0-.3-.1-.1 0-.2-.1-.2-.1-.1 0-.2-.1-.3-.1-1.3-.8-2.1-2.3-2.1-4.6l-15.2-8.8h.1c4-2.3 7.2-7.9 7.2-12.4l22.3 13c-.1 4.3-3.3 9.9-7.2 12.2z"/><linearGradient id="SVGID_00000152950700793169043500000012333075988095589532_" x1="729.498" x2="758.968" y1="227.439" y2="227.439" gradientTransform="matrix(1 0 0 -1 0 644)" gradientUnits="userSpaceOnUse"><stop offset="0" stop-color="#34f7f7"/><stop offset="1" stop-color="#253ed2"/></linearGradient><path fill="url(#SVGID_00000152950700793169043500000012333075988095589532_)" d="M736.7 401.6l22.3 13c-4 2.3-7.2 7.9-7.2 12.4v1.1c0 .2 0 .3.1.5 0 .1 0 .2.1.3 0 .1.1.3.1.4 0 .1.1.2.1.3 0 .1.1.2.1.4 0 .1.1.2.1.2.1.1.1.2.2.3 0 .1.1.1.2.2s.1.2.2.3l.2.2.2.2c.1.1.1.1.2.1s.2.1.2.2l-17.2-10-5.1-3c-1.3-.8-2.1-2.4-2.1-4.6.1-4.7 3.3-10.2 7.3-12.5z"/><linearGradient id="SVGID_00000037660699809034156310000006743893825055759807_" x1="751.819" x2="802.939" y1="237.349" y2="237.349" gradientTransform="matrix(1 0 0 -1 0 644)" gradientUnits="userSpaceOnUse"><stop offset="0" stop-color="#3271f2"/><stop offset="1" stop-color="#292bcc"/></linearGradient><path fill="url(#SVGID_00000037660699809034156310000006743893825055759807_)" d="M753.7 431.4c-.1 0-.2-.1-.2-.1-.1-.1-.2-.1-.2-.2l-.2-.2c-.1-.1-.1-.2-.2-.3 0-.1-.1-.1-.2-.2s-.1-.2-.2-.3c0-.1-.1-.2-.1-.2 0-.1-.1-.2-.1-.4 0-.1-.1-.2-.1-.3 0-.1-.1-.3-.1-.4 0-.1 0-.2-.1-.3 0-.2 0-.3-.1-.5v-.3-.8c0-4.6 3.2-10.1 7.2-12.4l-.1-20.4 14.6-8.4c0 2.3.8 3.9 2.1 4.6.1 0 .2.1.3.1.1 0 .2.1.2.1.1 0 .2.1.3.1.1 0 .2 0 .3.1h1.2c.1 0 .2 0 .4-.1h.3c.1 0 .3-.1.4-.1.1 0 .2 0 .3-.1.2 0 .3-.1.5-.2.1 0 .2-.1.2-.1.2-.1.5-.2.7-.4 4-2.3 7.2-7.9 7.2-12.4l15-8.6.1 44.2c0 3.4-2.4 7.6-5.4 9.3l-38.5 22.2v-13.5c-2.3 1.4-4.2 1.4-5.5.5z"/><linearGradient id="SVGID_00000021089727434905871110000009350965412329111172_" x1="736.629" x2="758.968" y1="246.169" y2="246.169" gradientTransform="matrix(1 0 0 -1 0 644)" gradientUnits="userSpaceOnUse"><stop offset="0" stop-color="#34f7f7"/><stop offset="1" stop-color="#253ed2"/></linearGradient><path fill="url(#SVGID_00000021089727434905871110000009350965412329111172_)" d="M759 414.5l-22.3-12.9-.1-20.5 22.3 13z"/><linearGradient id="SVGID_00000112602099758448803800000000961329804635597455_" x1="736.629" x2="773.468" y1="260.579" y2="260.579" gradientTransform="matrix(1 0 0 -1 0 644)" gradientUnits="userSpaceOnUse"><stop offset="0" stop-color="#34f7f7"/><stop offset="1" stop-color="#253ed2"/></linearGradient><path fill="url(#SVGID_00000112602099758448803800000000961329804635597455_)" d="M758.9 394.1l-22.3-13 14.6-8.4 7.1 4.2 15.2 8.8z"/><path d="M769.4 341.8v0zM769 340.3c0 .1.1.2.1.3 0-.1-.1-.2-.1-.3zM768.2 338.9l-.2-.2.2.2zM769.2 341c0 .1 0 .2.1.3 0-.1-.1-.2-.1-.3zM778.5 374.1c-.1-.1-.2-.1-.2-.2.1.1.2.1.2.2zM777.8 373.2c-.1-.1-.1-.2-.2-.3.1.1.1.2.2.3zM767.6 338.4c.1 0 .2.1.2.1-.1 0-.1-.1-.2-.1zM768.4 339.2c0 .1.1.1.2.2l-.2-.2zM768.7 339.7c0 .1.1.2.1.2s0-.1-.1-.2zM777.9 373.4c.1.1.1.2.2.3 0-.1-.1-.2-.2-.3zM777.5 372.7c0-.1-.1-.2-.1-.4 0 .2 0 .3.1.4zM777.2 372.1c0-.1-.1-.3-.1-.4.1.1.1.2.1.4zM777.1 371.4c0-.2 0-.3-.1-.5 0 .1 0 .3.1.5zM776.9 370.6v-.8.8z" class="st53"/><linearGradient id="SVGID_00000010271973531759583370000015351912531212861097_" x1="773.979" x2="778.999" y1="271.889" y2="271.889" gradientTransform="matrix(1 0 0 -1 0 644)" gradientUnits="userSpaceOnUse"><stop offset="0" stop-color="#3271f2"/><stop offset="1" stop-color="#292bcc"/></linearGradient><path fill="url(#SVGID_00000010271973531759583370000015351912531212861097_)" d="M776.9 370.6v.2c0 .2 0 .4.1.5 0 .1 0 .2.1.3 0 .1.1.3.1.4 0 .1.1.2.1.3 0 .1.1.2.1.4 0 .1.1.2.1.2.1.1.1.2.2.3 0 .1.1.1.2.2s.1.2.2.3l.2.2c.1.1.2.1.2.2.1 0 .1.1.2.1.1.1.2.1.2.2l-5-2.9 2.9-1.7c.1.3.1.6.1.8z"/><linearGradient id="SVGID_00000107566179360770567310000013412016494032062349_" x1="739.999" x2="762.348" y1="283.744" y2="283.744" gradientTransform="matrix(1 0 0 -1 0 644)" gradientUnits="userSpaceOnUse"><stop offset="0" stop-color="#34f7f7"/><stop offset="1" stop-color="#253ed2"/></linearGradient><path fill="url(#SVGID_00000107566179360770567310000013412016494032062349_)" d="M762.3 378.2l-22.2-12.9-.1-23 22.3 13z"/><linearGradient id="SVGID_00000013871547319075809630000014643608140645787291_" x1="739.989" x2="769.438" y1="301.394" y2="301.394" gradientTransform="matrix(1 0 0 -1 0 644)" gradientUnits="userSpaceOnUse"><stop offset="0" stop-color="#3271f2"/><stop offset="1" stop-color="#292bcc"/></linearGradient><path fill="url(#SVGID_00000013871547319075809630000014643608140645787291_)" d="M767.6 338.4c.1 0 .2.1.2.1.1.1.2.1.2.2l.2.2c.1.1.1.2.2.3 0 .1.1.1.2.2s.1.2.2.3c0 .1.1.2.1.2 0 .1.1.2.1.4 0 .1.1.2.1.3 0 .1.1.3.1.4 0 .1 0 .2.1.3 0 .1 0 .3.1.5v1.1c0 4.6-3.2 10.1-7.2 12.4l-22.3-13c4-2.3 7.1-7.8 7.2-12.3l15.1 8.8c2.1-1.3 4.1-1.3 5.4-.4z"/><linearGradient id="SVGID_00000031207901228751916070000005127589398918641595_" x1="762.219" x2="806.249" y1="302.469" y2="302.469" gradientTransform="matrix(1 0 0 -1 0 644)" gradientUnits="userSpaceOnUse"><stop offset="0" stop-color="#3271f2"/><stop offset="1" stop-color="#292bcc"/></linearGradient><path fill="url(#SVGID_00000031207901228751916070000005127589398918641595_)" d="M762.3 355.3c4-2.3 7.2-7.9 7.2-12.4v-.8-.3c0-.2 0-.3-.1-.5 0-.1 0-.2-.1-.3 0-.1-.1-.3-.1-.4 0-.1-.1-.2-.1-.3 0-.1-.1-.2-.1-.4 0-.1-.1-.2-.1-.2-.1-.1-.1-.2-.2-.3 0-.1-.1-.1-.2-.2s-.1-.2-.2-.3l-.2-.2-.2-.2c-.1-.1-.1-.1-.2-.1-1.3-.9-3.2-.9-5.3.3v-11l38.5-22.2c.2-.1.4-.2.5-.3.1 0 .1 0 .2-.1.1 0 .2-.1.4-.1.1 0 .1 0 .2-.1.1 0 .2-.1.3-.1h1.4c.1 0 .1 0 .2.1s.2 0 .2.1c.1 0 .1.1.2.1s.1.1.2.1c1 .6 1.6 1.8 1.6 3.5l.1 44.2-15 8.6c0 4.6-3.2 10.1-7.2 12.4-2.1 1.2-4 1.3-5.4.3-.1 0-.1-.1-.2-.1-.1-.1-.2-.1-.2-.2l-.2-.2c-.1-.1-.1-.2-.2-.3 0-.1-.1-.1-.2-.2s-.1-.2-.2-.3c0-.1-.1-.2-.1-.2 0-.1-.1-.2-.1-.4 0-.1-.1-.2-.1-.3 0-.1-.1-.3-.1-.4 0-.1 0-.2-.1-.3 0-.2 0-.3-.1-.5v-.2-.8l-2.9 1.7-11.6 6.7-.2-22.9z"/><linearGradient id="SVGID_00000114775013418794401240000016368274679243697589_" x1="739.918" x2="762.239" y1="317.224" y2="317.224" gradientTransform="matrix(1 0 0 -1 0 644)" gradientUnits="userSpaceOnUse"><stop offset="0" stop-color="#34f7f7"/><stop offset="1" stop-color="#253ed2"/></linearGradient><path fill="url(#SVGID_00000114775013418794401240000016368274679243697589_)" d="M739.9 314.8l22.3 13v10.9l-15-8.7-7.3-4.2z"/><linearGradient id="SVGID_00000000189185526698193610000002810591341667228321_" x1="739.938" x2="804.538" y1="334.191" y2="334.191" gradientTransform="matrix(1 0 0 -1 0 644)" gradientUnits="userSpaceOnUse"><stop offset="0" stop-color="#34f7f7"/><stop offset="1" stop-color="#253ed2"/></linearGradient><path fill="url(#SVGID_00000000189185526698193610000002810591341667228321_)" d="M778.4 292.6c1.5-.9 2.9-1 3.8-.4l22.3 13c-.1 0-.1-.1-.2-.1s-.1-.1-.2-.1-.2 0-.2-.1c-.1 0-.1 0-.2-.1h-1.4c-.1 0-.2.1-.3.1-.1 0-.1 0-.2.1-.1 0-.2.1-.4.1-.1 0-.1 0-.2.1-.2.1-.4.2-.5.3l-38.5 22.2-22.3-13 38.5-22.1z"/><path d="M735.1 368.9c.1 0 .2 0 .3-.1-.1.1-.2.1-.3.1zM735.8 368.7h.3-.3zM734.4 369.2c.1 0 .2-.1.2-.1 0 .1-.1.1-.2.1zM738.2 368.8c.1 0 .2.1.2.1s-.1 0-.2-.1zM691.1 481.7c.1 0 .1.1.2.2l-.2-.2zM737.4 368.6h-.3.3zM736.5 368.6h.3-.3zM737.7 368.7c.1 0 .2 0 .2.1-.1-.1-.1-.1-.2-.1zM690 478.6v0zM690.1 479.4v0zM690.3 480.5c0 .1.1.2.1.3 0-.1 0-.2-.1-.3zM690.5 481c0 .1.1.2.1.2 0-.1 0-.1-.1-.2zM690.2 480c0 .1 0 .2.1.3-.1-.1-.1-.2-.1-.3zM690.8 481.4c0 .1.1.1.2.2l-.2-.2z" class="st53"/></g></svg>