<?xml version="1.0" encoding="utf-8"?>
<!-- Generator: Adobe Illustrator 16.0.0, SVG Export Plug-In . SVG Version: 6.00 Build 0)  -->
<!DOCTYPE svg PUBLIC "-//W3C//DTD SVG 1.1//EN" "http://www.w3.org/Graphics/SVG/1.1/DTD/svg11.dtd" [
	<!ENTITY ns_flows "http://ns.adobe.com/Flows/1.0/">
	<!ENTITY ns_extend "http://ns.adobe.com/Extensibility/1.0/">
	<!ENTITY ns_ai "http://ns.adobe.com/AdobeIllustrator/10.0/">
	<!ENTITY ns_graphs "http://ns.adobe.com/Graphs/1.0/">
]>
<svg version="1.1" id="图层_1" xmlns:x="&ns_extend;" xmlns:i="&ns_ai;" xmlns:graph="&ns_graphs;"
	 xmlns="http://www.w3.org/2000/svg" xmlns:xlink="http://www.w3.org/1999/xlink" xmlns:a="http://ns.adobe.com/AdobeSVGViewerExtensions/3.0/"
	 x="0px" y="0px" width="160px" height="139px" viewBox="0 0 160 139" enable-background="new 0 0 160 139" xml:space="preserve">
<g>
	<g>
		<defs>
			<rect id="SVGID_1_" x="-235.001" y="-208.276" width="841.89" height="595.276"/>
		</defs>
		<clipPath id="SVGID_2_">
			<use xlink:href="#SVGID_1_"  overflow="visible"/>
		</clipPath>
		<rect x="179.923" y="34.455" clip-path="url(#SVGID_2_)" fill="#323479" width="9.922" height="42.145"/>
		<polygon clip-path="url(#SVGID_2_)" fill="#323479" points="200.425,76.6 200.425,33.089 201.371,33.089 227.262,57.679 
			227.262,34.455 236.406,34.455 236.406,78.199 235.547,78.199 209.57,53.61 209.57,76.6 		"/>
		<polygon clip-path="url(#SVGID_2_)" fill="#323479" points="246.988,76.6 246.988,34.455 272.82,34.455 272.82,43.029 
			256.851,43.029 256.851,51.43 271.13,51.43 271.13,59.946 256.851,59.946 256.851,76.6 		"/>
		<rect x="283.4" y="34.455" clip-path="url(#SVGID_2_)" fill="#323479" width="9.922" height="42.145"/>
		<polygon clip-path="url(#SVGID_2_)" fill="#323479" points="303.902,76.6 303.902,33.089 304.85,33.089 330.74,57.679 
			330.74,34.455 339.885,34.455 339.885,78.199 339.025,78.199 313.939,53.61 313.873,76.6 		"/>
		<rect x="350.408" y="34.455" clip-path="url(#SVGID_2_)" fill="#323479" width="9.922" height="42.145"/>
		<polygon clip-path="url(#SVGID_2_)" fill="#717174" points="184.205,92.432 182.855,92.432 182.855,94.251 179.924,94.251 
			179.924,95.537 182.855,95.537 182.855,98.345 179.93,98.345 179.93,113.294 181.277,113.294 181.277,99.631 182.855,99.631 
			182.855,113.294 184.205,113.294 184.205,99.631 185.851,99.631 185.851,98.345 184.205,98.345 184.205,95.537 185.851,95.537 
			185.851,94.251 184.205,94.251 		"/>
		<polygon clip-path="url(#SVGID_2_)" fill="#717174" points="196.507,112.99 193.389,107.432 195.561,103.182 195.629,99.978 
			192.009,99.978 194.486,94.337 194.535,92.475 187.115,92.475 187.115,93.762 193.188,93.762 189.979,101.264 194.279,101.264 
			194.279,102.751 192.604,106.032 190.975,103.128 189.785,103.735 191.873,107.46 189.037,113.011 190.25,113.576 
			192.658,108.861 195.316,113.597 		"/>
		<polygon clip-path="url(#SVGID_2_)" fill="#717174" points="188.143,95.476 186.174,113.225 187.516,113.362 189.484,95.612 		"/>
		<path clip-path="url(#SVGID_2_)" fill="#717174" d="M239.9,92.475h-5.545v20.819h1.348v-2.75l4.234-1.373l-1.322-5.633
			L239.9,92.475z M238.355,108.323l-2.652,0.86V93.762h2.689l-1.145,9.849L238.355,108.323z"/>
		<path clip-path="url(#SVGID_2_)" fill="#717174" d="M250.455,113.441l0.99-0.877l-3.767-3.871l2.569-2.402l-0.945-0.92
			l-2.543,2.377l-3.867-3.977v-1.097h7.146v-10.2h-8.5v1.287h0.005v19.799l4.614-1.177l-0.347-1.243l-2.919,0.742v-6.216
			L250.455,113.441z M242.893,98.218h5.799v3.17h-5.799V98.218z M248.691,96.932h-5.799v-3.17h5.799V96.932z"/>
		<polygon clip-path="url(#SVGID_2_)" fill="#717174" points="293.889,94.15 296.787,93.757 296.599,92.481 289.642,93.424 
			289.83,94.7 292.539,94.333 292.539,98.645 289.352,98.645 289.352,99.931 292.539,99.931 292.539,113.294 293.889,113.294 
			293.889,99.931 297.076,99.931 297.076,98.645 293.889,98.645 		"/>
		<rect x="289.646" y="101.234" clip-path="url(#SVGID_2_)" fill="#717174" width="1.349" height="12.06"/>
		<rect x="295.668" y="101.233" clip-path="url(#SVGID_2_)" fill="#717174" width="1.349" height="9.326"/>
		<polygon clip-path="url(#SVGID_2_)" fill="#717174" points="302.312,98.501 300.676,92.944 299.377,93.293 301.014,98.85 		"/>
		<polygon clip-path="url(#SVGID_2_)" fill="#717174" points="302.085,105.827 300.682,100.472 299.371,100.785 300.773,106.14 		
			"/>
		<polygon clip-path="url(#SVGID_2_)" fill="#717174" points="305.818,107.906 305.693,106.623 304.502,106.73 304.502,92.669 
			303.152,92.669 303.152,106.851 298.386,107.277 298.51,108.56 303.152,108.145 303.152,113.294 304.502,113.294 304.502,108.024 
					"/>
		<polygon clip-path="url(#SVGID_2_)" fill="#717174" points="349.389,104.814 347.66,104.999 347.66,96.096 349.464,96.096 
			349.464,94.81 347.66,94.81 347.66,92.68 346.312,92.68 346.312,94.81 344.505,94.81 344.505,96.096 346.312,96.096 
			346.312,105.143 344.43,105.344 344.58,106.624 346.312,106.439 346.312,111.738 344.209,112.715 344.801,113.873 347.66,112.543 
			347.66,106.294 349.539,106.093 		"/>
		<polygon clip-path="url(#SVGID_2_)" fill="#717174" points="360.328,112.826 356.539,109.404 359.992,106.278 359.992,99.985 
			356.238,99.985 356.238,96.096 359.962,96.096 359.962,94.809 356.238,94.809 356.238,92.68 354.89,92.68 354.89,94.809 
			351.095,94.809 351.095,96.096 354.89,96.096 354.89,99.985 351.095,99.985 351.095,101.271 358.643,101.271 358.643,105.724 
			355.558,108.518 352.443,105.706 352.443,102.243 351.095,102.243 351.095,106.26 354.578,109.404 350.798,112.826 
			351.727,113.761 355.559,110.291 359.402,113.761 		"/>
		<g clip-path="url(#SVGID_2_)">
			<defs>
				<polygon id="SVGID_3_" points="78.018,34.467 91.518,58.137 112.879,58.152 81.238,113.533 108.486,113.533 153.629,34.523 				
					"/>
			</defs>
			<clipPath id="SVGID_4_">
				<use xlink:href="#SVGID_3_"  overflow="visible"/>
			</clipPath>
			
				<linearGradient id="SVGID_5_" gradientUnits="userSpaceOnUse" x1="4979.4531" y1="448.8066" x2="4980.4531" y2="448.8066" gradientTransform="matrix(75.6116 0 0 -75.6116 -376426.3438 34009.0586)">
				<stop  offset="0" style="stop-color:#323479"/>
				<stop  offset="0.5" style="stop-color:#296CB5"/>
				<stop  offset="1" style="stop-color:#2FBDBB"/>
				<a:midPointStop  offset="0" style="stop-color:#323479"/>
				<a:midPointStop  offset="0.5" style="stop-color:#323479"/>
				<a:midPointStop  offset="0.5" style="stop-color:#296CB5"/>
				<a:midPointStop  offset="0.5" style="stop-color:#296CB5"/>
				<a:midPointStop  offset="1" style="stop-color:#2FBDBB"/>
			</linearGradient>
			<rect x="78.018" y="34.467" clip-path="url(#SVGID_4_)" fill="url(#SVGID_5_)" width="75.611" height="79.066"/>
		</g>
		<polygon clip-path="url(#SVGID_2_)" fill="#2EBDBB" points="38.187,64.015 9.894,113.533 37.143,113.533 51.82,87.845 		"/>
		<polygon clip-path="url(#SVGID_2_)" fill="#2EBDBB" points="59.19,27.255 45.586,51.064 81.236,113.533 108.486,113.533 		"/>
	</g>
</g>
<g>
	<g>
		<defs>
			<rect id="SVGID_6_" x="779.492" y="-147.276" width="841.89" height="595.276"/>
		</defs>
		<clipPath id="SVGID_7_">
			<use xlink:href="#SVGID_6_"  overflow="visible"/>
		</clipPath>
		<rect x="779.492" y="-147.275" clip-path="url(#SVGID_7_)" fill="#EFEEEE" width="841.89" height="366.422"/>
		<rect x="1337.947" y="274.831" clip-path="url(#SVGID_7_)" fill="#3E3B3B" width="223.561" height="100.091"/>
		
			<rect x="839.098" y="-98.038" clip-path="url(#SVGID_7_)" fill="none" stroke="#ABADB1" stroke-width="0.25" stroke-miterlimit="10" width="339.461" height="205.163"/>
		
			<rect x="1222.047" y="-97.31" clip-path="url(#SVGID_7_)" fill="none" stroke="#ABADB1" stroke-width="0.25" stroke-miterlimit="10" width="339.461" height="205.164"/>
		
			<rect x="1088.888" y="274.831" clip-path="url(#SVGID_7_)" fill="none" stroke="#ABADB1" stroke-width="0.25" stroke-miterlimit="10" width="223.559" height="100.091"/>
		
			<rect x="839.097" y="274.831" clip-path="url(#SVGID_7_)" fill="none" stroke="#ABADB1" stroke-width="0.25" stroke-miterlimit="10" width="223.56" height="100.091"/>
		<g clip-path="url(#SVGID_7_)">
			<defs>
				<rect id="SVGID_8_" x="779.492" y="-147.276" width="841.89" height="595.276"/>
			</defs>
			<clipPath id="SVGID_9_">
				<use xlink:href="#SVGID_8_"  overflow="visible"/>
			</clipPath>
			<path clip-path="url(#SVGID_9_)" fill="#296CB5" d="M1428.453,165.014c0,5.702-4.623,10.324-10.324,10.324
				c-5.702,0-10.324-4.622-10.324-10.324s4.622-10.323,10.324-10.323C1423.83,154.69,1428.453,159.312,1428.453,165.014"/>
			<path clip-path="url(#SVGID_9_)" fill="#2EBDBB" d="M1058.267,165.014c0,5.702-4.622,10.324-10.324,10.324
				s-10.323-4.622-10.323-10.324s4.621-10.323,10.323-10.323S1058.267,159.312,1058.267,165.014"/>
			<path clip-path="url(#SVGID_9_)" fill="#717174" d="M1249.289,165.014c0,5.702-4.623,10.324-10.324,10.324
				c-5.702,0-10.324-4.622-10.324-10.324s4.622-10.323,10.324-10.323C1244.666,154.69,1249.289,159.312,1249.289,165.014"/>
			<path clip-path="url(#SVGID_9_)" fill="#323479" d="M883.293,165.014c0,5.702-4.621,10.324-10.323,10.324
				s-10.325-4.622-10.325-10.324s4.623-10.323,10.325-10.323S883.293,159.312,883.293,165.014"/>
		</g>
		<g clip-path="url(#SVGID_7_)">
			<path fill="#231915" d="M898.065,154.813c0.466,0.332,0.732,0.778,0.8,1.322l-0.184,0.001c-0.067-0.48-0.31-0.87-0.727-1.172
				c-0.402-0.285-0.867-0.426-1.379-0.423c-0.768,0.005-1.381,0.28-1.842,0.843c-0.428,0.53-0.64,1.188-0.635,1.987
				c0.005,0.783,0.225,1.421,0.659,1.931c0.442,0.525,1.028,0.793,1.764,0.789c0.544-0.004,1.015-0.158,1.421-0.465
				c0.445-0.338,0.723-0.804,0.83-1.396l0.185-0.001c-0.116,0.656-0.408,1.17-0.886,1.541c-0.438,0.338-0.957,0.51-1.549,0.514
				c-0.791,0.004-1.433-0.279-1.915-0.853c-0.468-0.55-0.696-1.235-0.701-2.059c-0.006-0.84,0.223-1.545,0.683-2.106
				c0.492-0.612,1.154-0.912,1.985-0.917C897.136,154.346,897.632,154.495,898.065,154.813z"/>
			<path fill="#231915" d="M900.479,156.772c0.05,0.048,0.081,0.104,0.081,0.184c0.001,0.072-0.03,0.136-0.078,0.184
				c-0.048,0.05-0.111,0.081-0.184,0.082c-0.08,0-0.136-0.031-0.184-0.079c-0.058-0.048-0.081-0.111-0.082-0.184
				c0-0.08,0.023-0.136,0.079-0.184c0.048-0.057,0.104-0.081,0.184-0.081C900.367,156.693,900.431,156.718,900.479,156.772z
				 M900.497,159.698c0.049,0.049,0.08,0.104,0.081,0.185c0,0.071-0.03,0.136-0.079,0.184c-0.048,0.049-0.11,0.081-0.183,0.082
				c-0.08,0-0.137-0.032-0.185-0.079c-0.057-0.048-0.081-0.112-0.081-0.184c-0.001-0.08,0.022-0.136,0.079-0.185
				c0.047-0.057,0.103-0.08,0.183-0.08C900.385,159.62,900.448,159.644,900.497,159.698z"/>
			<path fill="#231915" d="M903.271,154.421l0.035,5.709l-0.191,0.001l-0.033-5.445c-0.381,0.458-0.852,0.772-1.41,0.937
				l-0.001-0.208c0.271-0.09,0.526-0.211,0.765-0.372c0.239-0.17,0.454-0.379,0.645-0.62L903.271,154.421z"/>
			<path fill="#231915" d="M908.275,155.293c0.227,0.495,0.351,1.142,0.355,1.949c0.006,0.8-0.11,1.456-0.331,1.953
				c-0.308,0.674-0.81,1.021-1.514,1.025c-0.703,0.004-1.217-0.337-1.524-1.007c-0.228-0.494-0.343-1.142-0.349-1.949
				c-0.005-0.815,0.103-1.463,0.324-1.953c0.3-0.682,0.81-1.021,1.513-1.024C907.454,154.282,907.96,154.615,908.275,155.293z
				 M905.414,155.398c-0.213,0.466-0.313,1.082-0.31,1.865c0.005,0.775,0.113,1.399,0.332,1.861
				c0.283,0.605,0.733,0.907,1.349,0.903c0.607-0.004,1.054-0.311,1.338-0.92c0.213-0.473,0.32-1.098,0.315-1.865
				c-0.004-0.775-0.119-1.398-0.338-1.861c-0.292-0.605-0.742-0.906-1.35-0.902C906.136,154.483,905.689,154.789,905.414,155.398z"
				/>
			<path fill="#231915" d="M913.075,155.264c0.227,0.494,0.351,1.142,0.355,1.949c0.006,0.8-0.11,1.455-0.331,1.953
				c-0.308,0.674-0.81,1.021-1.514,1.024c-0.703,0.005-1.217-0.336-1.524-1.006c-0.228-0.495-0.343-1.142-0.349-1.949
				c-0.005-0.815,0.103-1.464,0.324-1.953c0.3-0.682,0.81-1.021,1.513-1.025C912.254,154.253,912.76,154.586,913.075,155.264z
				 M910.214,155.369c-0.213,0.465-0.313,1.082-0.31,1.865c0.005,0.775,0.113,1.398,0.332,1.861
				c0.283,0.605,0.733,0.906,1.349,0.902c0.608-0.003,1.054-0.31,1.338-0.919c0.213-0.473,0.32-1.098,0.315-1.865
				c-0.004-0.775-0.119-1.398-0.338-1.861c-0.292-0.605-0.741-0.906-1.35-0.903C910.936,154.453,910.489,154.76,910.214,155.369z"/>
			<path fill="#231915" d="M925.559,154.283l2.465,5.486h0.017l2.388-5.517l0.353-0.002l0.036,5.709l-0.193,0.001l-0.033-5.541
				l-0.023,0.001l-2.414,5.556l-0.248,0.002l-2.479-5.526h-0.023l0.034,5.541l-0.193,0.001l-0.035-5.709L925.559,154.283z"/>
		</g>
		<g clip-path="url(#SVGID_7_)">
			<path fill="#231915" d="M932.565,156.575c0.048,0.048,0.08,0.104,0.081,0.184c0,0.072-0.031,0.136-0.079,0.185
				c-0.048,0.048-0.11,0.08-0.183,0.08c-0.08,0.001-0.137-0.03-0.185-0.078c-0.057-0.048-0.081-0.111-0.081-0.184
				c-0.001-0.08,0.022-0.136,0.079-0.185c0.047-0.056,0.103-0.08,0.183-0.081C932.453,156.496,932.517,156.52,932.565,156.575z
				 M932.583,159.502c0.049,0.048,0.081,0.104,0.081,0.184c0.001,0.072-0.031,0.136-0.078,0.184
				c-0.048,0.048-0.111,0.081-0.184,0.081c-0.08,0.001-0.136-0.031-0.184-0.079c-0.058-0.047-0.081-0.11-0.082-0.183
				c0-0.08,0.023-0.136,0.079-0.185c0.048-0.057,0.104-0.08,0.184-0.081C932.472,159.423,932.535,159.445,932.583,159.502z"/>
			<path fill="#231915" d="M935.358,154.223l0.035,5.709l-0.191,0.002l-0.033-5.445c-0.381,0.458-0.851,0.772-1.41,0.936
				l-0.002-0.208c0.272-0.089,0.527-0.211,0.766-0.371c0.239-0.17,0.454-0.379,0.645-0.62L935.358,154.223z"/>
			<path fill="#231915" d="M940.363,155.096c0.227,0.494,0.351,1.142,0.355,1.949c0.005,0.8-0.111,1.455-0.332,1.953
				c-0.307,0.674-0.809,1.021-1.513,1.024c-0.703,0.005-1.217-0.336-1.525-1.006c-0.228-0.495-0.343-1.142-0.348-1.949
				c-0.005-0.815,0.103-1.464,0.324-1.953c0.299-0.682,0.809-1.02,1.512-1.024C939.541,154.086,940.047,154.418,940.363,155.096z
				 M937.501,155.201c-0.213,0.465-0.313,1.082-0.309,1.865c0.005,0.775,0.113,1.398,0.332,1.861
				c0.283,0.605,0.733,0.906,1.349,0.902c0.608-0.003,1.054-0.31,1.338-0.919c0.213-0.473,0.32-1.098,0.315-1.865
				c-0.005-0.775-0.12-1.398-0.339-1.861c-0.292-0.605-0.74-0.906-1.349-0.903C938.224,154.285,937.776,154.592,937.501,155.201z"/>
			<path fill="#231915" d="M945.163,155.065c0.227,0.495,0.351,1.142,0.355,1.949c0.005,0.8-0.111,1.456-0.332,1.953
				c-0.307,0.674-0.809,1.021-1.513,1.025c-0.703,0.005-1.217-0.336-1.525-1.006c-0.228-0.495-0.343-1.142-0.348-1.949
				c-0.005-0.815,0.103-1.464,0.324-1.953c0.299-0.682,0.809-1.02,1.512-1.024C944.341,154.057,944.847,154.388,945.163,155.065z
				 M942.301,155.172c-0.213,0.465-0.313,1.082-0.309,1.865c0.005,0.775,0.113,1.398,0.332,1.861
				c0.283,0.605,0.733,0.906,1.349,0.902c0.607-0.004,1.054-0.311,1.338-0.919c0.213-0.474,0.32-1.098,0.315-1.865
				c-0.005-0.775-0.12-1.399-0.339-1.861c-0.292-0.606-0.741-0.907-1.349-0.903C943.023,154.256,942.576,154.562,942.301,155.172z"
				/>
		</g>
		<g clip-path="url(#SVGID_7_)">
			<path fill="#231915" d="M954.319,154.106l2.187,3.112l2.146-3.14l0.248-0.001l-2.298,3.324l0.015,2.398l-0.192,0.002
				l-0.015-2.398l-2.339-3.297L954.319,154.106z"/>
		</g>
		<g clip-path="url(#SVGID_7_)">
			<path fill="#231915" d="M960.125,156.405c0.049,0.048,0.08,0.104,0.081,0.184c0,0.072-0.03,0.136-0.079,0.185
				c-0.048,0.048-0.111,0.08-0.184,0.08c-0.08,0.001-0.136-0.03-0.184-0.077c-0.057-0.049-0.081-0.112-0.081-0.185
				c-0.001-0.08,0.022-0.136,0.079-0.185c0.047-0.056,0.103-0.08,0.183-0.081C960.013,156.326,960.076,156.35,960.125,156.405z
				 M960.143,159.332c0.049,0.048,0.081,0.104,0.081,0.184c0.001,0.072-0.03,0.136-0.079,0.184c-0.047,0.048-0.11,0.081-0.183,0.081
				c-0.08,0.001-0.136-0.031-0.185-0.078c-0.057-0.048-0.08-0.111-0.081-0.184c0-0.08,0.022-0.136,0.079-0.184
				c0.048-0.058,0.104-0.081,0.184-0.082C960.031,159.253,960.095,159.275,960.143,159.332z"/>
			<path fill="#231915" d="M964.98,154.04l0.001,0.192l-2.886,0.019l-0.217,2.463h0.032c0.158-0.217,0.365-0.386,0.637-0.507
				c0.247-0.114,0.51-0.171,0.781-0.173c0.544-0.003,0.985,0.153,1.323,0.479c0.354,0.341,0.533,0.819,0.537,1.436
				c0.003,0.544-0.17,1-0.521,1.371c-0.349,0.361-0.795,0.549-1.347,0.552c-0.48,0.003-0.881-0.131-1.211-0.385
				c-0.369-0.285-0.579-0.685-0.622-1.187l0.2-0.002c0.033,0.439,0.221,0.79,0.549,1.044c0.298,0.23,0.658,0.348,1.082,0.345
				c0.496-0.003,0.895-0.173,1.212-0.503c0.311-0.337,0.468-0.746,0.465-1.233c-0.004-0.56-0.166-0.999-0.48-1.302
				c-0.305-0.294-0.697-0.435-1.186-0.432c-0.312,0.002-0.6,0.084-0.87,0.245s-0.478,0.378-0.604,0.651l-0.2,0.002l0.253-3.057
				L964.98,154.04z"/>
		</g>
		<g clip-path="url(#SVGID_7_)">
			<path fill="#231915" d="M978.563,153.957l-2.679,2.447l3.065,3.26l-0.271,0.001l-2.938-3.132l-1.224,1.118l0.012,2.039
				l-0.192,0.002l-0.035-5.709l0.192-0.002l0.021,3.422l3.744-3.444L978.563,153.957z"/>
		</g>
		<g clip-path="url(#SVGID_7_)">
			<path fill="#231915" d="M980.1,156.282c0.048,0.048,0.081,0.104,0.081,0.184c0.001,0.072-0.031,0.136-0.079,0.185
				c-0.047,0.048-0.11,0.08-0.183,0.08c-0.08,0.001-0.136-0.03-0.185-0.078c-0.057-0.048-0.08-0.111-0.081-0.184
				c0-0.08,0.022-0.136,0.079-0.185c0.048-0.056,0.103-0.08,0.183-0.081C979.987,156.203,980.052,156.227,980.1,156.282z
				 M980.117,159.209c0.049,0.048,0.081,0.104,0.082,0.184c0,0.072-0.032,0.136-0.079,0.184c-0.048,0.048-0.111,0.081-0.184,0.081
				c-0.08,0.001-0.136-0.031-0.184-0.079c-0.058-0.047-0.081-0.11-0.081-0.183c-0.001-0.08,0.022-0.136,0.078-0.185
				c0.048-0.057,0.104-0.08,0.184-0.081C980.006,159.13,980.069,159.152,980.117,159.209z"/>
			<path fill="#231915" d="M984.81,154.821c0.227,0.495,0.351,1.142,0.355,1.949c0.005,0.8-0.111,1.456-0.332,1.953
				c-0.307,0.674-0.809,1.021-1.513,1.025c-0.703,0.004-1.217-0.336-1.525-1.006c-0.228-0.495-0.343-1.142-0.348-1.949
				c-0.005-0.815,0.103-1.464,0.324-1.953c0.3-0.682,0.809-1.021,1.512-1.024C983.987,153.812,984.494,154.144,984.81,154.821z
				 M981.947,154.927c-0.213,0.466-0.313,1.082-0.309,1.865c0.005,0.775,0.113,1.399,0.332,1.861
				c0.283,0.606,0.733,0.907,1.349,0.903c0.608-0.004,1.054-0.311,1.338-0.919c0.213-0.474,0.32-1.099,0.315-1.866
				c-0.005-0.775-0.12-1.398-0.339-1.86c-0.291-0.606-0.74-0.907-1.349-0.903C982.67,154.012,982.224,154.318,981.947,154.927z"/>
		</g>
		<g clip-path="url(#SVGID_7_)">
			<path fill="#231915" d="M895.192,169.958l0.23-1.521l0.192-0.001l-0.231,1.521l1.535-0.01l0.231-1.521l0.191-0.001l-0.23,1.521
				l0.983-0.007l-0.031,0.192l-0.983,0.006l-0.345,2.312l1.079-0.007l-0.031,0.193l-1.079,0.006l-0.23,1.497l-0.199,0.001
				l0.229-1.496l-1.527,0.009l-0.229,1.497l-0.2,0.001l0.23-1.497l-0.983,0.007l0.03-0.193l0.983-0.006l0.354-2.312l-1.087,0.007
				l0.03-0.191L895.192,169.958z M896.535,172.451l0.354-2.312l-1.535,0.01l-0.346,2.312L896.535,172.451z"/>
			<path fill="#231915" d="M900.335,168.406l0.035,5.709l-0.191,0.001l-0.034-5.445c-0.381,0.459-0.852,0.773-1.41,0.937
				l-0.001-0.208c0.271-0.089,0.526-0.211,0.765-0.371c0.239-0.17,0.454-0.379,0.646-0.621L900.335,168.406z"/>
			<path fill="#231915" d="M904.978,170.489c0.266,0.365,0.422,0.9,0.458,1.596l-3.525,0.021c0.02,0.576,0.175,1.039,0.48,1.389
				c0.306,0.351,0.698,0.523,1.194,0.521c0.448-0.003,0.798-0.133,1.068-0.374c0.222-0.209,0.389-0.506,0.482-0.883l0.208-0.001
				c-0.094,0.416-0.275,0.745-0.53,0.994c-0.318,0.298-0.724,0.453-1.228,0.456c-0.567,0.004-1.017-0.202-1.355-0.601
				c-0.338-0.404-0.508-0.932-0.512-1.571c-0.004-0.6,0.152-1.104,0.478-1.514c0.341-0.45,0.796-0.669,1.363-0.673
				C904.19,169.846,904.663,170.06,904.978,170.489z M902.388,170.585c-0.301,0.354-0.458,0.802-0.479,1.33l3.325-0.021
				c-0.096-1.247-0.651-1.859-1.674-1.853C903.081,170.045,902.69,170.223,902.388,170.585z"/>
			<path fill="#231915" d="M907.702,168.361l0.035,5.709l-0.191,0.001l-0.034-5.445c-0.381,0.458-0.851,0.772-1.41,0.937
				l-0.001-0.208c0.271-0.09,0.526-0.211,0.765-0.372c0.239-0.169,0.454-0.379,0.646-0.62L907.702,168.361z"/>
			<path fill="#231915" d="M912.346,170.444c0.266,0.365,0.422,0.9,0.458,1.596l-3.526,0.021c0.02,0.576,0.175,1.039,0.48,1.389
				s0.698,0.523,1.194,0.52c0.448-0.002,0.799-0.133,1.069-0.373c0.222-0.21,0.389-0.507,0.482-0.883l0.207-0.002
				c-0.093,0.417-0.274,0.745-0.529,0.995c-0.318,0.298-0.725,0.452-1.229,0.455c-0.567,0.004-1.017-0.201-1.355-0.6
				c-0.337-0.405-0.508-0.933-0.512-1.572c-0.004-0.6,0.152-1.104,0.478-1.514c0.341-0.449,0.796-0.669,1.363-0.673
				C911.559,169.8,912.031,170.015,912.346,170.444z M909.756,170.54c-0.302,0.354-0.459,0.802-0.479,1.33l3.326-0.021
				c-0.096-1.247-0.651-1.859-1.675-1.854C910.448,170,910.058,170.178,909.756,170.54z"/>
			<path fill="#231915" d="M916.768,168.626c0.272,0.254,0.419,0.58,0.422,0.988c0.002,0.319-0.085,0.593-0.251,0.825
				c-0.175,0.241-0.43,0.41-0.749,0.5v0.032c0.353,0.062,0.642,0.228,0.875,0.515c0.233,0.277,0.356,0.613,0.358,0.997
				c0.003,0.479-0.155,0.873-0.474,1.171c-0.342,0.313-0.828,0.477-1.452,0.48c-0.632,0.004-1.12-0.153-1.458-0.463
				c-0.321-0.294-0.483-0.686-0.486-1.165c-0.002-0.384,0.107-0.721,0.346-1.001c0.23-0.29,0.525-0.46,0.876-0.525v-0.032
				c-0.328-0.086-0.585-0.252-0.763-0.491c-0.177-0.23-0.259-0.502-0.261-0.821c-0.003-0.408,0.131-0.736,0.41-0.994
				c0.302-0.29,0.732-0.437,1.3-0.439C916.021,168.198,916.462,168.34,916.768,168.626z M914.171,171.496
				c-0.287,0.258-0.43,0.594-0.427,1.01c0.003,0.424,0.142,0.767,0.414,1.021c0.306,0.286,0.746,0.428,1.338,0.424
				c0.584-0.004,1.03-0.15,1.333-0.44c0.271-0.257,0.404-0.602,0.401-1.025c-0.003-0.416-0.148-0.75-0.438-1.004
				c-0.321-0.286-0.755-0.429-1.314-0.425C914.919,171.059,914.48,171.206,914.171,171.496z M914.281,168.784
				c-0.23,0.218-0.341,0.498-0.339,0.85c0.002,0.344,0.116,0.624,0.349,0.846c0.267,0.255,0.659,0.38,1.187,0.377
				c0.52-0.003,0.911-0.134,1.181-0.392c0.223-0.225,0.341-0.506,0.339-0.85c-0.002-0.352-0.124-0.631-0.349-0.846
				c-0.273-0.254-0.675-0.379-1.187-0.376C914.942,168.396,914.552,168.527,914.281,168.784z"/>
			<path fill="#231915" d="M921.749,168.274l0.001,0.184l-2.229,5.539l-0.224,0.002l2.236-5.53l-3.351,0.021l-0.001-0.192
				L921.749,168.274z"/>
		</g>
		<g clip-path="url(#SVGID_7_)">
			<path fill="#231915" d="M1441.07,154.803c0.466,0.332,0.732,0.779,0.8,1.322l-0.184,0.002c-0.067-0.48-0.31-0.871-0.727-1.172
				c-0.401-0.285-0.866-0.426-1.378-0.423c-0.768,0.005-1.381,0.279-1.842,0.843c-0.428,0.53-0.64,1.187-0.635,1.986
				c0.005,0.783,0.225,1.422,0.659,1.931c0.442,0.526,1.028,0.794,1.764,0.789c0.544-0.003,1.015-0.157,1.42-0.465
				c0.445-0.337,0.723-0.803,0.83-1.396l0.185-0.001c-0.116,0.656-0.408,1.169-0.886,1.541c-0.438,0.338-0.956,0.51-1.548,0.513
				c-0.791,0.005-1.433-0.279-1.915-0.853c-0.468-0.549-0.696-1.234-0.701-2.058c-0.006-0.84,0.223-1.545,0.683-2.107
				c0.492-0.611,1.154-0.91,1.985-0.915C1440.142,154.337,1440.637,154.485,1441.07,154.803z"/>
			<path fill="#231915" d="M1443.483,156.763c0.048,0.048,0.081,0.104,0.081,0.184c0.001,0.072-0.031,0.136-0.079,0.185
				c-0.047,0.049-0.11,0.08-0.183,0.08c-0.08,0.001-0.136-0.03-0.185-0.077c-0.057-0.049-0.08-0.112-0.081-0.185
				c0-0.08,0.022-0.136,0.079-0.184c0.048-0.057,0.104-0.081,0.184-0.082C1443.372,156.684,1443.436,156.708,1443.483,156.763z
				 M1443.502,159.689c0.048,0.048,0.08,0.104,0.081,0.184c0,0.072-0.031,0.136-0.079,0.184c-0.048,0.049-0.111,0.081-0.184,0.081
				c-0.08,0.001-0.136-0.031-0.184-0.078c-0.057-0.048-0.081-0.111-0.081-0.184c-0.001-0.08,0.022-0.136,0.079-0.184
				c0.047-0.058,0.103-0.081,0.183-0.082C1443.39,159.61,1443.453,159.634,1443.502,159.689z"/>
			<path fill="#231915" d="M1447.974,154.721c0.273,0.254,0.42,0.58,0.423,0.988c0.002,0.319-0.085,0.593-0.251,0.825
				c-0.176,0.241-0.431,0.411-0.749,0.501v0.032c0.353,0.061,0.642,0.228,0.874,0.514c0.234,0.278,0.356,0.613,0.359,0.997
				c0.003,0.479-0.155,0.873-0.474,1.171c-0.342,0.313-0.828,0.477-1.452,0.48c-0.632,0.004-1.12-0.153-1.458-0.463
				c-0.321-0.294-0.483-0.686-0.486-1.165c-0.003-0.384,0.106-0.72,0.345-1.001c0.231-0.289,0.525-0.459,0.877-0.525v-0.032
				c-0.329-0.085-0.586-0.252-0.763-0.491c-0.178-0.23-0.259-0.502-0.261-0.821c-0.003-0.408,0.131-0.736,0.409-0.994
				c0.303-0.29,0.733-0.436,1.301-0.439C1447.228,154.294,1447.669,154.435,1447.974,154.721z M1445.376,157.591
				c-0.285,0.258-0.428,0.594-0.425,1.01c0.002,0.424,0.142,0.767,0.414,1.021c0.306,0.287,0.746,0.428,1.338,0.424
				c0.584-0.004,1.03-0.149,1.333-0.439c0.271-0.258,0.403-0.603,0.401-1.026c-0.003-0.416-0.148-0.75-0.438-1.004
				c-0.321-0.286-0.754-0.428-1.313-0.425C1446.126,157.154,1445.688,157.301,1445.376,157.591z M1445.488,154.879
				c-0.23,0.218-0.342,0.499-0.339,0.851c0.002,0.344,0.116,0.623,0.35,0.845c0.266,0.255,0.657,0.38,1.185,0.377
				c0.52-0.003,0.912-0.134,1.182-0.391c0.223-0.226,0.341-0.507,0.339-0.851c-0.003-0.352-0.124-0.631-0.35-0.845
				c-0.272-0.255-0.674-0.38-1.186-0.377C1446.149,154.491,1445.759,154.622,1445.488,154.879z"/>
			<path fill="#231915" d="M1453.252,155.728l-0.2,0.001c-0.156-0.854-0.655-1.275-1.503-1.271c-0.552,0.004-0.981,0.286-1.29,0.855
				c-0.3,0.529-0.44,1.218-0.436,2.058c0.001,0.048,0.001,0.184,0.011,0.424h0.024c0.109-0.4,0.315-0.722,0.634-0.972
				c0.31-0.258,0.669-0.38,1.076-0.383c0.528-0.003,0.961,0.162,1.291,0.504c0.322,0.334,0.493,0.773,0.496,1.316
				c0.003,0.544-0.162,1.009-0.479,1.379c-0.333,0.369-0.765,0.557-1.292,0.56c-0.688,0.005-1.201-0.265-1.524-0.798
				c-0.282-0.47-0.422-1.142-0.428-2.021c-0.005-0.871,0.142-1.591,0.459-2.161c0.348-0.634,0.834-0.948,1.465-0.952
				C1452.508,154.261,1453.07,154.745,1453.252,155.728z M1450.446,157.119c-0.334,0.322-0.492,0.707-0.489,1.154
				c0.003,0.456,0.141,0.855,0.415,1.189c0.307,0.366,0.707,0.555,1.211,0.552c0.472-0.003,0.854-0.173,1.148-0.502
				c0.286-0.338,0.435-0.755,0.432-1.251c-0.003-0.495-0.157-0.886-0.447-1.188c-0.289-0.303-0.674-0.452-1.146-0.449
				C1451.139,156.628,1450.764,156.79,1450.446,157.119z"/>
			<path fill="#231915" d="M1465.477,154.292l2.465,5.486h0.017l2.389-5.516l0.352-0.003l0.035,5.709l-0.192,0.002l-0.034-5.541
				h-0.023l-2.413,5.556l-0.247,0.002l-2.481-5.526h-0.023l0.034,5.541l-0.192,0.002l-0.035-5.709L1465.477,154.292z"/>
		</g>
		<g clip-path="url(#SVGID_7_)">
			<path fill="#231915" d="M1472.483,156.585c0.049,0.048,0.08,0.104,0.081,0.184c0,0.072-0.03,0.136-0.079,0.184
				c-0.048,0.05-0.11,0.081-0.183,0.081c-0.08,0.001-0.137-0.03-0.185-0.078c-0.057-0.048-0.081-0.111-0.081-0.184
				c-0.001-0.08,0.022-0.136,0.079-0.184c0.047-0.057,0.103-0.081,0.183-0.082C1472.371,156.506,1472.435,156.53,1472.483,156.585z
				 M1472.501,159.511c0.05,0.049,0.081,0.104,0.081,0.185c0.001,0.071-0.03,0.136-0.078,0.184
				c-0.048,0.049-0.111,0.081-0.184,0.081c-0.08,0.001-0.136-0.031-0.184-0.078c-0.058-0.048-0.081-0.112-0.082-0.184
				c0-0.08,0.023-0.136,0.079-0.185c0.048-0.057,0.104-0.08,0.184-0.081C1472.39,159.433,1472.453,159.456,1472.501,159.511z"/>
			<path fill="#231915" d="M1477.339,154.221l0.001,0.192l-2.886,0.018l-0.217,2.463h0.032c0.158-0.217,0.365-0.386,0.637-0.507
				c0.247-0.114,0.511-0.171,0.782-0.173c0.544-0.003,0.985,0.153,1.322,0.479c0.354,0.342,0.533,0.819,0.537,1.436
				c0.003,0.544-0.17,1.001-0.521,1.371c-0.349,0.361-0.795,0.549-1.347,0.552c-0.48,0.003-0.881-0.131-1.211-0.385
				c-0.368-0.285-0.579-0.684-0.622-1.188l0.2-0.001c0.034,0.439,0.221,0.79,0.549,1.044c0.298,0.229,0.659,0.348,1.083,0.345
				c0.495-0.003,0.895-0.173,1.212-0.502c0.31-0.338,0.467-0.747,0.464-1.234c-0.004-0.56-0.166-0.999-0.479-1.301
				c-0.306-0.294-0.698-0.436-1.187-0.433c-0.312,0.002-0.6,0.084-0.87,0.246c-0.271,0.16-0.477,0.378-0.604,0.65l-0.2,0.002
				l0.253-3.057L1477.339,154.221z"/>
			<path fill="#231915" d="M1481.773,154.514c0.273,0.254,0.42,0.58,0.422,0.988c0.002,0.319-0.084,0.593-0.25,0.825
				c-0.176,0.241-0.431,0.41-0.749,0.5v0.032c0.352,0.062,0.641,0.228,0.874,0.515c0.234,0.277,0.356,0.613,0.358,0.997
				c0.003,0.479-0.154,0.873-0.473,1.171c-0.342,0.313-0.828,0.477-1.452,0.48c-0.632,0.004-1.12-0.153-1.458-0.463
				c-0.321-0.294-0.484-0.686-0.487-1.165c-0.002-0.384,0.107-0.721,0.346-1.001c0.23-0.29,0.524-0.46,0.877-0.525v-0.032
				c-0.329-0.086-0.586-0.252-0.763-0.491c-0.178-0.23-0.26-0.502-0.262-0.821c-0.002-0.408,0.132-0.736,0.41-0.994
				c0.302-0.29,0.732-0.438,1.3-0.44C1481.026,154.085,1481.468,154.228,1481.773,154.514z M1479.176,157.384
				c-0.285,0.258-0.428,0.594-0.426,1.01c0.003,0.424,0.142,0.767,0.415,1.021c0.306,0.286,0.746,0.428,1.338,0.424
				c0.584-0.004,1.03-0.15,1.333-0.44c0.27-0.257,0.403-0.602,0.4-1.025c-0.002-0.416-0.147-0.75-0.438-1.004
				c-0.322-0.286-0.755-0.429-1.314-0.425C1479.925,156.946,1479.486,157.094,1479.176,157.384z M1479.288,154.672
				c-0.231,0.218-0.342,0.498-0.34,0.85c0.003,0.344,0.116,0.623,0.351,0.846c0.265,0.255,0.657,0.38,1.185,0.377
				c0.52-0.003,0.911-0.134,1.182-0.392c0.222-0.226,0.341-0.506,0.338-0.85c-0.002-0.352-0.124-0.631-0.349-0.846
				c-0.273-0.254-0.674-0.379-1.186-0.376C1479.949,154.284,1479.558,154.415,1479.288,154.672z"/>
			<path fill="#231915" d="M1486.793,155.065c0.227,0.495,0.351,1.142,0.355,1.949c0.005,0.8-0.111,1.456-0.332,1.953
				c-0.307,0.674-0.809,1.021-1.513,1.025c-0.703,0.004-1.217-0.337-1.525-1.007c-0.228-0.494-0.343-1.142-0.348-1.949
				c-0.005-0.815,0.103-1.463,0.324-1.953c0.299-0.682,0.809-1.021,1.512-1.024C1485.971,154.055,1486.477,154.388,1486.793,155.065
				z M1483.931,155.171c-0.213,0.465-0.313,1.082-0.309,1.865c0.005,0.775,0.113,1.398,0.332,1.861
				c0.283,0.605,0.733,0.906,1.349,0.903c0.607-0.004,1.054-0.311,1.338-0.92c0.213-0.473,0.32-1.098,0.315-1.865
				c-0.005-0.775-0.12-1.398-0.339-1.861c-0.292-0.605-0.741-0.906-1.349-0.902C1484.653,154.255,1484.206,154.562,1483.931,155.171
				z"/>
		</g>
		<g clip-path="url(#SVGID_7_)">
			<path fill="#231915" d="M1495.949,154.105l2.187,3.113l2.146-3.14l0.248-0.002l-2.298,3.325l0.015,2.398l-0.192,0.001
				l-0.015-2.398l-2.339-3.296L1495.949,154.105z"/>
		</g>
		<g clip-path="url(#SVGID_7_)">
			<path fill="#231915" d="M1501.755,156.405c0.049,0.047,0.08,0.103,0.081,0.183c0,0.072-0.03,0.136-0.079,0.186
				c-0.048,0.048-0.111,0.079-0.184,0.08c-0.08,0-0.136-0.03-0.184-0.078c-0.057-0.049-0.081-0.112-0.081-0.185
				c-0.001-0.08,0.022-0.136,0.079-0.184c0.047-0.056,0.103-0.081,0.183-0.081C1501.643,156.325,1501.706,156.35,1501.755,156.405z
				 M1501.772,159.332c0.049,0.047,0.081,0.103,0.081,0.183c0.001,0.072-0.03,0.136-0.079,0.185c-0.047,0.048-0.11,0.08-0.183,0.081
				c-0.08,0-0.136-0.031-0.185-0.079c-0.057-0.048-0.08-0.111-0.081-0.184c0-0.08,0.022-0.136,0.079-0.184
				c0.048-0.057,0.104-0.081,0.184-0.081C1501.661,159.252,1501.725,159.275,1501.772,159.332z"/>
			<path fill="#231915" d="M1506.465,154.944c0.227,0.494,0.351,1.142,0.355,1.949c0.005,0.8-0.111,1.455-0.332,1.953
				c-0.308,0.674-0.809,1.021-1.513,1.024c-0.703,0.005-1.218-0.336-1.525-1.006c-0.228-0.495-0.343-1.142-0.348-1.949
				c-0.005-0.815,0.103-1.464,0.324-1.953c0.299-0.682,0.809-1.02,1.512-1.024C1505.643,153.935,1506.148,154.267,1506.465,154.944z
				 M1503.603,155.05c-0.213,0.465-0.313,1.082-0.309,1.865c0.005,0.775,0.113,1.398,0.332,1.861
				c0.283,0.605,0.732,0.906,1.348,0.902c0.607-0.003,1.055-0.31,1.339-0.919c0.213-0.473,0.32-1.098,0.315-1.865
				c-0.005-0.775-0.12-1.398-0.339-1.861c-0.292-0.605-0.742-0.906-1.35-0.903C1504.324,154.134,1503.878,154.44,1503.603,155.05z"
				/>
		</g>
		<g clip-path="url(#SVGID_7_)">
			<path fill="#231915" d="M1520.195,153.956l-2.679,2.447l3.065,3.26l-0.271,0.002l-2.938-3.133l-1.224,1.119l0.012,2.039
				l-0.192,0.001l-0.035-5.709l0.192-0.001l0.021,3.422l3.744-3.445L1520.195,153.956z"/>
		</g>
		<g clip-path="url(#SVGID_7_)">
			<path fill="#231915" d="M1521.731,156.282c0.048,0.047,0.081,0.103,0.081,0.183c0,0.072-0.031,0.136-0.079,0.186
				c-0.047,0.048-0.11,0.079-0.183,0.08c-0.08,0-0.136-0.03-0.185-0.078c-0.057-0.049-0.081-0.112-0.081-0.185
				c0-0.08,0.022-0.136,0.079-0.184c0.048-0.056,0.103-0.081,0.183-0.081C1521.619,156.202,1521.684,156.227,1521.731,156.282z
				 M1521.749,159.209c0.049,0.047,0.081,0.103,0.082,0.183c0,0.072-0.032,0.136-0.079,0.185c-0.048,0.048-0.111,0.08-0.184,0.081
				c-0.08,0-0.136-0.031-0.184-0.079c-0.058-0.048-0.081-0.111-0.081-0.184c-0.001-0.08,0.022-0.136,0.078-0.184
				c0.048-0.057,0.104-0.081,0.184-0.081C1521.638,159.129,1521.701,159.152,1521.749,159.209z"/>
			<path fill="#231915" d="M1526.441,154.821c0.227,0.494,0.351,1.142,0.355,1.949c0.005,0.8-0.111,1.455-0.332,1.953
				c-0.307,0.674-0.809,1.021-1.513,1.024c-0.703,0.005-1.217-0.336-1.525-1.006c-0.228-0.495-0.343-1.142-0.348-1.949
				c-0.005-0.815,0.103-1.464,0.324-1.953c0.3-0.682,0.809-1.02,1.512-1.024C1525.619,153.812,1526.126,154.144,1526.441,154.821z
				 M1523.579,154.927c-0.213,0.465-0.313,1.082-0.309,1.865c0.005,0.775,0.113,1.398,0.332,1.861
				c0.283,0.605,0.733,0.906,1.349,0.902c0.608-0.003,1.054-0.31,1.338-0.919c0.213-0.473,0.32-1.098,0.315-1.865
				c-0.005-0.775-0.12-1.398-0.339-1.861c-0.291-0.605-0.74-0.906-1.349-0.903C1524.302,154.011,1523.855,154.317,1523.579,154.927z
				"/>
		</g>
		<g clip-path="url(#SVGID_7_)">
			<path fill="#231915" d="M1438.198,169.974l0.23-1.521l0.192-0.001l-0.231,1.521l1.535-0.009l0.231-1.521l0.191-0.001l-0.23,1.521
				l0.982-0.006l-0.031,0.191l-0.982,0.007l-0.345,2.312l1.078-0.007l-0.031,0.192l-1.078,0.007l-0.23,1.497l-0.199,0.001
				l0.229-1.497l-1.527,0.01l-0.229,1.497l-0.2,0.001l0.23-1.497l-0.983,0.006l0.03-0.192l0.983-0.006l0.354-2.312l-1.087,0.007
				l0.03-0.192L1438.198,169.974z M1439.541,172.467l0.354-2.312l-1.535,0.01l-0.346,2.312L1439.541,172.467z"/>
			<path fill="#231915" d="M1445.256,169.313c0.228,0.495,0.352,1.142,0.356,1.949c0.005,0.8-0.111,1.456-0.332,1.953
				c-0.308,0.674-0.81,1.021-1.514,1.025c-0.703,0.004-1.217-0.337-1.524-1.007c-0.228-0.494-0.343-1.142-0.348-1.949
				c-0.005-0.815,0.102-1.463,0.323-1.953c0.3-0.682,0.81-1.02,1.513-1.023C1444.435,168.304,1444.94,168.636,1445.256,169.313z
				 M1442.395,169.419c-0.213,0.465-0.313,1.082-0.309,1.865c0.005,0.775,0.113,1.398,0.331,1.861
				c0.283,0.605,0.733,0.906,1.349,0.903c0.608-0.004,1.054-0.311,1.338-0.92c0.213-0.473,0.321-1.098,0.316-1.865
				c-0.005-0.775-0.12-1.398-0.339-1.861c-0.292-0.605-0.741-0.906-1.35-0.902C1443.116,168.503,1442.67,168.81,1442.395,169.419z"
				/>
			<path fill="#231915" d="M1450.056,169.284c0.228,0.494,0.352,1.142,0.356,1.949c0.005,0.8-0.111,1.455-0.332,1.953
				c-0.308,0.674-0.81,1.021-1.514,1.024c-0.703,0.005-1.217-0.336-1.524-1.006c-0.228-0.495-0.343-1.142-0.348-1.949
				c-0.005-0.815,0.102-1.464,0.323-1.953c0.3-0.682,0.81-1.02,1.513-1.024C1449.234,168.274,1449.74,168.606,1450.056,169.284z
				 M1447.194,169.39c-0.213,0.465-0.313,1.082-0.309,1.865c0.005,0.775,0.113,1.398,0.331,1.861
				c0.283,0.605,0.733,0.906,1.349,0.902c0.607-0.004,1.054-0.31,1.338-0.919c0.213-0.474,0.321-1.098,0.316-1.865
				c-0.005-0.775-0.12-1.399-0.339-1.861c-0.292-0.605-0.742-0.907-1.35-0.903C1447.916,168.474,1447.47,168.78,1447.194,169.39z"/>
			<path fill="#231915" d="M1455.114,169.709l-0.2,0.001c-0.156-0.854-0.655-1.275-1.503-1.27c-0.552,0.003-0.981,0.286-1.289,0.855
				c-0.301,0.529-0.441,1.218-0.437,2.058c0.001,0.048,0.002,0.184,0.011,0.423h0.024c0.11-0.399,0.315-0.722,0.634-0.972
				c0.31-0.258,0.67-0.38,1.077-0.383c0.528-0.003,0.961,0.162,1.291,0.504c0.321,0.334,0.492,0.773,0.495,1.316
				c0.004,0.544-0.161,1.009-0.479,1.379c-0.334,0.369-0.765,0.557-1.293,0.561c-0.688,0.004-1.2-0.266-1.523-0.799
				c-0.283-0.47-0.423-1.141-0.428-2.021c-0.006-0.871,0.142-1.592,0.458-2.161c0.348-0.634,0.833-0.949,1.465-0.953
				C1454.37,168.242,1454.933,168.727,1455.114,169.709z M1452.309,171.102c-0.334,0.322-0.492,0.707-0.489,1.154
				c0.003,0.456,0.142,0.854,0.416,1.188c0.306,0.366,0.706,0.556,1.21,0.553c0.472-0.003,0.854-0.174,1.148-0.503
				c0.286-0.338,0.435-0.755,0.432-1.251c-0.003-0.495-0.156-0.886-0.446-1.188c-0.29-0.303-0.675-0.452-1.146-0.449
				C1453.001,170.609,1452.626,170.772,1452.309,171.102z"/>
			<path fill="#231915" d="M1459.574,169.01c0.283,0.462,0.431,1.141,0.437,2.028c0.005,0.863-0.15,1.584-0.459,2.161
				c-0.348,0.626-0.842,0.949-1.466,0.953c-0.959,0.006-1.521-0.486-1.695-1.461l0.2-0.001c0.148,0.847,0.655,1.275,1.503,1.27
				c0.543-0.003,0.973-0.294,1.29-0.855c0.292-0.537,0.439-1.226,0.435-2.058c0-0.048-0.009-0.191-0.011-0.424h-0.016
				c-0.109,0.393-0.323,0.714-0.634,0.972c-0.318,0.25-0.685,0.381-1.085,0.383c-0.535,0.004-0.968-0.17-1.291-0.504
				c-0.33-0.334-0.491-0.773-0.495-1.316c-0.003-0.552,0.153-1.009,0.486-1.379c0.318-0.369,0.749-0.555,1.285-0.559
				C1458.737,168.216,1459.243,168.477,1459.574,169.01z M1456.911,168.905c-0.294,0.33-0.436,0.747-0.433,1.251
				c0.003,0.487,0.15,0.887,0.439,1.189c0.29,0.302,0.675,0.45,1.154,0.447c0.424-0.002,0.798-0.173,1.132-0.494
				c0.317-0.33,0.483-0.715,0.48-1.154c-0.003-0.464-0.141-0.854-0.414-1.188c-0.307-0.375-0.716-0.556-1.211-0.553
				C1457.579,168.406,1457.196,168.569,1456.911,168.905z"/>
			<path fill="#231915" d="M1464.481,168.181l0.036,5.82l-0.192,0.001l-0.007-1.063c-0.283,0.785-0.809,1.181-1.584,1.186
				c-0.592,0.004-1.049-0.218-1.371-0.655c-0.298-0.398-0.445-0.901-0.449-1.509c-0.004-0.608,0.138-1.104,0.438-1.506
				c0.325-0.458,0.779-0.685,1.355-0.688c0.783-0.005,1.313,0.385,1.598,1.174l-0.017-2.758L1464.481,168.181z M1461.506,170.565
				c-0.271,0.36-0.403,0.825-0.399,1.394c0.003,0.567,0.134,1.03,0.408,1.396c0.29,0.382,0.699,0.579,1.219,0.576
				c0.512-0.003,0.902-0.197,1.188-0.575c0.261-0.353,0.395-0.802,0.391-1.346l-0.001-0.111c-0.003-0.56-0.142-1.015-0.399-1.365
				c-0.299-0.391-0.699-0.579-1.203-0.576C1462.197,169.961,1461.79,170.164,1461.506,170.565z"/>
			<path fill="#231915" d="M1468.676,168.577c0.321,0.278,0.483,0.661,0.486,1.141c0.003,0.504-0.186,0.953-0.56,1.348
				c-0.159,0.161-0.549,0.458-1.178,0.91c-0.955,0.669-1.471,1.281-1.532,1.825l3.303-0.021l0.002,0.191l-3.519,0.021
				c-0.003-0.416,0.178-0.841,0.56-1.258c0.238-0.282,0.612-0.596,1.114-0.951c0.572-0.419,0.938-0.701,1.082-0.846
				c0.356-0.37,0.539-0.779,0.536-1.22c-0.003-0.416-0.149-0.75-0.43-0.996c-0.282-0.254-0.643-0.372-1.074-0.369
				c-0.464,0.003-0.831,0.148-1.101,0.454c-0.302,0.322-0.451,0.771-0.447,1.354l-0.191,0.001c-0.005-0.64,0.16-1.136,0.493-1.49
				c0.311-0.338,0.726-0.508,1.245-0.511C1467.945,168.159,1468.354,168.292,1468.676,168.577z"/>
		</g>
		<g clip-path="url(#SVGID_7_)">
			<path fill="#231915" d="M1071.571,154.792c0.466,0.332,0.732,0.779,0.8,1.322l-0.184,0.001c-0.067-0.479-0.311-0.87-0.727-1.171
				c-0.402-0.286-0.867-0.427-1.379-0.424c-0.768,0.005-1.381,0.28-1.842,0.843c-0.429,0.531-0.64,1.188-0.635,1.987
				c0.005,0.783,0.225,1.422,0.659,1.931c0.442,0.525,1.028,0.794,1.764,0.789c0.544-0.003,1.015-0.157,1.421-0.465
				c0.445-0.338,0.723-0.804,0.83-1.396l0.185-0.001c-0.116,0.655-0.408,1.169-0.886,1.54c-0.438,0.339-0.957,0.51-1.549,0.514
				c-0.791,0.005-1.433-0.279-1.915-0.853c-0.468-0.549-0.696-1.235-0.701-2.059c-0.006-0.84,0.223-1.544,0.683-2.106
				c0.492-0.611,1.154-0.911,1.985-0.916C1070.642,154.325,1071.138,154.475,1071.571,154.792z"/>
			<path fill="#231915" d="M1073.984,156.752c0.049,0.048,0.081,0.103,0.081,0.183c0.001,0.072-0.03,0.137-0.079,0.185
				c-0.047,0.049-0.11,0.081-0.183,0.081c-0.08,0.001-0.136-0.03-0.185-0.079c-0.057-0.047-0.08-0.11-0.081-0.183
				c0-0.08,0.022-0.136,0.079-0.185c0.048-0.056,0.104-0.08,0.184-0.081C1073.873,156.673,1073.937,156.696,1073.984,156.752z
				 M1074.003,159.678c0.049,0.049,0.08,0.104,0.081,0.184c0,0.071-0.03,0.137-0.079,0.185c-0.048,0.048-0.111,0.081-0.184,0.081
				c-0.08,0.001-0.136-0.031-0.184-0.079c-0.057-0.047-0.081-0.111-0.081-0.183c-0.001-0.08,0.022-0.136,0.079-0.186
				c0.047-0.056,0.103-0.079,0.183-0.08C1073.891,159.6,1073.954,159.622,1074.003,159.678z"/>
			<path fill="#231915" d="M1078.953,155.746l-0.2,0.001c-0.156-0.854-0.655-1.275-1.503-1.271c-0.552,0.004-0.981,0.286-1.29,0.855
				c-0.3,0.529-0.44,1.218-0.436,2.058c0,0.048,0.001,0.184,0.011,0.424h0.024c0.109-0.4,0.315-0.722,0.634-0.972
				c0.31-0.258,0.669-0.379,1.076-0.382c0.528-0.003,0.961,0.161,1.291,0.504c0.322,0.333,0.492,0.772,0.496,1.315
				c0.003,0.544-0.162,1.009-0.479,1.379c-0.333,0.369-0.765,0.557-1.292,0.56c-0.688,0.005-1.201-0.265-1.524-0.798
				c-0.282-0.47-0.422-1.142-0.428-2.021c-0.005-0.871,0.142-1.591,0.459-2.16c0.348-0.635,0.834-0.95,1.465-0.954
				C1078.209,154.278,1078.771,154.764,1078.953,155.746z M1076.147,157.138c-0.334,0.322-0.492,0.707-0.489,1.154
				c0.003,0.456,0.141,0.855,0.415,1.189c0.307,0.366,0.707,0.555,1.211,0.552c0.472-0.003,0.854-0.173,1.148-0.502
				c0.286-0.338,0.435-0.755,0.432-1.251c-0.003-0.495-0.157-0.886-0.447-1.188c-0.29-0.302-0.674-0.451-1.146-0.448
				C1076.84,156.646,1076.465,156.809,1076.147,157.138z"/>
			<path fill="#231915" d="M1083.413,155.046c0.283,0.463,0.431,1.142,0.437,2.029c0.005,0.863-0.151,1.584-0.459,2.162
				c-0.348,0.625-0.842,0.948-1.466,0.952c-0.959,0.006-1.521-0.486-1.695-1.461l0.199-0.002c0.149,0.847,0.656,1.275,1.504,1.271
				c0.543-0.003,0.973-0.294,1.29-0.855c0.292-0.537,0.439-1.226,0.435-2.058c-0.001-0.048-0.01-0.191-0.011-0.424h-0.016
				c-0.11,0.393-0.324,0.714-0.634,0.972c-0.318,0.25-0.686,0.381-1.086,0.383c-0.535,0.003-0.968-0.171-1.29-0.504
				c-0.329-0.334-0.492-0.773-0.495-1.316c-0.004-0.552,0.153-1.009,0.486-1.379c0.318-0.369,0.749-0.557,1.285-0.56
				C1082.577,154.252,1083.081,154.514,1083.413,155.046z M1080.75,154.942c-0.294,0.33-0.436,0.747-0.433,1.251
				c0.003,0.487,0.149,0.886,0.438,1.188c0.29,0.302,0.675,0.451,1.154,0.448c0.424-0.003,0.799-0.173,1.133-0.494
				c0.318-0.33,0.483-0.715,0.48-1.154c-0.003-0.464-0.142-0.854-0.415-1.189c-0.306-0.374-0.715-0.555-1.21-0.552
				C1081.418,154.443,1081.035,154.605,1080.75,154.942z"/>
			<path fill="#231915" d="M1095.978,154.281l2.465,5.486h0.017l2.387-5.517l0.353-0.002l0.035,5.709l-0.192,0.001l-0.034-5.541
				l-0.023,0.001l-2.412,5.556l-0.248,0.002l-2.48-5.526h-0.023l0.034,5.541l-0.192,0.001l-0.035-5.709L1095.978,154.281z"/>
		</g>
		<g clip-path="url(#SVGID_7_)">
			<path fill="#231915" d="M1102.983,156.573c0.048,0.048,0.08,0.104,0.081,0.184c0,0.072-0.031,0.136-0.079,0.185
				c-0.048,0.048-0.11,0.08-0.183,0.08c-0.08,0.001-0.137-0.03-0.185-0.078c-0.057-0.048-0.081-0.111-0.081-0.184
				c-0.001-0.08,0.022-0.136,0.079-0.185c0.047-0.056,0.103-0.08,0.183-0.081C1102.871,156.494,1102.935,156.518,1102.983,156.573z
				 M1103.001,159.5c0.048,0.048,0.081,0.104,0.081,0.184c0.001,0.072-0.031,0.136-0.078,0.184
				c-0.048,0.048-0.111,0.081-0.184,0.081c-0.08,0.001-0.136-0.031-0.184-0.079c-0.058-0.047-0.081-0.11-0.082-0.183
				c0-0.08,0.022-0.136,0.079-0.185c0.048-0.057,0.104-0.08,0.184-0.081C1102.89,159.421,1102.953,159.443,1103.001,159.5z"/>
			<path fill="#231915" d="M1107.693,155.112c0.227,0.495,0.351,1.142,0.355,1.949c0.005,0.8-0.111,1.456-0.332,1.953
				c-0.307,0.674-0.809,1.021-1.513,1.025c-0.703,0.004-1.217-0.336-1.525-1.007c-0.228-0.494-0.343-1.141-0.348-1.948
				c-0.005-0.815,0.103-1.464,0.324-1.954c0.299-0.681,0.809-1.02,1.512-1.023C1106.871,154.103,1107.377,154.435,1107.693,155.112z
				 M1104.831,155.218c-0.213,0.466-0.313,1.082-0.309,1.865c0.005,0.775,0.113,1.399,0.332,1.861
				c0.283,0.606,0.733,0.907,1.349,0.903c0.608-0.004,1.054-0.311,1.338-0.92c0.213-0.473,0.32-1.098,0.315-1.865
				c-0.005-0.775-0.12-1.398-0.339-1.861c-0.292-0.605-0.74-0.906-1.349-0.902C1105.554,154.303,1105.106,154.609,1104.831,155.218z
				"/>
		</g>
		<g clip-path="url(#SVGID_7_)">
			<path fill="#231915" d="M1116.849,154.152l2.187,3.113l2.146-3.14l0.248-0.001l-2.298,3.324l0.015,2.398l-0.192,0.001
				l-0.015-2.398l-2.339-3.296L1116.849,154.152z"/>
		</g>
		<g clip-path="url(#SVGID_7_)">
			<path fill="#231915" d="M1122.654,156.452c0.048,0.048,0.081,0.103,0.081,0.183c0.001,0.072-0.031,0.137-0.079,0.186
				c-0.047,0.048-0.11,0.08-0.183,0.08c-0.08,0.001-0.136-0.03-0.185-0.078c-0.057-0.048-0.08-0.111-0.081-0.184
				c0-0.08,0.022-0.136,0.079-0.185c0.048-0.056,0.103-0.08,0.183-0.081C1122.542,156.373,1122.606,156.396,1122.654,156.452z
				 M1122.672,159.379c0.049,0.048,0.081,0.103,0.082,0.183c0,0.072-0.032,0.137-0.079,0.185c-0.048,0.048-0.111,0.081-0.184,0.081
				c-0.08,0.001-0.136-0.031-0.184-0.079c-0.058-0.047-0.081-0.11-0.081-0.183c-0.001-0.08,0.022-0.136,0.078-0.185
				c0.048-0.057,0.104-0.08,0.184-0.081C1122.561,159.3,1122.624,159.322,1122.672,159.379z"/>
			<path fill="#231915" d="M1127.104,154.394c0.306,0.278,0.468,0.637,0.471,1.085c0.004,0.688-0.297,1.129-0.904,1.341
				c0.321,0.102,0.57,0.276,0.756,0.522c0.185,0.239,0.283,0.526,0.285,0.862c0.003,0.503-0.171,0.912-0.513,1.234
				c-0.342,0.314-0.78,0.477-1.316,0.48c-0.447,0.003-0.84-0.115-1.161-0.354c-0.426-0.316-0.66-0.787-0.704-1.427l0.184-0.001
				c0.035,0.567,0.246,0.99,0.632,1.275c0.289,0.215,0.642,0.323,1.049,0.321c0.488-0.003,0.887-0.149,1.188-0.432
				c0.302-0.289,0.452-0.65,0.449-1.098c-0.002-0.384-0.14-0.695-0.414-0.933c-0.272-0.238-0.633-0.356-1.064-0.354l-0.568,0.003
				l-0.001-0.191l0.496-0.003c0.456-0.003,0.807-0.117,1.054-0.335c0.237-0.217,0.363-0.521,0.361-0.913
				c-0.002-0.384-0.14-0.695-0.397-0.933c-0.28-0.255-0.642-0.372-1.089-0.37c-0.448,0.003-0.807,0.134-1.078,0.406
				c-0.27,0.258-0.436,0.619-0.488,1.074l-0.192,0.002c0.053-0.513,0.234-0.913,0.544-1.219c0.302-0.306,0.71-0.451,1.214-0.455
				C1126.391,153.982,1126.799,154.116,1127.104,154.394z"/>
			<path fill="#231915" d="M1131.912,154.371c0.322,0.278,0.483,0.661,0.486,1.141c0.004,0.504-0.186,0.954-0.559,1.348
				c-0.159,0.161-0.549,0.459-1.178,0.911c-0.955,0.669-1.471,1.28-1.532,1.824l3.303-0.021l0.001,0.191l-3.519,0.022
				c-0.002-0.416,0.179-0.842,0.56-1.259c0.239-0.281,0.613-0.596,1.114-0.951c0.573-0.419,0.939-0.701,1.082-0.846
				c0.357-0.37,0.539-0.778,0.536-1.219c-0.002-0.416-0.148-0.75-0.43-0.997c-0.281-0.254-0.642-0.372-1.073-0.369
				c-0.464,0.003-0.831,0.148-1.101,0.454c-0.302,0.322-0.452,0.771-0.448,1.354l-0.191,0.001c-0.004-0.64,0.161-1.136,0.494-1.49
				c0.311-0.338,0.726-0.508,1.245-0.511C1131.183,153.953,1131.591,154.086,1131.912,154.371z"/>
		</g>
		<g clip-path="url(#SVGID_7_)">
			<path fill="#231915" d="M1145.895,153.974l-2.679,2.447l3.065,3.26l-0.271,0.002l-2.938-3.133l-1.224,1.119l0.012,2.039
				l-0.192,0.001l-0.035-5.709l0.192-0.001l0.021,3.422l3.744-3.445L1145.895,153.974z"/>
		</g>
		<g clip-path="url(#SVGID_7_)">
			<path fill="#231915" d="M1147.431,156.3c0.048,0.047,0.081,0.103,0.081,0.183c0.001,0.072-0.031,0.136-0.079,0.185
				c-0.047,0.049-0.11,0.08-0.183,0.081c-0.08,0-0.136-0.03-0.185-0.079c-0.057-0.048-0.08-0.11-0.081-0.183
				c0-0.08,0.022-0.137,0.079-0.185c0.048-0.056,0.103-0.081,0.183-0.081C1147.318,156.22,1147.383,156.244,1147.431,156.3z
				 M1147.448,159.226c0.049,0.048,0.081,0.104,0.082,0.184c0,0.071-0.032,0.136-0.079,0.185c-0.048,0.048-0.111,0.08-0.184,0.081
				c-0.08,0-0.136-0.031-0.184-0.079c-0.058-0.048-0.081-0.111-0.081-0.183c-0.001-0.08,0.022-0.137,0.078-0.186
				c0.048-0.056,0.104-0.08,0.184-0.08C1147.337,159.146,1147.4,159.17,1147.448,159.226z"/>
			<path fill="#231915" d="M1152.14,154.839c0.227,0.495,0.351,1.142,0.355,1.949c0.005,0.8-0.111,1.456-0.331,1.953
				c-0.308,0.674-0.81,1.021-1.514,1.025c-0.703,0.004-1.217-0.337-1.524-1.007c-0.229-0.495-0.344-1.142-0.349-1.949
				c-0.005-0.815,0.103-1.464,0.324-1.953c0.3-0.682,0.81-1.021,1.513-1.024C1151.318,153.828,1151.824,154.161,1152.14,154.839z
				 M1149.278,154.944c-0.214,0.465-0.314,1.082-0.31,1.865c0.005,0.775,0.113,1.398,0.332,1.861
				c0.283,0.605,0.733,0.906,1.349,0.903c0.608-0.004,1.054-0.311,1.338-0.92c0.213-0.473,0.32-1.098,0.315-1.865
				c-0.005-0.775-0.12-1.398-0.338-1.861c-0.292-0.605-0.741-0.906-1.35-0.902C1150,154.028,1149.554,154.335,1149.278,154.944z"/>
		</g>
		<g clip-path="url(#SVGID_7_)">
			<path fill="#231915" d="M1068.698,169.969l0.23-1.521l0.192-0.001l-0.231,1.521l1.535-0.01l0.231-1.521l0.191-0.001l-0.23,1.521
				l0.983-0.006l-0.031,0.191l-0.983,0.006l-0.345,2.313l1.079-0.007l-0.031,0.192l-1.079,0.007l-0.23,1.496l-0.199,0.002
				l0.229-1.497l-1.527,0.01l-0.229,1.496l-0.2,0.002l0.23-1.497l-0.983,0.006l0.03-0.192l0.983-0.006l0.354-2.313l-1.087,0.007
				l0.03-0.191L1068.698,169.969z M1070.041,172.463l0.354-2.312l-1.535,0.009l-0.346,2.313L1070.041,172.463z"/>
			<path fill="#231915" d="M1075.757,169.31c0.227,0.494,0.352,1.142,0.356,1.949c0.005,0.8-0.111,1.455-0.332,1.953
				c-0.308,0.674-0.81,1.021-1.514,1.024c-0.703,0.005-1.217-0.336-1.524-1.006c-0.228-0.495-0.343-1.142-0.348-1.949
				c-0.005-0.815,0.102-1.464,0.323-1.953c0.3-0.682,0.81-1.021,1.513-1.025C1074.936,168.299,1075.441,168.632,1075.757,169.31z
				 M1072.896,169.415c-0.213,0.465-0.313,1.082-0.309,1.865c0.005,0.775,0.112,1.398,0.331,1.861
				c0.283,0.605,0.733,0.906,1.349,0.902c0.607-0.004,1.054-0.31,1.338-0.919c0.213-0.474,0.321-1.098,0.316-1.865
				c-0.005-0.775-0.12-1.399-0.339-1.861c-0.292-0.605-0.742-0.907-1.35-0.903C1073.617,168.499,1073.171,168.806,1072.896,169.415z
				"/>
			<path fill="#231915" d="M1080.557,169.279c0.227,0.495,0.352,1.142,0.356,1.949c0.005,0.8-0.111,1.456-0.332,1.953
				c-0.308,0.674-0.81,1.021-1.514,1.025c-0.703,0.004-1.217-0.336-1.524-1.006c-0.228-0.495-0.343-1.142-0.348-1.949
				c-0.005-0.815,0.102-1.464,0.323-1.953c0.3-0.682,0.81-1.021,1.513-1.025C1079.735,168.27,1080.241,168.602,1080.557,169.279z
				 M1077.695,169.386c-0.213,0.465-0.313,1.082-0.309,1.865c0.005,0.775,0.112,1.398,0.331,1.861
				c0.283,0.605,0.733,0.906,1.349,0.902c0.608-0.004,1.054-0.311,1.338-0.919c0.213-0.474,0.321-1.098,0.316-1.865
				c-0.005-0.775-0.12-1.399-0.339-1.861c-0.292-0.606-0.741-0.907-1.35-0.903C1078.417,168.47,1077.971,168.776,1077.695,169.386z"
				/>
			<path fill="#231915" d="M1084.786,170.174c0.307,0.238,0.484,0.589,0.543,1.067l-0.192,0.002
				c-0.059-0.416-0.221-0.719-0.478-0.925c-0.272-0.207-0.609-0.309-1.025-0.306c-0.503,0.003-0.902,0.197-1.203,0.6
				c-0.286,0.369-0.427,0.857-0.423,1.449c0.004,0.575,0.143,1.039,0.416,1.389c0.29,0.358,0.699,0.539,1.227,0.536
				c0.863-0.005,1.372-0.465,1.52-1.368l0.192-0.002c-0.077,0.497-0.26,0.882-0.554,1.155c-0.294,0.266-0.678,0.404-1.157,0.407
				c-0.592,0.004-1.057-0.201-1.379-0.615c-0.306-0.382-0.453-0.877-0.457-1.5c-0.004-0.632,0.146-1.152,0.463-1.57
				c0.332-0.45,0.787-0.669,1.354-0.673C1084.097,169.817,1084.481,169.936,1084.786,170.174z"/>
			<path fill="#231915" d="M1089.321,168.643c0.272,0.254,0.419,0.581,0.422,0.989c0.002,0.319-0.085,0.592-0.251,0.824
				c-0.175,0.241-0.43,0.411-0.749,0.501v0.032c0.353,0.062,0.642,0.228,0.875,0.514c0.233,0.278,0.356,0.613,0.358,0.997
				c0.003,0.479-0.154,0.873-0.474,1.171c-0.342,0.313-0.828,0.477-1.452,0.48c-0.632,0.004-1.12-0.153-1.458-0.462
				c-0.32-0.294-0.483-0.686-0.486-1.165c-0.002-0.384,0.108-0.721,0.346-1.002c0.23-0.289,0.525-0.459,0.876-0.524v-0.032
				c-0.328-0.086-0.585-0.252-0.763-0.491c-0.177-0.23-0.259-0.503-0.261-0.822c-0.003-0.408,0.131-0.736,0.41-0.993
				c0.302-0.29,0.732-0.438,1.3-0.441C1088.574,168.215,1089.016,168.356,1089.321,168.643z M1086.725,171.514
				c-0.287,0.257-0.43,0.593-0.427,1.009c0.003,0.424,0.142,0.768,0.414,1.021c0.306,0.286,0.746,0.427,1.338,0.423
				c0.584-0.003,1.03-0.149,1.333-0.439c0.271-0.258,0.404-0.603,0.401-1.026c-0.003-0.416-0.148-0.75-0.438-1.004
				c-0.321-0.286-0.755-0.428-1.314-0.425C1087.473,171.076,1087.034,171.224,1086.725,171.514z M1086.835,168.802
				c-0.23,0.217-0.341,0.498-0.339,0.85c0.002,0.344,0.116,0.622,0.349,0.846c0.267,0.254,0.659,0.38,1.187,0.376
				c0.52-0.003,0.911-0.133,1.181-0.391c0.223-0.226,0.341-0.506,0.339-0.85c-0.002-0.352-0.124-0.631-0.349-0.846
				c-0.273-0.254-0.675-0.38-1.187-0.377C1087.496,168.414,1087.105,168.544,1086.835,168.802z"/>
			<path fill="#231915" d="M1093.77,170.118c0.306,0.238,0.484,0.589,0.543,1.068l-0.192,0.001
				c-0.059-0.416-0.221-0.719-0.478-0.925c-0.272-0.206-0.609-0.308-1.025-0.306c-0.503,0.004-0.902,0.197-1.203,0.6
				c-0.286,0.369-0.427,0.858-0.423,1.45c0.004,0.575,0.143,1.038,0.417,1.388c0.289,0.358,0.698,0.54,1.226,0.536
				c0.863-0.005,1.372-0.464,1.52-1.368l0.191-0.001c-0.076,0.496-0.259,0.881-0.553,1.154c-0.294,0.266-0.678,0.404-1.157,0.407
				c-0.592,0.004-1.057-0.201-1.379-0.615c-0.306-0.382-0.453-0.877-0.457-1.5c-0.004-0.632,0.146-1.152,0.462-1.57
				c0.333-0.45,0.788-0.669,1.355-0.673C1093.08,169.762,1093.465,169.88,1093.77,170.118z"/>
			<path fill="#231915" d="M1098.305,168.587c0.272,0.255,0.419,0.581,0.422,0.989c0.002,0.319-0.084,0.592-0.251,0.824
				c-0.175,0.242-0.43,0.411-0.749,0.501v0.032c0.353,0.062,0.642,0.228,0.875,0.515c0.234,0.277,0.356,0.613,0.358,0.997
				c0.003,0.479-0.154,0.873-0.474,1.171c-0.342,0.313-0.828,0.477-1.452,0.48c-0.632,0.004-1.12-0.153-1.458-0.463
				c-0.32-0.294-0.483-0.686-0.486-1.165c-0.002-0.384,0.107-0.721,0.346-1.001c0.23-0.29,0.524-0.46,0.876-0.525v-0.032
				c-0.328-0.086-0.585-0.252-0.763-0.491c-0.177-0.23-0.259-0.502-0.261-0.821c-0.003-0.408,0.131-0.736,0.41-0.994
				c0.302-0.29,0.732-0.438,1.3-0.44C1097.558,168.159,1097.999,168.301,1098.305,168.587z M1095.707,171.458
				c-0.286,0.258-0.429,0.594-0.426,1.01c0.003,0.424,0.142,0.767,0.414,1.021c0.306,0.286,0.746,0.427,1.338,0.424
				c0.584-0.004,1.03-0.15,1.333-0.44c0.271-0.257,0.404-0.602,0.401-1.025c-0.003-0.416-0.148-0.75-0.438-1.005
				c-0.322-0.286-0.755-0.428-1.314-0.424C1096.456,171.021,1096.018,171.168,1095.707,171.458z M1095.819,168.746
				c-0.231,0.218-0.342,0.498-0.34,0.85c0.002,0.344,0.116,0.623,0.35,0.846c0.266,0.255,0.658,0.38,1.186,0.377
				c0.52-0.004,0.911-0.134,1.181-0.392c0.223-0.226,0.341-0.506,0.339-0.85c-0.002-0.352-0.124-0.631-0.349-0.846
				c-0.273-0.254-0.675-0.38-1.187-0.376C1096.479,168.358,1096.089,168.488,1095.819,168.746z"/>
		</g>
		<g clip-path="url(#SVGID_7_)">
			<path fill="#231915" d="M1265.429,154.766c0.467,0.332,0.732,0.779,0.801,1.322l-0.184,0.001
				c-0.067-0.479-0.311-0.87-0.728-1.171c-0.401-0.285-0.866-0.427-1.378-0.423c-0.768,0.005-1.382,0.279-1.842,0.843
				c-0.429,0.53-0.641,1.187-0.636,1.986c0.005,0.783,0.225,1.422,0.66,1.931c0.442,0.526,1.028,0.794,1.764,0.789
				c0.544-0.003,1.015-0.157,1.421-0.465c0.445-0.338,0.723-0.803,0.83-1.396l0.185-0.001c-0.116,0.656-0.409,1.169-0.886,1.54
				c-0.438,0.339-0.957,0.51-1.549,0.514c-0.791,0.005-1.433-0.279-1.916-0.853c-0.467-0.549-0.695-1.234-0.701-2.058
				c-0.005-0.84,0.224-1.545,0.684-2.107c0.491-0.611,1.153-0.91,1.984-0.915C1264.499,154.3,1264.995,154.448,1265.429,154.766z"/>
			<path fill="#231915" d="M1267.843,156.726c0.048,0.048,0.081,0.104,0.081,0.184c0.001,0.072-0.031,0.136-0.079,0.185
				c-0.047,0.048-0.11,0.08-0.183,0.08c-0.08,0.001-0.136-0.03-0.185-0.078c-0.057-0.048-0.08-0.111-0.081-0.184
				c0-0.08,0.022-0.136,0.079-0.185c0.048-0.056,0.103-0.08,0.183-0.081C1267.73,156.646,1267.795,156.67,1267.843,156.726z
				 M1267.86,159.652c0.049,0.048,0.081,0.104,0.082,0.184c0,0.072-0.032,0.136-0.079,0.184c-0.048,0.048-0.111,0.081-0.184,0.081
				c-0.08,0.001-0.136-0.031-0.184-0.079c-0.058-0.047-0.081-0.11-0.081-0.183c-0.001-0.08,0.022-0.136,0.078-0.185
				c0.048-0.057,0.104-0.08,0.184-0.081C1267.749,159.573,1267.812,159.596,1267.86,159.652z"/>
			<path fill="#231915" d="M1272.553,155.265c0.227,0.495,0.351,1.142,0.355,1.949c0.005,0.8-0.111,1.456-0.332,1.953
				c-0.307,0.674-0.809,1.021-1.513,1.025c-0.703,0.004-1.217-0.336-1.524-1.006c-0.229-0.495-0.344-1.142-0.349-1.949
				c-0.005-0.815,0.103-1.464,0.324-1.953c0.3-0.682,0.809-1.021,1.512-1.024C1271.73,154.256,1272.237,154.587,1272.553,155.265z
				 M1269.69,155.37c-0.213,0.466-0.313,1.082-0.309,1.865c0.005,0.775,0.113,1.399,0.332,1.861
				c0.283,0.606,0.733,0.907,1.349,0.903c0.608-0.004,1.054-0.311,1.338-0.92c0.213-0.473,0.32-1.098,0.315-1.865
				c-0.005-0.775-0.12-1.398-0.339-1.861c-0.291-0.605-0.74-0.906-1.349-0.902C1270.413,154.455,1269.967,154.762,1269.69,155.37z"
				/>
			<path fill="#231915" d="M1285.036,154.285l2.465,5.485h0.017l2.388-5.516l0.353-0.002l0.035,5.709l-0.192,0.001l-0.034-5.541
				h-0.023l-2.413,5.556l-0.248,0.002l-2.48-5.526l-0.023,0.001l0.034,5.541l-0.192,0.001l-0.035-5.709L1285.036,154.285z"/>
		</g>
		<g clip-path="url(#SVGID_7_)">
			<path fill="#231915" d="M1292.041,156.577c0.048,0.047,0.08,0.103,0.081,0.183c0,0.072-0.031,0.136-0.079,0.185
				s-0.11,0.08-0.183,0.081c-0.08,0-0.137-0.03-0.185-0.079c-0.057-0.048-0.081-0.111-0.081-0.184
				c-0.001-0.08,0.022-0.136,0.079-0.184c0.047-0.056,0.103-0.081,0.183-0.081C1291.929,156.497,1291.992,156.521,1292.041,156.577z
				 M1292.059,159.503c0.049,0.048,0.081,0.104,0.081,0.184c0.001,0.071-0.031,0.136-0.078,0.184
				c-0.048,0.049-0.111,0.081-0.184,0.082c-0.08,0-0.136-0.031-0.184-0.079c-0.058-0.048-0.081-0.112-0.082-0.184
				c0-0.08,0.023-0.136,0.079-0.185c0.048-0.056,0.104-0.08,0.184-0.08C1291.947,159.424,1292.011,159.447,1292.059,159.503z"/>
			<path fill="#231915" d="M1296.75,155.116c0.227,0.494,0.351,1.142,0.355,1.949c0.005,0.8-0.111,1.455-0.332,1.953
				c-0.307,0.674-0.809,1.021-1.513,1.024c-0.703,0.005-1.216-0.336-1.524-1.006c-0.228-0.495-0.343-1.142-0.348-1.949
				c-0.005-0.815,0.103-1.464,0.324-1.953c0.299-0.682,0.808-1.021,1.511-1.025C1295.928,154.105,1296.434,154.438,1296.75,155.116z
				 M1293.889,155.222c-0.213,0.465-0.313,1.082-0.309,1.865c0.005,0.775,0.113,1.398,0.332,1.861
				c0.283,0.605,0.732,0.906,1.348,0.902c0.608-0.004,1.054-0.31,1.338-0.919c0.213-0.474,0.32-1.098,0.315-1.865
				c-0.005-0.775-0.12-1.399-0.339-1.861c-0.292-0.605-0.74-0.907-1.349-0.903C1294.61,154.306,1294.164,154.612,1293.889,155.222z"
				/>
		</g>
		<g clip-path="url(#SVGID_7_)">
			<path fill="#231915" d="M1305.907,154.156l2.187,3.112l2.146-3.139l0.248-0.002l-2.298,3.325l0.015,2.398l-0.192,0.001
				l-0.015-2.398l-2.339-3.296L1305.907,154.156z"/>
		</g>
		<g clip-path="url(#SVGID_7_)">
			<path fill="#231915" d="M1311.713,156.455c0.048,0.048,0.081,0.104,0.081,0.184c0.001,0.072-0.031,0.136-0.079,0.184
				c-0.047,0.05-0.11,0.081-0.183,0.082c-0.08,0-0.136-0.031-0.185-0.079c-0.057-0.048-0.08-0.111-0.081-0.184
				c0-0.08,0.022-0.136,0.079-0.184c0.048-0.057,0.103-0.081,0.183-0.081C1311.601,156.376,1311.665,156.4,1311.713,156.455z
				 M1311.73,159.381c0.049,0.049,0.081,0.104,0.082,0.185c0,0.071-0.032,0.136-0.079,0.184c-0.048,0.049-0.111,0.081-0.184,0.082
				c-0.08,0-0.136-0.032-0.184-0.079c-0.058-0.048-0.081-0.112-0.081-0.184c-0.001-0.08,0.022-0.136,0.078-0.185
				c0.048-0.057,0.104-0.08,0.184-0.08C1311.619,159.303,1311.683,159.326,1311.73,159.381z"/>
			<path fill="#231915" d="M1316.423,154.995c0.227,0.494,0.351,1.141,0.355,1.948c0.005,0.8-0.111,1.456-0.331,1.954
				c-0.308,0.674-0.81,1.021-1.514,1.024c-0.703,0.005-1.217-0.336-1.524-1.006c-0.229-0.495-0.344-1.142-0.349-1.949
				c-0.005-0.815,0.103-1.464,0.324-1.953c0.3-0.682,0.81-1.021,1.513-1.025C1315.602,153.984,1316.107,154.317,1316.423,154.995z
				 M1313.562,155.101c-0.214,0.465-0.314,1.082-0.31,1.865c0.005,0.775,0.113,1.398,0.332,1.861
				c0.283,0.605,0.733,0.906,1.349,0.902c0.608-0.004,1.054-0.31,1.338-0.919c0.213-0.474,0.32-1.098,0.315-1.865
				c-0.005-0.775-0.12-1.399-0.338-1.861c-0.292-0.605-0.741-0.907-1.35-0.903C1314.283,154.185,1313.837,154.491,1313.562,155.101z
				"/>
		</g>
		<g clip-path="url(#SVGID_7_)">
			<path fill="#231915" d="M1330.154,154.007l-2.68,2.447l3.066,3.26l-0.271,0.001l-2.938-3.132l-1.224,1.119l0.013,2.039
				l-0.192,0.001l-0.035-5.709l0.192-0.001l0.021,3.422l3.745-3.445L1330.154,154.007z"/>
		</g>
		<g clip-path="url(#SVGID_7_)">
			<path fill="#231915" d="M1331.689,156.332c0.05,0.048,0.081,0.104,0.081,0.184c0.001,0.072-0.03,0.136-0.078,0.184
				c-0.048,0.05-0.111,0.081-0.184,0.082c-0.08,0-0.136-0.031-0.184-0.079c-0.058-0.048-0.081-0.111-0.082-0.184
				c0-0.08,0.023-0.136,0.079-0.184c0.048-0.057,0.104-0.081,0.184-0.081C1331.578,156.253,1331.642,156.277,1331.689,156.332z
				 M1331.708,159.258c0.049,0.049,0.08,0.104,0.081,0.185c0,0.071-0.03,0.136-0.079,0.184c-0.048,0.049-0.111,0.081-0.184,0.082
				c-0.08,0-0.136-0.032-0.184-0.079c-0.057-0.048-0.081-0.112-0.081-0.184c-0.001-0.08,0.022-0.136,0.079-0.185
				c0.047-0.057,0.103-0.08,0.183-0.08C1331.596,159.18,1331.659,159.203,1331.708,159.258z"/>
			<path fill="#231915" d="M1336.361,153.969l0.002,0.184l-2.229,5.539l-0.224,0.002l2.237-5.531l-3.35,0.021l-0.002-0.192
				L1336.361,153.969z"/>
			<path fill="#231915" d="M1340.688,154.846c0.227,0.494,0.351,1.141,0.355,1.948c0.006,0.8-0.11,1.456-0.331,1.954
				c-0.308,0.674-0.81,1.021-1.514,1.024c-0.703,0.005-1.217-0.336-1.524-1.006c-0.228-0.495-0.343-1.142-0.349-1.949
				c-0.005-0.815,0.103-1.464,0.324-1.953c0.3-0.682,0.81-1.021,1.513-1.025C1339.866,153.835,1340.372,154.168,1340.688,154.846z
				 M1337.826,154.951c-0.213,0.465-0.313,1.082-0.31,1.865c0.005,0.775,0.113,1.398,0.332,1.861
				c0.283,0.605,0.733,0.906,1.349,0.902c0.608-0.004,1.054-0.31,1.338-0.919c0.213-0.474,0.32-1.098,0.315-1.865
				c-0.004-0.775-0.119-1.399-0.338-1.861c-0.292-0.605-0.741-0.907-1.35-0.903C1338.548,154.035,1338.102,154.342,1337.826,154.951
				z"/>
		</g>
		<g clip-path="url(#SVGID_7_)">
			<path fill="#231915" d="M1262.557,169.967l0.23-1.521l0.192-0.001l-0.231,1.521l1.535-0.009l0.231-1.521l0.191-0.001l-0.23,1.521
				l0.983-0.006l-0.031,0.191l-0.983,0.007l-0.345,2.312l1.079-0.007l-0.031,0.192l-1.079,0.007l-0.23,1.497l-0.199,0.001
				l0.229-1.497l-1.527,0.01l-0.229,1.496l-0.2,0.002l0.23-1.497l-0.983,0.006l0.03-0.192l0.983-0.006l0.354-2.312l-1.087,0.007
				l0.03-0.192L1262.557,169.967z M1263.899,172.461l0.354-2.312l-1.535,0.009l-0.346,2.313L1263.899,172.461z"/>
			<path fill="#231915" d="M1269.578,168.404l0.001,0.184l-2.229,5.539l-0.224,0.002l2.236-5.531l-3.351,0.021l-0.001-0.192
				L1269.578,168.404z"/>
			<path fill="#231915" d="M1273.903,169.281c0.227,0.494,0.352,1.142,0.356,1.949c0.005,0.8-0.111,1.455-0.332,1.953
				c-0.308,0.674-0.81,1.021-1.514,1.024c-0.703,0.005-1.217-0.336-1.524-1.006c-0.228-0.495-0.343-1.142-0.348-1.949
				c-0.005-0.815,0.102-1.464,0.323-1.953c0.3-0.682,0.81-1.021,1.513-1.025C1273.082,168.271,1273.588,168.604,1273.903,169.281z
				 M1271.042,169.387c-0.213,0.465-0.313,1.082-0.309,1.865c0.005,0.775,0.112,1.398,0.331,1.861
				c0.283,0.605,0.733,0.906,1.349,0.902c0.607-0.003,1.054-0.31,1.338-0.919c0.213-0.473,0.321-1.098,0.316-1.865
				c-0.005-0.775-0.12-1.398-0.339-1.861c-0.292-0.605-0.742-0.906-1.35-0.903C1271.764,168.471,1271.317,168.777,1271.042,169.387z
				"/>
			<path fill="#231915" d="M1278.666,168.349l0.001,0.184l-2.229,5.539l-0.224,0.001l2.236-5.53l-3.351,0.021l-0.001-0.192
				L1278.666,168.349z"/>
			<path fill="#231915" d="M1282.991,169.226c0.227,0.494,0.352,1.141,0.356,1.948c0.005,0.8-0.111,1.456-0.332,1.954
				c-0.308,0.673-0.81,1.021-1.514,1.024c-0.703,0.005-1.217-0.336-1.524-1.006c-0.228-0.495-0.343-1.142-0.348-1.949
				c-0.005-0.815,0.102-1.464,0.323-1.953c0.3-0.682,0.81-1.021,1.513-1.025C1282.17,168.215,1282.676,168.547,1282.991,169.226z
				 M1280.13,169.331c-0.213,0.465-0.313,1.082-0.309,1.865c0.005,0.775,0.112,1.398,0.331,1.861
				c0.283,0.605,0.733,0.906,1.349,0.902c0.607-0.004,1.054-0.311,1.338-0.919c0.213-0.474,0.321-1.098,0.316-1.865
				c-0.005-0.775-0.12-1.399-0.339-1.861c-0.292-0.606-0.742-0.907-1.35-0.903C1280.852,168.415,1280.405,168.722,1280.13,169.331z"
				/>
			<path fill="#231915" d="M1287.754,168.292l0.001,0.184l-2.229,5.54l-0.224,0.001l2.236-5.53l-3.351,0.021l-0.001-0.192
				L1287.754,168.292z"/>
			<path fill="#231915" d="M1292.079,169.169c0.227,0.495,0.352,1.142,0.356,1.949c0.005,0.8-0.111,1.456-0.332,1.953
				c-0.308,0.674-0.81,1.021-1.514,1.025c-0.703,0.004-1.217-0.337-1.524-1.007c-0.228-0.494-0.343-1.142-0.348-1.949
				c-0.005-0.815,0.102-1.463,0.323-1.953c0.3-0.682,0.81-1.021,1.513-1.024C1291.258,168.158,1291.764,168.491,1292.079,169.169z
				 M1289.218,169.274c-0.213,0.466-0.313,1.082-0.309,1.865c0.005,0.775,0.112,1.399,0.331,1.861
				c0.283,0.606,0.733,0.907,1.349,0.903c0.607-0.004,1.054-0.311,1.338-0.92c0.213-0.473,0.321-1.098,0.316-1.865
				c-0.005-0.775-0.12-1.398-0.339-1.861c-0.292-0.605-0.742-0.906-1.35-0.902C1289.939,168.359,1289.493,168.666,1289.218,169.274z
				"/>
		</g>
		<g clip-path="url(#SVGID_7_)">
			<defs>
				<rect id="SVGID_10_" x="779.492" y="-147.276" width="841.89" height="595.276"/>
			</defs>
			<clipPath id="SVGID_11_">
				<use xlink:href="#SVGID_10_"  overflow="visible"/>
			</clipPath>
			<rect x="999.961" y="-17.707" clip-path="url(#SVGID_11_)" fill="#323479" width="6.114" height="25.971"/>
			<polygon clip-path="url(#SVGID_11_)" fill="#323479" points="1012.596,8.263 1012.596,-18.549 1013.18,-18.549 1029.133,-3.397 
				1029.133,-17.708 1034.769,-17.708 1034.769,9.248 1034.238,9.248 1018.231,-5.904 1018.231,8.263 			"/>
			<polygon clip-path="url(#SVGID_11_)" fill="#323479" points="1041.287,8.263 1041.287,-17.708 1057.207,-17.708 
				1057.207,-12.424 1047.365,-12.424 1047.365,-7.248 1056.164,-7.248 1056.164,-2 1047.365,-2 1047.365,8.263 			"/>
			<rect x="1063.728" y="-17.707" clip-path="url(#SVGID_11_)" fill="#323479" width="6.113" height="25.971"/>
			<polygon clip-path="url(#SVGID_11_)" fill="#323479" points="1076.361,8.263 1076.361,-18.549 1076.945,-18.549 1092.898,-3.397 
				1092.898,-17.708 1098.534,-17.708 1098.534,9.248 1098.005,9.248 1082.547,-5.904 1082.507,8.263 			"/>
			<rect x="1105.019" y="-17.707" clip-path="url(#SVGID_11_)" fill="#323479" width="6.114" height="25.971"/>
			<polygon clip-path="url(#SVGID_11_)" fill="#717174" points="1002.6,18.019 1001.77,18.019 1001.77,19.139 999.961,19.139 
				999.961,19.932 1001.77,19.932 1001.77,21.663 999.966,21.663 999.966,30.874 1000.797,30.874 1000.797,22.455 1001.77,22.455 
				1001.77,30.874 1002.6,30.874 1002.6,22.455 1003.614,22.455 1003.614,21.663 1002.6,21.663 1002.6,19.932 1003.614,19.932 
				1003.614,19.139 1002.6,19.139 			"/>
			<polygon clip-path="url(#SVGID_11_)" fill="#717174" points="1010.181,30.687 1008.26,27.262 1009.599,24.643 1009.641,22.668 
				1007.409,22.668 1008.936,19.193 1008.967,18.045 1004.395,18.045 1004.395,18.838 1008.136,18.838 1006.158,23.461 
				1008.81,23.461 1008.81,24.377 1007.776,26.399 1006.772,24.61 1006.039,24.984 1007.326,27.28 1005.578,30.701 1006.325,31.048 
				1007.811,28.143 1009.447,31.062 			"/>
			<polygon clip-path="url(#SVGID_11_)" fill="#717174" points="1005.026,19.895 1003.814,30.833 1004.641,30.916 1005.854,19.979 
							"/>
			<path clip-path="url(#SVGID_11_)" fill="#717174" d="M1036.921,18.045h-3.417v12.829h0.83V29.18l2.61-0.846l-0.815-3.471
				L1036.921,18.045z M1035.969,27.811l-1.635,0.531v-9.504h1.657l-0.704,6.069L1035.969,27.811z"/>
			<path clip-path="url(#SVGID_11_)" fill="#717174" d="M1043.425,30.965l0.609-0.54l-2.319-2.385l1.583-1.481l-0.582-0.567
				l-1.567,1.465l-2.384-2.45v-0.676h4.405v-6.285h-5.238v0.793h0.002V31.04l2.844-0.726l-0.214-0.768l-1.799,0.458v-3.831
				L1043.425,30.965z M1038.765,21.585h3.574v1.953h-3.574V21.585z M1042.339,20.792h-3.574v-1.953h3.574V20.792z"/>
			<polygon clip-path="url(#SVGID_11_)" fill="#717174" points="1070.19,19.078 1071.977,18.836 1071.86,18.049 1067.573,18.631 
				1067.689,19.417 1069.359,19.19 1069.359,21.848 1067.395,21.848 1067.395,22.641 1069.359,22.641 1069.359,30.875 
				1070.19,30.875 1070.19,22.641 1072.155,22.641 1072.155,21.848 1070.19,21.848 			"/>
			<rect x="1067.574" y="23.443" clip-path="url(#SVGID_11_)" fill="#717174" width="0.831" height="7.432"/>
			<rect x="1071.287" y="23.443" clip-path="url(#SVGID_11_)" fill="#717174" width="0.83" height="5.748"/>
			<polygon clip-path="url(#SVGID_11_)" fill="#717174" points="1075.382,21.758 1074.373,18.334 1073.571,18.549 1074.58,21.973 
							"/>
			<polygon clip-path="url(#SVGID_11_)" fill="#717174" points="1075.24,26.273 1074.375,22.973 1073.567,23.166 1074.433,26.466 
							"/>
			<polygon clip-path="url(#SVGID_11_)" fill="#717174" points="1077.541,27.554 1077.465,26.764 1076.729,26.829 1076.729,18.165 
				1075.898,18.165 1075.898,26.904 1072.961,27.166 1073.037,27.957 1075.898,27.701 1075.898,30.874 1076.729,30.874 
				1076.729,27.627 			"/>
			<polygon clip-path="url(#SVGID_11_)" fill="#717174" points="1104.391,25.649 1103.325,25.762 1103.325,20.277 1104.438,20.277 
				1104.438,19.484 1103.325,19.484 1103.325,18.171 1102.494,18.171 1102.494,19.484 1101.382,19.484 1101.382,20.277 
				1102.494,20.277 1102.494,25.851 1101.334,25.975 1101.428,26.764 1102.494,26.65 1102.494,29.916 1101.199,30.518 
				1101.563,31.231 1103.325,30.412 1103.325,26.561 1104.483,26.437 			"/>
			<polygon clip-path="url(#SVGID_11_)" fill="#717174" points="1111.133,30.587 1108.797,28.479 1110.925,26.552 1110.925,22.674 
				1108.611,22.674 1108.611,20.277 1110.905,20.277 1110.905,19.484 1108.611,19.484 1108.611,18.172 1107.78,18.172 
				1107.78,19.484 1105.442,19.484 1105.442,20.277 1107.78,20.277 1107.78,22.674 1105.442,22.674 1105.442,23.467 
				1110.094,23.467 1110.094,26.211 1108.192,27.932 1106.273,26.199 1106.273,24.066 1105.442,24.066 1105.442,26.541 
				1107.589,28.479 1105.259,30.587 1105.832,31.163 1108.193,29.025 1110.562,31.163 			"/>
		</g>
		<g clip-path="url(#SVGID_7_)">
			<defs>
				<polygon id="SVGID_12_" points="945.483,-3.114 958.647,-3.105 939.148,31.021 955.94,31.021 983.759,-17.665 937.166,-17.701 
									"/>
			</defs>
			<clipPath id="SVGID_13_">
				<use xlink:href="#SVGID_12_"  overflow="visible"/>
			</clipPath>
			
				<linearGradient id="SVGID_14_" gradientUnits="userSpaceOnUse" x1="4957.6992" y1="448" x2="4958.6992" y2="448" gradientTransform="matrix(46.5938 0 0 -46.5938 -230060.8906 20880.6777)">
				<stop  offset="0" style="stop-color:#323479"/>
				<stop  offset="0.5" style="stop-color:#296CB5"/>
				<stop  offset="1" style="stop-color:#2FBDBB"/>
				<a:midPointStop  offset="0" style="stop-color:#323479"/>
				<a:midPointStop  offset="0.5" style="stop-color:#323479"/>
				<a:midPointStop  offset="0.5" style="stop-color:#296CB5"/>
				<a:midPointStop  offset="0.5" style="stop-color:#296CB5"/>
				<a:midPointStop  offset="1" style="stop-color:#2FBDBB"/>
			</linearGradient>
			<rect x="937.166" y="-17.701" clip-path="url(#SVGID_13_)" fill="url(#SVGID_14_)" width="46.593" height="48.723"/>
		</g>
		<g clip-path="url(#SVGID_7_)">
			<defs>
				<rect id="SVGID_15_" x="779.492" y="-147.276" width="841.89" height="595.276"/>
			</defs>
			<clipPath id="SVGID_16_">
				<use xlink:href="#SVGID_15_"  overflow="visible"/>
			</clipPath>
			<polygon clip-path="url(#SVGID_16_)" fill="#2EBDBB" points="912.619,0.507 895.185,31.021 911.976,31.021 921.021,15.192 			"/>
			<polygon clip-path="url(#SVGID_16_)" fill="#2EBDBB" points="925.562,-22.145 917.18,-7.473 939.148,31.021 955.939,31.021 			
				"/>
			<rect x="948.569" y="308.812" clip-path="url(#SVGID_16_)" fill="#323479" width="4.414" height="18.751"/>
			<polygon clip-path="url(#SVGID_16_)" fill="#323479" points="957.69,327.563 957.69,308.205 958.111,308.205 969.63,319.145 
				969.63,308.812 973.698,308.812 973.698,328.274 973.315,328.274 961.76,317.334 961.76,327.563 			"/>
			<polygon clip-path="url(#SVGID_16_)" fill="#323479" points="978.404,327.563 978.404,308.812 989.897,308.812 989.897,312.627 
				982.793,312.627 982.793,316.365 989.146,316.365 989.146,320.154 982.793,320.154 982.793,327.563 			"/>
			<rect x="994.605" y="308.812" clip-path="url(#SVGID_16_)" fill="#323479" width="4.414" height="18.751"/>
			<polygon clip-path="url(#SVGID_16_)" fill="#323479" points="1003.727,327.563 1003.727,308.205 1004.147,308.205 
				1015.666,319.145 1015.666,308.812 1019.734,308.812 1019.734,328.274 1019.352,328.274 1008.191,317.334 1008.162,327.563 			
				"/>
			<rect x="1024.416" y="308.812" clip-path="url(#SVGID_16_)" fill="#323479" width="4.414" height="18.751"/>
			<polygon clip-path="url(#SVGID_16_)" fill="#717174" points="950.474,334.606 949.873,334.606 949.873,335.416 948.569,335.416 
				948.569,335.988 949.873,335.988 949.873,337.236 948.572,337.236 948.572,343.887 949.172,343.887 949.172,337.809 
				949.873,337.809 949.873,343.887 950.474,343.887 950.474,337.809 951.205,337.809 951.205,337.236 950.474,337.236 
				950.474,335.988 951.205,335.988 951.205,335.416 950.474,335.416 			"/>
			<polygon clip-path="url(#SVGID_16_)" fill="#717174" points="955.947,343.752 954.561,341.279 955.526,339.388 955.557,337.963 
				953.946,337.963 955.049,335.453 955.07,334.625 951.77,334.625 951.77,335.197 954.471,335.197 953.043,338.535 
				954.957,338.535 954.957,339.196 954.211,340.656 953.486,339.364 952.957,339.634 953.886,341.291 952.625,343.761 
				953.164,344.013 954.235,341.914 955.418,344.022 			"/>
			<polygon clip-path="url(#SVGID_16_)" fill="#717174" points="952.226,335.961 951.351,343.857 951.947,343.918 952.822,336.022 
							"/>
			<path clip-path="url(#SVGID_16_)" fill="#717174" d="M975.252,334.625h-2.467v9.262h0.601v-1.224l1.883-0.61l-0.588-2.507
				L975.252,334.625z M974.565,341.676l-1.18,0.383v-6.861h1.196l-0.51,4.381L974.565,341.676z"/>
			<path clip-path="url(#SVGID_16_)" fill="#717174" d="M979.947,343.953l0.441-0.39l-1.676-1.724l1.144-1.067l-0.421-0.41
				l-1.131,1.058l-1.721-1.769v-0.488h3.18v-4.537h-3.781v0.572h0.001v8.808l2.052-0.522l-0.152-0.555l-1.299,0.33v-2.764
				L979.947,343.953z M976.584,337.18h2.578v1.41h-2.578V337.18z M979.162,336.608h-2.578v-1.41h2.578V336.608z"/>
			<polygon clip-path="url(#SVGID_16_)" fill="#717174" points="999.271,335.371 1000.561,335.195 1000.478,334.628 
				997.382,335.048 997.466,335.615 998.672,335.452 998.672,337.37 997.252,337.37 997.252,337.942 998.672,337.942 
				998.672,343.888 999.271,343.888 999.271,337.942 1000.689,337.942 1000.689,337.37 999.271,337.37 			"/>
			<rect x="997.384" y="338.522" clip-path="url(#SVGID_16_)" fill="#717174" width="0.6" height="5.364"/>
			<rect x="1000.063" y="338.522" clip-path="url(#SVGID_16_)" fill="#717174" width="0.601" height="4.148"/>
			<polygon clip-path="url(#SVGID_16_)" fill="#717174" points="1003.02,337.306 1002.291,334.833 1001.713,334.989 
				1002.441,337.461 			"/>
			<polygon clip-path="url(#SVGID_16_)" fill="#717174" points="1002.918,340.565 1002.293,338.183 1001.711,338.322 
				1002.334,340.705 			"/>
			<polygon clip-path="url(#SVGID_16_)" fill="#717174" points="1004.578,341.491 1004.522,340.92 1003.992,340.968 
				1003.992,334.712 1003.392,334.712 1003.392,341.021 1001.271,341.211 1001.326,341.782 1003.392,341.596 1003.392,343.887 
				1003.992,343.887 1003.992,341.543 			"/>
			<polygon clip-path="url(#SVGID_16_)" fill="#717174" points="1023.963,340.115 1023.192,340.197 1023.192,336.236 
				1023.996,336.236 1023.996,335.664 1023.192,335.664 1023.192,334.717 1022.594,334.717 1022.594,335.664 1021.789,335.664 
				1021.789,336.236 1022.594,336.236 1022.594,340.261 1021.757,340.35 1021.823,340.92 1022.594,340.838 1022.594,343.195 
				1021.657,343.63 1021.922,344.145 1023.192,343.553 1023.192,340.773 1024.029,340.684 			"/>
			<polygon clip-path="url(#SVGID_16_)" fill="#717174" points="1028.83,343.679 1027.144,342.157 1028.681,340.766 
				1028.681,337.966 1027.011,337.966 1027.011,336.236 1028.666,336.236 1028.666,335.663 1027.011,335.663 1027.011,334.716 
				1026.409,334.716 1026.409,335.663 1024.722,335.663 1024.722,336.236 1026.409,336.236 1026.409,337.966 1024.722,337.966 
				1024.722,338.538 1028.08,338.538 1028.08,340.52 1026.707,341.762 1025.321,340.512 1025.321,338.971 1024.722,338.971 
				1024.722,340.758 1026.271,342.157 1024.59,343.679 1025.004,344.095 1026.707,342.551 1028.418,344.095 			"/>
		</g>
		<g clip-path="url(#SVGID_7_)">
			<defs>
				<polygon id="SVGID_17_" points="909.238,319.349 918.742,319.356 904.664,343.994 916.789,343.994 936.871,308.844 
					903.232,308.818 				"/>
			</defs>
			<clipPath id="SVGID_18_">
				<use xlink:href="#SVGID_17_"  overflow="visible"/>
			</clipPath>
			
				<linearGradient id="SVGID_19_" gradientUnits="userSpaceOnUse" x1="4922.4082" y1="448" x2="4923.4082" y2="448" gradientTransform="matrix(33.6389 0 0 -33.6389 -164681.1719 15396.6338)">
				<stop  offset="0" style="stop-color:#323479"/>
				<stop  offset="0.5" style="stop-color:#296CB5"/>
				<stop  offset="1" style="stop-color:#2FBDBB"/>
				<a:midPointStop  offset="0" style="stop-color:#323479"/>
				<a:midPointStop  offset="0.5" style="stop-color:#323479"/>
				<a:midPointStop  offset="0.5" style="stop-color:#296CB5"/>
				<a:midPointStop  offset="0.5" style="stop-color:#296CB5"/>
				<a:midPointStop  offset="1" style="stop-color:#2FBDBB"/>
			</linearGradient>
			<rect x="903.232" y="308.818" clip-path="url(#SVGID_18_)" fill="url(#SVGID_19_)" width="33.639" height="35.176"/>
		</g>
		<g clip-path="url(#SVGID_7_)">
			<defs>
				<rect id="SVGID_20_" x="779.492" y="-147.276" width="841.89" height="595.276"/>
			</defs>
			<clipPath id="SVGID_21_">
				<use xlink:href="#SVGID_20_"  overflow="visible"/>
			</clipPath>
			<polygon clip-path="url(#SVGID_21_)" fill="#2EBDBB" points="885.512,321.964 872.924,343.994 885.047,343.994 891.576,332.566 
							"/>
			<polygon clip-path="url(#SVGID_21_)" fill="#2EBDBB" points="894.856,305.609 888.804,316.202 904.664,343.994 916.787,343.994 
							"/>
			<rect x="1198.359" y="308.812" clip-path="url(#SVGID_21_)" fill="#3E3B3B" width="4.414" height="18.751"/>
			<polygon clip-path="url(#SVGID_21_)" fill="#3E3B3B" points="1207.479,327.563 1207.479,308.205 1207.901,308.205 
				1219.42,319.145 1219.42,308.812 1223.488,308.812 1223.488,328.274 1223.105,328.274 1211.549,317.334 1211.549,327.563 			"/>
			<polygon clip-path="url(#SVGID_21_)" fill="#3E3B3B" points="1228.195,327.563 1228.195,308.812 1239.688,308.812 
				1239.688,312.627 1232.584,312.627 1232.584,316.365 1238.936,316.365 1238.936,320.154 1232.584,320.154 1232.584,327.563 			
				"/>
			<rect x="1244.396" y="308.812" clip-path="url(#SVGID_21_)" fill="#3E3B3B" width="4.414" height="18.751"/>
			<polygon clip-path="url(#SVGID_21_)" fill="#3E3B3B" points="1253.516,327.563 1253.516,308.205 1253.938,308.205 
				1265.455,319.145 1265.455,308.812 1269.524,308.812 1269.524,328.274 1269.142,328.274 1257.981,317.334 1257.952,327.563 			
				"/>
			<rect x="1274.205" y="308.812" clip-path="url(#SVGID_21_)" fill="#3E3B3B" width="4.414" height="18.751"/>
			<polygon clip-path="url(#SVGID_21_)" fill="#3E3B3B" points="1200.264,334.606 1199.664,334.606 1199.664,335.416 
				1198.359,335.416 1198.359,335.988 1199.664,335.988 1199.664,337.236 1198.361,337.236 1198.361,343.887 1198.961,343.887 
				1198.961,337.809 1199.664,337.809 1199.664,343.887 1200.264,343.887 1200.264,337.809 1200.996,337.809 1200.996,337.236 
				1200.264,337.236 1200.264,335.988 1200.996,335.988 1200.996,335.416 1200.264,335.416 			"/>
			<polygon clip-path="url(#SVGID_21_)" fill="#3E3B3B" points="1205.736,343.752 1204.35,341.279 1205.316,339.388 
				1205.347,337.963 1203.736,337.963 1204.839,335.453 1204.86,334.625 1201.559,334.625 1201.559,335.197 1204.261,335.197 
				1202.834,338.535 1204.746,338.535 1204.746,339.196 1204,340.656 1203.276,339.364 1202.746,339.634 1203.676,341.291 
				1202.414,343.761 1202.953,344.013 1204.025,341.914 1205.207,344.022 			"/>
			<polygon clip-path="url(#SVGID_21_)" fill="#3E3B3B" points="1202.016,335.961 1201.14,343.857 1201.736,343.918 
				1202.612,336.022 			"/>
			<path clip-path="url(#SVGID_21_)" fill="#3E3B3B" d="M1225.041,334.625h-2.466v9.262h0.6v-1.224l1.884-0.61l-0.588-2.507
				L1225.041,334.625z M1224.354,341.676l-1.18,0.383v-6.861h1.198l-0.511,4.381L1224.354,341.676z"/>
			<path clip-path="url(#SVGID_21_)" fill="#3E3B3B" d="M1229.737,343.953l0.441-0.39l-1.677-1.724l1.145-1.067l-0.421-0.41
				l-1.132,1.058l-1.721-1.769v-0.488h3.18v-4.537h-3.781v0.572h0.002v8.808l2.052-0.522l-0.153-0.555l-1.299,0.33v-2.764
				L1229.737,343.953z M1226.373,337.18h2.58v1.41h-2.58V337.18z M1228.953,336.608h-2.58v-1.41h2.58V336.608z"/>
			<polygon clip-path="url(#SVGID_21_)" fill="#3E3B3B" points="1249.062,335.371 1250.351,335.195 1250.267,334.628 
				1247.172,335.048 1247.256,335.615 1248.461,335.452 1248.461,337.37 1247.043,337.37 1247.043,337.942 1248.461,337.942 
				1248.461,343.888 1249.062,343.888 1249.062,337.942 1250.479,337.942 1250.479,337.37 1249.062,337.37 			"/>
			<rect x="1247.173" y="338.522" clip-path="url(#SVGID_21_)" fill="#3E3B3B" width="0.601" height="5.364"/>
			<rect x="1249.853" y="338.522" clip-path="url(#SVGID_21_)" fill="#3E3B3B" width="0.601" height="4.148"/>
			<polygon clip-path="url(#SVGID_21_)" fill="#3E3B3B" points="1252.809,337.306 1252.08,334.833 1251.502,334.989 
				1252.23,337.461 			"/>
			<polygon clip-path="url(#SVGID_21_)" fill="#3E3B3B" points="1252.707,340.565 1252.082,338.183 1251.5,338.322 
				1252.123,340.705 			"/>
			<polygon clip-path="url(#SVGID_21_)" fill="#3E3B3B" points="1254.367,341.491 1254.312,340.92 1253.781,340.968 
				1253.781,334.712 1253.182,334.712 1253.182,341.021 1251.061,341.211 1251.116,341.782 1253.182,341.596 1253.182,343.887 
				1253.781,343.887 1253.781,341.543 			"/>
			<polygon clip-path="url(#SVGID_21_)" fill="#3E3B3B" points="1273.752,340.115 1272.982,340.197 1272.982,336.236 
				1273.785,336.236 1273.785,335.664 1272.982,335.664 1272.982,334.717 1272.384,334.717 1272.384,335.664 1271.58,335.664 
				1271.58,336.236 1272.384,336.236 1272.384,340.261 1271.547,340.35 1271.612,340.92 1272.384,340.838 1272.384,343.195 
				1271.447,343.63 1271.711,344.145 1272.982,343.553 1272.982,340.773 1273.818,340.684 			"/>
			<polygon clip-path="url(#SVGID_21_)" fill="#3E3B3B" points="1278.619,343.679 1276.933,342.157 1278.47,340.766 
				1278.47,337.966 1276.8,337.966 1276.8,336.236 1278.457,336.236 1278.457,335.663 1276.8,335.663 1276.8,334.716 
				1276.199,334.716 1276.199,335.663 1274.512,335.663 1274.512,336.236 1276.199,336.236 1276.199,337.966 1274.512,337.966 
				1274.512,338.538 1277.869,338.538 1277.869,340.52 1276.496,341.762 1275.11,340.512 1275.11,338.971 1274.512,338.971 
				1274.512,340.758 1276.061,342.157 1274.379,343.679 1274.793,344.095 1276.498,342.551 1278.207,344.095 			"/>
			<polygon clip-path="url(#SVGID_21_)" fill="#3E3B3B" points="1153.022,308.818 1159.028,319.348 1168.532,319.356 
				1154.455,343.994 1166.578,343.994 1186.662,308.843 			"/>
			<polygon clip-path="url(#SVGID_21_)" fill="#3E3B3B" points="1135.302,321.964 1122.715,343.994 1134.836,343.994 
				1141.366,332.566 			"/>
			<polygon clip-path="url(#SVGID_21_)" fill="#3E3B3B" points="1144.646,305.609 1138.594,316.202 1154.455,343.994 
				1166.577,343.994 			"/>
			<rect x="1447.42" y="308.812" clip-path="url(#SVGID_21_)" fill="#FFFFFF" width="4.414" height="18.751"/>
			<polygon clip-path="url(#SVGID_21_)" fill="#FFFFFF" points="1456.539,327.563 1456.539,308.205 1456.961,308.205 
				1468.479,319.145 1468.479,308.812 1472.549,308.812 1472.549,328.274 1472.166,328.274 1460.609,317.334 1460.609,327.563 			
				"/>
			<polygon clip-path="url(#SVGID_21_)" fill="#FFFFFF" points="1477.256,327.563 1477.256,308.812 1488.748,308.812 
				1488.748,312.627 1481.644,312.627 1481.644,316.365 1487.995,316.365 1487.995,320.154 1481.644,320.154 1481.644,327.563 			
				"/>
			<rect x="1493.455" y="308.812" clip-path="url(#SVGID_21_)" fill="#FFFFFF" width="4.414" height="18.751"/>
			<polygon clip-path="url(#SVGID_21_)" fill="#FFFFFF" points="1502.576,327.563 1502.576,308.205 1502.998,308.205 
				1514.516,319.145 1514.516,308.812 1518.584,308.812 1518.584,328.274 1518.201,328.274 1507.041,317.334 1507.013,327.563 			
				"/>
			<rect x="1523.267" y="308.812" clip-path="url(#SVGID_21_)" fill="#FFFFFF" width="4.414" height="18.751"/>
			<polygon clip-path="url(#SVGID_21_)" fill="#FFFFFF" points="1449.323,334.606 1448.724,334.606 1448.724,335.416 
				1447.42,335.416 1447.42,335.988 1448.724,335.988 1448.724,337.236 1447.422,337.236 1447.422,343.887 1448.021,343.887 
				1448.021,337.809 1448.724,337.809 1448.724,343.887 1449.323,343.887 1449.323,337.809 1450.056,337.809 1450.056,337.236 
				1449.323,337.236 1449.323,335.988 1450.056,335.988 1450.056,335.416 1449.323,335.416 			"/>
			<polygon clip-path="url(#SVGID_21_)" fill="#FFFFFF" points="1454.798,343.752 1453.409,341.279 1454.377,339.388 
				1454.406,337.963 1452.797,337.963 1453.898,335.453 1453.921,334.625 1450.619,334.625 1450.619,335.197 1453.32,335.197 
				1451.894,338.535 1453.807,338.535 1453.807,339.196 1453.062,340.656 1452.336,339.364 1451.807,339.634 1452.735,341.291 
				1451.475,343.761 1452.014,344.013 1453.086,341.914 1454.268,344.022 			"/>
			<polygon clip-path="url(#SVGID_21_)" fill="#FFFFFF" points="1451.075,335.961 1450.2,343.857 1450.797,343.918 
				1451.672,336.022 			"/>
			<path clip-path="url(#SVGID_21_)" fill="#FFFFFF" d="M1474.102,334.625h-2.466v9.262h0.599v-1.224l1.884-0.61l-0.588-2.507
				L1474.102,334.625z M1473.414,341.676l-1.18,0.383v-6.861h1.198l-0.511,4.381L1473.414,341.676z"/>
			<path clip-path="url(#SVGID_21_)" fill="#FFFFFF" d="M1478.798,343.953l0.44-0.39l-1.675-1.724l1.144-1.067l-0.422-0.41
				l-1.131,1.058l-1.721-1.769v-0.488h3.18v-4.537h-3.781v0.572h0.002v8.808l2.053-0.522l-0.154-0.555l-1.299,0.33v-2.764
				L1478.798,343.953z M1475.434,337.18h2.58v1.41h-2.58V337.18z M1478.014,336.608h-2.58v-1.41h2.58V336.608z"/>
			<polygon clip-path="url(#SVGID_21_)" fill="#FFFFFF" points="1498.121,335.371 1499.41,335.195 1499.326,334.628 
				1496.231,335.048 1496.315,335.615 1497.521,335.452 1497.521,337.37 1496.103,337.37 1496.103,337.942 1497.521,337.942 
				1497.521,343.888 1498.121,343.888 1498.121,337.942 1499.539,337.942 1499.539,337.37 1498.121,337.37 			"/>
			<rect x="1496.234" y="338.522" clip-path="url(#SVGID_21_)" fill="#FFFFFF" width="0.6" height="5.364"/>
			<rect x="1498.912" y="338.522" clip-path="url(#SVGID_21_)" fill="#FFFFFF" width="0.602" height="4.148"/>
			<polygon clip-path="url(#SVGID_21_)" fill="#FFFFFF" points="1501.869,337.306 1501.141,334.833 1500.562,334.989 
				1501.291,337.461 			"/>
			<polygon clip-path="url(#SVGID_21_)" fill="#FFFFFF" points="1501.769,340.565 1501.144,338.183 1500.561,338.322 
				1501.186,340.705 			"/>
			<polygon clip-path="url(#SVGID_21_)" fill="#FFFFFF" points="1503.429,341.491 1503.373,340.92 1502.844,340.968 
				1502.844,334.712 1502.242,334.712 1502.242,341.021 1500.123,341.211 1500.178,341.782 1502.242,341.596 1502.242,343.887 
				1502.844,343.887 1502.844,341.543 			"/>
			<polygon clip-path="url(#SVGID_21_)" fill="#FFFFFF" points="1522.813,340.115 1522.043,340.197 1522.043,336.236 
				1522.847,336.236 1522.847,335.664 1522.043,335.664 1522.043,334.717 1521.444,334.717 1521.444,335.664 1520.641,335.664 
				1520.641,336.236 1521.444,336.236 1521.444,340.261 1520.607,340.35 1520.674,340.92 1521.444,340.838 1521.444,343.195 
				1520.509,343.63 1520.772,344.145 1522.043,343.553 1522.043,340.773 1522.88,340.684 			"/>
			<polygon clip-path="url(#SVGID_21_)" fill="#FFFFFF" points="1527.681,343.679 1525.994,342.157 1527.53,340.766 
				1527.53,337.966 1525.86,337.966 1525.86,336.236 1527.518,336.236 1527.518,335.663 1525.86,335.663 1525.86,334.716 
				1525.261,334.716 1525.261,335.663 1523.572,335.663 1523.572,336.236 1525.261,336.236 1525.261,337.966 1523.572,337.966 
				1523.572,338.538 1526.931,338.538 1526.931,340.52 1525.558,341.762 1524.172,340.512 1524.172,338.971 1523.572,338.971 
				1523.572,340.758 1525.121,342.157 1523.44,343.679 1523.854,344.095 1525.559,342.551 1527.269,344.095 			"/>
			<polygon clip-path="url(#SVGID_21_)" fill="#FFFFFF" points="1402.082,308.818 1408.089,319.348 1417.593,319.356 
				1403.516,343.994 1415.638,343.994 1435.722,308.843 			"/>
			<polygon clip-path="url(#SVGID_21_)" fill="#FFFFFF" points="1384.361,321.964 1371.774,343.994 1383.897,343.994 
				1390.427,332.566 			"/>
			<polygon clip-path="url(#SVGID_21_)" fill="#FFFFFF" points="1393.705,305.609 1387.653,316.202 1403.515,343.994 
				1415.638,343.994 			"/>
			<rect x="1342.845" y="16.509" clip-path="url(#SVGID_21_)" fill="#323479" width="5.382" height="22.862"/>
			<polygon clip-path="url(#SVGID_21_)" fill="#323479" points="1353.966,39.372 1353.966,15.768 1354.479,15.768 1368.524,29.107 
				1368.524,16.51 1373.485,16.51 1373.485,40.239 1373.019,40.239 1358.928,26.9 1358.928,39.372 			"/>
			<polygon clip-path="url(#SVGID_21_)" fill="#323479" points="1379.225,39.372 1379.225,16.51 1393.238,16.51 1393.238,21.161 
				1384.575,21.161 1384.575,25.718 1392.321,25.718 1392.321,30.338 1384.575,30.338 1384.575,39.372 			"/>
			<rect x="1398.978" y="16.509" clip-path="url(#SVGID_21_)" fill="#323479" width="5.383" height="22.862"/>
			<polygon clip-path="url(#SVGID_21_)" fill="#323479" points="1410.1,39.372 1410.1,15.768 1410.613,15.768 1424.658,29.107 
				1424.658,16.51 1429.619,16.51 1429.619,40.239 1429.152,40.239 1415.543,26.9 1415.509,39.372 			"/>
			<rect x="1435.326" y="16.509" clip-path="url(#SVGID_21_)" fill="#323479" width="5.383" height="22.862"/>
			<polygon clip-path="url(#SVGID_21_)" fill="#717174" points="1345.166,47.96 1344.436,47.96 1344.436,48.946 1342.845,48.946 
				1342.845,49.645 1344.436,49.645 1344.436,51.167 1342.848,51.167 1342.848,59.277 1343.578,59.277 1343.578,51.865 
				1344.436,51.865 1344.436,59.277 1345.166,59.277 1345.166,51.865 1346.06,51.865 1346.06,51.167 1345.166,51.167 
				1345.166,49.645 1346.06,49.645 1346.06,48.946 1345.166,48.946 			"/>
			<polygon clip-path="url(#SVGID_21_)" fill="#717174" points="1351.84,59.112 1350.149,56.097 1351.326,53.792 1351.363,52.053 
				1349.4,52.053 1350.744,48.993 1350.771,47.983 1346.745,47.983 1346.745,48.681 1350.039,48.681 1348.299,52.752 
				1350.633,52.752 1350.633,53.557 1349.723,55.338 1348.84,53.762 1348.193,54.091 1349.326,56.112 1347.787,59.124 
				1348.445,59.429 1349.752,56.872 1351.193,59.441 			"/>
			<polygon clip-path="url(#SVGID_21_)" fill="#717174" points="1347.303,49.611 1346.235,59.24 1346.963,59.314 1348.03,49.685 			
				"/>
			<path clip-path="url(#SVGID_21_)" fill="#717174" d="M1375.379,47.983h-3.008v11.294h0.732v-1.492l2.296-0.744l-0.717-3.057
				L1375.379,47.983z M1374.541,56.581l-1.438,0.467v-8.366h1.459l-0.622,5.342L1374.541,56.581z"/>
			<path clip-path="url(#SVGID_21_)" fill="#717174" d="M1381.105,59.357l0.537-0.478l-2.043-2.099l1.395-1.304l-0.513-0.5
				l-1.38,1.29l-2.1-2.156v-0.596h3.879v-5.532h-4.611v0.697h0.002v10.741l2.503-0.638l-0.188-0.675l-1.584,0.401v-3.372
				L1381.105,59.357z M1377.002,51.098h3.146v1.721h-3.146V51.098z M1380.149,50.401h-3.146v-1.721h3.146V50.401z"/>
			<polygon clip-path="url(#SVGID_21_)" fill="#717174" points="1404.666,48.891 1406.238,48.678 1406.138,47.986 1402.362,48.497 
				1402.465,49.19 1403.936,48.991 1403.936,51.329 1402.205,51.329 1402.205,52.028 1403.936,52.028 1403.936,59.277 
				1404.666,59.277 1404.666,52.028 1406.396,52.028 1406.396,51.329 1404.666,51.329 			"/>
			<rect x="1402.364" y="52.735" clip-path="url(#SVGID_21_)" fill="#717174" width="0.731" height="6.542"/>
			<rect x="1405.633" y="52.735" clip-path="url(#SVGID_21_)" fill="#717174" width="0.73" height="5.059"/>
			<polygon clip-path="url(#SVGID_21_)" fill="#717174" points="1409.237,51.252 1408.35,48.238 1407.645,48.427 1408.532,51.441 
							"/>
			<polygon clip-path="url(#SVGID_21_)" fill="#717174" points="1409.112,55.226 1408.352,52.321 1407.641,52.491 1408.401,55.396 
							"/>
			<polygon clip-path="url(#SVGID_21_)" fill="#717174" points="1411.139,56.354 1411.071,55.658 1410.425,55.716 1410.425,48.088 
				1409.693,48.088 1409.693,55.782 1407.107,56.013 1407.175,56.708 1409.693,56.483 1409.693,59.277 1410.425,59.277 
				1410.425,56.417 			"/>
			<polygon clip-path="url(#SVGID_21_)" fill="#717174" points="1434.774,54.676 1433.838,54.777 1433.838,49.947 1434.815,49.947 
				1434.815,49.249 1433.838,49.249 1433.838,48.094 1433.105,48.094 1433.105,49.249 1432.127,49.249 1432.127,49.947 
				1433.105,49.947 1433.105,54.855 1432.086,54.963 1432.166,55.657 1433.105,55.557 1433.105,58.432 1431.965,58.962 
				1432.287,59.59 1433.838,58.868 1433.838,55.479 1434.856,55.37 			"/>
			<polygon clip-path="url(#SVGID_21_)" fill="#717174" points="1440.709,59.023 1438.652,57.167 1440.525,55.471 1440.525,52.057 
				1438.489,52.057 1438.489,49.948 1440.511,49.948 1440.511,49.25 1438.489,49.25 1438.489,48.094 1437.759,48.094 
				1437.759,49.25 1435.699,49.25 1435.699,49.948 1437.759,49.948 1437.759,52.057 1435.699,52.057 1435.699,52.754 
				1439.795,52.754 1439.795,55.17 1438.12,56.686 1436.432,55.161 1436.432,53.283 1435.699,53.283 1435.699,55.461 
				1437.59,57.167 1435.539,59.023 1436.043,59.53 1438.121,57.648 1440.207,59.53 			"/>
		</g>
		<g clip-path="url(#SVGID_7_)">
			<defs>
				<polygon id="SVGID_22_" points="1397.23,-31.783 1409.173,-31.774 1391.484,-0.815 1406.717,-0.815 1431.953,-44.983 
					1389.685,-45.014 				"/>
			</defs>
			<clipPath id="SVGID_23_">
				<use xlink:href="#SVGID_22_"  overflow="visible"/>
			</clipPath>
			
				<linearGradient id="SVGID_24_" gradientUnits="userSpaceOnUse" x1="4948.3232" y1="448" x2="4949.3232" y2="448" gradientTransform="matrix(42.2686 0 0 -42.2686 -207769 18913.4258)">
				<stop  offset="0" style="stop-color:#323479"/>
				<stop  offset="0.5" style="stop-color:#296CB5"/>
				<stop  offset="1" style="stop-color:#2FBDBB"/>
				<a:midPointStop  offset="0" style="stop-color:#323479"/>
				<a:midPointStop  offset="0.5" style="stop-color:#323479"/>
				<a:midPointStop  offset="0.5" style="stop-color:#296CB5"/>
				<a:midPointStop  offset="0.5" style="stop-color:#296CB5"/>
				<a:midPointStop  offset="1" style="stop-color:#2FBDBB"/>
			</linearGradient>
			<rect x="1389.685" y="-45.014" clip-path="url(#SVGID_23_)" fill="url(#SVGID_24_)" width="42.268" height="44.199"/>
		</g>
		<g clip-path="url(#SVGID_7_)">
			<defs>
				<rect id="SVGID_25_" x="779.492" y="-147.276" width="841.89" height="595.276"/>
			</defs>
			<clipPath id="SVGID_26_">
				<use xlink:href="#SVGID_25_"  overflow="visible"/>
			</clipPath>
			<polygon clip-path="url(#SVGID_26_)" fill="#2EBDBB" points="1367.418,-28.496 1351.602,-0.814 1366.834,-0.814 
				1375.039,-15.175 			"/>
			<polygon clip-path="url(#SVGID_26_)" fill="#2EBDBB" points="1379.158,-49.046 1371.555,-35.736 1391.482,-0.815 
				1406.715,-0.815 			"/>
		</g>
	</g>
</g>
</svg>
