<svg id="图层_1" data-name="图层 1" xmlns="http://www.w3.org/2000/svg" viewBox="0 0 141.73 36.9"><defs><style>.cls-1{fill:#3d3a39;}.cls-2{fill:#265dab;}</style></defs><title>未标题-1</title><path class="cls-1" d="M47.87,11.77H50.6L48.2,25.15H45.45Z"/><path class="cls-1" d="M64,11.75l-2.4,13.4H58.81L54.31,16l-1.66,9.18H49.89l2.42-13.4h2.74L59.57,21l1.66-9.2Z"/><path class="cls-1" d="M65.68,11.77h8.41l-.39,2.11H68l-.62,3.51h4.33l-.37,2.07H67l-1,5.69H63.26Z"/><path class="cls-1" d="M75.05,11.77h2.73l-2.4,13.38H72.63Z"/><path class="cls-1" d="M91.15,11.75l-2.4,13.4H86L81.49,16l-1.66,9.18H77.08l2.42-13.4h2.73L86.76,21l1.66-9.2Z"/><path class="cls-1" d="M92.87,11.77H95.6L93.2,25.15H90.45Z"/><path class="cls-1" d="M111.33,18.48c-.72,4-4,6.67-8.39,6.67H98.17l2.42-13.38h4.77C109.71,11.77,112.07,14.41,111.33,18.48ZM103.25,23a5.06,5.06,0,0,0,5.29-4.48c.49-2.78-.8-4.47-3.69-4.47h-1.91l-1.6,9Z"/><path class="cls-1" d="M119,22.6h-5.45l-1.34,2.55h-2.87l7.32-13.4h3.18l2.47,13.4h-2.88Zm-1.33-7.76-3,5.67h4Z"/><path class="cls-1" d="M123,11.77h10l-.39,2.11H129l-2,11.27h-2.75l2-11.27h-3.63Z"/><path class="cls-1" d="M138.41,22.6H133l-1.35,2.55h-2.87l7.32-13.4h3.18l2.48,13.4h-2.89Zm-1.32-7.76-3,5.67h4Z"/><path class="cls-2" d="M27.59,27.23a13,13,0,0,1-3.17,2.12L27,35.62A19.35,19.35,0,0,0,32.39,32Z"/><path class="cls-2" d="M23,25.89l.92,2.2.07.18a11.42,11.42,0,0,0,2.8-1.87l-1.83-1.83A9,9,0,0,1,23,25.89Z"/><path class="cls-1" d="M21.91,9.35l2.35-5.67a15,15,0,0,0-4.66-.92V8.89A8.77,8.77,0,0,1,21.91,9.35Z"/><path class="cls-1" d="M12.28,11.92,7.61,7.24a15.2,15.2,0,0,0-2.75,4.1L11,13.88A9.06,9.06,0,0,1,12.28,11.92Z"/><path class="cls-1" d="M15.06,9.79,11.26.61A19,19,0,0,0,6.08,4.08l7,7A8.94,8.94,0,0,1,15.06,9.79Z"/><path class="cls-1" d="M18.44,8.89V0a17.79,17.79,0,0,0-5.71,1.13l3.4,8.22A8.85,8.85,0,0,1,18.44,8.89Z"/><path class="cls-1" d="M28,17.26h9.64a18.61,18.61,0,0,0-1.19-6L27.51,15A8.77,8.77,0,0,1,28,17.26Z"/><path class="cls-1" d="M24.94,11.1,32.2,3.84A19.45,19.45,0,0,0,26.91.3L23,9.79A8.94,8.94,0,0,1,24.94,11.1Z"/><path class="cls-1" d="M25.76,11.92a8.71,8.71,0,0,1,1.31,2l7.08-2.94a16.52,16.52,0,0,0-3-4.44Z"/><path class="cls-1" d="M10.07,18.42H1.23a17.61,17.61,0,0,0,1.12,5.69l8.18-3.38A8.85,8.85,0,0,1,10.07,18.42Z"/><path class="cls-1" d="M16.13,26.33l-3.87,9.35a19.19,19.19,0,0,0,6.18,1.22V26.79A8.85,8.85,0,0,1,16.13,26.33Z"/><path class="cls-1" d="M19.6,26.79v6.77a15.7,15.7,0,0,0,4.91-1l-2.6-6.26A8.77,8.77,0,0,1,19.6,26.79Z"/><path class="cls-1" d="M25.76,23.76l4.9,4.9a16,16,0,0,0,2.81-4.21l-6.4-2.65A8.94,8.94,0,0,1,25.76,23.76Z"/><path class="cls-1" d="M13.1,24.57,6.71,31a18,18,0,0,0,4.89,3.27l3.46-8.35A9,9,0,0,1,13.1,24.57Z"/><path class="cls-1" d="M27.51,20.73,35.42,24a17.2,17.2,0,0,0,1.1-5.58H28A8.85,8.85,0,0,1,27.51,20.73Z"/><path class="cls-1" d="M12.28,23.76a9.31,9.31,0,0,1-1.31-2l-6.4,2.65a15.65,15.65,0,0,0,2.81,4.21Z"/><path class="cls-1" d="M10.52,15,1.21,11.11A18.74,18.74,0,0,0,0,17.26H10.07A9.12,9.12,0,0,1,10.52,15Z"/></svg>