<?xml version="1.0" encoding="utf-8"?>
<svg version="1.1" id="infini_console_logo" xmlns="http://www.w3.org/2000/svg" xmlns:xlink="http://www.w3.org/1999/xlink" x="0px" y="0px"
	 viewBox="0 0 226 72" style="enable-background:new 0 0 226 72;" xml:space="preserve">
<style type="text/css">
	.st0{fill:#231815;}
	.st1{fill:#4A02BC;}
</style>
	<g id="infini_logo_group">
	<g id="infini_logo_icon">
		<path id="infini_logo_icon_circle" class="st0" d="M36.3,69.2C18,69.2,3.1,54.3,3.1,36S18,2.8,36.3,2.8c18.3,0,33.2,14.9,33.2,33.2S54.6,69.2,36.3,69.2z
			 M36.3,5.8C19.7,5.8,6.1,19.3,6.1,36s13.6,30.2,30.2,30.2C53,66.2,66.5,52.7,66.5,36S53,5.8,36.3,5.8z"/>
	</g>
		<g>
		<path class="st0" d="M55.4,17.7c-2.8-3.1-6.3-5.5-10.3-6.9c0,0,0,0,0,0l-4.7,21.8l-16.8-12l-2.3,11.2l27.1,19L55.4,17.7"/>
			<path class="st0" d="M30.4,44.2L20.2,37l-3.6,16.7c2.8,3,6.3,5.4,10.3,6.8L30.4,44.2z"/>
	</g>
		<g>
		<g>
			<g>
				<path class="st0" d="M77.5,30.2l4.6-20.8h5.4L83,30.3L77.5,30.2z"/>
				<path class="st0" d="M87,30.3l4.7-21.5h0.5l11.6,12.3l2.6-11.4h5.1l-4.9,21.6h-0.4L94.6,19l-2.5,11.3H87z"/>
				<path class="st0" d="M111.2,30.6l4.6-20.8L130,9.8l-1,4.2l-8.7-0.1l-1,4.1l7.9,0.1l-1,4.2l-7.9-0.1l-1.8,8.2L111.2,30.6z"/>
				<path class="st0" d="M129,30.7l4.6-20.7h5.4l-4.6,20.8L129,30.7z"/>
				<path class="st0" d="M138.3,30.8L143,9.3h0.5l11.6,12.3l2.6-11.4h5.1l-4.9,21.6h-0.4l-11.1-12.3l-2.6,11.3H138.3z"/>
				<path class="st0" d="M162.4,31l4.6-20.8h5.4L167.8,31H162.4z"/>
			</g>
		</g>
			<g>
			<path class="st1" d="M178.7,47.4c-1.7,0-3.1,1.1-3.5,3l6.8,0.1C182,48.6,180.5,47.4,178.7,47.4z"/>
				<path class="st1" d="M155.7,47.4c-1.9,0-3.7,1.3-3.7,4.2c0,2.8,1.6,4.3,3.6,4.3s3.8-1.4,3.8-4.2
				C159.3,48.8,157.6,47.4,155.7,47.4z"/>
				<path class="st1" d="M108.7,47c-1.9,0-3.7,1.3-3.7,4.2c0,2.8,1.6,4.3,3.6,4.3s3.8-1.4,3.8-4.2C112.4,48.4,110.7,47,108.7,47z"/>
				<path class="st1" d="M86.3,35l-1.6,7.3c1.6-1.5,3.9-2.4,6.4-2.4c4,0,7.2,2.2,8.4,5.9h-4.2c-0.9-1.7-2.4-2.6-4.3-2.6
				c-3.1,0-5.4,2.3-5.5,5.9c0,3.7,2.2,6,5.4,6c1.9,0,3.5-0.9,4.4-2.6h4.2c-1.3,3.7-4.5,5.7-8.6,5.7c-4,0-7.2-2.3-8.5-5.8L80,62.7
				l111.2-0.1l6.2-27.6L86.3,35z M108.6,58.6c-4.1,0-7.2-2.9-7.2-7.4s3.3-7.3,7.4-7.3c4.1,0,7.3,2.9,7.3,7.4
				C116,55.8,112.7,58.6,108.6,58.6z M132.1,58.6h-3.7l0.1-7.9c0-2.3-1.2-3.6-3.1-3.6s-3.2,1.2-3.2,3.6l-0.1,7.9h-3.7l0.1-14.4h3.7
				v1.8c1-1.2,2.5-1.9,4.3-1.9c3.3,0,5.7,2.3,5.7,6.2L132.1,58.6z M140.8,58.8c-3.6,0-6-2.2-6.3-4.9h3.7c0.1,1.1,1.1,1.9,2.6,1.9
				c1.4,0,2.2-0.6,2.3-1.5c0-2.6-8.1-1-8.1-6.3c0-2.4,2.2-4.3,5.7-4.2c3.5,0,5.5,1.9,5.7,4.7h-3.5c-0.1-1.1-1-1.8-2.4-1.8
				c-1.3,0-2.1,0.5-2.1,1.4c0,2.6,8,1.1,8,6.3C146.5,57.1,144.3,58.9,140.8,58.8z M155.6,59.1c-4.1,0-7.2-2.9-7.2-7.4
				s3.3-7.3,7.4-7.3c4.1,0,7.3,2.9,7.3,7.4C163,56.1,159.8,59.1,155.6,59.1z M169.1,58.9h-3.7l0.2-19.2h3.7L169.1,58.9z M185.7,52.9
				l-10.5-0.1c0.2,2.2,1.6,3.3,3.5,3.3c1.5,0,2.4-0.8,2.9-1.7h3.9c-0.8,2.6-3.2,4.7-6.8,4.6c-4.2,0-7.1-2.9-7.1-7.4s3-7.3,7.2-7.3
				c4.1,0,7,2.9,7,7.1C185.8,52,185.8,52.5,185.7,52.9z"/>
		</g>
			<g>
			<polygon class="st1" points="201.7,62.7 194.1,62.7 200.4,35 207.9,35 			"/>
				<polygon class="st1" points="210.7,62.7 205.4,62.7 211.6,35 216.9,35 			"/>
				<polygon class="st1" points="217.6,62.7 214.8,62.7 221.1,35 223.9,35 			"/>
		</g>
	</g>
</g>
</svg>