<svg t="1692175045005" class="icon" viewBox="0 0 3214 1024" version="1.1" xmlns="http://www.w3.org/2000/svg" p-id="6185" width="200" height="200"><path d="M516.266667 984.177778C256 984.177778 44.088889 772.266667 44.088889 512S256 39.822222 516.266667 39.822222c260.266667 0 472.177778 211.911111 472.177777 472.177778S776.533333 984.177778 516.266667 984.177778z m0-901.688889C280.177778 82.488889 86.755556 274.488889 86.755556 512s193.422222 429.511111 429.511111 429.511111C753.777778 941.511111 945.777778 749.511111 945.777778 512S753.777778 82.488889 516.266667 82.488889z" fill="#ffffff" p-id="6186"></path><path d="M787.911111 251.733333c-39.822222-44.088889-89.6-78.222222-146.488889-98.133333l-66.844444 310.044444-238.933334-170.666666-32.711111 159.288889 385.422223 270.222222 99.555555-470.755556M432.355556 628.622222L287.288889 526.222222l-51.2 237.511111c39.822222 42.666667 89.6 76.8 146.488889 96.711111l49.777778-231.822222z" fill="#ffffff" p-id="6187"></path><path d="M1102.222222 429.511111l65.422222-295.822222h76.8L1180.444444 430.933333l-78.222222-1.422222zM1237.333333 430.933333l66.844445-305.777777h7.111111l164.977778 174.933333 36.977777-162.133333h72.533334l-69.688889 307.2h-5.688889L1345.422222 270.222222l-35.555555 160.711111H1237.333333zM1581.511111 435.2l65.422222-295.822222H1848.888889l-14.222222 59.733333-123.733334-1.422222-14.222222 58.311111 112.355556 1.422222-14.222223 59.733334-112.355555-1.422223-25.6 116.622223-75.377778 2.844444zM1834.666667 436.622222l65.422222-294.4h76.8l-65.422222 295.822222-76.8-1.422222zM1966.933333 438.044444L2033.777778 132.266667h7.111111l164.977778 174.933333 36.977777-162.133333h72.533334l-69.688889 307.2h-5.688889l-157.866667-174.933334-36.977777 160.711111h-78.222223zM2309.688889 440.888889l65.422222-295.822222h76.8L2386.488889 440.888889h-76.8z" fill="#ffffff" p-id="6188"></path><path d="M2541.511111 674.133333c-24.177778 0-44.088889 15.644444-49.777778 42.666667l96.711111 1.422222c0-27.022222-21.333333-44.088889-46.933333-44.088889zM2214.4 674.133333c-27.022222 0-52.622222 18.488889-52.622222 59.733334 0 39.822222 22.755556 61.155556 51.2 61.155555s54.044444-19.911111 54.044444-59.733333c-1.422222-41.244444-25.6-61.155556-52.622222-61.155556zM1545.955556 668.444444c-27.022222 0-52.622222 18.488889-52.622223 59.733334 0 39.822222 22.755556 61.155556 51.2 61.155555s54.044444-19.911111 54.044445-59.733333c0-41.244444-24.177778-61.155556-52.622222-61.155556z" fill="#ffffff" p-id="6189"></path><path d="M1227.377778 497.777778l-22.755556 103.822222c22.755556-21.333333 55.466667-34.133333 91.022222-34.133333 56.888889 0 102.4 31.288889 119.466667 83.911111h-59.733333c-12.8-24.177778-34.133333-36.977778-61.155556-36.977778-44.088889 0-76.8 32.711111-78.222222 83.911111 0 52.622222 31.288889 85.333333 76.8 85.333333 27.022222 0 49.777778-12.8 62.577778-36.977777h59.733333c-18.488889 52.622222-64 81.066667-122.311111 81.066666-56.888889 0-102.4-32.711111-120.888889-82.488889L1137.777778 891.733333l1581.511111-1.422222 88.177778-392.533333H1227.377778z m317.155555 335.644444c-58.311111 0-102.4-41.244444-102.4-105.244444s46.933333-103.822222 105.244445-103.822222c58.311111 0 103.822222 41.244444 103.822222 105.244444-1.422222 64-48.355556 103.822222-106.666667 103.822222z m334.222223 0h-52.622223l1.422223-112.355555c0-32.711111-17.066667-51.2-44.088889-51.2s-45.511111 17.066667-45.511111 51.2l-1.422223 112.355555h-52.622222l1.422222-204.8h52.622223V654.222222c14.222222-17.066667 35.555556-27.022222 61.155555-27.022222 46.933333 0 81.066667 32.711111 81.066667 88.177778l-1.422222 118.044444z m123.733333 2.844445c-51.2 0-85.333333-31.288889-89.6-69.688889h52.622222c1.422222 15.644444 15.644444 27.022222 36.977778 27.022222 19.911111 0 31.288889-8.533333 32.711111-21.333333 0-36.977778-115.2-14.222222-115.2-89.6 0-34.133333 31.288889-61.155556 81.066667-59.733334 49.777778 0 78.222222 27.022222 81.066666 66.844445h-49.777777c-1.422222-15.644444-14.222222-25.6-34.133334-25.6-18.488889 0-29.866667 7.111111-29.866666 19.911111 0 36.977778 113.777778 15.644444 113.777777 89.6 1.422222 38.4-29.866667 64-79.644444 62.577778z m210.488889 4.266666c-58.311111 0-102.4-41.244444-102.4-105.244444s46.933333-103.822222 105.244444-103.822222c58.311111 0 103.822222 41.244444 103.822222 105.244444-1.422222 61.155556-46.933333 103.822222-106.666666 103.822222z m192-2.844444h-52.622222l2.844444-273.066667h52.622222l-2.844444 273.066667z m236.088889-85.333333l-149.333334-1.422223c2.844444 31.288889 22.755556 46.933333 49.777778 46.933334 21.333333 0 34.133333-11.377778 41.244445-24.177778h55.466666c-11.377778 36.977778-45.511111 66.844444-96.711111 65.422222-59.733333 0-100.977778-41.244444-100.977778-105.244444s42.666667-103.822222 102.4-103.822223c58.311111 0 99.555556 41.244444 99.555556 100.977778 0 8.533333 0 15.644444-1.422222 21.333334z" fill="#ffffff" p-id="6190"></path><path d="M2868.622222 891.733333h-108.088889l89.6-393.955555h106.666667zM2996.622222 891.733333h-75.377778l88.177778-393.955555h75.377778zM3094.755556 891.733333h-39.822223l89.6-393.955555h39.822223z" fill="#ffffff" p-id="6191"></path></svg>