<svg id="图层_1" data-name="图层 1" xmlns="http://www.w3.org/2000/svg" viewBox="0 0 276.15 71.92"><defs><style>.cls-1{fill:#3d3a39;}.cls-2{fill:#265dab;}</style></defs><path class="cls-1" d="M91.36,55.89h2V65.7h-2Z"/><path class="cls-1" d="M105.14,55.87V65.7h-2L98.72,59V65.7h-2V55.87h2l4.46,6.75V55.87Z"/><path class="cls-1" d="M108.56,55.89h6.06v1.58h-4.09V60h3.14v1.56h-3.14V65.7h-2Z"/><path class="cls-1" d="M117.49,55.89h2V65.7h-2Z"/><path class="cls-1" d="M131.27,55.87V65.7h-2L124.85,59V65.7h-2V55.87h2l4.46,6.75V55.87Z"/><path class="cls-1" d="M134.69,55.89h2V65.7h-2Z"/><path class="cls-1" d="M153.51,60.81c0,3-2,4.89-5.18,4.89H144.9V55.89h3.43C151.47,55.89,153.51,57.83,153.51,60.81ZM148.26,64a2.94,2.94,0,0,0,3.24-3.22,3,3,0,0,0-3.24-3.27h-1.39V64Z"/><path class="cls-1" d="M162.48,63.83h-3.91l-.65,1.87h-2.06l3.53-9.83h2.29l3.53,9.83h-2.08Zm-1.95-5.68-1.42,4.1H162Z"/><path class="cls-1" d="M167.49,55.89h7.2v1.58h-2.62V65.7h-2V57.47h-2.61Z"/><path class="cls-1" d="M183.62,63.83h-3.91l-.65,1.87H177l3.53-9.83h2.29l3.53,9.83h-2.08Zm-2-5.68-1.42,4.1h2.84Z"/><path class="cls-1" d="M197.58,61.93h-1.64V65.7h-2V55.89h3.61c2.36,0,3.55,1.33,3.55,3C201.13,60.41,200.11,61.93,197.58,61.93Zm-.08-1.59c1.11,0,1.6-.55,1.6-1.42s-.49-1.43-1.6-1.43h-1.56v2.85Z"/><path class="cls-1" d="M206,55.89v8.25h3.24V65.7H204V55.89Z"/><path class="cls-1" d="M217.94,63.83H214l-.65,1.87h-2.07l3.53-9.83h2.29l3.53,9.83h-2.08ZM216,58.15l-1.42,4.1h2.84Z"/><path class="cls-1" d="M223,55.89h7.2v1.58h-2.61V65.7h-2V57.47H223Z"/><path class="cls-1" d="M233.06,55.89h6.06v1.58H235V60h3.14v1.56H235V65.7h-2Z"/><path class="cls-1" d="M246.55,65.8a5,5,0,1,1,5-5A4.93,4.93,0,0,1,246.55,65.8Zm0-1.76a3,3,0,0,0,3-3.28,3,3,0,1,0-6,0A3,3,0,0,0,246.55,64Z"/><path class="cls-1" d="M258.19,55.89c2.37,0,3.55,1.36,3.55,3a2.83,2.83,0,0,1-2.24,2.83l2.35,4h-2.28l-2.16-3.82h-.93V65.7h-2V55.89Zm-.07,1.63h-1.64V60.4h1.64c1.1,0,1.59-.58,1.59-1.46S259.22,57.52,258.12,57.52Z"/><path class="cls-1" d="M265,55.89h2.24l3.12,7.29,3.12-7.29h2.22V65.7h-2V59.32L271.1,65.7h-1.49L267,59.32V65.7h-2Z"/><rect class="cls-1" x="187.08" y="15.31" width="7.84" height="2.75"/><polygon class="cls-1" points="187.69 47.58 186.48 45.11 189.63 43.57 189.63 12.16 192.38 12.16 192.38 45.29 187.69 47.58"/><rect class="cls-1" x="187.06" y="32.4" width="7.89" height="2.75" transform="translate(-2.57 21.48) rotate(-6.39)"/><rect class="cls-1" x="92.12" y="15.31" width="9.25" height="2.75"/><rect class="cls-1" x="96.38" y="12.66" width="2.75" height="34.11"/><polygon class="cls-1" points="94.56 46.77 91.81 46.77 91.81 22 101.37 22 101.37 24.75 94.56 24.75 94.56 46.77"/><polygon class="cls-1" points="108.52 47.37 106.05 46.16 114.2 29.46 114.2 27.43 107.33 27.43 112.46 15.16 103.35 15.16 103.35 12.41 115.25 12.41 115.25 15.65 111.46 24.67 116.95 24.67 116.95 30.09 108.52 47.37"/><rect class="cls-1" x="111.37" y="29.56" width="2.75" height="18.29" transform="translate(-4.92 57.79) rotate(-28.16)"/><rect class="cls-1" x="89.87" y="30.88" width="29.18" height="2.75" transform="translate(61.37 132.74) rotate(-83.95)"/><path class="cls-1" d="M127,46.77h-2.75V12.41h9.33l-2,18.39,2.12,9.44L127,42.51Zm0-31.61V39.6l3.43-1.17L128.74,31l1.75-15.79Z"/><polygon class="cls-1" points="135.44 47.63 135.44 13.78 138.19 13.78 138.19 44.04 142.34 42.93 143.05 45.59 135.44 47.63"/><polygon class="cls-1" points="149.34 29.73 136.82 29.73 136.82 26.98 146.59 26.98 146.59 15.16 135.44 15.16 135.44 12.41 149.34 12.41 149.34 29.73"/><rect class="cls-1" x="137.42" y="19.69" width="10.55" height="2.75"/><rect class="cls-1" x="142.25" y="28.94" width="2.75" height="20.02" transform="translate(11.85 108.09) rotate(-42.86)"/><rect class="cls-1" x="142.92" y="35.51" width="6.64" height="2.75" transform="translate(15.94 112.84) rotate(-44.4)"/><rect class="cls-1" x="220.45" y="12.3" width="24.68" height="2.75"/><rect class="cls-1" x="220.45" y="35.85" width="24.68" height="2.75"/><polygon class="cls-1" points="226.3 32.81 221.91 28.42 221.91 18.75 224.67 18.75 224.67 27.28 228.25 30.86 226.3 32.81"/><polygon class="cls-1" points="239.48 32.81 237.54 30.86 241.12 27.28 241.12 18.75 243.87 18.75 243.87 28.42 239.48 32.81"/><rect class="cls-1" x="231.42" y="13.82" width="2.75" height="32.81"/><polygon class="cls-1" points="276.15 26.25 252.19 26.25 252.19 16.85 257.1 11.66 259.1 13.56 254.94 17.95 254.94 23.5 273.39 23.5 273.39 17.19 276.15 17.19 276.15 26.25"/><path class="cls-1" d="M271.57,46.67H252.19V29.17h23.89V41.9ZM255,43.92h15.43l2.95-3.12V31.93H255Z"/><path class="cls-2" d="M53.79,53.07a24.88,24.88,0,0,1-6.2,4.14l5.07,12.23a38.09,38.09,0,0,0,10.48-7Z"/><path class="cls-2" d="M44.8,50.46l1.78,4.29.14.36a22.5,22.5,0,0,0,5.45-3.65L48.62,47.9A17.72,17.72,0,0,1,44.8,50.46Z"/><path class="cls-1" d="M42.71,18.22l4.58-11a29.14,29.14,0,0,0-9.08-1.8V17.32A17.2,17.2,0,0,1,42.71,18.22Z"/><path class="cls-1" d="M24,23.23l-9.13-9.12a30.6,30.6,0,0,0-5.35,8l11.92,4.94A17.36,17.36,0,0,1,24,23.23Z"/><path class="cls-1" d="M29.36,19.08,22,1.19A37,37,0,0,0,11.85,8L25.54,21.63A17.32,17.32,0,0,1,29.36,19.08Z"/><path class="cls-1" d="M36,17.32V0A34.59,34.59,0,0,0,24.81,2.2l6.63,16A17.28,17.28,0,0,1,36,17.32Z"/><path class="cls-1" d="M54.52,33.64H73.31A36.08,36.08,0,0,0,71,21.94L53.63,29.13A17.27,17.27,0,0,1,54.52,33.64Z"/><path class="cls-1" d="M48.62,21.63,62.77,7.49A37.4,37.4,0,0,0,52.46.59L44.8,19.08A17.32,17.32,0,0,1,48.62,21.63Z"/><path class="cls-1" d="M50.21,23.23a17.36,17.36,0,0,1,2.56,3.82l13.8-5.72a32.62,32.62,0,0,0-5.79-8.67Z"/><path class="cls-1" d="M19.63,35.9H2.39A34.62,34.62,0,0,0,4.59,47l15.94-6.6A17.28,17.28,0,0,1,19.63,35.9Z"/><path class="cls-1" d="M31.44,51.32,23.9,69.54A36.79,36.79,0,0,0,36,71.92V52.21A17.27,17.27,0,0,1,31.44,51.32Z"/><path class="cls-1" d="M38.21,52.21V65.42a30.66,30.66,0,0,0,9.56-1.89L42.71,51.32A17.19,17.19,0,0,1,38.21,52.21Z"/><path class="cls-1" d="M50.21,46.31l9.56,9.56a31.26,31.26,0,0,0,5.48-8.21L52.77,42.49A17.36,17.36,0,0,1,50.21,46.31Z"/><path class="cls-1" d="M25.54,47.9,13.07,60.37a35.26,35.26,0,0,0,9.54,6.38l6.75-16.29A17.72,17.72,0,0,1,25.54,47.9Z"/><path class="cls-1" d="M53.63,40.4,69,46.79A34.23,34.23,0,0,0,71.19,35.9H54.52A17.27,17.27,0,0,1,53.63,40.4Z"/><path class="cls-1" d="M24,46.31a17.36,17.36,0,0,1-2.56-3.82L8.9,47.66a31.09,31.09,0,0,0,5.48,8.21Z"/><path class="cls-1" d="M20.51,29.18,2.35,21.66A37.14,37.14,0,0,0,0,33.64H19.63A17.38,17.38,0,0,1,20.51,29.18Z"/><rect class="cls-1" x="156.11" y="20.36" width="13.75" height="2.75"/><rect class="cls-1" x="161.2" y="11.97" width="2.75" height="19.07"/><polygon class="cls-1" points="181.32 17.73 171.72 17.73 171.72 12.66 174.48 12.66 174.48 14.97 181.32 14.97 181.32 17.73"/><polygon class="cls-1" points="179.98 46.9 172.91 37.67 172.91 17.18 175.66 17.18 175.66 36.73 182.16 45.22 179.98 46.9"/><polygon class="cls-1" points="173.4 46.9 171.21 45.22 177.71 36.73 177.71 17.18 180.47 17.18 180.47 37.67 173.4 46.9"/><polygon class="cls-1" points="195.09 47.48 193.54 45.21 195.73 43.71 195.73 13.02 198.49 13.02 198.49 45.16 195.09 47.48"/><polygon class="cls-1" points="213.9 23.74 197.7 23.74 197.7 20.99 211.14 20.99 211.14 14.77 195.71 14.77 195.71 12.02 213.9 12.02 213.9 23.74"/><rect class="cls-1" x="199.87" y="28.54" width="13.96" height="2.75"/><rect class="cls-1" x="205.63" y="25.32" width="2.75" height="9.62"/><path class="cls-1" d="M210.31,47H200.12V34.44l13.78.15V44Zm-7.43-2.76h6.43l1.83-1.52V37.31l-8.26-.09Z"/><polygon class="cls-1" points="167.62 47.09 157.38 41.39 157.38 31.96 160.14 31.96 160.14 39.77 168.96 44.68 167.62 47.09"/><polygon class="cls-1" points="157.5 47.11 156.25 44.66 165.89 39.74 165.89 31.96 168.64 31.96 168.64 41.43 157.5 47.11"/><rect class="cls-1" x="155.71" y="33.05" width="13.75" height="2.75"/><polygon class="cls-1" points="159.04 20.16 156.3 17.91 156.3 12.96 159.06 12.96 159.06 16.61 160.78 18.03 159.04 20.16"/><polygon class="cls-1" points="165.94 20.16 164.19 18.03 165.92 16.61 165.92 12.96 168.67 12.96 168.67 17.91 165.94 20.16"/><polygon class="cls-1" points="157.47 31.29 155.79 29.1 157.46 27.83 157.46 24.13 160.21 24.13 160.21 29.19 157.47 31.29"/><polygon class="cls-1" points="168.11 31.29 165.37 29.19 165.37 24.13 168.12 24.13 168.12 27.83 169.78 29.1 168.11 31.29"/></svg>