<?xml version="1.0" encoding="utf-8"?>
<!-- Generator: Adobe Illustrator 27.0.0, SVG Export Plug-In . SVG Version: 6.00 Build 0)  -->
<svg version="1.1" id="图层_1" xmlns="http://www.w3.org/2000/svg" xmlns:xlink="http://www.w3.org/1999/xlink" x="0px" y="0px"
	 viewBox="0 0 64 64" style="enable-background:new 0 0 64 64;" xml:space="preserve">
<style type="text/css">
	.st0{fill:#01A2E0;}
	.st1{fill:#B9D9EB;}
</style>
<g>
	<path class="st0" d="M58,24.5c-1,0-2,0.9-2,2C56,42.7,42.7,56,26.5,56c-1,0-2,0.9-2,2c0,1,0.9,2,2,2C45,59.9,60,44.9,60,26.5
		C60,25.4,59.2,24.5,58,24.5z"/>
	<path class="st1" d="M46.1,37.2c1.9-3.1,3.8-7.2,3.4-13C48.7,12.2,37.9,3.1,27.7,4c-4.1,0.3-8.2,3.7-7.9,9.5c0.2,2.5,1.4,4,3.4,5.2
		c1.9,1.1,4.4,1.8,7.2,2.6c3.4,1,7.3,2,10.4,4.3C44.4,28.3,46.9,31.4,46.1,37.2z"/>
	<path class="st0" d="M7.4,16.2c-1.9,3.1-3.8,7.2-3.4,13c0.8,12,11.6,21.1,21.9,20.1c4-0.3,8.1-3.7,7.8-9.5c-0.2-2.5-1.4-4-3.4-5.2
		c-1.9-1.1-4.4-1.8-7.2-2.6c-3.4-1-7.3-2-10.4-4.3C9.1,25.1,6.6,22,7.4,16.2z"/>
</g>
</svg>
