<?xml version="1.0" encoding="utf-8"?>
<!-- Generator: Adobe Illustrator 27.0.0, SVG Export Plug-In . SVG Version: 6.00 Build 0)  -->
<svg t="1711374580225" class="icon" viewBox="0 0 1024 1024" version="1.1" xmlns="http://www.w3.org/2000/svg" p-id="22476" width="200" height="200"><path d="M372.224 722.944h279.552c77.312 0 150.016-30.208 205.312-85.504 54.784-54.784 85.504-128 85.504-205.312s-30.208-150.016-85.504-205.312c-54.784-54.784-128-85.504-205.312-85.504H372.224c-77.312 0-150.016 30.208-205.312 85.504C112.128 282.624 81.92 355.328 81.92 432.64s30.208 150.016 85.504 205.312c54.784 54.784 127.488 84.992 204.8 84.992z m0-496.128h279.552c113.664 0 205.824 92.16 205.824 205.824s-92.16 205.824-205.824 205.824H372.224c-113.664 0-205.824-92.16-205.824-205.824s92.16-205.824 205.824-205.824zM495.104 797.184c-4.608-6.656-14.336-8.192-20.48-3.584-3.072 2.048-4.608 5.12-6.656 7.68l-59.904 93.696h23.552c16.896-27.136 33.792-54.272 51.2-81.408l27.648 44.544H457.728c4.096 6.144 7.68 12.288 11.776 18.432h53.248c3.584 6.144 7.168 12.288 11.264 18.432h23.552l-7.68-12.288c-18.432-28.672-36.864-57.344-54.784-85.504zM937.984 794.112c-2.56-2.048-6.144-3.584-9.728-2.56-3.584 0.512-7.168 3.072-8.704 6.656-2.048 4.096-1.536 9.216 1.536 12.288 3.584 4.608 10.24 5.632 15.36 2.56 3.584-2.048 5.632-6.144 5.632-10.24 0-3.072-1.536-6.656-4.096-8.704z m-8.704 17.92c-5.12-0.512-9.216-6.144-7.68-11.264 0.512-3.072 2.56-5.12 5.632-6.144 4.608-2.048 10.752 1.024 11.776 6.144 2.048 5.632-3.584 11.776-9.728 11.264zM267.776 816.128c-8.704-14.336-25.088-23.552-41.984-24.064H161.28c-15.36 0.512-30.72 8.704-39.424 21.504-7.168 10.24-10.24 23.04-9.216 35.328 1.536 11.776 6.656 22.528 14.848 30.72 9.728 9.728 23.04 15.36 36.864 15.36h59.904c14.848 0 29.184-6.656 38.912-17.92 9.728-11.264 14.336-26.624 12.288-40.96-1.536-7.168-3.584-13.824-7.68-19.968z m-12.288 31.232c-1.536 14.336-13.312 27.136-27.648 29.184-3.072 0.512-6.144 0.512-8.704 0.512H163.84c-6.656-0.512-13.312-3.072-18.944-7.168-6.144-5.12-10.752-11.776-12.288-19.968-1.536-9.216 0.512-18.944 6.144-26.112 3.072-4.096 7.168-7.68 12.288-9.728 5.12-3.072 11.264-3.584 17.408-3.584H220.16c5.632 0 11.776 1.024 17.408 3.584 12.288 5.632 19.968 19.968 17.92 33.28zM398.336 802.816c-6.656-7.168-16.384-11.264-26.112-11.264H286.208v102.912h19.968v-84.992h62.976c4.608 0 9.216 1.024 12.8 3.584 4.096 3.072 6.656 8.704 6.144 14.336-0.512 4.096-2.048 7.68-5.12 10.752-2.56 2.56-6.656 4.096-10.24 4.608H315.392c6.656 6.144 13.824 12.288 20.992 18.432 12.8 11.264 25.6 22.528 38.4 33.28h29.184c-1.024-1.024-2.56-2.048-4.096-3.584-11.776-9.728-23.552-19.968-35.84-30.208H373.76c9.216 0 17.92-4.096 24.064-10.24 4.096-4.096 7.168-9.216 8.704-14.848 1.536-4.608 1.536-9.216 1.024-14.336-1.024-6.144-4.096-12.8-9.216-18.432zM605.696 876.544c-4.096 0-7.68 0.512-11.776-0.512-10.752-2.048-19.968-9.728-24.576-19.456-3.584-8.192-3.584-17.92 0-26.624 4.608-10.752 15.872-18.944 27.648-19.456 5.632-0.512 11.264 0 16.896 0h44.032c3.584-6.144 7.68-12.288 11.776-18.432h-64.512c-4.608 0-8.704 0-13.312 0.512-13.824 1.536-27.136 9.728-35.328 20.992-7.168 10.24-10.752 23.04-9.216 35.328 1.024 11.264 6.144 22.016 14.336 30.208 7.68 7.68 17.408 13.312 28.16 14.848 3.584 0.512 7.168 1.024 10.24 0.512h59.392c4.096-6.144 7.68-12.288 11.776-18.432-21.504 0.512-43.52 0.512-65.536 0.512zM700.416 876.544v-84.48h-19.968V885.76c0 5.12 5.12 9.216 10.24 9.216h90.624c3.584-6.144 8.192-12.288 11.776-18.432h-92.672zM825.344 872.96c-8.192-4.096-13.824-11.776-16.384-19.968h84.48c4.096-6.144 7.68-12.288 11.776-17.92H808.96c0.512-2.048 1.024-3.584 2.048-5.632 4.096-8.704 12.8-15.36 22.528-17.92 2.56-0.512 5.12-0.512 8.192-1.024h57.856c3.584-6.144 7.68-12.288 11.776-18.432h-65.536c-4.096 0-8.192 0-12.288 0.512l-7.68 1.536c-17.408 5.12-31.744 19.968-35.84 37.888-2.048 9.216-1.536 18.944 1.024 27.648 3.072 8.704 8.192 16.896 15.36 23.04 7.168 6.144 15.872 10.24 25.088 11.776 3.072 0.512 6.656 1.024 10.24 0.512h59.904c3.584-6.144 8.192-12.288 11.776-18.432H839.68c-5.632-0.512-10.24-1.536-14.336-3.584z" fill="#d81e06" p-id="22477"></path><path d="M934.912 801.792c0.512-1.536 0.512-3.584-1.024-4.608-2.56-1.536-5.632-1.024-8.192-1.024v13.312h2.56v-5.12h1.536c1.024 1.536 1.536 3.072 2.56 4.608h3.072c-0.512-2.048-2.048-3.584-3.072-5.632 1.536 0 2.56-0.512 2.56-1.536z m-2.56-0.512c-1.024 0.512-2.56 0.512-3.584 1.024v-3.584c1.024 0 2.56-0.512 3.584 0.512v2.048z" fill="#d81e06" p-id="22478"></path></svg>
