<?xml version="1.0" encoding="utf-8"?>
<!-- Generator: Adobe Illustrator 27.0.0, SVG Export Plug-In . SVG Version: 6.00 Build 0)  -->
<svg version="1.1" id="图层_1" xmlns="http://www.w3.org/2000/svg" xmlns:xlink="http://www.w3.org/1999/xlink" x="0px" y="0px"
	 viewBox="0 0 64 64" style="enable-background:new 0 0 64 64;" xml:space="preserve">
<style type="text/css">
	.st0{fill:#448EF7;}
</style>
<g>
	<path class="st0" d="M8.7,58h21.9V6H8.7V58z M14.2,11.5h10.9v4.1H14.2V11.5z M14.2,21.1h10.9v2.7H14.2V21.1z M14.2,29.3h10.9v23.3
		H14.2V29.3z M33.4,6v52h21.9V6H33.4z M38.8,52.5V11.5h10.9v4.1H38.8v5.5h10.9v2.7H38.8v5.5h10.9v23.3H38.8z M38.8,52.5"/>
	<path class="st0" d="M16.9,33.4h5.5v5.5h-5.5V33.4z M16.9,41.6h5.5v5.5h-5.5V41.6z M41.6,33.4h5.5v5.5h-5.5V33.4z M41.6,41.6h5.5
		v5.5h-5.5V41.6z M41.6,41.6"/>
</g>
</svg>
