<?xml version="1.0" encoding="utf-8"?>
<!-- Generator: Adobe Illustrator 27.0.0, SVG Export Plug-In . SVG Version: 6.00 Build 0)  -->
<svg version="1.1" id="图层_1" xmlns="http://www.w3.org/2000/svg" xmlns:xlink="http://www.w3.org/1999/xlink" x="0px" y="0px"
	 viewBox="0 0 64 64" style="enable-background:new 0 0 64 64;" xml:space="preserve">
<style type="text/css">
	.st0{fill:#00A3FF;}
	.st1{fill:#00C8DC;}
	.st2{fill:#006EFF;}
</style>
<g id="XMLID_19_">
	<path id="XMLID_22_" class="st0" d="M52.5,44.8c-0.9,0.9-2.7,2.3-5.9,2.3c-1.4,0-2.9,0-3.6,0c-0.9,0-7.7,0-15.8,0
		c5.9-5.6,10.8-10.4,11.3-10.8c0.5-0.5,1.6-1.6,2.7-2.5c2.3-2,4.1-2.3,5.6-2.3c2.3,0,4.1,0.9,5.6,2.3C55.6,36.7,55.6,41.9,52.5,44.8
		 M56.3,30.2c-2.3-2.5-5.6-4.1-9.2-4.1c-3.2,0-5.9,1.1-8.3,2.9c-0.9,0.9-2.3,1.8-3.4,3.2C34.5,33.1,15.1,52,15.1,52
		c1.1,0.2,2.5,0.2,3.6,0.2c1.1,0,23.6,0,24.5,0c1.8,0,3.2,0,4.5-0.2c2.9-0.2,5.9-1.4,8.3-3.6C61.3,43.5,61.3,35.2,56.3,30.2z"/>
	<path id="XMLID_2_" class="st1" d="M24.8,28.8c-2.5-1.8-5-2.7-7.9-2.7c-3.6,0-7,1.6-9.2,4.1c-5,5.2-5,13.3,0.2,18.5
		c2.3,2,4.5,3.2,7.2,3.4l5.2-5c-0.9,0-2,0-2.9,0c-2.9-0.2-4.7-1.1-5.9-2.3c-3.2-3.2-3.2-8.1-0.2-11.3c1.6-1.6,3.4-2.3,5.6-2.3
		c1.4,0,3.4,0.2,5.4,2.3c0.9,0.9,3.4,2.7,4.3,3.6h0.2l3.4-3.4v-0.2C28.6,32,26.1,30,24.8,28.8"/>
	<path id="XMLID_1_" class="st2" d="M48.4,23.2c-2.5-6.8-9-11.5-16.4-11.5c-8.8,0-15.8,6.5-17.1,14.6c0.7,0,1.4-0.2,2.3-0.2
		c0.9,0,2,0.2,2.9,0.2l0,0c1.1-5.6,6.1-9.7,11.9-9.7c5,0,9.2,2.9,11.3,7.2c0,0,0.2,0.2,0.2,0C45.1,23.7,46.9,23.2,48.4,23.2
		C48.4,23.4,48.4,23.4,48.4,23.2"/>
</g>
</svg>
