<?xml version="1.0" encoding="utf-8"?>
<!-- Generator: Adobe Illustrator 27.0.0, SVG Export Plug-In . SVG Version: 6.00 Build 0)  -->
<svg version="1.1" id="图层_1" xmlns="http://www.w3.org/2000/svg" xmlns:xlink="http://www.w3.org/1999/xlink" x="0px" y="0px"
	 viewBox="0 0 64 64" style="enable-background:new 0 0 64 64;" xml:space="preserve">
<style type="text/css">
	.st0{fill:#0084CF;}
	.st1{fill:url(#SVGID_1_);}
	.st2{fill:#8DC21F;}
</style>
<g>
	<g id="图层_2_00000147941632801498135140000011111370756008362389_">
		<g id="图层_1-2_00000042724672193799763430000015857830180738310806_">
			<path class="st0" d="M44.8,22H42c-2.5-7.4-10.5-11.4-17.9-8.9c-4.5,1.5-7.9,5.1-9.2,9.7C7.4,24.5,2.6,32.1,4.4,39.7
				c1.1,4.7,4.4,8.5,8.9,10.1l1-3.3C8.8,44.4,6,38.3,8.1,32.8c1.1-2.9,3.4-5.2,6.4-6.3c1.1-0.4,2.3-0.6,3.5-0.6
				c0.1-1.2,0.3-2.4,0.8-3.5c2.3-5.4,8.5-8,13.9-5.8c2.5,1,4.5,2.9,5.6,5.4c0.5,1.1,0.8,2.2,1,3.4h5.6c6.3,0.3,11.1,5.6,10.9,11.8
				c-0.3,5.9-5,10.6-10.9,10.9h-5.3c-0.4,0-0.8,0-1.2,0v3.5h1.1h5.2c8.2,0.3,15-6.1,15.3-14.2s-6.1-15-14.2-15.3
				C45.4,22.1,45,22.1,44.8,22L44.8,22z"/>
			
				<linearGradient id="SVGID_1_" gradientUnits="userSpaceOnUse" x1="49.5628" y1="14.8038" x2="38.9103" y2="14.8038" gradientTransform="matrix(1 0 0 -1 0 64.11)">
				<stop  offset="0" style="stop-color:#FFFFFF"/>
				<stop  offset="0.12" style="stop-color:#FBFBFB"/>
				<stop  offset="0.25" style="stop-color:#EFEEEE"/>
				<stop  offset="0.39" style="stop-color:#DBD9D9"/>
				<stop  offset="0.52" style="stop-color:#BFBCBB"/>
				<stop  offset="0.66" style="stop-color:#9B9695"/>
				<stop  offset="0.8" style="stop-color:#6F6866"/>
				<stop  offset="0.94" style="stop-color:#3C322F"/>
				<stop  offset="1" style="stop-color:#221714"/>
			</linearGradient>
			<path class="st1" d="M50,47c-1.5,0.7-3.2,1.1-4.9,1.1h-5.2c-0.4,0-0.8,0-1.2,0v3.5h1.1H45c1.5,0,2.9-0.2,4.3-0.6L50,47z"/>
			<polygon class="st0" points="29.5,29.7 22.5,29.7 19,29.7 18.1,33.2 18.1,33.2 15.8,41.9 19.3,41.9 21.6,33.2 28.5,33.2 			"/>
			<path class="st0" d="M46.8,41.9h-7l-0.9,3.5h4.3c-0.2,0.5-0.5,1-0.9,1.4c-1.6,1.7-4.4,1.8-6.1,0.2c-0.1,0-0.1-0.1-0.2-0.2
				c-1.9-2.1-5.2-6.6-7.1-8.6C26,35,21.1,34.9,18,37.9c-0.1,0.1-0.2,0.1-0.2,0.2c-1,1-1.8,2.4-2.1,3.8h3.7c0.2-0.5,0.5-1,0.9-1.4
				c1.6-1.7,4.4-1.8,6.1-0.2c0.1,0,0.1,0.1,0.2,0.2c1.9,2.1,5.2,6.6,7.1,8.6c2.9,3.1,7.8,3.2,10.8,0.3c0.1-0.1,0.2-0.2,0.3-0.3
				C46.6,47.3,47.4,44.5,46.8,41.9z"/>
			<polygon class="st0" points="28.9,44.8 28.9,44.8 28.9,44.8 28.9,44.8 			"/>
			<path class="st2" d="M42.9,38.4c-0.2,0-0.4,0.1-0.4,0.4c0,0,0,0,0,0c0,0.2,0.1,0.4,0.3,0.5c0.2,0,0.4-0.1,0.5-0.3
				c0-0.1,0-0.1,0-0.2C43.3,38.6,43.1,38.5,42.9,38.4C42.9,38.4,42.9,38.4,42.9,38.4z M43.1,37.9c0,0.2,0.2,0.4,0.4,0.4
				c0.2,0,0.4-0.2,0.4-0.4s-0.2-0.4-0.4-0.4S43.1,37.6,43.1,37.9L43.1,37.9z M44.4,38.3c-0.2,0-0.4,0.2-0.4,0.4l0,0
				c0,0.2,0.2,0.4,0.4,0.4c0.2,0,0.4-0.2,0.4-0.4C44.8,38.4,44.7,38.3,44.4,38.3z M44.4,40.3c-0.2,0-0.3,0.1-0.3,0.3
				c0,0.2,0.2,0.3,0.3,0.3c0.2,0,0.3-0.1,0.3-0.3C44.7,40.5,44.6,40.4,44.4,40.3L44.4,40.3z M45.2,39.2c-0.2,0-0.4,0.2-0.4,0.4
				c0,0.2,0.2,0.4,0.4,0.4c0.2,0,0.4-0.2,0.4-0.4C45.6,39.4,45.4,39.2,45.2,39.2L45.2,39.2z M45.9,40.3c-0.2,0-0.3,0.1-0.3,0.3
				c0,0,0,0,0,0c0,0.2,0.1,0.3,0.3,0.3c0.2,0,0.3-0.1,0.4-0.3c0,0,0,0,0,0C46.2,40.5,46.1,40.3,45.9,40.3L45.9,40.3z M43.8,39.3
				c-0.2,0-0.4,0.2-0.4,0.4c0,0.2,0.2,0.4,0.4,0.4c0.2,0,0.4-0.2,0.4-0.4c-0.1-0.1-0.2-0.2-0.4-0.2L43.8,39.3z M43,40.3
				c-0.2,0-0.3,0.1-0.3,0.3c0,0.2,0.1,0.3,0.3,0.3c0.2,0,0.3-0.1,0.3-0.3C43.3,40.5,43.2,40.4,43,40.3L43,40.3z M42.3,39.4
				c-0.2,0-0.4,0.2-0.4,0.4c0,0.2,0.2,0.4,0.4,0.4c0.2,0,0.4-0.2,0.4-0.4C42.7,39.6,42.5,39.4,42.3,39.4L42.3,39.4z M42.2,39
				c0.1-0.1,0.1-0.2,0-0.2c-0.1-0.1-0.1-0.3,0-0.4c0-0.1,0.1-0.2,0.3-0.3c0.1,0,0.1,0,0.2,0c0.1,0.1,0.2,0.1,0.2,0
				c0-0.1,0-0.1,0-0.2c-0.1-0.1-0.1-0.2,0-0.4c0-0.1,0.1-0.2,0.2-0.3h0.2c0.1,0,0.1,0,0.2,0c0-0.1,0-0.1,0-0.2
				c-3.1-2-7.1-1.5-9.7,1.1c-0.6,0.6-1.3,1.5-2.1,2.4l1.4,1.8l0.8,1c0.9-1.1,1.7-2.1,2.3-2.8c1.4-1.5,3.7-1.8,5.4-0.6
				c0,0,0.1,0.1,0.1,0c0,0,0,0,0,0 M41.9,39.9c-0.1-0.1-0.1-0.2,0-0.4c0-0.1,0.1-0.2,0.2-0.3h0.2c0.1-0.1,0-0.2-0.1-0.3c0,0,0,0,0,0
				L41.9,39.9z M42.1,36.6c0.2,0,0.4,0.2,0.4,0.4c0,0.2-0.2,0.4-0.4,0.4c-0.2,0-0.4-0.2-0.4-0.4S41.8,36.6,42.1,36.6L42.1,36.6z
				 M40.8,36.2c0.2,0,0.4,0.2,0.4,0.4l0,0c0,0.2-0.2,0.4-0.4,0.4c-0.2,0-0.4-0.2-0.4-0.4l0,0C40.4,36.4,40.6,36.2,40.8,36.2
				C40.8,36.2,40.8,36.2,40.8,36.2z M39.6,36c0.2,0,0.4,0.2,0.4,0.4s-0.2,0.4-0.4,0.4c-0.2,0-0.4-0.2-0.4-0.4S39.4,36,39.6,36
				L39.6,36z M38.1,36.4c0-0.2,0.2-0.4,0.4-0.4s0.4,0.2,0.4,0.4s-0.2,0.4-0.4,0.4S38.1,36.6,38.1,36.4z M38.9,37.9
				c-0.2,0-0.4-0.2-0.4-0.4c0-0.2,0.2-0.4,0.4-0.4c0.2,0,0.4,0.2,0.4,0.4C39.3,37.7,39.1,37.9,38.9,37.9z M39.6,39
				c-0.2,0-0.4-0.1-0.4-0.4c0,0,0,0,0,0c0-0.2,0.2-0.4,0.4-0.4c0,0,0,0,0,0c0.2,0,0.4,0.1,0.5,0.3c0,0.2-0.1,0.4-0.3,0.5
				C39.7,39,39.7,39,39.6,39z M40.2,38c-0.2,0-0.4-0.1-0.4-0.4c0,0,0,0,0,0c0-0.2,0.1-0.4,0.3-0.5c0.2,0,0.4,0.1,0.5,0.3
				c0,0.1,0,0.1,0,0.2C40.6,37.8,40.5,38,40.2,38C40.3,38,40.2,38,40.2,38z M40.9,39.4c-0.2,0-0.4-0.2-0.4-0.4s0.2-0.4,0.4-0.4
				c0.2,0,0.4,0.2,0.4,0.4C41.4,39.2,41.2,39.4,40.9,39.4C41,39.4,41,39.4,40.9,39.4L40.9,39.4z M41.5,38.4c-0.2,0-0.4-0.2-0.4-0.4
				c0-0.2,0.2-0.4,0.4-0.4s0.4,0.2,0.4,0.4S41.7,38.4,41.5,38.4z"/>
			<path class="st0" d="M16.7,45.4c0-0.2-0.2-0.3-0.4-0.4c-0.2,0-0.3,0.1-0.4,0.3c0,0.2,0.2,0.4,0.4,0.4
				C16.6,45.7,16.7,45.6,16.7,45.4L16.7,45.4z M17.1,46.6c0-0.2-0.2-0.4-0.4-0.4l0,0c-0.2,0-0.4,0.1-0.4,0.3c0,0,0,0,0,0
				c0,0.2,0.2,0.4,0.4,0.4C17,46.9,17.1,46.7,17.1,46.6L17.1,46.6z M17.3,47.2c-0.2,0-0.4,0.2-0.4,0.4c0,0.2,0.2,0.4,0.4,0.4
				s0.4-0.2,0.4-0.4C17.7,47.4,17.5,47.2,17.3,47.2z M20.5,48.1c0.2,0,0.4-0.2,0.4-0.4c0,0,0,0,0,0c0.1-0.2-0.1-0.4-0.3-0.5
				c-0.2-0.1-0.4,0.1-0.5,0.3c0,0.1,0,0.1,0,0.2C20.1,47.9,20.3,48.1,20.5,48.1L20.5,48.1z M17.6,45.7c0.2,0,0.4-0.2,0.4-0.4
				c0-0.2-0.2-0.4-0.4-0.4c-0.2,0-0.3,0.1-0.4,0.3C17.3,45.5,17.4,45.7,17.6,45.7z M18,48c-0.2,0-0.4,0.2-0.4,0.4c0,0,0,0,0,0
				c0,0.2,0.2,0.4,0.4,0.4c0.2,0,0.4-0.2,0.4-0.4C18.5,48.2,18.3,48,18,48C18,48,18,48,18,48z M19.5,47c0.2,0,0.4-0.2,0.4-0.4l0,0
				c0-0.2-0.1-0.4-0.3-0.4c0,0,0,0,0,0c-0.2,0-0.4,0.2-0.4,0.4C19.2,46.8,19.3,47,19.5,47L19.5,47L19.5,47z M18.9,45.7
				c0.2,0,0.3-0.1,0.3-0.3c0-0.2-0.1-0.3-0.3-0.3c-0.2,0-0.3,0.1-0.3,0.3C18.6,45.5,18.7,45.7,18.9,45.7
				C18.9,45.7,18.9,45.7,18.9,45.7z M19.4,48.5c0,0.2,0.2,0.4,0.4,0.4c0,0,0,0,0,0c0.2,0,0.4-0.2,0.4-0.4c0-0.2-0.2-0.4-0.4-0.4h0
				C19.6,48,19.4,48.2,19.4,48.5C19.4,48.5,19.4,48.5,19.4,48.5L19.4,48.5z M17.8,46.5c0,0.2,0.2,0.4,0.4,0.4c0.2,0,0.3-0.2,0.3-0.3
				c0-0.2-0.2-0.4-0.4-0.4C17.9,46.2,17.8,46.4,17.8,46.5L17.8,46.5z M18.8,47.9c0.2,0,0.4-0.2,0.4-0.4c0,0,0,0,0,0
				c0-0.2-0.1-0.4-0.4-0.4c0,0,0,0,0,0c-0.2,0-0.4,0.1-0.4,0.4c0,0,0,0,0,0C18.4,47.8,18.6,47.9,18.8,47.9
				C18.8,48,18.8,48,18.8,47.9L18.8,47.9z M28.8,43.9C28,45,27.2,46,26.5,46.7c-1.3,1.3-3.3,1.7-4.9,0.9c-0.1,0-0.1,0-0.2,0l0,0
				c0,0.1,0,0.1,0,0.2c0,0.1,0,0.2,0,0.3c0,0.1-0.1,0.2-0.3,0.3c-0.1,0-0.2,0-0.3,0c0-0.1-0.1-0.1-0.2,0c0,0,0,0,0,0h-0.1
				c0,0.1,0,0.1,0,0.2c0,0.1,0,0.2,0,0.3c0,0.1-0.1,0.2-0.3,0.3c-0.1,0-0.2,0-0.3,0c-0.1,0-0.1,0-0.2,0l0,0c0,0.1,0,0.1,0,0.2
				c0,0.1,0,0.2,0,0.3c0,0.1-0.1,0.2-0.2,0.3c-0.1,0.1-0.3,0.1-0.4,0c0,0-0.1,0-0.2,0c-0.1,0-0.1,0.1,0,0.2c0,0,0,0,0,0
				c3.1,2.1,7.3,1.7,9.9-1c0.6-0.6,1.3-1.5,2.1-2.5l-1.2-1.5L28.8,43.9z M23,48.3c0.2,0,0.4,0.2,0.4,0.4l0,0c0,0.2-0.2,0.4-0.4,0.4
				c-0.2,0-0.4-0.2-0.4-0.4C22.6,48.5,22.8,48.3,23,48.3z M22,48.1c0.2,0,0.4,0.1,0.4,0.4c0,0,0,0,0,0c0,0.2-0.1,0.4-0.4,0.4
				c0,0,0,0,0,0c-0.2,0-0.4-0.2-0.4-0.4c0,0,0,0,0,0C21.6,48.3,21.8,48.1,22,48.1L22,48.1z M20.5,50.7c-0.2,0-0.4-0.2-0.4-0.4
				c0-0.2,0.2-0.4,0.4-0.4s0.4,0.2,0.4,0.4S20.7,50.7,20.5,50.7L20.5,50.7z M20.8,49.4c0-0.2,0.2-0.4,0.4-0.4c0.2,0,0.4,0.2,0.4,0.4
				c0,0.2-0.2,0.4-0.4,0.4C21,49.8,20.8,49.6,20.8,49.4z M21.7,51.1c-0.2,0-0.4-0.2-0.4-0.4s0.2-0.4,0.4-0.4c0,0,0,0,0,0
				c0.2,0,0.4,0.2,0.4,0.4C22.1,50.9,21.9,51.1,21.7,51.1z M21.9,49.7c0-0.2,0.2-0.4,0.4-0.4c0.2,0,0.4,0.2,0.4,0.4l0,0
				c0,0.2-0.1,0.4-0.4,0.4c0,0,0,0,0,0C22.1,50.1,21.9,49.9,21.9,49.7z M22.8,51.3c-0.2,0-0.4-0.2-0.4-0.4c0-0.2,0.2-0.4,0.4-0.4
				l0,0c0.2,0,0.4,0.2,0.4,0.4C23.2,51.1,23.1,51.3,22.8,51.3z M23.5,50.2c-0.2,0-0.4-0.2-0.4-0.4c0-0.2,0.2-0.4,0.4-0.4
				c0.2,0,0.4,0.2,0.4,0.4C23.8,50,23.7,50.2,23.5,50.2z M24.1,51.3c-0.2,0-0.4-0.2-0.4-0.4s0.2-0.4,0.4-0.4c0.2,0,0.4,0.2,0.4,0.4
				C24.5,51.1,24.3,51.3,24.1,51.3z M19.4,49.3c0-0.2-0.2-0.4-0.4-0.5c-0.2,0-0.4,0.2-0.4,0.4c0,0.2,0.2,0.4,0.4,0.4
				C19.2,49.7,19.4,49.6,19.4,49.3z"/>
		</g>
	</g>
</g>
</svg>
